<svg width="848" height="1404" viewBox="0 0 848 1404" fill="none" xmlns="http://www.w3.org/2000/svg">
<g filter="url(#filter0_d_2710_1170)">
<path d="M637.77 75.3777H320.807C319.092 75.3777 317.927 77.1214 318.584 78.7061L331.928 110.888C332.049 111.18 332.111 111.493 332.111 111.81V189.074C332.111 189.274 332.087 189.472 332.038 189.665L314.713 258.097C314.621 258.46 314.615 258.84 314.696 259.205L319.284 280.06C319.358 280.397 319.359 280.746 319.286 281.084L307.201 337.194C307.147 337.443 307.133 337.699 307.16 337.953L310.418 368.906C310.54 370.058 309.824 371.132 308.714 371.464L274.2 381.778C273.181 382.083 272.482 383.021 272.482 384.084V426.799C272.482 428.128 271.405 429.206 270.076 429.206H200.92C200.692 429.206 200.466 429.238 200.247 429.302L132.93 448.9C131.954 449.185 131.261 450.052 131.2 451.067L122.742 591.897C122.641 593.578 120.889 594.638 119.353 593.947L43.06 559.636C41.4675 558.92 39.6663 560.085 39.6663 561.831V588.324C39.6663 588.639 39.6044 588.951 39.4843 589.242L28.6802 615.421C28.4172 616.058 28.4449 616.785 28.7423 617.406C43.311 647.869 40.3996 674.548 36.5275 686.152C36.1172 687.382 36.6551 688.755 37.8347 689.293L151.355 741.045C153.002 741.796 153.28 744.033 151.934 745.242C131.534 763.554 112.508 806.333 122.533 869.408L153.534 1298.12C153.611 1299.17 154.369 1300.06 155.401 1300.29L401.515 1356.23C403.021 1356.57 404.455 1355.42 404.455 1353.88V1240.17C404.455 1239.99 404.435 1239.81 404.393 1239.63L393.777 1193.78C393.293 1191.69 395.578 1190.06 397.397 1191.2L409.241 1198.6C411.197 1199.82 413.587 1197.86 412.765 1195.7L401.192 1165.34C401.088 1165.06 401.035 1164.77 401.035 1164.48V1126.55C401.035 1125.22 402.112 1124.15 403.441 1124.15H544.544C545.874 1124.15 546.951 1123.07 546.951 1121.74V1024.45C546.951 1024.07 546.86 1023.69 546.686 1023.35L538.479 1007.33C538.034 1006.46 537.109 1005.95 536.137 1006.03L518.965 1007.46C517.693 1007.57 516.559 1006.66 516.382 1005.4L505.65 928.936C505.458 927.564 506.461 926.313 507.842 926.203L569.649 921.26C571.112 921.143 572.13 919.756 571.804 918.326L534.724 755.63C534.691 755.485 534.672 755.336 534.666 755.187L530.301 640.38C530.294 640.194 530.308 640.007 530.344 639.824L546.931 555.625C547.201 554.253 548.58 553.399 549.928 553.769L637.226 577.707C637.545 577.795 637.843 577.947 638.101 578.155L711.995 637.774C713.35 638.868 715.382 638.204 715.831 636.521L726.525 596.421C726.87 595.124 728.211 594.36 729.503 594.724L773.636 607.162C774.67 607.453 775.772 607.024 776.336 606.11L793.439 578.421C793.673 578.041 793.798 577.603 793.798 577.156V482.749C793.798 479.949 789.825 479.406 789.073 482.103L781.6 508.901C781.298 509.986 780.299 510.725 779.187 510.544C755.709 506.727 667.494 456.147 624.013 429.936C623.251 429.476 622.326 429.491 621.562 429.947L589.612 449.034C589.239 449.257 588.813 449.374 588.378 449.374H572.388C570.972 449.374 569.862 448.158 569.992 446.747L595.578 168.339C595.605 168.042 595.687 167.754 595.82 167.487L639.925 78.8565C640.721 77.2566 639.557 75.3777 637.77 75.3777Z" fill="#1C1C1C"/>
<path d="M637.77 75.3777H320.807C319.092 75.3777 317.927 77.1214 318.584 78.7061L331.928 110.888C332.049 111.18 332.111 111.493 332.111 111.81V189.074C332.111 189.274 332.087 189.472 332.038 189.665L314.713 258.097C314.621 258.46 314.615 258.84 314.696 259.205L319.284 280.06C319.358 280.397 319.359 280.746 319.286 281.084L307.201 337.194C307.147 337.443 307.133 337.699 307.16 337.953L310.418 368.906C310.54 370.058 309.824 371.132 308.714 371.464L274.2 381.778C273.181 382.083 272.482 383.021 272.482 384.084V426.799C272.482 428.128 271.405 429.206 270.076 429.206H200.92C200.692 429.206 200.466 429.238 200.247 429.302L132.93 448.9C131.954 449.185 131.261 450.052 131.2 451.067L122.742 591.897C122.641 593.578 120.889 594.638 119.353 593.947L43.06 559.636C41.4675 558.92 39.6663 560.085 39.6663 561.831V588.324C39.6663 588.639 39.6044 588.951 39.4843 589.242L28.6802 615.421C28.4172 616.058 28.4449 616.785 28.7423 617.406C43.311 647.869 40.3996 674.548 36.5275 686.152C36.1172 687.382 36.6551 688.755 37.8347 689.293L151.355 741.045C153.002 741.796 153.28 744.033 151.934 745.242C131.534 763.554 112.508 806.333 122.533 869.408L153.534 1298.12C153.611 1299.17 154.369 1300.06 155.401 1300.29L401.515 1356.23C403.021 1356.57 404.455 1355.42 404.455 1353.88V1240.17C404.455 1239.99 404.435 1239.81 404.393 1239.63L393.777 1193.78C393.293 1191.69 395.578 1190.06 397.397 1191.2L409.241 1198.6C411.197 1199.82 413.587 1197.86 412.765 1195.7L401.192 1165.34C401.088 1165.06 401.035 1164.77 401.035 1164.48V1126.55C401.035 1125.22 402.112 1124.15 403.441 1124.15H544.544C545.874 1124.15 546.951 1123.07 546.951 1121.74V1024.45C546.951 1024.07 546.86 1023.69 546.686 1023.35L538.479 1007.33C538.034 1006.46 537.109 1005.95 536.137 1006.03L518.965 1007.46C517.693 1007.57 516.559 1006.66 516.382 1005.4L505.65 928.936C505.458 927.564 506.461 926.313 507.842 926.203L569.649 921.26C571.112 921.143 572.13 919.756 571.804 918.326L534.724 755.63C534.691 755.485 534.672 755.336 534.666 755.187L530.301 640.38C530.294 640.194 530.308 640.007 530.344 639.824L546.931 555.625C547.201 554.253 548.58 553.399 549.928 553.769L637.226 577.707C637.545 577.795 637.843 577.947 638.101 578.155L711.995 637.774C713.35 638.868 715.382 638.204 715.831 636.521L726.525 596.421C726.87 595.124 728.211 594.36 729.503 594.724L773.636 607.162C774.67 607.453 775.772 607.024 776.336 606.11L793.439 578.421C793.673 578.041 793.798 577.603 793.798 577.156V482.749C793.798 479.949 789.825 479.406 789.073 482.103L781.6 508.901C781.298 509.986 780.299 510.725 779.187 510.544C755.709 506.727 667.494 456.147 624.013 429.936C623.251 429.476 622.326 429.491 621.562 429.947L589.612 449.034C589.239 449.257 588.813 449.374 588.378 449.374H572.388C570.972 449.374 569.862 448.158 569.992 446.747L595.578 168.339C595.605 168.042 595.687 167.754 595.82 167.487L639.925 78.8565C640.721 77.2566 639.557 75.3777 637.77 75.3777Z" stroke="#1C1C1C" stroke-width="9.62641"/>
</g>
<path d="M419.806 180.9L364.988 155.438M334.489 301.511C324.19 298.521 323.735 291.091 324.289 287.215L338.763 223.116C338.804 222.936 338.824 222.759 338.822 222.574C338.677 205.569 337.815 169.295 335.502 158.059C333.246 147.103 339.664 145.159 343.462 145.557C343.692 145.581 343.914 145.65 344.124 145.748L364.988 155.438M334.489 301.511C336.151 296.528 341.316 292.198 350.453 295.105C352.348 295.708 354.159 297.187 355.383 299.258M334.489 301.511C332.413 310.647 339.04 317.116 344.223 317.116M356.682 307.564C355.383 314.057 351.345 317.116 344.223 317.116M356.682 307.564C357.325 304.349 356.688 301.467 355.383 299.258M356.682 307.564L378.9 324.591M344.223 317.116V391.452M355.383 299.258L363.536 295.733C364.417 295.352 364.988 294.484 364.988 293.524V261.467M364.988 155.438V261.467M364.988 261.467H378.9M414.431 261.467H378.9M378.9 261.467V324.591M378.9 324.591H423.958M576.371 249.008L567.49 322.473C567.344 323.682 566.318 324.591 565.101 324.591H553.737M540.24 324.591V237.38M540.24 324.591H553.737M540.24 324.591H423.958M553.737 324.591V408.895M485.522 471.264H580.193C581.522 471.264 582.6 472.341 582.6 473.67V537.635M485.522 471.264V484.147C485.522 485.476 484.445 486.554 483.115 486.554H423.958M485.522 471.264C485.522 471.264 485.522 465.247 495.148 465.247C500.392 465.247 540.992 465.247 551.342 465.247C552.671 465.247 553.737 464.17 553.737 462.841V408.895M582.6 556.323V537.635M582.6 537.635H536.502M495.803 537.635C495.803 533.482 492.067 527.252 484.175 527.252C476.284 527.252 472.963 535.558 474.208 540.542M495.803 537.635C495.803 543.033 490.572 549.595 484.591 549.263M495.803 537.635C505.372 537.635 520.306 537.635 520.306 537.635H536.502M474.208 540.542C475.12 544.19 477.116 548.848 484.591 549.263M474.208 540.542H358.342M484.591 549.263V652.67M471.717 791.377V703.655C471.717 703.176 471.86 702.708 472.128 702.311L484.18 684.427C484.448 684.029 484.591 683.561 484.591 683.082V652.67M471.717 791.377L466.067 805.907C465.959 806.185 465.903 806.481 465.903 806.779V840.381C465.765 842.735 464.242 848.272 459.259 851.594C454.369 854.854 434.687 866.909 424.925 872.854C424.56 873.076 424.267 873.388 424.065 873.764L421.783 878.002C421.576 878.385 421.27 878.706 420.896 878.929L374.539 906.545M471.717 791.377L478.509 804.563C478.685 804.904 478.777 805.282 478.777 805.665V810.48M304.355 948.357C302.278 946.696 296.879 944.204 290.651 948.357M304.355 948.357C305.665 950.674 306.339 952.746 306.544 954.586M304.355 948.357L374.539 906.545M290.651 948.357L287.192 941.825C287.009 941.478 286.913 941.092 286.913 940.699V929.253M290.651 948.357C288.055 950.087 286.563 953.788 286.913 957.078M299.787 965.384L319.019 984.215C319.469 984.656 320.073 984.902 320.702 984.902H337.993M299.787 965.384C297.23 966.546 293.337 966.057 290.651 964.138M299.787 965.384C303.247 963.811 307.184 960.332 306.544 954.586M160.664 763.968L145.143 794.602C144.972 794.939 144.883 795.312 144.883 795.69V913.549C144.883 914.04 145.033 914.519 145.313 914.922L155.266 929.253M160.664 763.968L173.246 740.834C173.438 740.481 173.538 740.086 173.538 739.684V727.838M160.664 763.968H200.532M223.788 763.968V929.253M223.788 763.968H251.198M223.788 763.968H200.532M223.788 1033.49L254.935 1033.91M223.788 1033.49V1025.19M223.788 1033.49H180.598M155.266 929.253H223.788M155.266 929.253C155.195 941.89 155.11 961.685 155.088 979.504M223.788 929.253V990.716M223.788 929.253H269.055M286.913 929.253V873.189M286.913 929.253H269.055M173.538 717.455C178.937 715.794 181.844 711.641 179.768 703.335M173.538 717.455C165.648 717.455 161.177 715.113 160.664 706.658M173.538 717.455V727.838M179.768 703.335C178.373 694.268 159.834 692.953 160.664 706.658M179.768 703.335L204.24 690.31C205.025 689.892 205.516 689.075 205.516 688.186V655.577M160.664 706.658H144.883M144.883 612.387C133.532 608.511 108.172 599.347 97.5401 593.699C87.4698 588.349 81.8211 592.265 79.9588 595.281C79.7625 595.599 79.6826 595.97 79.6826 596.343V681.414C79.6826 682.369 80.2478 683.234 81.1228 683.618L133.208 706.455C133.513 706.589 133.842 706.658 134.175 706.658H144.883M144.883 612.387V706.658M144.883 612.387V540.542M284.836 450.839C246.906 453.746 168.97 459.809 160.664 460.806C152.989 461.727 147.559 466.265 145.359 468.915C145.036 469.305 144.883 469.799 144.883 470.305V540.542M284.836 450.839L343.205 409.614C343.844 409.163 344.223 408.43 344.223 407.648V391.452M284.836 450.839V465.374M344.223 391.452H385.837C387.166 391.452 388.243 392.53 388.243 393.859V396.021M284.836 540.542H251.198M284.836 540.542V465.374M284.836 540.542H358.342M217.144 540.542C214.237 527.252 193.472 527.668 193.057 540.542M217.144 540.542C217.144 547.602 211.33 551.755 205.516 552.17M217.144 540.542H251.198M193.057 540.542C192.802 548.428 198.04 552.17 205.516 552.17M193.057 540.542H144.883M205.516 552.17V655.577M205.516 655.577H251.198M251.198 655.577V540.542M251.198 655.577V685.063M251.198 685.063V727.838M251.198 685.063H290.65M329.687 685.063H308.508M308.508 685.063V727.838M308.508 685.063H290.65M308.508 727.838H290.65M308.508 727.838H323.458H251.198M251.198 727.838H290.65M251.198 727.838V763.968M290.65 685.063V727.838M251.198 763.968H284.506C285.835 763.968 286.913 765.045 286.913 766.375V873.189M200.532 763.968V730.244C200.532 728.915 199.455 727.838 198.125 727.838H173.538M536.502 537.635L520.381 600.464C520.331 600.66 520.306 600.861 520.306 601.063V652.67M492.066 984.902V913.803C492.066 912.473 493.143 911.396 494.473 911.396H549.876C551.206 911.396 552.283 910.318 552.283 908.989V875.556C552.283 875.363 552.26 875.171 552.214 874.984L546.294 850.764M492.066 984.902H337.993M492.066 984.902L518.16 1019.56C518.475 1019.98 518.644 1020.48 518.644 1021.01V1071.28M337.993 984.902V1041.38M337.993 1097.86V1075.44M337.993 1097.86V1108.33C337.993 1109.66 336.916 1110.74 335.587 1110.74H311.83M337.993 1097.86H382.429M518.644 1071.28H529.942C531.272 1071.28 532.349 1072.36 532.349 1073.69V1095.45C532.349 1096.78 531.272 1097.86 529.942 1097.86H518.644M518.644 1071.28V1097.86M518.644 1097.86H414.407M337.993 1041.38H412C413.329 1041.38 414.407 1042.46 414.407 1043.79V1097.86M337.993 1041.38V1075.44M414.407 1097.86H382.429M286.913 957.078C287.072 958.578 287.883 959.692 288.359 960.705C288.518 961.043 288.722 961.362 288.925 961.676C289.415 962.434 289.712 963.467 290.651 964.138M286.913 957.078L268.224 969.537C264.764 971.475 257.925 978.092 258.257 989.055C258.548 998.648 258.436 1003.01 258.311 1004.41C258.285 1004.69 258.181 1004.96 258.032 1005.2L255.292 1009.65C255.059 1010.03 254.935 1010.47 254.935 1010.92V1033.91M254.935 1057.58L258.069 1065.02C258.193 1065.32 258.257 1065.63 258.257 1065.95V1147.45C258.257 1147.88 258.375 1148.31 258.597 1148.68L294.048 1208.17C294.27 1208.55 294.388 1208.97 294.388 1209.41V1247.03C294.388 1247.52 294.238 1248 293.96 1248.4L291.078 1252.56C290.799 1252.96 290.65 1253.44 290.65 1253.93V1278.15C290.65 1278.39 290.613 1278.63 290.541 1278.86L288.683 1284.81C288.611 1285.04 288.574 1285.28 288.574 1285.52V1308.83M254.935 1057.58V1033.91M254.935 1057.58L250.323 1064.88C250.081 1065.26 249.952 1065.71 249.952 1066.17V1108.66M288.574 1308.83L274.869 1326.27M288.574 1308.83L306.016 1312.98M306.016 1312.98L318.475 1336.65M306.016 1312.98V1285.73C306.016 1285.35 305.929 1284.98 305.762 1284.65L302.948 1279.02C302.78 1278.69 302.694 1278.32 302.694 1277.94V1263.56M290.651 964.138L273.208 975.351C268.224 978.258 265.456 985.318 265.317 989.055V1004.08C265.317 1004.57 265.467 1005.05 265.745 1005.45L268.627 1009.62C268.906 1010.02 269.055 1010.5 269.055 1010.99V1033.91M306.544 954.586L423.801 883.917C424.176 883.691 424.606 883.571 425.043 883.571H427.86C428.296 883.571 428.724 883.453 429.098 883.229L465.757 861.234C465.854 861.175 465.945 861.113 466.033 861.04C470.501 857.37 479.106 848.278 478.777 840.381V810.48M478.777 810.48H536.447M536.447 810.48L520.374 744.731C520.329 744.544 520.306 744.352 520.306 744.159V652.67M536.447 810.48L546.294 850.764M546.294 850.764H518.144C516.815 850.764 515.737 849.686 515.737 848.357V844.534M515.737 844.534V823.269C515.737 821.94 514.66 820.863 513.331 820.863H494.1C492.771 820.863 491.693 821.94 491.693 823.269V842.128C491.693 843.457 492.771 844.534 494.1 844.534H515.737ZM286.913 873.189H350.027C350.813 873.189 351.551 873.574 352.001 874.219L374.539 906.545M223.788 990.716H237.531C238.707 990.716 239.716 989.866 239.849 988.697C240.894 979.467 239.186 970.624 254.105 961.231C265.317 954.171 269.055 946.28 269.055 941.297V929.253M223.788 990.716V1025.19M155.088 979.504C155.066 996.625 155.103 1011.92 155.266 1017.29C155.594 1028.13 165.677 1032.55 170.859 1033.46C170.986 1033.48 171.111 1033.49 171.24 1033.49H180.598M155.088 979.504C158.746 980.334 166.146 983.74 166.478 990.716C166.804 997.55 166.624 1012.65 166.487 1019.77C166.481 1020.06 166.523 1020.34 166.645 1020.61C167.567 1022.61 170.447 1025.81 176.03 1025.19H180.598M223.788 1025.19H180.598M180.598 1025.19V1033.49M180.598 1033.49V1100.62C180.598 1101.25 180.351 1101.85 179.91 1102.3L160.975 1121.62C160.512 1122.1 160.264 1122.74 160.289 1123.4L161.449 1153.09M285.251 1243.63V1212.31C285.251 1211.88 285.136 1211.46 284.917 1211.08L249.952 1151.85M285.251 1243.63H248.29M285.251 1243.63V1273.53M249.952 1151.85V1108.66M249.952 1151.85H226.695M249.952 1108.66H243.307M243.307 1108.66V1058.74C243.307 1057.41 242.23 1056.33 240.9 1056.33H192.972C191.643 1056.33 190.565 1057.41 190.565 1058.74V1110.41C190.565 1111.73 191.643 1112.81 192.972 1112.81H214.463C214.86 1112.81 215.25 1112.91 215.6 1113.1L226.078 1118.71C226.481 1118.93 226.938 1119.02 227.394 1118.99L241.08 1117.96C242.336 1117.87 243.307 1116.82 243.307 1115.56V1108.66ZM161.449 1153.09L164.402 1228.68C164.817 1233.94 169.718 1244.29 185.997 1243.63H195.133M161.449 1153.09H184.336M248.29 1243.63V1252.43C248.29 1253.76 249.368 1254.84 250.697 1254.84H257.842M248.29 1243.63H225.865M257.842 1254.84H277.031C278.36 1254.84 279.437 1255.92 279.437 1257.25V1266.05M257.842 1254.84V1266.05M257.842 1266.05H279.437M257.842 1266.05V1279.34M279.437 1266.05V1273.53M257.842 1279.34V1290.23C257.842 1291.56 258.92 1292.63 260.249 1292.63H277.031C278.36 1292.63 279.437 1291.56 279.437 1290.23V1279.34M257.842 1279.34H279.437M279.437 1279.34V1273.53M195.133 1243.63V1261.9C195.133 1262.9 195.752 1263.8 196.688 1264.15L225.865 1275.19M195.133 1243.63H225.865M225.865 1275.19H231.764C233.093 1275.19 234.171 1274.11 234.171 1272.78V1250.33C234.171 1249.52 233.759 1248.76 233.076 1248.32L225.865 1243.63M225.865 1275.19V1243.63M285.251 1279.34V1273.53M285.251 1273.53H279.437M302.694 1263.56V1253.71C302.694 1253.36 302.618 1253.02 302.472 1252.7L300.423 1248.26C300.277 1247.94 300.202 1247.6 300.202 1247.25V1206.08C300.202 1205.65 300.087 1205.23 299.87 1204.86L265.649 1146.6C265.432 1146.23 265.317 1145.81 265.317 1145.38V1066.01C265.317 1065.65 265.397 1065.3 265.549 1064.98L268.823 1058.07C268.976 1057.75 269.055 1057.39 269.055 1057.04V1033.91M302.694 1263.56H310.999M310.999 1263.56V1279.34M310.999 1263.56V1240.72M269.055 1033.91L276.221 1046.65C276.424 1047.01 276.53 1047.41 276.53 1047.83V1075.44M276.53 1075.44V1110.74M276.53 1075.44H295.634M337.993 1075.44H319.72M276.53 1110.74V1143.3C276.53 1143.73 276.645 1144.15 276.863 1144.52L300.202 1184.17M276.53 1110.74H302.694M295.634 1075.44V1092.82C295.634 1093.13 295.693 1093.44 295.809 1093.73L302.694 1110.74M295.634 1075.44H319.72M302.694 1110.74H311.83M311.83 1110.74L319.506 1093.77C319.647 1093.45 319.72 1093.12 319.72 1092.77V1075.44M382.429 1097.86V1180.92M382.429 1180.92H372.462M382.429 1180.92C382.291 1184.24 382.595 1191.38 384.921 1193.38C387.828 1195.87 390.32 1215.8 389.904 1217.88C389.489 1219.96 384.921 1240.72 367.894 1240.72C354.273 1240.72 324.289 1240.72 310.999 1240.72M306.016 1180.92L300.202 1184.17M306.016 1180.92L318.085 1198.62C318.34 1198.99 318.484 1199.43 318.501 1199.88L319.63 1228.86C319.681 1230.15 320.742 1231.17 322.035 1231.17H365.183C365.599 1231.17 366.006 1231.06 366.364 1230.85C370.691 1228.32 378.761 1222.65 380.353 1217.88C382.429 1211.65 377.861 1195.45 375.369 1193.38C373.376 1191.72 372.601 1184.38 372.462 1180.92M306.016 1180.92H372.462M300.202 1184.17L310.667 1201.95C310.884 1202.32 310.999 1202.74 310.999 1203.17V1240.72M284.836 465.374H352.528M423.958 465.374V427.167M423.958 465.374V486.554M423.958 465.374H352.528M423.958 427.167H418.137M423.958 427.167V324.591M423.958 486.554H419.097C417.768 486.554 416.691 487.631 416.691 488.961V501.59C416.691 502.919 415.613 503.996 414.284 503.996H358.342M352.528 465.374V501.59C352.528 502.919 353.606 503.996 354.935 503.996H358.342M358.342 503.996V540.542M553.737 408.895H456.766M484.591 652.67H520.306" stroke="#4E4E4E" stroke-width="2.4066"/>
<path d="M532.497 444.114H554.923M532.497 444.114H502.511C501.182 444.114 500.104 443.037 500.104 441.708V427.866M532.497 444.114V427.866M500.104 427.866V411.637C500.104 410.307 501.182 409.23 502.511 409.23H530.09C531.42 409.23 532.497 410.307 532.497 411.637V427.866M500.104 427.866H532.497M485.569 501.424V516.032C485.569 517.366 486.655 518.445 487.989 518.438L514.547 518.294M485.569 501.424H504.673M485.569 501.424V486.187M514.547 501.267V518.294M514.547 501.267L504.673 501.424M514.547 501.267V494.695C514.547 493.366 515.625 492.288 516.954 492.288H534.989M514.547 518.294L529.175 518.451M504.673 501.424V477.338M504.673 477.338H487.976C486.647 477.338 485.569 478.415 485.569 479.744V486.187M504.673 477.338H534.989M534.989 477.338V492.288M534.989 477.338H549.443M534.989 501.424H531.581C530.252 501.424 529.175 502.502 529.175 503.831V518.451M534.989 501.424V492.288M534.989 501.424H547.036C548.365 501.424 549.443 500.347 549.443 499.018V492.288M529.175 518.451H561.152M549.443 477.338H573.281C574.61 477.338 575.687 478.415 575.687 479.744V492.288M549.443 477.338V492.288M549.443 492.288H561.152M575.687 492.288V516.045C575.687 517.374 574.61 518.451 573.281 518.451H561.152M575.687 492.288H561.152M561.152 492.288V518.451M485.569 486.187H426.407C425.077 486.187 424 485.109 424 483.78V457.92" stroke="#BDB16F" stroke-width="2.4066" stroke-linecap="round"/>
<path d="M450.684 984.823V976.792C450.684 976.645 450.671 976.497 450.642 976.353C449.464 970.454 445.097 966.396 436.564 967.38M436.564 967.38V956.115C436.564 954.786 435.486 953.708 434.157 953.708H402.84C401.511 953.708 400.434 954.786 400.434 956.115V974.941C400.434 976.27 401.511 977.347 402.84 977.347H434.157C435.486 977.347 436.564 976.27 436.564 974.941V967.38Z" stroke="#966174" stroke-width="2.4066"/>
<path d="M356.826 431.242H341.79C340.461 431.242 339.384 432.319 339.384 433.648V456.745C339.384 458.074 340.461 459.152 341.79 459.152H356.826M356.826 431.242V416.206C356.826 414.877 357.903 413.799 359.233 413.799H361.394M356.826 431.242V442.87M373.853 413.799V396.357M373.853 413.799H361.394M373.853 413.799V424.182M373.853 396.357H363.801C362.472 396.357 361.394 397.435 361.394 398.764V413.799M373.853 396.357H390.049M373.853 442.87H356.826M373.853 442.87H400.847M373.853 442.87V424.182M417.874 442.87V456.745C417.874 458.074 416.796 459.152 415.467 459.152H356.826M417.874 442.87V410.892M417.874 442.87H400.847M356.826 442.87V459.152M390.049 396.357H415.467C416.796 396.357 417.874 397.435 417.874 398.764V410.892M390.049 396.357V408.486C390.049 409.815 391.127 410.892 392.456 410.892H417.874M400.847 442.87V426.588C400.847 425.259 399.769 424.182 398.44 424.182H373.853" stroke="#BDB16F" stroke-width="2.4066"/>
<path d="M463.573 180.82H422.774C421.445 180.82 420.367 181.898 420.367 183.227V218.596M463.573 180.82C481.015 180.82 493.724 193.156 493.724 212C493.724 236.498 479.591 246.862 463.573 246.862C455.103 246.862 448.498 245.398 439.075 234.613M463.573 180.82C449.869 180.82 432.48 189.387 432.48 212C432.48 225.186 433.152 227.834 439.075 234.613M442.378 271.354H422.774C421.445 271.354 420.367 270.276 420.367 268.947V218.596M420.367 218.596L439.075 234.613" stroke="#892F2F" stroke-width="2.4066"/>
<path d="M439.055 864.388C436.425 861.758 431.165 854.421 431.165 846.115M431.165 846.115V803.34M431.165 846.115H403.67C402.341 846.115 401.264 845.038 401.264 843.709V791.263M431.165 763.888H290.549C289.125 763.888 288.013 762.631 288.633 761.349C289.875 758.778 292.804 756.092 298.687 756.828C308.654 758.074 325.266 751.844 324.02 741.877V712.392M431.165 763.888H473.109M431.165 763.888V803.34M431.165 763.888L424.521 754.118C424.25 753.719 424.105 753.247 424.105 752.765V729.003M431.165 803.34L447.096 817.28C447.535 817.664 448.098 817.875 448.681 817.875H467.295M336.894 606.908L318.1 575.04C317.897 574.696 317.783 574.306 317.768 573.906L316.545 540.461M336.894 606.908V653.836M336.894 606.908H347.276M324.02 712.392V697.931C324.02 697.608 324.085 697.288 324.211 696.99L336.702 667.576C336.829 667.278 336.894 666.958 336.894 666.635V653.836M324.02 712.392H347.276M424.105 712.392V729.003M424.105 712.392H375.101M424.105 712.392V687.889M424.105 653.836H456.082M424.105 653.836H375.101M424.105 653.836V622.689M424.105 653.836V687.889M336.894 653.836H347.276M484.322 653.836H473.109M456.082 653.836V628.918M456.082 653.836V701.61C456.082 701.874 456.126 702.137 456.211 702.387L461.896 719.036M456.082 653.836H473.109M461.896 719.036H472.279M461.896 719.036H439.886M439.886 719.036L424.105 729.003M439.886 719.036L433.946 713.097C433.495 712.645 433.241 712.033 433.241 711.395V705.747M347.276 712.392V653.836M347.276 712.392H375.101M347.276 653.836H375.101M375.101 712.392V697.441M375.101 653.836V622.689M375.101 653.836V670.447M375.101 622.689H424.105M375.101 622.689V591.542M375.101 622.689H349.683C348.354 622.689 347.276 621.611 347.276 620.282V606.908M424.105 622.689V591.542M424.105 540.461V570.362M424.105 570.362V591.542M424.105 570.362H395.242M424.105 591.542H385.068M375.101 591.542H368.786C367.457 591.542 366.38 590.465 366.38 589.136V583.652M375.101 591.542H385.068M366.38 583.652V572.769C366.38 571.44 367.457 570.362 368.786 570.362H385.068M366.38 583.652H349.683C348.354 583.652 347.276 584.729 347.276 586.058V606.908M395.242 570.362V540.461M395.242 570.362H385.068M375.101 697.441C389.082 697.303 418.457 695.199 424.105 687.889M375.101 697.441V682.491M424.105 687.889C421.447 683.57 407.216 677.507 400.433 675.015M375.101 682.491C382.161 681.799 397.111 679.335 400.433 675.015M375.101 682.491V670.447M400.433 675.015C394.204 672.939 380.915 669.201 375.101 670.447M484.322 610.23H473.109M424.105 610.23H467.71M467.71 610.23V559.895C467.71 558.566 468.788 557.488 470.117 557.488H484.322M467.71 610.23H473.109M473.109 610.23V623.312V636.393M473.109 653.836V687.889M385.068 570.362V591.542" stroke="#6D7CB2" stroke-width="2.4066"/>
<path d="M390.919 416.671L391.743 415.847H395.452V419.556L394.627 420.38H390.919V416.671Z" fill="#D9D9D9"/>
<path d="M399.16 415.024L399.984 414.2H403.693V417.909L402.869 418.733H399.16V415.024Z" fill="#D9D9D9"/>
<path d="M366.197 404.31L367.021 403.486H370.73V407.194L369.906 408.018H366.197V404.31Z" fill="#D9D9D9"/>
<path d="M348.462 438.923L349.287 438.099H352.583L353.407 438.923V441.808L352.995 442.632H350.111V445.516H352.995L353.407 445.928V449.225L352.995 450.049H349.699V453.346L349.287 453.758H345.578L345.166 453.346V450.049L345.578 449.637H348.462V445.928H345.578L345.166 445.516V441.808L345.578 441.396H348.462V438.923Z" fill="#FBDB5F"/>
<path d="M364.944 421.616L365.768 420.792H369.065L369.889 421.616V424.5L369.477 425.324H366.592V428.209H369.477L369.889 428.621V431.917L369.477 432.741H366.18V436.038L365.768 436.45H362.06L361.647 436.038V432.741L362.06 432.329H364.944V428.621H362.06L361.647 428.209V424.5L362.06 424.088H364.944V421.616Z" fill="#FBDB5F"/>
<path d="M409.446 424.089L410.27 423.264H413.566L414.391 424.089V426.973L413.979 427.797H411.094V430.681H413.979L414.391 431.094V434.39L413.979 435.214H410.682V438.511L410.27 438.923H406.561L406.149 438.511V435.214L406.561 434.802H409.446V431.094H406.561L406.149 430.681V426.973L406.561 426.561H409.446V424.089Z" fill="#FBDB5F"/>
<path d="M381.425 402.662L382.249 401.838H385.546L386.37 402.662V405.546L385.958 406.37H383.074V409.255H385.958L386.37 409.667V412.963L385.958 413.787H382.662V417.084L382.249 417.496H378.541L378.129 417.084V413.787L378.541 413.375H381.425V409.667H378.541L378.129 409.255V405.546L378.541 405.134H381.425V402.662Z" fill="#FBDB5F"/>
<path d="M381.427 433.978L380.603 433.154V429.858L381.427 429.034H384.311L385.135 429.446V432.33H388.02V429.446L388.432 429.034H391.728L392.552 429.446V432.742H395.849L396.261 433.154V436.863L395.849 437.275H392.552L392.14 436.863V433.978H388.432V436.863L388.02 437.275H384.311L383.899 436.863V433.978H381.427Z" fill="#FBDB5F"/>
<path d="M364.945 452.933L364.121 452.109V448.812L364.945 447.988H367.83L368.654 448.4V451.285H371.538V448.4L371.95 447.988H375.247L376.071 448.4V451.697H379.367L379.779 452.109V455.817L379.367 456.229H376.071L375.659 455.817V452.933H371.95V455.817L371.538 456.229H367.83L367.418 455.817V452.933H364.945Z" fill="#FBDB5F"/>
<path d="M396.26 452.933L395.436 452.109V448.812L396.26 447.988H399.144L399.968 448.4V451.285H402.853V448.4L403.265 447.988H406.561L407.385 448.4V451.697H410.682L411.094 452.109V455.817L410.682 456.229H407.385L406.973 455.817V452.933H403.265V455.817L402.853 456.229H399.144L398.732 455.817V452.933H396.26Z" fill="#FBDB5F"/>
<path d="M397.908 405.134L397.084 404.31V401.013L397.908 400.189H400.793L401.617 400.601V403.486H404.501V400.601L404.913 400.189H408.21L409.034 400.601V403.898H412.33L412.742 404.31V408.018L412.33 408.43H409.034L408.622 408.018V405.134H404.913V408.018L404.501 408.43H400.793L400.38 408.018V405.134H397.908Z" fill="#FBDB5F"/>
<path d="M506.822 492.291L507.615 491.499H511.182V495.066L510.39 495.859H506.822V492.291Z" fill="#D9D9D9"/>
<path d="M553.053 497.246L553.845 496.454H557.413V500.021L556.62 500.814H553.053V497.246Z" fill="#D9D9D9"/>
<path d="M515.129 485.157L514.336 484.364V481.193L515.129 480.4H517.903L518.696 480.797V483.571H521.47V480.797L521.867 480.4H525.038L525.83 480.797V483.967H529.001L529.398 484.364V487.931L529.001 488.327H525.83L525.434 487.931V485.157H521.867V487.931L521.47 488.327H517.903L517.507 487.931V485.157H515.129Z" fill="#FADB5F"/>
<path d="M514.377 551.749L515.17 550.956V547.785L514.377 546.992H511.603L510.81 547.389V550.163H508.035V547.389L507.639 546.992H504.468L503.675 547.389V550.56H500.505L500.108 550.956V554.523L500.505 554.92H503.675L504.072 554.523V551.749H507.639V554.523L508.035 554.92H511.603L511.999 554.523V551.749H514.377Z" fill="#FADB5F"/>
<path d="M514.377 568.595L515.17 567.802V564.631L514.377 563.838H511.603L510.81 564.235V567.009H508.035V564.235L507.639 563.838H504.468L503.675 564.235V567.406H500.505L500.108 567.802V571.369L500.505 571.766H503.675L504.072 571.369V568.595H507.639V571.369L508.035 571.766H511.603L511.999 571.369V568.595H514.377Z" fill="#FADB5F"/>
<path d="M556.254 485.157L555.461 484.364V481.193L556.254 480.4H559.028L559.821 480.797V483.571H562.595V480.797L562.992 480.4H566.163L566.955 480.797V483.967H570.126L570.523 484.364V487.931L570.126 488.327H566.955L566.559 487.931V485.157H562.992V487.931L562.595 488.327H559.028L558.632 487.931V485.157H556.254Z" fill="#FADB5F"/>
<path d="M537 510.836L536.207 510.043V506.873L537 506.08H539.774L540.567 506.476V509.251H543.342V506.476L543.738 506.08H546.909L547.701 506.476V509.647H550.872L551.269 510.043V513.611L550.872 514.007H547.701L547.305 513.611V510.836H543.738V513.611L543.342 514.007H539.774L539.378 513.611V510.836H537Z" fill="#FADB5F"/>
<path d="M491.275 510.836L490.482 510.043V506.873L491.275 506.08H494.05L494.842 506.476V509.251H497.617V506.476L498.013 506.08H501.184L501.977 506.476V509.647H505.148L505.544 510.043V513.611L505.148 514.007H501.977L501.581 513.611V510.836H498.013V513.611L497.617 514.007H494.05L493.653 513.611V510.836H491.275Z" fill="#FADB5F"/>
<path d="M520.677 497.047L521.469 496.254H524.64L525.433 497.047V499.821L525.037 500.614H522.262V503.388H525.037L525.433 503.785V506.956L525.037 507.748H521.866V510.919L521.469 511.316H517.902L517.506 510.919V507.748L517.902 507.352H520.677V503.785H517.902L517.506 503.388V499.821L517.902 499.425H520.677V497.047Z" fill="#FADB5F"/>
<path d="M541.523 492.219L542.212 491.53H544.968L545.657 492.219V494.63L545.313 495.319H542.901V497.73H545.313L545.657 498.075V500.831L545.313 501.52H542.557V504.275L542.212 504.62H539.112L538.768 504.275V501.52L539.112 501.175H541.523V498.075H539.112L538.768 497.73V494.63L539.112 494.285H541.523V492.219Z" fill="#FADB5F"/>
<path d="M540.497 481.986L541.29 481.194H544.461L545.253 481.986V484.761L544.857 485.554H542.083V488.328H544.857L545.253 488.724V491.895L544.857 492.688H541.686V495.859L541.29 496.255H537.723L537.326 495.859V492.688L537.723 492.292H540.497V488.724H537.723L537.326 488.328V484.761L537.723 484.364H540.497V481.986Z" fill="#FADB5F"/>
<path d="M494.519 481.986L495.311 481.194H498.482L499.275 481.986V484.761L498.879 485.554H496.104V488.328H498.879L499.275 488.724V491.895L498.879 492.688H495.708V495.859L495.311 496.255H491.744L491.348 495.859V492.688L491.744 492.292H494.519V488.724H491.744L491.348 488.328V484.761L491.744 484.364H494.519V481.986Z" fill="#FADB5F"/>
<path d="M406.251 962.131C406.251 960.802 407.328 959.725 408.658 959.725H415.877C417.207 959.725 418.284 960.802 418.284 962.131V969.351C418.284 970.68 417.207 971.758 415.877 971.758H408.658C407.328 971.758 406.251 970.68 406.251 969.351V962.131Z" fill="#FF00D7"/>
<rect x="497.703" y="364.091" width="14.4396" height="2.4066" rx="1.2033" fill="#F7DA69"/>
<rect x="514.549" y="364.091" width="16.8462" height="2.4066" rx="1.2033" fill="#F7DA69"/>
<rect x="497.703" y="368.904" width="14.4396" height="2.4066" rx="1.2033" fill="#F7DA69"/>
<rect x="504.92" y="402.596" width="16.8462" height="2.4066" rx="1.2033" transform="rotate(-90 504.92 402.596)" fill="#F7DA69"/>
<rect x="509.734" y="402.596" width="16.8462" height="2.4066" rx="1.2033" transform="rotate(-90 509.734 402.596)" fill="#F7DA69"/>
<rect x="514.549" y="402.596" width="16.8462" height="2.4066" rx="1.2033" transform="rotate(-90 514.549 402.596)" fill="#F7DA69"/>
<rect x="519.361" y="402.596" width="16.8462" height="2.4066" rx="1.2033" transform="rotate(-90 519.361 402.596)" fill="#F7DA69"/>
<rect x="524.174" y="402.596" width="16.8462" height="2.4066" rx="1.2033" transform="rotate(-90 524.174 402.596)" fill="#F7DA69"/>
<rect x="528.988" y="402.596" width="16.8462" height="2.4066" rx="1.2033" transform="rotate(-90 528.988 402.596)" fill="#F7DA69"/>
<rect x="514.549" y="368.904" width="16.8462" height="2.4066" rx="1.2033" fill="#F7DA69"/>
<rect x="519.361" y="373.717" width="12.033" height="4.81321" rx="1.2033" fill="#F7DA69"/>
<rect x="504.92" y="373.717" width="12.033" height="4.81321" rx="1.2033" fill="#F7DA69"/>
<rect x="504.92" y="448.321" width="21.3156" height="12.7894" rx="1.06578" fill="#F28521"/>
<rect x="358.12" y="469.981" width="21.3156" height="12.7894" rx="1.06578" fill="#F28521"/>
<rect x="555.91" y="542.72" width="21.3156" height="12.7894" rx="1.06578" fill="#F28521"/>
<rect x="382.542" y="190.329" width="21.3156" height="12.7894" rx="1.06578" fill="#D21648"/>
<rect x="599.254" y="465.458" width="62.1867" height="71.6089" rx="1.06578" fill="#D21648"/>
<rect x="408.925" y="209.173" width="15.0756" height="16.96" rx="1.06578" transform="rotate(90 408.925 209.173)" fill="#D21648"/>
<rect x="616.213" y="548.373" width="15.0756" height="16.96" rx="1.06578" transform="rotate(90 616.213 548.373)" fill="#D21648"/>
<rect x="414.578" y="244.978" width="11.3067" height="13.1911" rx="1.06578" transform="rotate(90 414.578 244.978)" fill="#D21648"/>
<rect x="414.578" y="267.591" width="11.3067" height="30.1511" rx="1.06578" transform="rotate(90 414.578 267.591)" fill="#D21648"/>
<rect x="388.195" y="214.827" width="35.8044" height="18.8444" rx="1.06578" transform="rotate(90 388.195 214.827)" fill="#D21648"/>
<rect x="391.81" y="575.872" width="21.6594" height="12.033" rx="1.06578" fill="#217AFF"/>
<rect x="258.169" y="548.373" width="13.1911" height="13.1911" rx="1.06578" fill="#21C01C"/>
<path d="M275.129 549.439C275.129 548.85 275.606 548.373 276.195 548.373H283.485C284.074 548.373 284.551 548.852 284.551 549.44C284.551 553.602 284.551 556.336 284.551 560.497C284.551 561.086 284.074 561.564 283.485 561.564H276.195C275.606 561.564 275.129 561.087 275.129 560.499V549.439Z" fill="#21C01C"/>
<path d="M288.32 549.439C288.32 548.85 288.797 548.373 289.386 548.373H296.677C297.265 548.373 297.743 548.852 297.743 549.44C297.743 553.602 297.743 556.336 297.743 560.497C297.743 561.086 297.265 561.564 296.677 561.564H289.386C288.797 561.564 288.32 561.087 288.32 560.499V549.439Z" fill="#21C01C"/>
<path d="M301.511 549.439C301.511 548.85 301.988 548.373 302.577 548.373H309.867C310.456 548.373 310.933 548.852 310.933 549.44C310.933 553.602 310.933 556.336 310.933 560.497C310.933 561.086 310.456 561.564 309.867 561.564H302.577C301.988 561.564 301.511 561.087 301.511 560.499V549.439Z" fill="#21C01C"/>
<rect x="370.151" y="578.278" width="9.62641" height="9.62641" rx="1.06578" fill="#217AFF"/>
<rect x="389.404" y="469.981" width="21.6594" height="28.8792" rx="1.2033" fill="#F28521"/>
<rect x="497.703" y="373.717" width="4.81321" height="4.81321" rx="1.2033" fill="#F7DA69"/>
<rect x="497.703" y="385.75" width="4.81321" height="9.62641" rx="1.2033" fill="#F7DA69"/>
<rect x="504.92" y="380.937" width="4.81321" height="2.4066" rx="1.2033" fill="#F7DA69"/>
<rect x="519.361" y="380.937" width="4.81321" height="2.4066" rx="1.2033" fill="#F7DA69"/>
<rect x="512.141" y="380.937" width="4.81321" height="2.4066" rx="1.2033" fill="#F7DA69"/>
<rect x="526.58" y="380.937" width="4.81321" height="2.4066" rx="1.2033" fill="#F7DA69"/>
<path d="M523.984 419.7C523.851 419.7 523.743 419.808 523.743 419.941V421.608C523.743 421.741 523.635 421.849 523.502 421.849H521.319C521.186 421.849 521.079 421.741 521.079 421.608V419.941C521.079 419.808 520.971 419.7 520.838 419.7H516.351V419.184V417.19C516.351 417.057 516.459 416.95 516.592 416.95L517.916 416.95C518.048 416.95 518.156 416.842 518.156 416.709V414.87C518.156 414.737 518.264 414.629 518.397 414.629L520.58 414.629C520.713 414.629 520.821 414.737 520.821 414.87V416.709C520.821 416.842 520.928 416.95 521.061 416.95L525.651 416.95C525.784 416.95 525.892 417.057 525.892 417.19V419.459C525.892 419.592 525.784 419.7 525.651 419.7H523.984Z" fill="#F7DA69"/>
<path d="M506.828 419.184C506.961 419.184 507.069 419.077 507.069 418.944V417.276C507.069 417.143 507.176 417.036 507.309 417.036H509.492C509.625 417.036 509.733 417.143 509.733 417.276V418.944C509.733 419.077 509.841 419.184 509.974 419.184H514.46V419.7V421.694C514.46 421.827 514.353 421.935 514.22 421.935H512.896C512.763 421.935 512.655 422.042 512.655 422.175V424.015C512.655 424.148 512.548 424.255 512.415 424.255H510.232C510.099 424.255 509.991 424.148 509.991 424.015V422.175C509.991 422.042 509.883 421.935 509.75 421.935H505.161C505.028 421.935 504.92 421.827 504.92 421.694V419.425C504.92 419.292 505.028 419.184 505.161 419.184H506.828Z" fill="#F7DA69"/>
<path d="M516.351 419.7H520.838C520.971 419.7 521.079 419.808 521.079 419.941V421.608C521.079 421.741 521.186 421.849 521.319 421.849H523.502C523.635 421.849 523.743 421.741 523.743 421.608V419.941C523.743 419.808 523.851 419.7 523.984 419.7H525.651C525.784 419.7 525.892 419.592 525.892 419.459V417.19C525.892 417.057 525.784 416.95 525.651 416.95L521.061 416.95C520.928 416.95 520.821 416.842 520.821 416.709V414.87C520.821 414.737 520.713 414.629 520.58 414.629L518.397 414.629C518.264 414.629 518.156 414.737 518.156 414.87V416.709C518.156 416.842 518.048 416.95 517.916 416.95L516.592 416.95C516.459 416.95 516.351 417.057 516.351 417.19V419.184M516.351 419.7V419.184M516.351 419.7H514.46M516.351 419.184L514.46 419.184M514.46 419.184H509.974C509.841 419.184 509.733 419.077 509.733 418.944V417.276C509.733 417.143 509.625 417.036 509.492 417.036H507.309C507.176 417.036 507.069 417.143 507.069 417.276V418.944C507.069 419.077 506.961 419.184 506.828 419.184H505.161C505.028 419.184 504.92 419.292 504.92 419.425V421.694C504.92 421.827 505.028 421.935 505.161 421.935H509.75C509.883 421.935 509.991 422.042 509.991 422.175V424.015C509.991 424.148 510.099 424.255 510.232 424.255H512.415C512.548 424.255 512.655 424.148 512.655 424.015V422.175C512.655 422.042 512.763 421.935 512.896 421.935H514.22C514.353 421.935 514.46 421.827 514.46 421.694V419.7M514.46 419.184V419.7" stroke="#F7DA69" stroke-width="0.859501"/>
<path d="M523.984 436.546C523.851 436.546 523.743 436.654 523.743 436.787V438.454C523.743 438.587 523.635 438.695 523.502 438.695H521.319C521.186 438.695 521.079 438.587 521.079 438.454V436.787C521.079 436.654 520.971 436.546 520.838 436.546H516.351V436.03V434.036C516.351 433.903 516.459 433.796 516.592 433.796L517.916 433.796C518.048 433.796 518.156 433.688 518.156 433.555V431.716C518.156 431.583 518.264 431.475 518.397 431.475L520.58 431.475C520.713 431.475 520.821 431.583 520.821 431.716V433.555C520.821 433.688 520.928 433.796 521.061 433.796L525.651 433.796C525.784 433.796 525.892 433.903 525.892 434.036V436.305C525.892 436.438 525.784 436.546 525.651 436.546H523.984Z" fill="#F7DA69"/>
<path d="M506.828 436.03C506.961 436.03 507.069 435.923 507.069 435.79V434.122C507.069 433.989 507.176 433.882 507.309 433.882H509.492C509.625 433.882 509.733 433.989 509.733 434.122V435.79C509.733 435.923 509.841 436.03 509.974 436.03H514.46V436.546V438.54C514.46 438.673 514.353 438.781 514.22 438.781H512.896C512.763 438.781 512.655 438.889 512.655 439.022V440.861C512.655 440.994 512.548 441.102 512.415 441.102H510.232C510.099 441.102 509.991 440.994 509.991 440.861V439.022C509.991 438.889 509.883 438.781 509.75 438.781H505.161C505.028 438.781 504.92 438.673 504.92 438.54V436.271C504.92 436.138 505.028 436.03 505.161 436.03H506.828Z" fill="#F7DA69"/>
<path d="M516.351 436.546H520.838C520.971 436.546 521.079 436.654 521.079 436.787V438.454C521.079 438.587 521.186 438.695 521.319 438.695H523.502C523.635 438.695 523.743 438.587 523.743 438.454V436.787C523.743 436.654 523.851 436.546 523.984 436.546H525.651C525.784 436.546 525.892 436.438 525.892 436.305V434.036C525.892 433.903 525.784 433.796 525.651 433.796L521.061 433.796C520.928 433.796 520.821 433.688 520.821 433.555V431.716C520.821 431.583 520.713 431.475 520.58 431.475L518.397 431.475C518.264 431.475 518.156 431.583 518.156 431.716V433.555C518.156 433.688 518.048 433.796 517.916 433.796L516.592 433.796C516.459 433.796 516.351 433.903 516.351 434.036V436.03M516.351 436.546V436.03M516.351 436.546H514.46M516.351 436.03L514.46 436.03M514.46 436.03H509.974C509.841 436.03 509.733 435.923 509.733 435.79V434.122C509.733 433.989 509.625 433.882 509.492 433.882H507.309C507.176 433.882 507.069 433.989 507.069 434.122V435.79C507.069 435.923 506.961 436.03 506.828 436.03H505.161C505.028 436.03 504.92 436.138 504.92 436.271V438.54C504.92 438.673 505.028 438.781 505.161 438.781H509.75C509.883 438.781 509.991 438.889 509.991 439.022V440.861C509.991 440.994 510.099 441.102 510.232 441.102H512.415C512.548 441.102 512.655 440.994 512.655 440.861V439.022C512.655 438.889 512.763 438.781 512.896 438.781H514.22C514.353 438.781 514.46 438.673 514.46 438.54V436.546M514.46 436.03V436.546" stroke="#F7DA69" stroke-width="0.859501"/>
<path d="M540.763 436.1C540.763 435.967 540.655 435.859 540.522 435.859L538.855 435.859C538.722 435.859 538.614 435.751 538.614 435.618L538.614 433.435C538.614 433.302 538.722 433.195 538.855 433.195L540.522 433.195C540.655 433.195 540.763 433.087 540.763 432.954L540.763 428.467L541.279 428.467L543.273 428.467C543.406 428.467 543.513 428.575 543.513 428.708L543.513 430.032C543.513 430.164 543.621 430.272 543.754 430.272L545.593 430.272C545.726 430.272 545.834 430.38 545.834 430.513L545.834 432.696C545.834 432.829 545.726 432.937 545.593 432.937L543.754 432.937C543.621 432.937 543.513 433.044 543.513 433.177L543.513 437.767C543.513 437.9 543.406 438.008 543.273 438.008L541.004 438.008C540.871 438.008 540.763 437.9 540.763 437.767L540.763 436.1Z" fill="#F7DA69"/>
<path d="M541.279 418.944C541.279 419.077 541.386 419.185 541.519 419.185L543.187 419.185C543.32 419.185 543.427 419.292 543.427 419.425L543.427 421.608C543.427 421.741 543.32 421.849 543.187 421.849L541.519 421.849C541.386 421.849 541.279 421.957 541.279 422.09L541.279 426.576L540.763 426.576L538.769 426.576C538.636 426.576 538.528 426.469 538.528 426.336L538.528 425.012C538.528 424.879 538.42 424.771 538.288 424.771L536.448 424.771C536.315 424.771 536.208 424.664 536.208 424.531L536.208 422.348C536.208 422.215 536.315 422.107 536.448 422.107L538.288 422.107C538.42 422.107 538.528 421.999 538.528 421.866L538.528 417.277C538.528 417.144 538.636 417.036 538.769 417.036L541.038 417.036C541.171 417.036 541.279 417.144 541.279 417.277L541.279 418.944Z" fill="#F7DA69"/>
<path d="M540.763 428.467L540.763 432.954C540.763 433.087 540.655 433.195 540.522 433.195L538.855 433.195C538.722 433.195 538.614 433.302 538.614 433.435L538.614 435.618C538.614 435.751 538.722 435.859 538.855 435.859L540.522 435.859C540.655 435.859 540.763 435.967 540.763 436.1L540.763 437.767C540.763 437.9 540.871 438.008 541.004 438.008L543.273 438.008C543.406 438.008 543.513 437.9 543.513 437.767L543.513 433.177C543.513 433.044 543.621 432.937 543.754 432.937L545.593 432.937C545.726 432.937 545.834 432.829 545.834 432.696L545.834 430.513C545.834 430.38 545.726 430.272 545.593 430.272L543.754 430.272C543.621 430.272 543.513 430.164 543.513 430.032L543.513 428.708C543.513 428.575 543.406 428.467 543.273 428.467L541.279 428.467M540.763 428.467L541.279 428.467M540.763 428.467L540.763 426.576M541.279 428.467L541.279 426.576M541.279 426.576L541.279 422.09C541.279 421.957 541.386 421.849 541.519 421.849L543.187 421.849C543.32 421.849 543.427 421.741 543.427 421.608L543.427 419.425C543.427 419.292 543.32 419.185 543.187 419.185L541.519 419.185C541.386 419.185 541.279 419.077 541.279 418.944L541.279 417.277C541.279 417.144 541.171 417.036 541.038 417.036L538.769 417.036C538.636 417.036 538.528 417.144 538.528 417.277L538.528 421.866C538.528 421.999 538.42 422.107 538.288 422.107L536.448 422.107C536.315 422.107 536.208 422.215 536.208 422.348L536.208 424.531C536.208 424.664 536.315 424.771 536.448 424.771L538.288 424.771C538.42 424.771 538.528 424.879 538.528 425.012L538.528 426.336C538.528 426.469 538.636 426.576 538.769 426.576L540.763 426.576M541.279 426.576L540.763 426.576" stroke="#F7DA69" stroke-width="0.859501"/>
<path d="M490.226 436.1C490.226 435.967 490.118 435.859 489.985 435.859L488.318 435.859C488.185 435.859 488.077 435.751 488.077 435.618L488.077 433.435C488.077 433.302 488.185 433.195 488.318 433.195L489.985 433.195C490.118 433.195 490.226 433.087 490.226 432.954L490.226 428.467L490.742 428.467L492.736 428.467C492.868 428.467 492.976 428.575 492.976 428.708L492.976 430.032C492.976 430.164 493.084 430.272 493.217 430.272L495.056 430.272C495.189 430.272 495.297 430.38 495.297 430.513L495.297 432.696C495.297 432.829 495.189 432.937 495.056 432.937L493.217 432.937C493.084 432.937 492.976 433.044 492.976 433.177L492.976 437.767C492.976 437.9 492.868 438.008 492.736 438.008L490.466 438.008C490.334 438.008 490.226 437.9 490.226 437.767L490.226 436.1Z" fill="#F7DA69"/>
<path d="M490.742 418.944C490.742 419.077 490.849 419.185 490.982 419.185L492.65 419.185C492.783 419.185 492.89 419.292 492.89 419.425L492.89 421.608C492.89 421.741 492.783 421.849 492.65 421.849L490.982 421.849C490.849 421.849 490.742 421.957 490.742 422.09L490.742 426.576L490.226 426.576L488.232 426.576C488.099 426.576 487.991 426.469 487.991 426.336L487.991 425.012C487.991 424.879 487.883 424.771 487.75 424.771L485.911 424.771C485.778 424.771 485.67 424.664 485.67 424.531L485.67 422.348C485.67 422.215 485.778 422.107 485.911 422.107L487.75 422.107C487.883 422.107 487.991 421.999 487.991 421.866L487.991 417.277C487.991 417.144 488.099 417.036 488.232 417.036L490.501 417.036C490.634 417.036 490.742 417.144 490.742 417.277L490.742 418.944Z" fill="#F7DA69"/>
<path d="M490.226 428.467L490.226 432.954C490.226 433.087 490.118 433.195 489.985 433.195L488.318 433.195C488.185 433.195 488.077 433.302 488.077 433.435L488.077 435.618C488.077 435.751 488.185 435.859 488.318 435.859L489.985 435.859C490.118 435.859 490.226 435.967 490.226 436.1L490.226 437.767C490.226 437.9 490.334 438.008 490.466 438.008L492.736 438.008C492.868 438.008 492.976 437.9 492.976 437.767L492.976 433.177C492.976 433.044 493.084 432.937 493.217 432.937L495.056 432.937C495.189 432.937 495.297 432.829 495.297 432.696L495.297 430.513C495.297 430.38 495.189 430.272 495.056 430.272L493.217 430.272C493.084 430.272 492.976 430.164 492.976 430.032L492.976 428.708C492.976 428.575 492.868 428.467 492.736 428.467L490.742 428.467M490.226 428.467L490.742 428.467M490.226 428.467L490.226 426.576M490.742 428.467L490.742 426.576M490.742 426.576L490.742 422.09C490.742 421.957 490.849 421.849 490.982 421.849L492.65 421.849C492.783 421.849 492.89 421.741 492.89 421.608L492.89 419.425C492.89 419.292 492.783 419.185 492.65 419.185L490.982 419.185C490.849 419.185 490.742 419.077 490.742 418.944L490.742 417.277C490.742 417.144 490.634 417.036 490.501 417.036L488.232 417.036C488.099 417.036 487.991 417.144 487.991 417.277L487.991 421.866C487.991 421.999 487.883 422.107 487.75 422.107L485.911 422.107C485.778 422.107 485.67 422.215 485.67 422.348L485.67 424.531C485.67 424.664 485.778 424.771 485.911 424.771L487.75 424.771C487.883 424.771 487.991 424.879 487.991 425.012L487.991 426.336C487.991 426.469 488.099 426.576 488.232 426.576L490.226 426.576M490.742 426.576L490.226 426.576" stroke="#F7DA69" stroke-width="0.859501"/>
<path d="M184.578 988.14V991.965M184.371 1018.74L184.578 1014.19M184.578 1014.19H180.029M184.578 1014.19V1001.17M184.578 1014.19H196.57M213.11 1014.19H208.561M184.578 1001.17H180.029M184.578 1001.17H196.57M184.578 1001.17V991.965M196.57 1001.17V1014.19M196.57 1001.17V991.965M196.57 1001.17H208.561M196.57 1014.19L196.363 1018.74M196.57 1014.19H208.561M196.57 978.629V982.764M196.57 982.764H192.021H196.363M196.57 982.764V991.965M201.532 982.764H196.363M196.363 982.764L196.57 991.965M196.57 991.965H201.532M196.57 991.965H184.578M213.11 1001.17H208.561M208.561 1001.17V997.237V1014.19" stroke="#21C01C" stroke-width="3.30808"/>
<path d="M355.196 671.806H357.756C358.243 671.806 358.627 672.224 358.592 672.71C358.486 674.201 358.34 677.101 358.733 678.009C359.373 679.491 360.732 681.15 361.146 681.317C361.492 681.457 363.584 676.128 364.25 674.404C364.374 674.084 364.681 673.874 365.024 673.874H366.94C367.529 673.874 367.931 674.471 367.71 675.016C366.892 677.043 365.281 681.113 365.281 681.73C365.281 681.824 365.075 681.948 364.808 682.085L363.627 682.971C364.46 684.297 367.078 685.809 366.935 686.279C366.683 687.106 365.509 687.889 365.281 688.347C364.97 688.969 367.235 693.574 368.375 695.814C368.657 696.368 368.255 697.03 367.633 697.03H365.364C365.058 697.03 364.778 696.864 364.633 696.595C363.872 695.184 361.492 690.828 361.146 690.828C360.796 690.828 358.084 695.258 357.252 696.63C357.102 696.878 356.833 697.03 356.542 697.03H354.663C354.039 697.03 353.64 696.37 353.936 695.822C355.022 693.812 357.12 690.001 357.424 690.001C357.838 690.001 359.905 689.801 359.905 689.587C359.905 689.174 354.943 685.865 354.53 684.211C354.323 683.384 357.011 683.384 357.011 682.971C357.011 682.557 355.086 680.103 354.53 678.009C354.118 676.461 354.278 673.812 354.389 672.535C354.425 672.118 354.777 671.806 355.196 671.806Z" fill="#217AFF"/>
<path d="M413.248 643.139C413.248 643.671 412.817 644.102 412.285 644.102H387.333C386.801 644.102 386.37 643.671 386.37 643.139V630.592C386.37 630.06 386.801 629.629 387.333 629.629H412.285C412.817 629.629 413.248 630.06 413.248 630.592V643.139ZM403.875 631.694C403.343 631.694 402.912 632.125 402.912 632.657V641.07C402.912 641.601 403.343 642.032 403.875 642.032H410.22C410.752 642.032 411.183 641.601 411.183 641.07V632.657C411.183 632.125 410.752 631.694 410.22 631.694H403.875ZM389.677 640.243C389.677 640.775 390.108 641.206 390.639 641.206H395.33C395.862 641.206 396.293 640.775 396.293 640.243V633.898C396.293 633.367 395.862 632.936 395.33 632.936H390.639C390.108 632.936 389.677 633.367 389.677 633.898V640.243Z" fill="#217AFF"/>
<path d="M252.396 898.823H249.915C249.458 898.823 249.088 899.193 249.088 899.65V901.949C249.088 902.305 249.316 902.621 249.653 902.733L251.003 903.183C251.341 903.296 251.569 903.612 251.569 903.968V904.348C251.569 904.742 251.291 905.081 250.904 905.159L250.166 905.306C249.78 905.384 249.501 905.723 249.501 906.117V908.978C249.501 909.334 249.273 909.65 248.936 909.763L248.888 909.779C248.521 909.901 248.288 910.261 248.327 910.646L248.6 913.378C248.642 913.801 248.998 914.123 249.423 914.123H255.04C255.203 914.123 255.363 914.075 255.499 913.984L256.387 913.392C256.481 913.329 256.591 913.296 256.704 913.296C257.05 913.296 257.317 913.601 257.272 913.944L256.656 918.562C256.59 919.058 256.975 919.499 257.476 919.499H263.974C264.431 919.499 264.801 919.128 264.801 918.671V914.95C264.801 914.493 265.171 914.123 265.628 914.123C266.085 914.123 266.455 914.493 266.455 914.95V916.604C266.455 917.061 266.825 917.431 267.282 917.431H269.763C270.22 917.431 270.59 917.061 270.59 916.604V913.089C270.59 912.747 270.868 912.469 271.211 912.469C271.553 912.469 271.831 912.747 271.831 913.089V913.296C271.831 913.753 272.201 914.123 272.658 914.123H275.139C275.596 914.123 275.966 913.753 275.966 913.296V910.401C275.966 909.945 276.336 909.574 276.793 909.574H278.447C278.904 909.574 279.274 909.204 279.274 908.747V903.372C279.274 902.915 278.904 902.545 278.447 902.545H276.793C276.336 902.545 275.966 902.174 275.966 901.718V898.41C275.966 897.953 275.596 897.583 275.139 897.583H271.417C270.961 897.583 270.59 897.953 270.59 898.41V901.949C270.59 902.305 270.818 902.621 271.156 902.733L272.506 903.183C272.844 903.296 273.071 903.612 273.071 903.968V908.747C273.071 909.204 272.701 909.574 272.244 909.574C271.984 909.574 271.739 909.697 271.583 909.905L270.838 910.898C270.682 911.106 270.437 911.228 270.177 911.228H269.35C268.893 911.228 268.523 910.858 268.523 910.401V902.131C268.523 901.674 268.152 901.304 267.696 901.304H267.282C266.825 901.304 266.455 901.674 266.455 902.131V904.199C266.455 904.655 266.085 905.026 265.628 905.026C265.171 905.026 264.801 904.655 264.801 904.199V898.41C264.801 897.953 264.431 897.583 263.974 897.583H259.012C258.555 897.583 258.185 897.953 258.185 898.41V901.718C258.185 902.174 257.815 902.545 257.358 902.545H254.05C253.593 902.545 253.223 902.174 253.223 901.718V899.65C253.223 899.193 252.853 898.823 252.396 898.823Z" fill="#21C01C"/>
<path d="M296.228 883.937H293.747C293.29 883.937 292.92 884.307 292.92 884.764V887.062C292.92 887.418 293.148 887.734 293.485 887.847L294.835 888.297C295.173 888.409 295.401 888.726 295.401 889.082V889.461C295.401 889.856 295.123 890.195 294.736 890.272L293.998 890.42C293.612 890.497 293.333 890.837 293.333 891.231V894.092C293.333 894.448 293.106 894.764 292.768 894.877L292.72 894.893C292.353 895.015 292.12 895.375 292.159 895.759L292.432 898.492C292.474 898.915 292.83 899.237 293.255 899.237H298.872C299.035 899.237 299.195 899.188 299.331 899.098L300.219 898.506C300.313 898.443 300.423 898.41 300.536 898.41C300.882 898.41 301.149 898.715 301.104 899.058L300.488 903.676C300.422 904.172 300.807 904.612 301.308 904.612H307.806C308.263 904.612 308.633 904.242 308.633 903.785V900.064C308.633 899.607 309.003 899.237 309.46 899.237C309.917 899.237 310.287 899.607 310.287 900.064V901.718C310.287 902.174 310.657 902.545 311.114 902.545H313.595C314.052 902.545 314.422 902.174 314.422 901.718V898.203C314.422 897.86 314.7 897.583 315.043 897.583C315.385 897.583 315.663 897.86 315.663 898.203V898.41C315.663 898.866 316.033 899.237 316.49 899.237H318.971C319.428 899.237 319.798 898.866 319.798 898.41V895.515C319.798 895.058 320.168 894.688 320.625 894.688H322.279C322.736 894.688 323.106 894.318 323.106 893.861V888.485C323.106 888.029 322.736 887.658 322.279 887.658H320.625C320.168 887.658 319.798 887.288 319.798 886.831V883.523C319.798 883.067 319.428 882.696 318.971 882.696H315.249C314.793 882.696 314.422 883.067 314.422 883.523V887.062C314.422 887.418 314.65 887.734 314.988 887.847L316.338 888.297C316.676 888.409 316.903 888.726 316.903 889.082V893.861C316.903 894.318 316.533 894.688 316.076 894.688C315.816 894.688 315.571 894.811 315.415 895.019L314.67 896.011C314.514 896.22 314.269 896.342 314.009 896.342H313.182C312.725 896.342 312.355 895.972 312.355 895.515V887.245C312.355 886.788 311.984 886.418 311.528 886.418H311.114C310.657 886.418 310.287 886.788 310.287 887.245V889.312C310.287 889.769 309.917 890.139 309.46 890.139C309.003 890.139 308.633 889.769 308.633 889.312V883.523C308.633 883.067 308.263 882.696 307.806 882.696H302.844C302.387 882.696 302.017 883.067 302.017 883.523V886.831C302.017 887.288 301.647 887.658 301.19 887.658H297.882C297.425 887.658 297.055 887.288 297.055 886.831V884.764C297.055 884.307 296.685 883.937 296.228 883.937Z" fill="#21C01C"/>
<path d="M356.985 595.72H354.531C354.075 595.72 353.704 596.09 353.704 596.547V600.682C353.704 601.139 353.334 601.509 352.877 601.509H352.464C352.007 601.509 351.637 601.879 351.637 602.336V613.501C351.637 613.958 352.007 614.328 352.464 614.328H352.877C353.334 614.328 353.704 614.698 353.704 615.155V617.195C353.704 617.663 354.091 618.037 354.558 618.022L365.707 617.662C366.159 617.648 366.516 617.272 366.507 616.819L366.125 597.358C366.117 596.907 365.749 596.547 365.299 596.547H357.84C357.609 596.547 357.42 596.364 357.412 596.133C357.404 595.903 357.215 595.72 356.985 595.72Z" fill="#217AFF"/>
<path d="M391.331 668.201V662.708C391.331 662.252 391.701 661.881 392.158 661.881H414.074C414.531 661.881 414.901 662.252 414.901 662.708V670.152C414.901 670.608 414.531 670.979 414.074 670.979H413.029C412.9 670.979 412.774 670.949 412.659 670.891L410.527 669.825C410.412 669.768 410.286 669.738 410.157 669.738H407.64C407.285 669.738 406.968 669.966 406.856 670.304L406.436 671.564C406.309 671.943 405.93 672.178 405.534 672.121L398.244 671.08C397.836 671.022 397.534 670.673 397.534 670.261V667.67C397.534 667.442 397.349 667.257 397.12 667.257C396.892 667.257 396.707 667.442 396.707 667.67V668.774C396.707 669.281 396.255 669.669 395.754 669.591L392.032 669.019C391.629 668.957 391.331 668.61 391.331 668.201Z" fill="#217AFF"/>
<path d="M392.161 705.3V704.473C392.161 704.017 392.531 703.646 392.988 703.646C393.445 703.646 393.815 703.276 393.815 702.819V701.579C393.815 701.122 394.185 700.752 394.642 700.752H395.027C395.303 700.752 395.561 700.89 395.715 701.12L396.013 701.567C396.186 701.828 396.493 701.968 396.803 701.929L406.22 700.752L411.504 699.532C411.565 699.518 411.628 699.511 411.69 699.511H413.25C413.707 699.511 414.077 699.881 414.077 700.338V701.165C414.077 701.622 413.707 701.992 413.25 701.992C412.793 701.992 412.423 702.363 412.423 702.819V703.233C412.423 703.69 412.793 704.06 413.25 704.06C413.707 704.06 414.077 704.43 414.077 704.887V706.954C414.077 707.411 413.707 707.781 413.25 707.781H394.642C394.185 707.781 393.815 707.411 393.815 706.954C393.815 706.498 393.445 706.127 392.988 706.127C392.531 706.127 392.161 705.757 392.161 705.3Z" fill="#217AFF"/>
<path d="M436.819 754.785V738.93C436.819 738.398 437.25 737.967 437.782 737.967H452.811C453.342 737.967 453.773 738.398 453.773 738.93V754.785C453.773 755.317 453.342 755.748 452.811 755.748H437.782C437.25 755.748 436.819 755.317 436.819 754.785Z" fill="#217AFF"/>
<path d="M377.371 842.042V831.934C377.371 831.402 377.802 830.971 378.334 830.971H395.661C396.193 830.971 396.624 831.402 396.624 831.934V842.042C396.624 842.573 396.193 843.004 395.661 843.004H378.334C377.802 843.004 377.371 842.573 377.371 842.042Z" fill="#217AFF"/>
<path d="M177.624 1147.68V1135.17C177.624 1134.63 178.055 1134.2 178.587 1134.2H191.101C191.633 1134.2 192.064 1134.63 192.064 1135.17V1147.68C192.064 1148.21 191.633 1148.64 191.101 1148.64H178.587C178.055 1148.64 177.624 1148.21 177.624 1147.68Z" fill="#A3A3A3"/>
<path d="M163.185 971.999V937.825C163.185 937.293 163.616 936.862 164.147 936.862H212.761C213.292 936.862 213.723 937.293 213.723 937.825V971.999C213.723 972.53 213.292 972.961 212.761 972.961H164.147C163.616 972.961 163.185 972.53 163.185 971.999Z" fill="#3A3A3A"/>
<path d="M324.426 1205.44V1188.11C324.426 1187.58 324.857 1187.15 325.388 1187.15H342.716C343.248 1187.15 343.679 1187.58 343.679 1188.11V1205.44C343.679 1205.97 343.248 1206.4 342.716 1206.4H325.388C324.857 1206.4 324.426 1205.97 324.426 1205.44Z" fill="#21C01C"/>
<path d="M199.283 1147.68V1139.98C199.283 1139.45 199.714 1139.02 200.246 1139.02H212.76C213.292 1139.02 213.723 1139.45 213.723 1139.98V1147.68C213.723 1148.21 213.292 1148.64 212.76 1148.64H200.246C199.714 1148.64 199.283 1148.21 199.283 1147.68Z" fill="#21C01C"/>
<path d="M548.373 306.202V285.514C548.373 284.982 548.804 284.551 549.336 284.551H562.486C563.018 284.551 563.449 284.982 563.449 285.514V306.202C563.449 306.733 563.018 307.164 562.486 307.164H549.336C548.804 307.164 548.373 306.733 548.373 306.202Z" fill="#21C01C"/>
<path d="M454.06 773.529H451.668C451.212 773.529 450.841 773.899 450.841 774.356V777.414C450.841 777.52 450.821 777.624 450.782 777.722C450.111 779.397 449.892 779.821 448.145 779.821H441.78C441.323 779.821 440.953 780.191 440.953 780.648V783.039C440.953 783.496 441.323 783.866 441.779 783.866H445.448C448.145 783.866 448.145 785.664 448.145 787.462V793.377C448.145 793.834 448.515 794.204 448.972 794.204H451.363C451.82 794.204 452.19 793.834 452.19 793.377V790.608C452.19 789.17 453.089 787.912 455.336 787.912H460.802C461.258 787.912 461.629 787.541 461.629 787.084V784.693C461.629 784.237 461.258 783.866 460.802 783.866H458.135C458.067 783.866 458 783.859 457.935 783.84C456.186 783.335 454.887 781.145 454.887 779.821V774.356C454.887 773.899 454.516 773.529 454.06 773.529Z" fill="#217AFF"/>
<path d="M392.161 776.423V773.528C392.161 773.072 392.531 772.701 392.988 772.701H400.431C400.888 772.701 401.258 772.331 401.258 771.874V771.047C401.258 770.59 401.629 770.22 402.085 770.22H406.634C407.091 770.22 407.461 770.59 407.461 771.047V772.701C407.461 773.158 407.831 773.528 408.288 773.528H409.322C409.664 773.528 409.942 773.806 409.942 774.149C409.942 774.491 410.22 774.769 410.562 774.769H416.558C417.015 774.769 417.385 775.139 417.385 775.596V777.663C417.385 778.12 417.015 778.49 416.558 778.49H408.495C408.152 778.49 407.874 778.768 407.874 779.111C407.874 779.453 408.152 779.731 408.495 779.731H419.453C419.91 779.731 420.28 780.101 420.28 780.558V781.534C420.28 781.928 420.002 782.268 419.615 782.345L418.877 782.493C418.49 782.57 418.212 782.909 418.212 783.303V784.693C418.212 785.15 417.842 785.52 417.385 785.52H416.972C416.515 785.52 416.145 785.15 416.145 784.693V783.246C416.145 782.903 415.867 782.625 415.524 782.625C415.182 782.625 414.904 782.903 414.904 783.246V784.693C414.904 785.15 414.534 785.52 414.077 785.52H404.98C404.523 785.52 404.153 785.15 404.153 784.693V783.453C404.153 782.996 403.783 782.625 403.326 782.625H392.988C392.531 782.625 392.161 782.255 392.161 781.798V779.731C392.161 779.274 392.531 778.904 392.988 778.904H400.845C401.302 778.904 401.672 778.534 401.672 778.077C401.672 777.62 401.302 777.25 400.845 777.25H392.988C392.531 777.25 392.161 776.88 392.161 776.423Z" fill="#217AFF"/>
<path d="M443.578 624.207C443.178 621.331 440.719 619.19 437.816 619.19V619.19C435.763 619.19 433.862 620.272 432.814 622.037L432.216 623.043C431.78 623.778 431.466 624.579 431.287 625.414L431.02 626.661C430.556 628.824 430.556 631.06 431.02 633.222L431.287 634.469C431.466 635.305 431.78 636.106 432.216 636.84L432.814 637.846C433.862 639.611 435.763 640.693 437.816 640.693V640.693C440.719 640.693 443.178 638.552 443.578 635.677L444.17 631.423C444.307 630.44 444.307 629.443 444.17 628.46L443.578 624.207Z" fill="#217AFF"/>
<path d="M358.539 724.898V724.69C358.539 724.227 358.934 723.864 359.395 723.901L364.977 724.359C365.365 724.39 365.476 723.842 365.108 723.72C364.754 723.603 364.838 723.08 365.211 723.08H367.29C367.353 723.08 367.416 723.089 367.476 723.107L383.932 727.915C384.352 728.038 384.799 727.856 385.052 727.497C387.772 723.632 391.781 724.014 394.052 724.896C394.487 725.064 394.993 724.957 395.279 724.589L395.409 724.419C395.677 724.073 396.153 723.943 396.516 724.187C398.148 725.284 399.151 727.572 399.621 729.201C399.764 729.694 399.379 730.162 398.865 730.162C398.404 730.162 398.034 730.544 398.048 731.005L398.051 731.124C398.063 731.513 398.316 731.854 398.685 731.979L402.094 733.134C402.647 733.321 403.237 732.971 403.384 732.406C405.564 723.998 412.886 724.543 416.2 726.175C416.685 726.414 416.698 727.055 416.271 727.388C415.906 727.674 415.853 728.202 416.112 728.586C418.266 731.781 417.317 735.08 416.294 736.803C416.127 737.085 416.242 737.463 416.55 737.574C417.04 737.749 416.948 738.467 416.43 738.514L409.641 739.123C409.323 739.151 409.214 739.562 409.477 739.743C409.797 739.965 409.555 740.465 409.182 740.35L407.405 739.803C407.056 739.696 406.681 739.905 406.522 740.233C405.614 742.11 402.338 745.911 396.296 744.111C395.956 744.01 396.526 743.825 397.109 743.349C397.491 743.037 397.412 742.476 397.056 742.134C396.527 741.625 395.804 740.857 395.433 740.141C394.925 739.161 394.759 737.627 394.704 736.713C394.678 736.269 394.373 735.882 393.941 735.777L391.118 735.091C390.48 734.936 389.87 735.45 389.865 736.106C389.859 736.823 389.803 737.687 389.608 738.317C389.364 739.105 388.879 739.791 388.504 740.238C388.249 740.54 388.266 741.01 388.572 741.259C388.886 741.514 388.886 741.985 388.551 742.212C387.623 742.844 385.753 743.921 383.567 744.111C381.699 744.274 379.946 743.859 378.837 743.499C378.225 743.301 378.09 742.578 378.491 742.075C378.724 741.783 378.746 741.658 378.605 741.536C376.006 739.284 376.013 735.348 377.158 732.95C377.508 732.215 377.194 731.051 376.403 730.858L373.862 730.238C373.256 730.09 372.647 730.549 372.522 731.161C372.178 732.852 371.041 735.886 367.278 737.459C364.814 738.488 361.945 737.788 360.273 737.191C359.606 736.953 359.52 736.106 360.065 735.652C360.462 735.321 360.783 735.023 360.697 734.991C358.162 734.021 357.566 728.581 359.067 726.276C359.27 725.965 359.189 725.484 358.844 725.347C358.66 725.274 358.539 725.096 358.539 724.898Z" fill="#217AFF"/>
<path d="M438.384 586.363L441.445 585.909C441.78 583.245 442.537 580.546 443.913 578.017L443.969 577.914L444.069 577.854L445.029 577.277L445.218 577.164L445.42 577.251L446.764 577.827L447.024 577.938V579.655L446.989 579.736C445.615 582.922 443.664 591.639 446.998 600.732L447.024 600.804V602.508L446.764 602.619L445.42 603.195L445.218 603.282L445.029 603.169L444.069 602.593L443.955 602.524L443.899 602.402C443.001 600.433 441.955 597.174 441.484 593.385L438.384 592.929V603.23H434.452V601.502H432.724V595.842H434.452V583.452H432.724V578.561H434.452V575.872H438.384V586.363ZM438.739 587.904V591.745L441.774 592.048C441.643 590.503 441.617 588.887 441.742 587.248L438.739 587.904Z" fill="#217AFF"/>
<path d="M434.792 664.676H436.621V662.509H439.914V681.565H436.621V679.201H434.792V683.827L439.841 688.293L443.144 684.992L443.193 684.941L443.243 684.992L446.002 687.75L446.052 687.799L440.241 693.61L436.306 690.199L434.382 692.573L434.366 692.592L434.342 692.597C433.559 692.757 432.914 692.712 432.388 692.531C431.861 692.349 431.457 692.032 431.152 691.651C430.544 690.891 430.329 689.88 430.316 689.18L430.315 689.155L430.331 689.135L432.26 686.692L431.325 685.882L431.302 685.861V662.509H434.792V664.676ZM434.724 672.628V678.146H436.693V672.628H434.724ZM434.65 671.713H436.762V665.859H434.65V671.713Z" fill="#217AFF"/>
<path d="M520.45 558.736H493.871M520.45 558.736V543.785M520.45 558.736V577.093C520.45 578.423 519.372 579.5 518.043 579.5H496.278C494.949 579.5 493.871 578.423 493.871 577.093V558.736M493.871 558.736V553.433C493.871 552.837 494.093 552.261 494.493 551.819L501.045 544.577C501.501 544.073 502.15 543.785 502.83 543.785H520.45M520.45 543.785V537.367" stroke="#BDB16F" stroke-width="2.4066"/>
<path d="M484.319 526.616C479.506 526.616 473.489 530.562 473.489 538.649C473.489 545.697 478.262 548.252 482.171 549.133C483.377 549.405 484.319 550.42 484.319 551.657V682.335C484.319 682.799 484.185 683.253 483.933 683.642L471.469 702.905C471.217 703.294 471.083 703.748 471.083 704.212V790.729C471.083 791.132 471.184 791.528 471.376 791.881L478.009 804.04C478.201 804.394 478.302 804.79 478.302 805.193V808.189C478.302 809.518 479.38 810.595 480.709 810.595H533.281C534.389 810.595 535.354 811.353 535.618 812.429L550.422 872.845C550.474 873.059 550.497 873.279 550.489 873.498L549.375 906.94C549.331 908.237 548.267 909.266 546.969 909.266H492.742C491.413 909.266 490.335 910.344 490.335 911.673V981.447C490.335 982.783 489.247 983.863 487.912 983.854L321.612 982.674C321.006 982.67 320.425 982.438 319.983 982.023L303.742 966.798C302.576 965.705 302.798 963.813 304.018 962.781C307.985 959.427 308.953 955.226 305.027 950.178C298.316 941.55 286.408 947.922 286.694 955.627C286.734 956.692 286.363 957.789 285.469 958.369C280.392 961.662 270.855 968.034 266.521 970.634C260.505 974.244 258.098 981.464 258.098 987.481V1002.56C258.098 1002.93 258.011 1003.3 257.844 1003.63L254.742 1009.84C254.575 1010.17 254.488 1010.54 254.488 1010.91V1056.78C254.488 1057.1 254.554 1057.43 254.683 1057.73L257.904 1065.24C258.032 1065.54 258.098 1065.86 258.098 1066.19V1146.85C258.098 1147.29 258.217 1147.72 258.441 1148.09L293.854 1207.11C294.079 1207.49 294.197 1207.92 294.197 1208.35V1246.73C294.197 1247.16 294.079 1247.59 293.854 1247.97L290.93 1252.84C290.706 1253.21 290.587 1253.64 290.587 1254.08V1260.63" stroke="#C800FF" stroke-width="1.2033" stroke-linecap="round"/>
<path d="M486.872 526.537C489.739 527.253 494.399 529.955 496.046 535.329C496.397 536.474 497.388 537.366 498.585 537.366H534.286C535.865 537.366 537.016 538.861 536.612 540.388L520.644 600.839C520.591 601.04 520.564 601.246 520.564 601.454V744.035C520.564 744.234 520.589 744.432 520.637 744.624L552.971 872.761C553.026 872.977 553.05 873.201 553.043 873.425L551.923 909.262C551.882 910.561 550.817 911.593 549.518 911.593H495.295C493.966 911.593 492.888 912.671 492.888 914V983.775C492.888 985.11 491.801 986.19 490.465 986.181L320.558 985.001C319.95 984.997 319.367 984.763 318.925 984.347L300.025 966.559C299.478 966.044 298.723 965.822 297.977 965.909C296.21 966.115 294.01 966.162 292.318 965.522C291.286 965.131 290.069 964.937 289.122 965.505L272.684 975.368C269.908 977.351 264.624 982.705 265.434 988.407C265.452 988.538 265.464 988.671 265.464 988.804L265.464 1002.48C265.464 1002.85 265.551 1003.22 265.718 1003.55L268.82 1009.76C268.987 1010.09 269.074 1010.46 269.074 1010.83V1055.5C269.074 1055.82 269.008 1056.14 268.88 1056.44L265.659 1063.96C265.531 1064.26 265.464 1064.58 265.464 1064.91V1144.4C265.464 1144.81 265.573 1145.22 265.779 1145.59L300.046 1205.85C300.252 1206.21 300.36 1206.62 300.36 1207.04V1249.15C300.36 1249.53 300.447 1249.89 300.614 1250.23L302.513 1254.03C302.68 1254.36 302.767 1254.73 302.767 1255.1V1274.99C302.767 1276.32 301.689 1277.4 300.36 1277.4H293.14C291.811 1277.4 290.734 1276.32 290.734 1274.99V1267.77C290.734 1266.44 289.656 1265.36 288.327 1265.36V1265.36C286.998 1265.36 285.921 1264.29 285.921 1262.96V1246.11C285.921 1244.78 284.843 1243.7 283.514 1243.7H251.025C249.696 1243.7 248.618 1244.78 248.618 1246.11V1252.13C248.618 1253.46 249.696 1254.53 251.025 1254.53H277.497C278.827 1254.53 279.904 1255.61 279.904 1256.94V1273.79" stroke="#DB0016" stroke-width="1.2033" stroke-linecap="round"/>
<path d="M203.012 1069.9L198.336 1066.31C197.978 1066.03 197.49 1066.42 197.671 1066.83L199.474 1070.93C199.547 1071.09 199.713 1071.2 199.893 1071.19L204.109 1070.99C204.195 1070.99 204.28 1071.01 204.354 1071.05L208.38 1073.47C208.491 1073.54 208.566 1073.65 208.586 1073.77L209.581 1080.03C209.654 1080.49 210.294 1080.53 210.429 1080.09L211.801 1075.59C211.857 1075.4 211.787 1075.21 211.629 1075.1L210.189 1074.12C210.055 1074.03 209.982 1073.87 210.001 1073.71L210.945 1065.76C210.961 1065.62 211.038 1065.5 211.153 1065.43L215.376 1062.9C215.764 1062.66 215.583 1062.07 215.131 1062.09L210.265 1062.32C210.048 1062.33 209.872 1062.49 209.852 1062.71L209.595 1065.41C209.583 1065.54 209.517 1065.65 209.414 1065.72L203.531 1069.91C203.374 1070.02 203.164 1070.02 203.012 1069.9Z" fill="#21C01C"/>
<path d="M226.645 1074.08L221.035 1072.26C220.606 1072.12 220.274 1072.65 220.583 1072.97L223.655 1076.23C223.778 1076.36 223.97 1076.41 224.137 1076.34L228.043 1074.74C228.122 1074.71 228.21 1074.7 228.294 1074.71L232.898 1075.65C233.024 1075.67 233.132 1075.75 233.194 1075.86L236.226 1081.42C236.448 1081.83 237.065 1081.66 237.044 1081.2L236.83 1076.49C236.821 1076.3 236.689 1076.14 236.505 1076.09L234.821 1075.65C234.663 1075.61 234.542 1075.49 234.506 1075.33L232.731 1067.52C232.701 1067.39 232.734 1067.25 232.819 1067.14L235.949 1063.34C236.236 1062.99 235.866 1062.49 235.447 1062.66L230.939 1064.51C230.738 1064.59 230.628 1064.8 230.681 1065.02L231.344 1067.65C231.375 1067.77 231.351 1067.9 231.278 1068L227.136 1073.92C227.026 1074.07 226.827 1074.14 226.645 1074.08Z" fill="#21C01C"/>
<path d="M208.42 1091.74L214.306 1091.37C214.756 1091.34 214.871 1090.73 214.463 1090.54L210.407 1088.64C210.244 1088.56 210.05 1088.59 209.92 1088.72L206.878 1091.64C206.816 1091.7 206.738 1091.74 206.653 1091.76L202.03 1092.59C201.904 1092.61 201.774 1092.58 201.675 1092.5L196.807 1088.44C196.452 1088.15 195.941 1088.53 196.131 1088.96L198.062 1093.25C198.14 1093.42 198.323 1093.53 198.513 1093.5L200.239 1093.29C200.401 1093.27 200.56 1093.34 200.652 1093.48L205.179 1100.08C205.255 1100.19 205.276 1100.34 205.235 1100.46L203.727 1105.15C203.588 1105.58 204.117 1105.91 204.444 1105.6L207.955 1102.22C208.111 1102.07 208.133 1101.83 208.007 1101.66L206.422 1099.45C206.348 1099.35 206.323 1099.22 206.352 1099.1L208.024 1092.07C208.068 1091.89 208.229 1091.75 208.42 1091.74Z" fill="#21C01C"/>
<path d="M234.152 1099.67L239.829 1101.27C240.263 1101.4 240.574 1100.86 240.252 1100.54L237.057 1097.41C236.928 1097.28 236.735 1097.24 236.571 1097.32L232.73 1099.07C232.652 1099.1 232.564 1099.12 232.48 1099.1L227.843 1098.35C227.716 1098.33 227.605 1098.26 227.539 1098.14L224.293 1092.71C224.056 1092.31 223.445 1092.51 223.484 1092.97L223.881 1097.66C223.897 1097.85 224.035 1098 224.222 1098.04L225.921 1098.42C226.08 1098.45 226.207 1098.57 226.249 1098.73L228.326 1106.47C228.361 1106.6 228.333 1106.74 228.252 1106.84L225.273 1110.77C224.999 1111.13 225.389 1111.61 225.801 1111.43L230.234 1109.41C230.431 1109.32 230.532 1109.1 230.471 1108.89L229.707 1106.29C229.672 1106.16 229.69 1106.03 229.759 1105.93L233.668 1099.86C233.771 1099.69 233.968 1099.62 234.152 1099.67Z" fill="#21C01C"/>
<path d="M292.162 1101.06L293.873 1105.74C294.004 1106.1 294.526 1106.05 294.583 1105.67L295.154 1101.93C295.177 1101.78 295.105 1101.63 294.972 1101.55L291.872 1099.79C291.809 1099.75 291.758 1099.7 291.725 1099.63L289.947 1096.08C289.898 1095.98 289.895 1095.87 289.938 1095.77L292.062 1090.85C292.217 1090.49 291.781 1090.17 291.484 1090.43L288.464 1093.02C288.341 1093.12 288.302 1093.3 288.366 1093.44L288.951 1094.79C289.005 1094.92 288.985 1095.07 288.898 1095.17L284.62 1100.42C284.548 1100.51 284.439 1100.56 284.325 1100.56L280.161 1100.46C279.778 1100.45 279.636 1100.96 279.969 1101.15L283.547 1103.19C283.706 1103.28 283.908 1103.24 284.021 1103.09L285.428 1101.28C285.493 1101.2 285.592 1101.15 285.699 1101.14L291.797 1100.82C291.958 1100.81 292.107 1100.91 292.162 1101.06Z" fill="#21C01C"/>
<path d="M330.668 1101.06L332.379 1105.74C332.509 1106.1 333.032 1106.05 333.089 1105.67L333.66 1101.93C333.683 1101.78 333.611 1101.63 333.478 1101.55L330.378 1099.79C330.315 1099.75 330.264 1099.7 330.231 1099.63L328.453 1096.08C328.404 1095.98 328.401 1095.87 328.444 1095.77L330.568 1090.85C330.723 1090.49 330.286 1090.17 329.99 1090.43L326.97 1093.02C326.847 1093.12 326.808 1093.3 326.872 1093.44L327.457 1094.79C327.511 1094.92 327.491 1095.07 327.404 1095.17L323.126 1100.42C323.054 1100.51 322.945 1100.56 322.831 1100.56L318.666 1100.46C318.284 1100.45 318.142 1100.96 318.475 1101.15L322.053 1103.19C322.212 1103.28 322.414 1103.24 322.526 1103.09L323.933 1101.28C323.999 1101.2 324.098 1101.15 324.205 1101.14L330.303 1100.82C330.464 1100.81 330.613 1100.91 330.668 1101.06Z" fill="#21C01C"/>
<path d="M340.015 1125.6L338.445 1130.33C338.325 1130.69 338.767 1130.98 339.046 1130.72L341.819 1128.14C341.93 1128.04 341.966 1127.87 341.91 1127.73L340.579 1124.42C340.552 1124.35 340.545 1124.28 340.56 1124.21L341.372 1120.32C341.395 1120.21 341.463 1120.12 341.559 1120.07L346.278 1117.54C346.622 1117.35 346.48 1116.83 346.089 1116.84L342.112 1117C341.951 1117.01 341.812 1117.12 341.771 1117.27L341.39 1118.69C341.355 1118.83 341.248 1118.93 341.114 1118.96L334.499 1120.42C334.387 1120.44 334.271 1120.41 334.183 1120.34L330.983 1117.67C330.689 1117.43 330.263 1117.74 330.405 1118.09L331.941 1121.92C332.01 1122.09 332.193 1122.18 332.371 1122.14L334.599 1121.59C334.702 1121.56 334.812 1121.59 334.9 1121.65L339.878 1125.18C340.01 1125.28 340.066 1125.45 340.015 1125.6Z" fill="#A3A3A3"/>
<path d="M329.769 1146.82L328.199 1151.55C328.079 1151.92 328.52 1152.2 328.8 1151.94L331.573 1149.36C331.684 1149.26 331.72 1149.09 331.663 1148.95L330.333 1145.64C330.306 1145.57 330.299 1145.5 330.314 1145.43L331.126 1141.54C331.148 1141.43 331.217 1141.34 331.313 1141.29L336.032 1138.76C336.376 1138.57 336.234 1138.05 335.843 1138.06L331.866 1138.22C331.705 1138.23 331.566 1138.34 331.525 1138.49L331.144 1139.91C331.109 1140.05 331.002 1140.15 330.868 1140.18L324.253 1141.64C324.141 1141.66 324.025 1141.63 323.937 1141.56L320.737 1138.89C320.443 1138.65 320.017 1138.96 320.159 1139.31L321.695 1143.14C321.764 1143.31 321.947 1143.4 322.125 1143.36L324.352 1142.81C324.456 1142.79 324.566 1142.81 324.653 1142.87L329.632 1146.4C329.764 1146.5 329.82 1146.67 329.769 1146.82Z" fill="#A3A3A3"/>
<path d="M305.701 1132.38L304.132 1137.11C304.012 1137.48 304.453 1137.76 304.732 1137.5L307.505 1134.92C307.617 1134.82 307.653 1134.65 307.596 1134.51L306.265 1131.2C306.238 1131.13 306.232 1131.06 306.247 1130.99L307.059 1127.1C307.081 1126.99 307.149 1126.9 307.245 1126.85L311.964 1124.32C312.309 1124.13 312.166 1123.61 311.776 1123.62L307.799 1123.78C307.637 1123.79 307.499 1123.9 307.457 1124.05L307.077 1125.47C307.041 1125.61 306.935 1125.71 306.8 1125.74L300.185 1127.2C300.074 1127.22 299.957 1127.19 299.87 1127.12L296.67 1124.45C296.376 1124.21 295.949 1124.52 296.092 1124.87L297.628 1128.7C297.696 1128.87 297.879 1128.96 298.057 1128.92L300.285 1128.37C300.389 1128.35 300.499 1128.37 300.586 1128.43L305.565 1131.96C305.697 1132.06 305.752 1132.23 305.701 1132.38Z" fill="#A3A3A3"/>
<path d="M199.81 1129.97L198.24 1134.71C198.12 1135.07 198.561 1135.35 198.841 1135.09L201.614 1132.51C201.725 1132.41 201.761 1132.25 201.705 1132.11L200.374 1128.79C200.347 1128.73 200.34 1128.65 200.355 1128.58L201.167 1124.69C201.189 1124.59 201.258 1124.5 201.354 1124.45L206.073 1121.91C206.417 1121.73 206.275 1121.2 205.884 1121.22L201.907 1121.37C201.746 1121.38 201.607 1121.49 201.566 1121.65L201.185 1123.07C201.15 1123.2 201.043 1123.3 200.909 1123.33L194.294 1124.79C194.182 1124.82 194.066 1124.79 193.978 1124.71L190.778 1122.05C190.484 1121.8 190.058 1122.11 190.2 1122.47L191.736 1126.29C191.805 1126.46 191.988 1126.55 192.166 1126.51L194.393 1125.96C194.497 1125.94 194.607 1125.96 194.694 1126.02L199.673 1129.56C199.805 1129.65 199.861 1129.82 199.81 1129.97Z" fill="#A3A3A3"/>
<path d="M231.096 1139.6L229.526 1144.33C229.406 1144.7 229.848 1144.98 230.127 1144.72L232.9 1142.14C233.011 1142.04 233.047 1141.87 232.991 1141.73L231.66 1138.42C231.633 1138.35 231.626 1138.28 231.641 1138.21L232.453 1134.32C232.476 1134.21 232.544 1134.12 232.64 1134.07L237.359 1131.54C237.703 1131.35 237.561 1130.83 237.17 1130.84L233.193 1131C233.032 1131.01 232.893 1131.12 232.852 1131.27L232.471 1132.69C232.436 1132.83 232.329 1132.93 232.195 1132.96L225.58 1134.42C225.468 1134.44 225.352 1134.41 225.264 1134.34L222.064 1131.67C221.77 1131.43 221.344 1131.74 221.486 1132.09L223.022 1135.92C223.091 1136.09 223.274 1136.18 223.452 1136.14L225.68 1135.59C225.784 1135.57 225.893 1135.59 225.981 1135.65L230.959 1139.18C231.091 1139.28 231.147 1139.45 231.096 1139.6Z" fill="#A3A3A3"/>
<path d="M257.04 934.456H228.161V968.148H241.661V957.918H244.74V953.234H248.961V945.323H257.04V934.456Z" fill="#21C01C"/>
<ellipse cx="464.516" cy="278.898" rx="21.6711" ry="20.7289" fill="#D21648"/>
<ellipse cx="463.573" cy="213.885" rx="24.4978" ry="27.3244" fill="#D21648"/>
<path d="M533.298 267.576C533.298 287.341 531.577 302.512 513.511 303.365C495.445 304.217 493.725 287.341 493.725 267.576C493.725 247.81 495.445 232.639 513.511 231.787C533.298 231.787 533.298 247.81 533.298 267.576Z" fill="#D21648"/>
<path d="M710.529 561.189C704.085 579.874 697.512 593.656 680.155 588.571C662.798 583.487 666.673 566.973 673.117 548.287C679.561 529.601 686.134 515.82 703.491 520.904C722.196 527.355 716.973 542.503 710.529 561.189Z" fill="#D21648"/>
<path d="M419.951 180.821L368.553 156.948C366.958 156.207 365.133 157.372 365.133 159.13V258.981C365.133 260.31 366.21 261.387 367.539 261.387H379.045M414.576 261.387H379.045M379.045 261.387V322.105C379.045 323.434 380.123 324.512 381.452 324.512H424.103H537.979C539.308 324.512 540.385 323.434 540.385 322.105V237.301" stroke="#892F2F" stroke-width="2.4066"/>
<path d="M503.336 825.387H496.363C495.947 825.387 495.609 825.724 495.609 826.14V833.113C495.609 833.529 495.947 833.867 496.363 833.867H502.058C502.474 833.867 502.812 834.204 502.812 834.62V839.708C502.812 840.125 503.149 840.462 503.566 840.462H510.873C511.29 840.462 511.627 840.125 511.627 839.708V832.736C511.627 832.32 511.29 831.982 510.873 831.982H504.843C504.427 831.982 504.089 831.645 504.089 831.228V826.14C504.089 825.724 503.752 825.387 503.336 825.387Z" fill="#F7DA69"/>
<circle cx="344.854" cy="305.28" r="5.65333" fill="#21C01C"/>
<circle cx="484.302" cy="537.067" r="5.65333" fill="#21C01C"/>
<circle cx="297.742" cy="955.413" r="5.65333" fill="#21C01C"/>
<defs>
<filter id="filter0_d_2710_1170" x="9.48756" y="61.1787" width="812.949" height="1328.56" filterUnits="userSpaceOnUse" color-interpolation-filters="sRGB">
<feFlood flood-opacity="0" result="BackgroundImageFix"/>
<feColorMatrix in="SourceAlpha" type="matrix" values="0 0 0 0 0 0 0 0 0 0 0 0 0 0 0 0 0 0 127 0" result="hardAlpha"/>
<feOffset dx="4.81321" dy="9.62641"/>
<feGaussianBlur stdDeviation="9.50608"/>
<feComposite in2="hardAlpha" operator="out"/>
<feColorMatrix type="matrix" values="0 0 0 0 0 0 0 0 0 0 0 0 0 0 0 0 0 0 0.3 0"/>
<feBlend mode="normal" in2="BackgroundImageFix" result="effect1_dropShadow_2710_1170"/>
<feBlend mode="normal" in="SourceGraphic" in2="effect1_dropShadow_2710_1170" result="shape"/>
</filter>
</defs>
</svg>
