<svg width="848" height="1405" viewBox="0 0 848 1405" fill="none" xmlns="http://www.w3.org/2000/svg">
<g filter="url(#filter0_d_2694_1028)">
<path d="M637.77 75.9221H320.807C319.092 75.9221 317.927 77.6658 318.584 79.2505L331.928 111.432C332.049 111.724 332.111 112.038 332.111 112.354V189.619C332.111 189.818 332.087 190.016 332.038 190.209L314.713 258.642C314.621 259.005 314.615 259.384 314.696 259.75L319.284 280.604C319.358 280.942 319.359 281.291 319.286 281.628L307.201 337.738C307.147 337.987 307.133 338.243 307.16 338.497L310.418 369.451C310.54 370.602 309.824 371.677 308.714 372.008L274.2 382.323C273.181 382.627 272.482 383.565 272.482 384.629V427.344C272.482 428.673 271.405 429.75 270.076 429.75H200.92C200.692 429.75 200.466 429.782 200.247 429.846L132.93 449.445C131.954 449.729 131.261 450.596 131.2 451.611L122.742 592.441C122.641 594.122 120.889 595.183 119.353 594.492L43.06 560.18C41.4675 559.464 39.6663 560.629 39.6663 562.375V588.868C39.6663 589.183 39.6044 589.495 39.4843 589.786L28.6802 615.966C28.4172 616.603 28.4449 617.329 28.7423 617.951C43.311 648.413 40.3996 675.092 36.5275 686.696C36.1172 687.926 36.6551 689.299 37.8347 689.837L151.355 741.589C153.002 742.34 153.28 744.578 151.934 745.786C131.534 764.099 112.508 806.878 122.533 869.952L153.534 1298.66C153.611 1299.72 154.369 1300.6 155.401 1300.84L401.515 1356.77C403.021 1357.11 404.455 1355.97 404.455 1354.42V1240.72C404.455 1240.53 404.435 1240.35 404.393 1240.17L393.777 1194.33C393.293 1192.24 395.578 1190.61 397.397 1191.74L409.241 1199.15C411.197 1200.37 413.587 1198.4 412.765 1196.25L401.192 1165.88C401.088 1165.61 401.035 1165.32 401.035 1165.02V1127.1C401.035 1125.77 402.112 1124.69 403.441 1124.69H544.544C545.874 1124.69 546.951 1123.61 546.951 1122.28V1025C546.951 1024.61 546.86 1024.24 546.686 1023.9L538.479 1007.87C538.034 1007.01 537.109 1006.49 536.137 1006.57L518.965 1008C517.693 1008.11 516.559 1007.2 516.382 1005.94L505.65 929.481C505.458 928.109 506.461 926.858 507.842 926.747L569.649 921.804C571.112 921.688 572.13 920.301 571.804 918.871L534.724 756.175C534.691 756.029 534.672 755.881 534.666 755.732L530.301 640.925C530.294 640.738 530.308 640.551 530.344 640.368L546.931 556.169C547.201 554.797 548.58 553.944 549.928 554.314L637.226 578.251C637.545 578.339 637.843 578.492 638.101 578.699L711.995 638.318C713.35 639.412 715.382 638.748 715.831 637.066L726.525 596.965C726.87 595.668 728.211 594.905 729.503 595.269L773.636 607.706C774.67 607.998 775.772 607.569 776.336 606.655L793.439 578.966C793.673 578.586 793.798 578.148 793.798 577.701V483.293C793.798 480.494 789.825 479.95 789.073 482.647L781.6 509.445C781.298 510.53 780.299 511.269 779.187 511.088C755.709 507.271 667.494 456.692 624.013 430.48C623.251 430.021 622.326 430.035 621.562 430.491L589.612 449.578C589.239 449.801 588.813 449.919 588.378 449.919H572.388C570.972 449.919 569.862 448.702 569.992 447.292L595.578 168.883C595.605 168.587 595.687 168.298 595.82 168.031L639.925 79.4009C640.721 77.801 639.557 75.9221 637.77 75.9221Z" fill="#1C1C1C"/>
<path d="M637.77 75.9221H320.807C319.092 75.9221 317.927 77.6658 318.584 79.2505L331.928 111.432C332.049 111.724 332.111 112.038 332.111 112.354V189.619C332.111 189.818 332.087 190.016 332.038 190.209L314.713 258.642C314.621 259.005 314.615 259.384 314.696 259.75L319.284 280.604C319.358 280.942 319.359 281.291 319.286 281.628L307.201 337.738C307.147 337.987 307.133 338.243 307.16 338.497L310.418 369.451C310.54 370.602 309.824 371.677 308.714 372.008L274.2 382.323C273.181 382.627 272.482 383.565 272.482 384.629V427.344C272.482 428.673 271.405 429.75 270.076 429.75H200.92C200.692 429.75 200.466 429.782 200.247 429.846L132.93 449.445C131.954 449.729 131.261 450.596 131.2 451.611L122.742 592.441C122.641 594.122 120.889 595.183 119.353 594.492L43.06 560.18C41.4675 559.464 39.6663 560.629 39.6663 562.375V588.868C39.6663 589.183 39.6044 589.495 39.4843 589.786L28.6802 615.966C28.4172 616.603 28.4449 617.329 28.7423 617.951C43.311 648.413 40.3996 675.092 36.5275 686.696C36.1172 687.926 36.6551 689.299 37.8347 689.837L151.355 741.589C153.002 742.34 153.28 744.578 151.934 745.786C131.534 764.099 112.508 806.878 122.533 869.952L153.534 1298.66C153.611 1299.72 154.369 1300.6 155.401 1300.84L401.515 1356.77C403.021 1357.11 404.455 1355.97 404.455 1354.42V1240.72C404.455 1240.53 404.435 1240.35 404.393 1240.17L393.777 1194.33C393.293 1192.24 395.578 1190.61 397.397 1191.74L409.241 1199.15C411.197 1200.37 413.587 1198.4 412.765 1196.25L401.192 1165.88C401.088 1165.61 401.035 1165.32 401.035 1165.02V1127.1C401.035 1125.77 402.112 1124.69 403.441 1124.69H544.544C545.874 1124.69 546.951 1123.61 546.951 1122.28V1025C546.951 1024.61 546.86 1024.24 546.686 1023.9L538.479 1007.87C538.034 1007.01 537.109 1006.49 536.137 1006.57L518.965 1008C517.693 1008.11 516.559 1007.2 516.382 1005.94L505.65 929.481C505.458 928.109 506.461 926.858 507.842 926.747L569.649 921.804C571.112 921.688 572.13 920.301 571.804 918.871L534.724 756.175C534.691 756.029 534.672 755.881 534.666 755.732L530.301 640.925C530.294 640.738 530.308 640.551 530.344 640.368L546.931 556.169C547.201 554.797 548.58 553.944 549.928 554.314L637.226 578.251C637.545 578.339 637.843 578.492 638.101 578.699L711.995 638.318C713.35 639.412 715.382 638.748 715.831 637.066L726.525 596.965C726.87 595.668 728.211 594.905 729.503 595.269L773.636 607.706C774.67 607.998 775.772 607.569 776.336 606.655L793.439 578.966C793.673 578.586 793.798 578.148 793.798 577.701V483.293C793.798 480.494 789.825 479.95 789.073 482.647L781.6 509.445C781.298 510.53 780.299 511.269 779.187 511.088C755.709 507.271 667.494 456.692 624.013 430.48C623.251 430.021 622.326 430.035 621.562 430.491L589.612 449.578C589.239 449.801 588.813 449.919 588.378 449.919H572.388C570.972 449.919 569.862 448.702 569.992 447.292L595.578 168.883C595.605 168.587 595.687 168.298 595.82 168.031L639.925 79.4009C640.721 77.801 639.557 75.9221 637.77 75.9221Z" stroke="#1C1C1C" stroke-width="9.62641"/>
</g>
<path d="M419.806 181.445L364.988 155.983M334.489 302.055C324.19 299.065 323.735 291.635 324.289 287.759L338.763 223.661C338.804 223.48 338.824 223.304 338.822 223.119C338.677 206.113 337.815 169.84 335.502 158.604C333.246 147.648 339.664 145.703 343.462 146.101C343.692 146.126 343.914 146.195 344.124 146.292L364.988 155.983M334.489 302.055C336.151 297.072 341.316 292.743 350.453 295.65C352.348 296.253 354.159 297.731 355.383 299.802M334.489 302.055C332.413 311.192 339.04 317.66 344.223 317.66M356.682 308.108C355.383 314.602 351.345 317.66 344.223 317.66M356.682 308.108C357.325 304.894 356.688 302.011 355.383 299.802M356.682 308.108L378.9 325.135M344.223 317.66V391.997M355.383 299.802L363.536 296.277C364.417 295.896 364.988 295.028 364.988 294.068V262.011M364.988 155.983V262.011M364.988 262.011H378.9M414.431 262.011H378.9M378.9 262.011V325.135M378.9 325.135H423.958M576.371 249.552L567.49 323.017C567.344 324.226 566.318 325.135 565.101 325.135H553.737M540.24 325.135V237.924M540.24 325.135H553.737M540.24 325.135H423.958M553.737 325.135V409.439M485.522 471.808H580.193C581.522 471.808 582.6 472.886 582.6 474.215V538.179M485.522 471.808V484.692C485.522 486.021 484.445 487.098 483.115 487.098H423.958M485.522 471.808C485.522 471.808 485.522 465.792 495.148 465.792C500.392 465.792 540.992 465.792 551.342 465.792C552.671 465.792 553.737 464.714 553.737 463.385V409.439M582.6 556.867V538.179M582.6 538.179H536.502M495.803 538.179C495.803 534.026 492.067 527.797 484.175 527.797C476.284 527.797 472.963 536.103 474.208 541.086M495.803 538.179C495.803 543.578 490.572 550.139 484.591 549.807M495.803 538.179C505.372 538.179 520.306 538.179 520.306 538.179H536.502M474.208 541.086C475.12 544.734 477.116 549.392 484.591 549.807M474.208 541.086H358.342M484.591 549.807V653.214M471.717 791.921V704.2C471.717 703.721 471.86 703.252 472.128 702.855L484.18 684.971C484.448 684.574 484.591 684.105 484.591 683.626V653.214M471.717 791.921L466.067 806.451C465.959 806.729 465.903 807.025 465.903 807.323V840.926C465.765 843.279 464.242 848.816 459.259 852.139C454.369 855.398 434.687 867.454 424.925 873.398C424.56 873.621 424.267 873.932 424.065 874.309L421.783 878.546C421.576 878.93 421.27 879.25 420.896 879.473L374.539 907.09M471.717 791.921L478.509 805.107C478.685 805.448 478.777 805.826 478.777 806.209V811.025M304.355 948.901C302.278 947.24 296.879 944.749 290.651 948.901M304.355 948.901C305.665 951.218 306.339 953.291 306.544 955.131M304.355 948.901L374.539 907.09M290.651 948.901L287.192 942.37C287.009 942.023 286.913 941.636 286.913 941.243V929.798M290.651 948.901C288.055 950.631 286.563 954.333 286.913 957.622M299.787 965.928L319.019 984.76C319.469 985.2 320.073 985.447 320.702 985.447H337.993M299.787 965.928C297.23 967.09 293.337 966.602 290.651 964.682M299.787 965.928C303.247 964.355 307.184 960.876 306.544 955.131M160.664 764.512L145.143 795.146C144.972 795.483 144.883 795.856 144.883 796.234V914.094C144.883 914.584 145.033 915.063 145.313 915.466L155.266 929.798M160.664 764.512L173.246 741.378C173.438 741.026 173.538 740.63 173.538 740.229V728.382M160.664 764.512H200.532M223.788 764.512V929.798M223.788 764.512H251.198M223.788 764.512H200.532M223.788 1034.04L254.935 1034.45M223.788 1034.04V1025.73M223.788 1034.04H180.598M155.266 929.798H223.788M155.266 929.798C155.195 942.435 155.11 962.229 155.088 980.048M223.788 929.798V991.261M223.788 929.798H269.055M286.913 929.798V873.734M286.913 929.798H269.055M173.538 718C178.937 716.339 181.844 712.186 179.768 703.88M173.538 718C165.648 718 161.177 715.657 160.664 707.202M173.538 718V728.382M179.768 703.88C178.373 694.813 159.834 693.498 160.664 707.202M179.768 703.88L204.24 690.854C205.025 690.436 205.516 689.619 205.516 688.73V656.122M160.664 707.202H144.883M144.883 612.931C133.532 609.055 108.172 599.891 97.5401 594.243C87.4698 588.893 81.8211 592.809 79.9588 595.826C79.7625 596.144 79.6826 596.514 79.6826 596.888V681.958C79.6826 682.914 80.2478 683.779 81.1228 684.162L133.208 707C133.513 707.133 133.842 707.202 134.175 707.202H144.883M144.883 612.931V707.202M144.883 612.931V541.086M284.836 451.383C246.906 454.29 168.97 460.354 160.664 461.35C152.989 462.271 147.559 466.81 145.359 469.46C145.036 469.849 144.883 470.344 144.883 470.85V541.086M284.836 451.383L343.205 410.158C343.844 409.707 344.223 408.974 344.223 408.193V391.997M284.836 451.383V465.919M344.223 391.997H385.837C387.166 391.997 388.243 393.074 388.243 394.404V396.565M284.836 541.086H251.198M284.836 541.086V465.919M284.836 541.086H358.342M217.144 541.086C214.237 527.797 193.472 528.212 193.057 541.086M217.144 541.086C217.144 548.146 211.33 552.299 205.516 552.714M217.144 541.086H251.198M193.057 541.086C192.802 548.973 198.04 552.714 205.516 552.714M193.057 541.086H144.883M205.516 552.714V656.122M205.516 656.122H251.198M251.198 656.122V541.086M251.198 656.122V685.607M251.198 685.607V728.382M251.198 685.607H290.65M329.687 685.607H308.508M308.508 685.607V728.382M308.508 685.607H290.65M308.508 728.382H290.65M308.508 728.382H323.458H251.198M251.198 728.382H290.65M251.198 728.382V764.512M290.65 685.607V728.382M251.198 764.512H284.506C285.835 764.512 286.913 765.59 286.913 766.919V873.734M200.532 764.512V730.789C200.532 729.46 199.455 728.382 198.125 728.382H173.538M536.502 538.179L520.381 601.009C520.331 601.204 520.306 601.405 520.306 601.607V653.214M492.066 985.447V914.347C492.066 913.018 493.143 911.94 494.473 911.94H549.876C551.206 911.94 552.283 910.863 552.283 909.534V876.1C552.283 875.907 552.26 875.716 552.214 875.529L546.294 851.308M492.066 985.447H337.993M492.066 985.447L518.16 1020.1C518.475 1020.52 518.644 1021.03 518.644 1021.55V1071.83M337.993 985.447V1041.93M337.993 1098.41V1075.98M337.993 1098.41V1108.87C337.993 1110.2 336.916 1111.28 335.587 1111.28H311.83M337.993 1098.41H382.429M518.644 1071.83H529.942C531.272 1071.83 532.349 1072.9 532.349 1074.23V1096C532.349 1097.33 531.272 1098.41 529.942 1098.41H518.644M518.644 1071.83V1098.41M518.644 1098.41H414.407M337.993 1041.93H412C413.329 1041.93 414.407 1043 414.407 1044.33V1098.41M337.993 1041.93V1075.98M414.407 1098.41H382.429M286.913 957.622C287.072 959.123 287.883 960.237 288.359 961.25C288.518 961.588 288.722 961.907 288.925 962.22C289.415 962.979 289.712 964.011 290.651 964.682M286.913 957.622L268.224 970.081C264.764 972.019 257.925 978.636 258.257 989.6C258.548 999.192 258.436 1003.55 258.311 1004.95C258.285 1005.24 258.181 1005.5 258.032 1005.75L255.292 1010.2C255.059 1010.58 254.935 1011.02 254.935 1011.46V1034.45M254.935 1058.12L258.069 1065.57C258.193 1065.86 258.257 1066.18 258.257 1066.5V1147.99C258.257 1148.43 258.375 1148.85 258.597 1149.23L294.048 1208.72C294.27 1209.09 294.388 1209.52 294.388 1209.95V1247.57C294.388 1248.06 294.238 1248.54 293.96 1248.94L291.078 1253.11C290.799 1253.51 290.65 1253.99 290.65 1254.48V1278.69C290.65 1278.93 290.613 1279.18 290.541 1279.41L288.683 1285.35C288.611 1285.58 288.574 1285.83 288.574 1286.07V1309.37M254.935 1058.12V1034.45M254.935 1058.12L250.323 1065.42C250.081 1065.81 249.952 1066.25 249.952 1066.71V1109.2M288.574 1309.37L274.869 1326.82M288.574 1309.37L306.016 1313.53M306.016 1313.53L318.475 1337.2M306.016 1313.53V1286.27C306.016 1285.9 305.929 1285.53 305.762 1285.19L302.948 1279.57C302.78 1279.23 302.694 1278.86 302.694 1278.49V1264.11M290.651 964.682L273.208 975.895C268.224 978.802 265.456 985.862 265.317 989.6V1004.63C265.317 1005.12 265.467 1005.6 265.745 1006L268.627 1010.16C268.906 1010.56 269.055 1011.04 269.055 1011.53V1034.45M306.544 955.131L423.801 884.461C424.176 884.235 424.606 884.116 425.043 884.116H427.86C428.296 884.116 428.724 883.997 429.098 883.773L465.757 861.778C465.854 861.72 465.945 861.657 466.033 861.585C470.501 857.914 479.106 848.822 478.777 840.926V811.025M478.777 811.025H536.447M536.447 811.025L520.374 745.275C520.329 745.088 520.306 744.896 520.306 744.704V653.214M536.447 811.025L546.294 851.308M546.294 851.308H518.144C516.815 851.308 515.737 850.23 515.737 848.901V845.079M515.737 845.079V823.814C515.737 822.485 514.66 821.407 513.331 821.407H494.1C492.771 821.407 491.693 822.485 491.693 823.814V842.672C491.693 844.001 492.771 845.079 494.1 845.079H515.737ZM286.913 873.734H350.027C350.813 873.734 351.551 874.118 352.001 874.764L374.539 907.09M223.788 991.261H237.531C238.707 991.261 239.716 990.41 239.849 989.241C240.894 980.011 239.186 971.168 254.105 961.775C265.317 954.715 269.055 946.825 269.055 941.841V929.798M223.788 991.261V1025.73M155.088 980.048C155.066 997.169 155.103 1012.47 155.266 1017.84C155.594 1028.67 165.677 1033.1 170.859 1034C170.986 1034.03 171.111 1034.04 171.24 1034.04H180.598M155.088 980.048C158.746 980.879 166.146 984.284 166.478 991.261C166.804 998.095 166.624 1013.19 166.487 1020.31C166.481 1020.6 166.523 1020.89 166.645 1021.15C167.567 1023.16 170.447 1026.35 176.03 1025.73H180.598M223.788 1025.73H180.598M180.598 1025.73V1034.04M180.598 1034.04V1101.16C180.598 1101.79 180.351 1102.4 179.91 1102.85L160.975 1122.17C160.512 1122.64 160.264 1123.28 160.289 1123.94L161.449 1153.64M285.251 1244.17V1212.85C285.251 1212.42 285.136 1212 284.917 1211.63L249.952 1152.39M285.251 1244.17H248.29M285.251 1244.17V1274.07M249.952 1152.39V1109.2M249.952 1152.39H226.695M249.952 1109.2H243.307M243.307 1109.2V1059.28C243.307 1057.95 242.23 1056.88 240.9 1056.88H192.972C191.643 1056.88 190.565 1057.95 190.565 1059.28V1110.95C190.565 1112.28 191.643 1113.36 192.972 1113.36H214.463C214.86 1113.36 215.25 1113.45 215.6 1113.64L226.078 1119.25C226.481 1119.47 226.938 1119.57 227.394 1119.53L241.08 1118.51C242.336 1118.41 243.307 1117.37 243.307 1116.11V1109.2ZM161.449 1153.64L164.402 1229.22C164.817 1234.48 169.718 1244.84 185.997 1244.17H195.133M161.449 1153.64H184.336M248.29 1244.17V1252.98C248.29 1254.31 249.368 1255.39 250.697 1255.39H257.842M248.29 1244.17H225.865M257.842 1255.39H277.031C278.36 1255.39 279.437 1256.46 279.437 1257.79V1266.6M257.842 1255.39V1266.6M257.842 1266.6H279.437M257.842 1266.6V1279.89M279.437 1266.6V1274.07M257.842 1279.89V1290.77C257.842 1292.1 258.92 1293.18 260.249 1293.18H277.031C278.36 1293.18 279.437 1292.1 279.437 1290.77V1279.89M257.842 1279.89H279.437M279.437 1279.89V1274.07M195.133 1244.17V1262.44C195.133 1263.44 195.752 1264.34 196.688 1264.69L225.865 1275.73M195.133 1244.17H225.865M225.865 1275.73H231.764C233.093 1275.73 234.171 1274.66 234.171 1273.33V1250.88C234.171 1250.06 233.759 1249.3 233.076 1248.86L225.865 1244.17M225.865 1275.73V1244.17M285.251 1279.89V1274.07M285.251 1274.07H279.437M302.694 1264.11V1254.25C302.694 1253.9 302.618 1253.56 302.472 1253.24L300.423 1248.81C300.277 1248.49 300.202 1248.15 300.202 1247.8V1206.62C300.202 1206.19 300.087 1205.77 299.87 1205.4L265.649 1147.14C265.432 1146.77 265.317 1146.35 265.317 1145.92V1066.55C265.317 1066.2 265.397 1065.85 265.549 1065.52L268.823 1058.61C268.976 1058.29 269.055 1057.94 269.055 1057.58V1034.45M302.694 1264.11H310.999M310.999 1264.11V1279.89M310.999 1264.11V1241.27M269.055 1034.45L276.221 1047.19C276.424 1047.55 276.53 1047.96 276.53 1048.37V1075.98M276.53 1075.98V1111.28M276.53 1075.98H295.634M337.993 1075.98H319.72M276.53 1111.28V1143.85C276.53 1144.28 276.645 1144.7 276.863 1145.07L300.202 1184.72M276.53 1111.28H302.694M295.634 1075.98V1093.37C295.634 1093.68 295.693 1093.99 295.809 1094.27L302.694 1111.28M295.634 1075.98H319.72M302.694 1111.28H311.83M311.83 1111.28L319.506 1094.31C319.647 1094 319.72 1093.66 319.72 1093.32V1075.98M382.429 1098.41V1181.46M382.429 1181.46H372.462M382.429 1181.46C382.291 1184.79 382.595 1191.93 384.921 1193.92C387.828 1196.41 390.32 1216.35 389.904 1218.42C389.489 1220.5 384.921 1241.27 367.894 1241.27C354.273 1241.27 324.289 1241.27 310.999 1241.27M306.016 1181.46L300.202 1184.72M306.016 1181.46L318.085 1199.17C318.34 1199.54 318.484 1199.98 318.501 1200.43L319.63 1229.4C319.681 1230.69 320.742 1231.71 322.035 1231.71H365.183C365.599 1231.71 366.006 1231.61 366.364 1231.4C370.691 1228.86 378.761 1223.2 380.353 1218.42C382.429 1212.2 377.861 1196 375.369 1193.92C373.376 1192.26 372.601 1184.92 372.462 1181.46M306.016 1181.46H372.462M300.202 1184.72L310.667 1202.49C310.884 1202.86 310.999 1203.29 310.999 1203.71V1241.27M284.836 465.919H352.528M423.958 465.919V427.712M423.958 465.919V487.098M423.958 465.919H352.528M423.958 427.712H418.137M423.958 427.712V325.135M423.958 487.098H419.097C417.768 487.098 416.691 488.176 416.691 489.505V502.134C416.691 503.463 415.613 504.541 414.284 504.541H358.342M352.528 465.919V502.134C352.528 503.463 353.606 504.541 354.935 504.541H358.342M358.342 504.541V541.086M553.737 409.439H456.766M484.591 653.214H520.306" stroke="#4E4E4E" stroke-width="2.4066"/>
<path d="M532.497 444.659H554.923M532.497 444.659H502.511C501.182 444.659 500.104 443.581 500.104 442.252V428.41M532.497 444.659V428.41M500.104 428.41V412.181C500.104 410.852 501.182 409.774 502.511 409.774H530.09C531.42 409.774 532.497 410.852 532.497 412.181V428.41M500.104 428.41H532.497M485.569 501.969V516.576C485.569 517.91 486.655 518.99 487.989 518.983L514.547 518.839M485.569 501.969H504.673M485.569 501.969V486.731M514.547 501.812V518.839M514.547 501.812L504.673 501.969M514.547 501.812V495.239C514.547 493.91 515.625 492.832 516.954 492.832H534.989M514.547 518.839L529.175 518.996M504.673 501.969V477.882M504.673 477.882H487.976C486.647 477.882 485.569 478.96 485.569 480.289V486.731M504.673 477.882H534.989M534.989 477.882V492.832M534.989 477.882H549.443M534.989 501.969H531.581C530.252 501.969 529.175 503.046 529.175 504.375V518.996M534.989 501.969V492.832M534.989 501.969H547.036C548.365 501.969 549.443 500.891 549.443 499.562V492.832M529.175 518.996H561.152M549.443 477.882H573.281C574.61 477.882 575.687 478.96 575.687 480.289V492.832M549.443 477.882V492.832M549.443 492.832H561.152M575.687 492.832V516.589C575.687 517.918 574.61 518.996 573.281 518.996H561.152M575.687 492.832H561.152M561.152 492.832V518.996M485.569 486.731H426.407C425.077 486.731 424 485.654 424 484.325V458.464" stroke="#BDB16F" stroke-width="2.4066" stroke-linecap="round"/>
<path d="M450.684 985.367V977.336C450.684 977.189 450.671 977.042 450.642 976.898C449.464 970.999 445.097 966.94 436.564 967.925M436.564 967.925V956.659C436.564 955.33 435.486 954.253 434.157 954.253H402.84C401.511 954.253 400.434 955.33 400.434 956.659V975.485C400.434 976.814 401.511 977.892 402.84 977.892H434.157C435.486 977.892 436.564 976.814 436.564 975.485V967.925Z" stroke="#966174" stroke-width="2.4066"/>
<path d="M356.826 431.786H341.79C340.461 431.786 339.384 432.863 339.384 434.193V457.289C339.384 458.619 340.461 459.696 341.79 459.696H356.826M356.826 431.786V416.75C356.826 415.421 357.903 414.344 359.233 414.344H361.394M356.826 431.786V443.414M373.853 414.344V396.902M373.853 414.344H361.394M373.853 414.344V424.726M373.853 396.902H363.801C362.472 396.902 361.394 397.979 361.394 399.308V414.344M373.853 396.902H390.049M373.853 443.414H356.826M373.853 443.414H400.847M373.853 443.414V424.726M417.874 443.414V457.289C417.874 458.619 416.796 459.696 415.467 459.696H356.826M417.874 443.414V411.437M417.874 443.414H400.847M356.826 443.414V459.696M390.049 396.902H415.467C416.796 396.902 417.874 397.979 417.874 399.308V411.437M390.049 396.902V409.03C390.049 410.359 391.127 411.437 392.456 411.437H417.874M400.847 443.414V427.133C400.847 425.804 399.769 424.726 398.44 424.726H373.853" stroke="#BDB16F" stroke-width="2.4066"/>
<path d="M463.573 181.365H422.774C421.445 181.365 420.367 182.442 420.367 183.771V219.14M463.573 181.365C481.015 181.365 493.724 193.7 493.724 212.545C493.724 237.042 479.591 247.407 463.573 247.407C455.103 247.407 448.498 245.942 439.075 235.158M463.573 181.365C449.869 181.365 432.48 189.931 432.48 212.545C432.48 225.73 433.152 228.378 439.075 235.158M442.378 271.898H422.774C421.445 271.898 420.367 270.821 420.367 269.491V219.14M420.367 219.14L439.075 235.158" stroke="#892F2F" stroke-width="2.4066"/>
<path d="M439.055 864.932C436.425 862.302 431.165 854.965 431.165 846.66M431.165 846.66V803.885M431.165 846.66H403.67C402.341 846.66 401.264 845.582 401.264 844.253V791.807M431.165 764.432H290.549C289.125 764.432 288.013 763.175 288.633 761.893C289.875 759.322 292.804 756.637 298.687 757.372C308.654 758.618 325.266 752.389 324.02 742.422V712.936M431.165 764.432H473.109M431.165 764.432V803.885M431.165 764.432L424.521 754.662C424.25 754.263 424.105 753.792 424.105 753.309V729.548M431.165 803.885L447.096 817.824C447.535 818.208 448.098 818.42 448.681 818.42H467.295M336.894 607.452L318.1 575.585C317.897 575.24 317.783 574.85 317.768 574.45L316.545 541.006M336.894 607.452V654.38M336.894 607.452H347.276M324.02 712.936V698.475C324.02 698.152 324.085 697.832 324.211 697.535L336.702 668.12C336.829 667.823 336.894 667.503 336.894 667.18V654.38M324.02 712.936H347.276M424.105 712.936V729.548M424.105 712.936H375.101M424.105 712.936V688.434M424.105 654.38H456.082M424.105 654.38H375.101M424.105 654.38V623.233M424.105 654.38V688.434M336.894 654.38H347.276M484.322 654.38H473.109M456.082 654.38V629.463M456.082 654.38V702.154C456.082 702.419 456.126 702.682 456.211 702.932L461.896 719.581M456.082 654.38H473.109M461.896 719.581H472.279M461.896 719.581H439.886M439.886 719.581L424.105 729.548M439.886 719.581L433.946 713.641C433.495 713.19 433.241 712.577 433.241 711.939V706.291M347.276 712.936V654.38M347.276 712.936H375.101M347.276 654.38H375.101M375.101 712.936V697.986M375.101 654.38V623.233M375.101 654.38V670.992M375.101 623.233H424.105M375.101 623.233V592.087M375.101 623.233H349.683C348.354 623.233 347.276 622.156 347.276 620.827V607.452M424.105 623.233V592.087M424.105 541.006V570.907M424.105 570.907V592.087M424.105 570.907H395.242M424.105 592.087H385.068M375.101 592.087H368.786C367.457 592.087 366.38 591.009 366.38 589.68V584.196M375.101 592.087H385.068M366.38 584.196V573.313C366.38 571.984 367.457 570.907 368.786 570.907H385.068M366.38 584.196H349.683C348.354 584.196 347.276 585.274 347.276 586.603V607.452M395.242 570.907V541.006M395.242 570.907H385.068M375.101 697.986C389.082 697.847 418.457 695.743 424.105 688.434M375.101 697.986V683.035M424.105 688.434C421.447 684.115 407.216 678.052 400.433 675.56M375.101 683.035C382.161 682.343 397.111 679.879 400.433 675.56M375.101 683.035V670.992M400.433 675.56C394.204 673.483 380.915 669.746 375.101 670.992M484.322 610.775H473.109M424.105 610.775H467.71M467.71 610.775V560.439C467.71 559.11 468.788 558.033 470.117 558.033H484.322M467.71 610.775H473.109M473.109 610.775V623.856V636.938M473.109 654.38V688.434M385.068 570.907V592.087" stroke="#6D7CB2" stroke-width="2.4066"/>
<path d="M390.919 417.216L391.743 416.392H395.452V420.1L394.627 420.924H390.919V417.216Z" fill="#D9D9D9"/>
<path d="M399.16 415.569L399.984 414.745H403.693V418.453L402.869 419.277H399.16V415.569Z" fill="#D9D9D9"/>
<path d="M366.197 404.854L367.021 404.03H370.73V407.739L369.906 408.563H366.197V404.854Z" fill="#D9D9D9"/>
<path d="M348.462 439.468L349.287 438.644H352.583L353.407 439.468V442.352L352.995 443.176H350.111V446.061H352.995L353.407 446.473V449.769L352.995 450.593H349.699V453.89L349.287 454.302H345.578L345.166 453.89V450.593L345.578 450.181H348.462V446.473H345.578L345.166 446.061V442.352L345.578 441.94H348.462V439.468Z" fill="#FBDB5F"/>
<path d="M364.944 422.16L365.768 421.336H369.065L369.889 422.16V425.044L369.477 425.869H366.592V428.753H369.477L369.889 429.165V432.461L369.477 433.286H366.18V436.582L365.768 436.994H362.06L361.647 436.582V433.286L362.06 432.874H364.944V429.165H362.06L361.647 428.753V425.044L362.06 424.632H364.944V422.16Z" fill="#FBDB5F"/>
<path d="M409.446 424.633L410.27 423.809H413.566L414.391 424.633V427.517L413.979 428.341H411.094V431.226H413.979L414.391 431.638V434.934L413.979 435.759H410.682V439.055L410.27 439.467H406.561L406.149 439.055V435.759L406.561 435.346H409.446V431.638H406.561L406.149 431.226V427.517L406.561 427.105H409.446V424.633Z" fill="#FBDB5F"/>
<path d="M381.425 403.206L382.249 402.382H385.546L386.37 403.206V406.091L385.958 406.915H383.074V409.799H385.958L386.37 410.211V413.508L385.958 414.332H382.662V417.628L382.249 418.04H378.541L378.129 417.628V414.332L378.541 413.92H381.425V410.211H378.541L378.129 409.799V406.091L378.541 405.679H381.425V403.206Z" fill="#FBDB5F"/>
<path d="M381.427 434.523L380.603 433.699V430.402L381.427 429.578H384.311L385.135 429.99V432.875H388.02V429.99L388.432 429.578H391.728L392.552 429.99V433.287H395.849L396.261 433.699V437.407L395.849 437.819H392.552L392.14 437.407V434.523H388.432V437.407L388.02 437.819H384.311L383.899 437.407V434.523H381.427Z" fill="#FBDB5F"/>
<path d="M364.945 453.477L364.121 452.653V449.357L364.945 448.533H367.83L368.654 448.945V451.829H371.538V448.945L371.95 448.533H375.247L376.071 448.945V452.241H379.367L379.779 452.653V456.362L379.367 456.774H376.071L375.659 456.362V453.477H371.95V456.362L371.538 456.774H367.83L367.418 456.362V453.477H364.945Z" fill="#FBDB5F"/>
<path d="M396.26 453.477L395.436 452.653V449.357L396.26 448.533H399.144L399.968 448.945V451.829H402.853V448.945L403.265 448.533H406.561L407.385 448.945V452.241H410.682L411.094 452.653V456.362L410.682 456.774H407.385L406.973 456.362V453.477H403.265V456.362L402.853 456.774H399.144L398.732 456.362V453.477H396.26Z" fill="#FBDB5F"/>
<path d="M397.908 405.678L397.084 404.854V401.558L397.908 400.734H400.793L401.617 401.146V404.03H404.501V401.146L404.913 400.734H408.21L409.034 401.146V404.442H412.33L412.742 404.854V408.563L412.33 408.975H409.034L408.622 408.563V405.678H404.913V408.563L404.501 408.975H400.793L400.38 408.563V405.678H397.908Z" fill="#FBDB5F"/>
<path d="M506.821 492.836L507.614 492.043H511.181V495.61L510.389 496.403H506.821V492.836Z" fill="#D9D9D9"/>
<path d="M553.053 497.791L553.845 496.998H557.413V500.565L556.62 501.358H553.053V497.791Z" fill="#D9D9D9"/>
<path d="M515.129 485.701L514.336 484.908V481.737L515.129 480.945H517.903L518.696 481.341V484.115H521.47V481.341L521.867 480.945H525.038L525.83 481.341V484.512H529.001L529.398 484.908V488.475L529.001 488.872H525.83L525.434 488.475V485.701H521.867V488.475L521.47 488.872H517.903L517.507 488.475V485.701H515.129Z" fill="#FADB5F"/>
<path d="M514.376 552.293L515.169 551.501V548.33L514.376 547.537H511.602L510.809 547.933V550.708H508.034V547.933L507.638 547.537H504.467L503.674 547.933V551.104H500.504L500.107 551.501V555.068L500.504 555.464H503.674L504.071 555.068V552.293H507.638V555.068L508.034 555.464H511.602L511.998 555.068V552.293H514.376Z" fill="#FADB5F"/>
<path d="M514.376 569.139L515.169 568.346V565.176L514.376 564.383H511.602L510.809 564.779V567.554H508.034V564.779L507.638 564.383H504.467L503.674 564.779V567.95H500.504L500.107 568.346V571.914L500.504 572.31H503.674L504.071 571.914V569.139H507.638V571.914L508.034 572.31H511.602L511.998 571.914V569.139H514.376Z" fill="#FADB5F"/>
<path d="M556.253 485.701L555.46 484.908V481.737L556.253 480.945H559.027L559.82 481.341V484.115H562.594V481.341L562.991 480.945H566.162L566.954 481.341V484.512H570.125L570.522 484.908V488.475L570.125 488.872H566.954L566.558 488.475V485.701H562.991V488.475L562.594 488.872H559.027L558.631 488.475V485.701H556.253Z" fill="#FADB5F"/>
<path d="M537 511.381L536.207 510.588V507.417L537 506.624H539.774L540.567 507.021V509.795H543.342V507.021L543.738 506.624H546.909L547.701 507.021V510.192H550.872L551.269 510.588V514.155L550.872 514.552H547.701L547.305 514.155V511.381H543.738V514.155L543.342 514.552H539.774L539.378 514.155V511.381H537Z" fill="#FADB5F"/>
<path d="M491.274 511.381L490.481 510.588V507.417L491.274 506.624H494.049L494.841 507.021V509.795H497.616V507.021L498.012 506.624H501.183L501.976 507.021V510.192H505.147L505.543 510.588V514.155L505.147 514.552H501.976L501.58 514.155V511.381H498.012V514.155L497.616 514.552H494.049L493.652 514.155V511.381H491.274Z" fill="#FADB5F"/>
<path d="M520.677 497.591L521.469 496.798H524.64L525.433 497.591V500.366L525.037 501.158H522.262V503.933H525.037L525.433 504.329V507.5L525.037 508.293H521.866V511.464L521.469 511.86H517.902L517.506 511.464V508.293L517.902 507.896H520.677V504.329H517.902L517.506 503.933V500.366L517.902 499.969H520.677V497.591Z" fill="#FADB5F"/>
<path d="M541.523 492.763L542.212 492.074H544.968L545.657 492.763V495.174L545.313 495.863H542.901V498.275H545.313L545.657 498.619V501.375L545.313 502.064H542.557V504.82L542.212 505.164H539.112L538.768 504.82V502.064L539.112 501.719H541.523V498.619H539.112L538.768 498.275V495.174L539.112 494.83H541.523V492.763Z" fill="#FADB5F"/>
<path d="M540.497 482.531L541.29 481.738H544.461L545.253 482.531V485.305L544.857 486.098H542.083V488.873H544.857L545.253 489.269V492.44L544.857 493.232H541.686V496.403L541.29 496.8H537.723L537.326 496.403V493.232L537.723 492.836H540.497V489.269H537.723L537.326 488.873V485.305L537.723 484.909H540.497V482.531Z" fill="#FADB5F"/>
<path d="M494.52 482.531L495.312 481.738H498.483L499.276 482.531V485.305L498.879 486.098H496.105V488.873H498.879L499.276 489.269V492.44L498.879 493.232H495.709V496.403L495.312 496.8H491.745L491.349 496.403V493.232L491.745 492.836H494.52V489.269H491.745L491.349 488.873V485.305L491.745 484.909H494.52V482.531Z" fill="#FADB5F"/>
<path d="M406.251 962.676C406.251 961.347 407.328 960.269 408.658 960.269H415.877C417.207 960.269 418.284 961.347 418.284 962.676V969.895C418.284 971.225 417.207 972.302 415.877 972.302H408.658C407.328 972.302 406.251 971.225 406.251 969.895V962.676Z" fill="#FF00D7"/>
<rect x="497.703" y="364.635" width="14.4396" height="2.4066" rx="1.2033" fill="#F7DA69"/>
<rect x="514.549" y="364.635" width="16.8462" height="2.4066" rx="1.2033" fill="#F7DA69"/>
<rect x="497.703" y="369.448" width="14.4396" height="2.4066" rx="1.2033" fill="#F7DA69"/>
<rect x="504.921" y="403.141" width="16.8462" height="2.4066" rx="1.2033" transform="rotate(-90 504.921 403.141)" fill="#F7DA69"/>
<rect x="509.734" y="403.141" width="16.8462" height="2.4066" rx="1.2033" transform="rotate(-90 509.734 403.141)" fill="#F7DA69"/>
<rect x="514.549" y="403.141" width="16.8462" height="2.4066" rx="1.2033" transform="rotate(-90 514.549 403.141)" fill="#F7DA69"/>
<rect x="519.361" y="403.141" width="16.8462" height="2.4066" rx="1.2033" transform="rotate(-90 519.361 403.141)" fill="#F7DA69"/>
<rect x="524.174" y="403.141" width="16.8462" height="2.4066" rx="1.2033" transform="rotate(-90 524.174 403.141)" fill="#F7DA69"/>
<rect x="528.988" y="403.141" width="16.8462" height="2.4066" rx="1.2033" transform="rotate(-90 528.988 403.141)" fill="#F7DA69"/>
<rect x="514.549" y="369.448" width="16.8462" height="2.4066" rx="1.2033" fill="#F7DA69"/>
<rect x="519.361" y="374.261" width="12.033" height="4.81321" rx="1.2033" fill="#F7DA69"/>
<rect x="504.921" y="374.261" width="12.033" height="4.81321" rx="1.2033" fill="#F7DA69"/>
<rect x="504.921" y="448.865" width="21.3156" height="12.7894" rx="1.06578" fill="#F28521"/>
<rect x="358.12" y="470.526" width="21.3156" height="12.7894" rx="1.06578" fill="#F28521"/>
<rect x="555.911" y="543.264" width="21.3156" height="12.7894" rx="1.06578" fill="#F28521"/>
<rect x="382.542" y="190.873" width="21.3156" height="12.7894" rx="1.06578" fill="#D21648"/>
<rect x="599.253" y="466.002" width="62.1867" height="71.6089" rx="1.06578" fill="#D21648"/>
<rect x="408.925" y="209.718" width="15.0756" height="16.96" rx="1.06578" transform="rotate(90 408.925 209.718)" fill="#D21648"/>
<rect x="616.213" y="548.918" width="15.0756" height="16.96" rx="1.06578" transform="rotate(90 616.213 548.918)" fill="#D21648"/>
<rect x="414.578" y="245.522" width="11.3067" height="13.1911" rx="1.06578" transform="rotate(90 414.578 245.522)" fill="#D21648"/>
<rect x="414.578" y="268.135" width="11.3067" height="30.1511" rx="1.06578" transform="rotate(90 414.578 268.135)" fill="#D21648"/>
<rect x="388.195" y="215.371" width="35.8044" height="18.8444" rx="1.06578" transform="rotate(90 388.195 215.371)" fill="#D21648"/>
<rect x="391.81" y="576.416" width="21.6594" height="12.033" rx="1.06578" fill="#217AFF"/>
<rect x="258.169" y="548.918" width="13.1911" height="13.1911" rx="1.06578" fill="#21C01C"/>
<path d="M275.129 549.984C275.129 549.395 275.606 548.918 276.195 548.918H283.485C284.074 548.918 284.551 549.396 284.551 549.985C284.551 554.146 284.551 556.88 284.551 561.042C284.551 561.631 284.074 562.109 283.485 562.109H276.195C275.606 562.109 275.129 561.632 275.129 561.043V549.984Z" fill="#21C01C"/>
<path d="M288.32 549.984C288.32 549.395 288.797 548.918 289.386 548.918H296.677C297.265 548.918 297.743 549.396 297.743 549.985C297.743 554.146 297.743 556.88 297.743 561.042C297.743 561.631 297.265 562.109 296.677 562.109H289.386C288.797 562.109 288.32 561.632 288.32 561.043V549.984Z" fill="#21C01C"/>
<path d="M301.511 549.984C301.511 549.395 301.988 548.918 302.577 548.918H309.867C310.456 548.918 310.933 549.396 310.933 549.985C310.933 554.146 310.933 556.88 310.933 561.042C310.933 561.631 310.456 562.109 309.867 562.109H302.577C301.988 562.109 301.511 561.632 301.511 561.043V549.984Z" fill="#21C01C"/>
<rect x="370.151" y="578.823" width="9.62641" height="9.62641" rx="1.06578" fill="#217AFF"/>
<rect x="389.404" y="470.526" width="21.6594" height="28.8792" rx="1.2033" fill="#F28521"/>
<rect x="497.703" y="374.261" width="4.81321" height="4.81321" rx="1.2033" fill="#F7DA69"/>
<rect x="497.703" y="386.294" width="4.81321" height="9.62641" rx="1.2033" fill="#F7DA69"/>
<rect x="504.921" y="381.481" width="4.81321" height="2.4066" rx="1.2033" fill="#F7DA69"/>
<rect x="519.361" y="381.481" width="4.81321" height="2.4066" rx="1.2033" fill="#F7DA69"/>
<rect x="512.14" y="381.481" width="4.81321" height="2.4066" rx="1.2033" fill="#F7DA69"/>
<rect x="526.581" y="381.481" width="4.81321" height="2.4066" rx="1.2033" fill="#F7DA69"/>
<path d="M523.985 420.244C523.852 420.244 523.744 420.352 523.744 420.485V422.152C523.744 422.285 523.636 422.393 523.503 422.393H521.32C521.187 422.393 521.08 422.285 521.08 422.152V420.485C521.08 420.352 520.972 420.244 520.839 420.244H516.352V419.729V417.735C516.352 417.602 516.46 417.494 516.593 417.494L517.917 417.494C518.049 417.494 518.157 417.386 518.157 417.253V415.414C518.157 415.281 518.265 415.173 518.398 415.173L520.581 415.173C520.714 415.173 520.822 415.281 520.822 415.414V417.253C520.822 417.386 520.929 417.494 521.062 417.494L525.652 417.494C525.785 417.494 525.893 417.602 525.893 417.735V420.004C525.893 420.137 525.785 420.244 525.652 420.244H523.985Z" fill="#F7DA69"/>
<path d="M506.829 419.729C506.962 419.729 507.07 419.621 507.07 419.488V417.821C507.07 417.688 507.177 417.58 507.31 417.58H509.493C509.626 417.58 509.734 417.688 509.734 417.821V419.488C509.734 419.621 509.842 419.729 509.975 419.729H514.461V420.244V422.238C514.461 422.371 514.354 422.479 514.221 422.479H512.897C512.764 422.479 512.656 422.587 512.656 422.72V424.559C512.656 424.692 512.549 424.8 512.416 424.8H510.233C510.1 424.8 509.992 424.692 509.992 424.559V422.72C509.992 422.587 509.884 422.479 509.751 422.479H505.162C505.029 422.479 504.921 422.371 504.921 422.238V419.969C504.921 419.836 505.029 419.729 505.162 419.729H506.829Z" fill="#F7DA69"/>
<path d="M516.352 420.244H520.839C520.972 420.244 521.08 420.352 521.08 420.485V422.152C521.08 422.285 521.187 422.393 521.32 422.393H523.503C523.636 422.393 523.744 422.285 523.744 422.152V420.485C523.744 420.352 523.852 420.244 523.985 420.244H525.652C525.785 420.244 525.893 420.137 525.893 420.004V417.735C525.893 417.602 525.785 417.494 525.652 417.494L521.062 417.494C520.929 417.494 520.822 417.386 520.822 417.253V415.414C520.822 415.281 520.714 415.173 520.581 415.173L518.398 415.173C518.265 415.173 518.157 415.281 518.157 415.414V417.253C518.157 417.386 518.049 417.494 517.917 417.494L516.593 417.494C516.46 417.494 516.352 417.602 516.352 417.735V419.729M516.352 420.244V419.729M516.352 420.244H514.461M516.352 419.729L514.461 419.729M514.461 419.729H509.975C509.842 419.729 509.734 419.621 509.734 419.488V417.821C509.734 417.688 509.626 417.58 509.493 417.58H507.31C507.177 417.58 507.07 417.688 507.07 417.821V419.488C507.07 419.621 506.962 419.729 506.829 419.729H505.162C505.029 419.729 504.921 419.836 504.921 419.969V422.238C504.921 422.371 505.029 422.479 505.162 422.479H509.751C509.884 422.479 509.992 422.587 509.992 422.72V424.559C509.992 424.692 510.1 424.8 510.233 424.8H512.416C512.549 424.8 512.656 424.692 512.656 424.559V422.72C512.656 422.587 512.764 422.479 512.897 422.479H514.221C514.354 422.479 514.461 422.371 514.461 422.238V420.244M514.461 419.729V420.244" stroke="#F7DA69" stroke-width="0.859501"/>
<path d="M523.985 437.091C523.852 437.091 523.744 437.198 523.744 437.331V438.999C523.744 439.132 523.636 439.239 523.503 439.239H521.32C521.187 439.239 521.08 439.132 521.08 438.999V437.331C521.08 437.198 520.972 437.091 520.839 437.091H516.352V436.575V434.581C516.352 434.448 516.46 434.34 516.593 434.34L517.917 434.34C518.049 434.34 518.157 434.232 518.157 434.1V432.26C518.157 432.127 518.265 432.02 518.398 432.02L520.581 432.02C520.714 432.02 520.822 432.127 520.822 432.26V434.1C520.822 434.232 520.929 434.34 521.062 434.34L525.652 434.34C525.785 434.34 525.893 434.448 525.893 434.581V436.85C525.893 436.983 525.785 437.091 525.652 437.091H523.985Z" fill="#F7DA69"/>
<path d="M506.829 436.575C506.962 436.575 507.07 436.467 507.07 436.334V434.667C507.07 434.534 507.177 434.426 507.31 434.426H509.493C509.626 434.426 509.734 434.534 509.734 434.667V436.334C509.734 436.467 509.842 436.575 509.975 436.575H514.461V437.091V439.085C514.461 439.218 514.354 439.325 514.221 439.325H512.897C512.764 439.325 512.656 439.433 512.656 439.566V441.405C512.656 441.538 512.549 441.646 512.416 441.646H510.233C510.1 441.646 509.992 441.538 509.992 441.405V439.566C509.992 439.433 509.884 439.325 509.751 439.325H505.162C505.029 439.325 504.921 439.218 504.921 439.085V436.816C504.921 436.683 505.029 436.575 505.162 436.575H506.829Z" fill="#F7DA69"/>
<path d="M516.352 437.091H520.839C520.972 437.091 521.08 437.198 521.08 437.331V438.999C521.08 439.132 521.187 439.239 521.32 439.239H523.503C523.636 439.239 523.744 439.132 523.744 438.999V437.331C523.744 437.198 523.852 437.091 523.985 437.091H525.652C525.785 437.091 525.893 436.983 525.893 436.85V434.581C525.893 434.448 525.785 434.34 525.652 434.34L521.062 434.34C520.929 434.34 520.822 434.232 520.822 434.1V432.26C520.822 432.127 520.714 432.02 520.581 432.02L518.398 432.02C518.265 432.02 518.157 432.127 518.157 432.26V434.1C518.157 434.232 518.049 434.34 517.917 434.34L516.593 434.34C516.46 434.34 516.352 434.448 516.352 434.581V436.575M516.352 437.091V436.575M516.352 437.091H514.461M516.352 436.575L514.461 436.575M514.461 436.575H509.975C509.842 436.575 509.734 436.467 509.734 436.334V434.667C509.734 434.534 509.626 434.426 509.493 434.426H507.31C507.177 434.426 507.07 434.534 507.07 434.667V436.334C507.07 436.467 506.962 436.575 506.829 436.575H505.162C505.029 436.575 504.921 436.683 504.921 436.816V439.085C504.921 439.218 505.029 439.325 505.162 439.325H509.751C509.884 439.325 509.992 439.433 509.992 439.566V441.405C509.992 441.538 510.1 441.646 510.233 441.646H512.416C512.549 441.646 512.656 441.538 512.656 441.405V439.566C512.656 439.433 512.764 439.325 512.897 439.325H514.221C514.354 439.325 514.461 439.218 514.461 439.085V437.091M514.461 436.575V437.091" stroke="#F7DA69" stroke-width="0.859501"/>
<path d="M540.763 436.644C540.763 436.511 540.655 436.403 540.522 436.403L538.855 436.403C538.722 436.403 538.614 436.296 538.614 436.163L538.614 433.98C538.614 433.847 538.722 433.739 538.855 433.739L540.522 433.739C540.655 433.739 540.763 433.631 540.763 433.498L540.763 429.012L541.279 429.012L543.273 429.012C543.406 429.012 543.513 429.119 543.513 429.252L543.513 430.576C543.513 430.709 543.621 430.817 543.754 430.817L545.593 430.817C545.726 430.817 545.834 430.924 545.834 431.057L545.834 433.24C545.834 433.373 545.726 433.481 545.593 433.481L543.754 433.481C543.621 433.481 543.513 433.589 543.513 433.722L543.513 438.311C543.513 438.444 543.406 438.552 543.273 438.552L541.004 438.552C540.871 438.552 540.763 438.444 540.763 438.311L540.763 436.644Z" fill="#F7DA69"/>
<path d="M541.279 419.488C541.279 419.621 541.386 419.729 541.519 419.729L543.187 419.729C543.32 419.729 543.427 419.837 543.427 419.97L543.427 422.153C543.427 422.286 543.32 422.394 543.187 422.394L541.519 422.394C541.386 422.394 541.279 422.501 541.279 422.634L541.279 427.121L540.763 427.121L538.769 427.121C538.636 427.121 538.528 427.013 538.528 426.88L538.528 425.556C538.528 425.424 538.42 425.316 538.288 425.316L536.448 425.316C536.315 425.316 536.208 425.208 536.208 425.075L536.208 422.892C536.208 422.759 536.315 422.651 536.448 422.651L538.288 422.651C538.42 422.651 538.528 422.544 538.528 422.411L538.528 417.821C538.528 417.688 538.636 417.58 538.769 417.58L541.038 417.58C541.171 417.58 541.279 417.688 541.279 417.821L541.279 419.488Z" fill="#F7DA69"/>
<path d="M540.763 429.012L540.763 433.498C540.763 433.631 540.655 433.739 540.522 433.739L538.855 433.739C538.722 433.739 538.614 433.847 538.614 433.98L538.614 436.163C538.614 436.296 538.722 436.403 538.855 436.403L540.522 436.403C540.655 436.403 540.763 436.511 540.763 436.644L540.763 438.311C540.763 438.444 540.871 438.552 541.004 438.552L543.273 438.552C543.406 438.552 543.513 438.444 543.513 438.311L543.513 433.722C543.513 433.589 543.621 433.481 543.754 433.481L545.593 433.481C545.726 433.481 545.834 433.373 545.834 433.24L545.834 431.057C545.834 430.924 545.726 430.817 545.593 430.817L543.754 430.817C543.621 430.817 543.513 430.709 543.513 430.576L543.513 429.252C543.513 429.119 543.406 429.012 543.273 429.012L541.279 429.012M540.763 429.012L541.279 429.012M540.763 429.012L540.763 427.121M541.279 429.012L541.279 427.121M541.279 427.121L541.279 422.634C541.279 422.501 541.386 422.394 541.519 422.394L543.187 422.394C543.32 422.394 543.427 422.286 543.427 422.153L543.427 419.97C543.427 419.837 543.32 419.729 543.187 419.729L541.519 419.729C541.386 419.729 541.279 419.621 541.279 419.488L541.279 417.821C541.279 417.688 541.171 417.58 541.038 417.58L538.769 417.58C538.636 417.58 538.528 417.688 538.528 417.821L538.528 422.411C538.528 422.544 538.42 422.651 538.288 422.651L536.448 422.651C536.315 422.651 536.208 422.759 536.208 422.892L536.208 425.075C536.208 425.208 536.315 425.316 536.448 425.316L538.288 425.316C538.42 425.316 538.528 425.424 538.528 425.556L538.528 426.88C538.528 427.013 538.636 427.121 538.769 427.121L540.763 427.121M541.279 427.121L540.763 427.121" stroke="#F7DA69" stroke-width="0.859501"/>
<path d="M490.225 436.644C490.225 436.511 490.117 436.403 489.984 436.403L488.317 436.403C488.184 436.403 488.076 436.296 488.076 436.163L488.076 433.98C488.076 433.847 488.184 433.739 488.317 433.739L489.984 433.739C490.117 433.739 490.225 433.631 490.225 433.498L490.225 429.012L490.741 429.012L492.735 429.012C492.867 429.012 492.975 429.119 492.975 429.252L492.975 430.576C492.975 430.709 493.083 430.817 493.216 430.817L495.055 430.817C495.188 430.817 495.296 430.924 495.296 431.057L495.296 433.24C495.296 433.373 495.188 433.481 495.055 433.481L493.216 433.481C493.083 433.481 492.975 433.589 492.975 433.722L492.975 438.311C492.975 438.444 492.867 438.552 492.735 438.552L490.465 438.552C490.333 438.552 490.225 438.444 490.225 438.311L490.225 436.644Z" fill="#F7DA69"/>
<path d="M490.741 419.488C490.741 419.621 490.848 419.729 490.981 419.729L492.649 419.729C492.782 419.729 492.889 419.837 492.889 419.97L492.889 422.153C492.889 422.286 492.782 422.394 492.649 422.394L490.981 422.394C490.848 422.394 490.741 422.501 490.741 422.634L490.741 427.121L490.225 427.121L488.231 427.121C488.098 427.121 487.99 427.013 487.99 426.88L487.99 425.556C487.99 425.424 487.882 425.316 487.749 425.316L485.91 425.316C485.777 425.316 485.669 425.208 485.669 425.075L485.669 422.892C485.669 422.759 485.777 422.651 485.91 422.651L487.749 422.651C487.882 422.651 487.99 422.544 487.99 422.411L487.99 417.821C487.99 417.688 488.098 417.58 488.231 417.58L490.5 417.58C490.633 417.58 490.741 417.688 490.741 417.821L490.741 419.488Z" fill="#F7DA69"/>
<path d="M490.225 429.012L490.225 433.498C490.225 433.631 490.117 433.739 489.984 433.739L488.317 433.739C488.184 433.739 488.076 433.847 488.076 433.98L488.076 436.163C488.076 436.296 488.184 436.403 488.317 436.403L489.984 436.403C490.117 436.403 490.225 436.511 490.225 436.644L490.225 438.311C490.225 438.444 490.333 438.552 490.465 438.552L492.735 438.552C492.867 438.552 492.975 438.444 492.975 438.311L492.975 433.722C492.975 433.589 493.083 433.481 493.216 433.481L495.055 433.481C495.188 433.481 495.296 433.373 495.296 433.24L495.296 431.057C495.296 430.924 495.188 430.817 495.055 430.817L493.216 430.817C493.083 430.817 492.975 430.709 492.975 430.576L492.975 429.252C492.975 429.119 492.867 429.012 492.735 429.012L490.741 429.012M490.225 429.012L490.741 429.012M490.225 429.012L490.225 427.121M490.741 429.012L490.741 427.121M490.741 427.121L490.741 422.634C490.741 422.501 490.848 422.394 490.981 422.394L492.649 422.394C492.782 422.394 492.889 422.286 492.889 422.153L492.889 419.97C492.889 419.837 492.782 419.729 492.649 419.729L490.981 419.729C490.848 419.729 490.741 419.621 490.741 419.488L490.741 417.821C490.741 417.688 490.633 417.58 490.5 417.58L488.231 417.58C488.098 417.58 487.99 417.688 487.99 417.821L487.99 422.411C487.99 422.544 487.882 422.651 487.749 422.651L485.91 422.651C485.777 422.651 485.669 422.759 485.669 422.892L485.669 425.075C485.669 425.208 485.777 425.316 485.91 425.316L487.749 425.316C487.882 425.316 487.99 425.424 487.99 425.556L487.99 426.88C487.99 427.013 488.098 427.121 488.231 427.121L490.225 427.121M490.741 427.121L490.225 427.121" stroke="#F7DA69" stroke-width="0.859501"/>
<path d="M184.578 988.685V992.51M184.371 1019.28L184.578 1014.74M184.578 1014.74H180.029M184.578 1014.74V1001.71M184.578 1014.74H196.57M213.11 1014.74H208.561M184.578 1001.71H180.029M184.578 1001.71H196.57M184.578 1001.71V992.51M196.57 1001.71V1014.74M196.57 1001.71V992.51M196.57 1001.71H208.561M196.57 1014.74L196.363 1019.28M196.57 1014.74H208.561M196.57 979.174V983.309M196.57 983.309H192.021H196.363M196.57 983.309V992.51M201.532 983.309H196.363M196.363 983.309L196.57 992.51M196.57 992.51H201.532M196.57 992.51H184.578M213.11 1001.71H208.561M208.561 1001.71V997.782V1014.74" stroke="#21C01C" stroke-width="3.30808"/>
<path d="M355.196 672.351H357.756C358.243 672.351 358.627 672.768 358.592 673.254C358.486 674.745 358.34 677.646 358.733 678.553C359.373 680.036 360.732 681.695 361.146 681.861C361.492 682.001 363.584 676.673 364.25 674.948C364.374 674.628 364.681 674.418 365.024 674.418H366.94C367.529 674.418 367.931 675.015 367.71 675.561C366.892 677.588 365.281 681.658 365.281 682.275C365.281 682.369 365.075 682.492 364.808 682.629L363.627 683.515C364.46 684.842 367.078 686.353 366.935 686.823C366.683 687.65 365.509 688.434 365.281 688.891C364.97 689.513 367.235 694.118 368.375 696.358C368.657 696.913 368.255 697.575 367.633 697.575H365.364C365.058 697.575 364.778 697.408 364.633 697.139C363.872 695.728 361.492 691.372 361.146 691.372C360.796 691.372 358.084 695.802 357.252 697.174C357.102 697.423 356.833 697.575 356.542 697.575H354.663C354.039 697.575 353.64 696.915 353.936 696.366C355.022 694.356 357.12 690.545 357.424 690.545C357.838 690.545 359.905 690.345 359.905 690.131C359.905 689.718 354.943 686.41 354.53 684.756C354.323 683.929 357.011 683.929 357.011 683.515C357.011 683.102 355.086 680.647 354.53 678.553C354.118 677.005 354.278 674.356 354.389 673.08C354.425 672.662 354.777 672.351 355.196 672.351Z" fill="#217AFF"/>
<path d="M413.248 643.683C413.248 644.215 412.817 644.646 412.285 644.646H387.333C386.801 644.646 386.37 644.215 386.37 643.683V631.136C386.37 630.604 386.801 630.173 387.333 630.173H412.285C412.817 630.173 413.248 630.604 413.248 631.136V643.683ZM403.875 632.239C403.343 632.239 402.912 632.67 402.912 633.201V641.614C402.912 642.146 403.343 642.577 403.875 642.577H410.22C410.752 642.577 411.183 642.146 411.183 641.614V633.201C411.183 632.67 410.752 632.239 410.22 632.239H403.875ZM389.677 640.788C389.677 641.319 390.108 641.75 390.639 641.75H395.33C395.862 641.75 396.293 641.319 396.293 640.788V634.443C396.293 633.911 395.862 633.48 395.33 633.48H390.639C390.108 633.48 389.677 633.911 389.677 634.443V640.788Z" fill="#217AFF"/>
<path d="M252.396 899.367H249.915C249.458 899.367 249.088 899.738 249.088 900.194V902.493C249.088 902.849 249.316 903.165 249.653 903.278L251.003 903.728C251.341 903.84 251.569 904.156 251.569 904.512V904.892C251.569 905.286 251.291 905.626 250.904 905.703L250.166 905.851C249.78 905.928 249.501 906.267 249.501 906.662V909.523C249.501 909.879 249.273 910.195 248.936 910.307L248.888 910.323C248.521 910.445 248.288 910.805 248.327 911.19L248.6 913.923C248.642 914.345 248.998 914.667 249.423 914.667H255.04C255.203 914.667 255.363 914.619 255.499 914.528L256.387 913.936C256.481 913.874 256.591 913.84 256.704 913.84C257.05 913.84 257.317 914.145 257.272 914.488L256.656 919.107C256.59 919.602 256.975 920.043 257.476 920.043H263.974C264.431 920.043 264.801 919.673 264.801 919.216V915.494C264.801 915.038 265.171 914.667 265.628 914.667C266.085 914.667 266.455 915.038 266.455 915.494V917.148C266.455 917.605 266.825 917.975 267.282 917.975H269.763C270.22 917.975 270.59 917.605 270.59 917.148V913.634C270.59 913.291 270.868 913.013 271.211 913.013C271.553 913.013 271.831 913.291 271.831 913.634V913.84C271.831 914.297 272.201 914.667 272.658 914.667H275.139C275.596 914.667 275.966 914.297 275.966 913.84V910.946C275.966 910.489 276.336 910.119 276.793 910.119H278.447C278.904 910.119 279.274 909.748 279.274 909.292V903.916C279.274 903.459 278.904 903.089 278.447 903.089H276.793C276.336 903.089 275.966 902.719 275.966 902.262V898.954C275.966 898.497 275.596 898.127 275.139 898.127H271.417C270.961 898.127 270.59 898.497 270.59 898.954V902.493C270.59 902.849 270.818 903.165 271.156 903.278L272.506 903.728C272.844 903.84 273.071 904.156 273.071 904.512V909.292C273.071 909.748 272.701 910.119 272.244 910.119C271.984 910.119 271.739 910.241 271.583 910.45L270.838 911.442C270.682 911.65 270.437 911.773 270.177 911.773H269.35C268.893 911.773 268.523 911.402 268.523 910.946V902.676C268.523 902.219 268.152 901.849 267.696 901.849H267.282C266.825 901.849 266.455 902.219 266.455 902.676V904.743C266.455 905.2 266.085 905.57 265.628 905.57C265.171 905.57 264.801 905.2 264.801 904.743V898.954C264.801 898.497 264.431 898.127 263.974 898.127H259.012C258.555 898.127 258.185 898.497 258.185 898.954V902.262C258.185 902.719 257.815 903.089 257.358 903.089H254.05C253.593 903.089 253.223 902.719 253.223 902.262V900.195C253.223 899.738 252.853 899.367 252.396 899.367Z" fill="#21C01C"/>
<path d="M296.228 884.481H293.747C293.29 884.481 292.92 884.852 292.92 885.308V887.607C292.92 887.963 293.148 888.279 293.485 888.391L294.835 888.841C295.173 888.954 295.401 889.27 295.401 889.626V890.006C295.401 890.4 295.123 890.74 294.736 890.817L293.998 890.964C293.612 891.042 293.333 891.381 293.333 891.775V894.636C293.333 894.992 293.106 895.308 292.768 895.421L292.72 895.437C292.353 895.559 292.12 895.919 292.159 896.304L292.432 899.036C292.474 899.459 292.83 899.781 293.255 899.781H298.872C299.035 899.781 299.195 899.733 299.331 899.642L300.219 899.05C300.313 898.988 300.423 898.954 300.536 898.954C300.882 898.954 301.149 899.259 301.104 899.602L300.488 904.22C300.422 904.716 300.807 905.157 301.308 905.157H307.806C308.263 905.157 308.633 904.786 308.633 904.33V900.608C308.633 900.151 309.003 899.781 309.46 899.781C309.917 899.781 310.287 900.151 310.287 900.608V902.262C310.287 902.719 310.657 903.089 311.114 903.089H313.595C314.052 903.089 314.422 902.719 314.422 902.262V898.747C314.422 898.405 314.7 898.127 315.043 898.127C315.385 898.127 315.663 898.405 315.663 898.747V898.954C315.663 899.411 316.033 899.781 316.49 899.781H318.971C319.428 899.781 319.798 899.411 319.798 898.954V896.06C319.798 895.603 320.168 895.232 320.625 895.232H322.279C322.736 895.232 323.106 894.862 323.106 894.405V889.03C323.106 888.573 322.736 888.203 322.279 888.203H320.625C320.168 888.203 319.798 887.833 319.798 887.376V884.068C319.798 883.611 319.428 883.241 318.971 883.241H315.249C314.793 883.241 314.422 883.611 314.422 884.068V887.607C314.422 887.963 314.65 888.279 314.988 888.391L316.338 888.841C316.676 888.954 316.903 889.27 316.903 889.626V894.405C316.903 894.862 316.533 895.232 316.076 895.232C315.816 895.232 315.571 895.355 315.415 895.563L314.67 896.556C314.514 896.764 314.269 896.887 314.009 896.887H313.182C312.725 896.887 312.355 896.516 312.355 896.06V887.789C312.355 887.333 311.984 886.962 311.528 886.962H311.114C310.657 886.962 310.287 887.333 310.287 887.789V889.857C310.287 890.314 309.917 890.684 309.46 890.684C309.003 890.684 308.633 890.314 308.633 889.857V884.068C308.633 883.611 308.263 883.241 307.806 883.241H302.844C302.387 883.241 302.017 883.611 302.017 884.068V887.376C302.017 887.833 301.647 888.203 301.19 888.203H297.882C297.425 888.203 297.055 887.833 297.055 887.376V885.308C297.055 884.852 296.685 884.481 296.228 884.481Z" fill="#21C01C"/>
<path d="M356.985 596.264H354.531C354.075 596.264 353.704 596.635 353.704 597.091V601.227C353.704 601.683 353.334 602.054 352.877 602.054H352.464C352.007 602.054 351.637 602.424 351.637 602.881V614.045C351.637 614.502 352.007 614.872 352.464 614.872H352.877C353.334 614.872 353.704 615.243 353.704 615.699V617.74C353.704 618.207 354.091 618.581 354.558 618.566L365.707 618.207C366.159 618.192 366.516 617.817 366.507 617.364L366.125 597.902C366.117 597.452 365.749 597.091 365.299 597.091H357.84C357.609 597.091 357.42 596.908 357.412 596.678C357.404 596.447 357.215 596.264 356.985 596.264Z" fill="#217AFF"/>
<path d="M391.331 668.746V663.253C391.331 662.796 391.701 662.426 392.158 662.426H414.074C414.531 662.426 414.901 662.796 414.901 663.253V670.696C414.901 671.153 414.531 671.523 414.074 671.523H413.029C412.9 671.523 412.774 671.493 412.659 671.436L410.527 670.37C410.412 670.312 410.286 670.282 410.157 670.282H407.64C407.285 670.282 406.968 670.51 406.856 670.848L406.436 672.109C406.309 672.488 405.93 672.722 405.534 672.666L398.244 671.624C397.836 671.566 397.534 671.217 397.534 670.806V668.215C397.534 667.987 397.349 667.801 397.12 667.801C396.892 667.801 396.707 667.987 396.707 668.215V669.318C396.707 669.825 396.255 670.213 395.754 670.136L392.032 669.563C391.629 669.501 391.331 669.154 391.331 668.746Z" fill="#217AFF"/>
<path d="M392.161 705.845V705.018C392.161 704.561 392.531 704.191 392.988 704.191C393.445 704.191 393.815 703.82 393.815 703.364V702.123C393.815 701.666 394.185 701.296 394.642 701.296H395.027C395.303 701.296 395.561 701.434 395.715 701.664L396.013 702.111C396.186 702.372 396.493 702.512 396.803 702.473L406.22 701.296L411.504 700.077C411.565 700.063 411.628 700.056 411.69 700.056H413.25C413.707 700.056 414.077 700.426 414.077 700.883V701.71C414.077 702.166 413.707 702.537 413.25 702.537C412.793 702.537 412.423 702.907 412.423 703.364V703.777C412.423 704.234 412.793 704.604 413.25 704.604C413.707 704.604 414.077 704.975 414.077 705.431V707.499C414.077 707.956 413.707 708.326 413.25 708.326H394.642C394.185 708.326 393.815 707.956 393.815 707.499C393.815 707.042 393.445 706.672 392.988 706.672C392.531 706.672 392.161 706.302 392.161 705.845Z" fill="#217AFF"/>
<path d="M436.819 755.33V739.474C436.819 738.942 437.25 738.511 437.782 738.511H452.811C453.342 738.511 453.773 738.942 453.773 739.474V755.33C453.773 755.861 453.342 756.292 452.811 756.292H437.782C437.25 756.292 436.819 755.861 436.819 755.33Z" fill="#217AFF"/>
<path d="M377.371 842.586V832.479C377.371 831.947 377.802 831.516 378.334 831.516H395.661C396.193 831.516 396.624 831.947 396.624 832.479V842.586C396.624 843.118 396.193 843.549 395.661 843.549H378.334C377.802 843.549 377.371 843.118 377.371 842.586Z" fill="#217AFF"/>
<path d="M177.624 1148.23V1135.71C177.624 1135.18 178.055 1134.75 178.587 1134.75H191.101C191.633 1134.75 192.064 1135.18 192.064 1135.71V1148.23C192.064 1148.76 191.633 1149.19 191.101 1149.19H178.587C178.055 1149.19 177.624 1148.76 177.624 1148.23Z" fill="#A3A3A3"/>
<path d="M163.185 972.543V938.369C163.185 937.838 163.616 937.407 164.147 937.407H212.761C213.292 937.407 213.723 937.838 213.723 938.369V972.543C213.723 973.075 213.292 973.506 212.761 973.506H164.147C163.616 973.506 163.185 973.075 163.185 972.543Z" fill="#3A3A3A"/>
<path d="M324.426 1205.98V1188.66C324.426 1188.12 324.857 1187.69 325.388 1187.69H342.716C343.248 1187.69 343.679 1188.12 343.679 1188.66V1205.98C343.679 1206.51 343.248 1206.95 342.716 1206.95H325.388C324.857 1206.95 324.426 1206.51 324.426 1205.98Z" fill="#21C01C"/>
<path d="M199.283 1148.23V1140.52C199.283 1139.99 199.714 1139.56 200.246 1139.56H212.76C213.292 1139.56 213.723 1139.99 213.723 1140.52V1148.23C213.723 1148.76 213.292 1149.19 212.76 1149.19H200.246C199.714 1149.19 199.283 1148.76 199.283 1148.23Z" fill="#21C01C"/>
<path d="M548.373 306.746V286.058C548.373 285.526 548.804 285.095 549.336 285.095H562.486C563.018 285.095 563.449 285.526 563.449 286.058V306.746C563.449 307.278 563.018 307.709 562.486 307.709H549.336C548.804 307.709 548.373 307.278 548.373 306.746Z" fill="#21C01C"/>
<path d="M454.06 774.073H451.668C451.212 774.073 450.841 774.443 450.841 774.9V777.959C450.841 778.064 450.821 778.169 450.782 778.266C450.111 779.941 449.892 780.366 448.145 780.366H441.78C441.323 780.366 440.953 780.736 440.953 781.193V783.584C440.953 784.04 441.323 784.411 441.779 784.411H445.448C448.145 784.411 448.145 786.209 448.145 788.006V793.921C448.145 794.378 448.515 794.748 448.972 794.748H451.363C451.82 794.748 452.19 794.378 452.19 793.921V791.153C452.19 789.714 453.089 788.456 455.336 788.456H460.802C461.258 788.456 461.629 788.086 461.629 787.629V785.238C461.629 784.781 461.258 784.411 460.802 784.411H458.135C458.067 784.411 458 784.403 457.935 784.384C456.186 783.879 454.887 781.689 454.887 780.366V774.9C454.887 774.443 454.516 774.073 454.06 774.073Z" fill="#217AFF"/>
<path d="M392.161 776.967V774.073C392.161 773.616 392.531 773.246 392.988 773.246H400.431C400.888 773.246 401.258 772.875 401.258 772.419V771.592C401.258 771.135 401.629 770.765 402.085 770.765H406.634C407.091 770.765 407.461 771.135 407.461 771.592V773.246C407.461 773.702 407.831 774.073 408.288 774.073H409.322C409.664 774.073 409.942 774.35 409.942 774.693C409.942 775.036 410.22 775.313 410.562 775.313H416.558C417.015 775.313 417.385 775.684 417.385 776.14V778.208C417.385 778.665 417.015 779.035 416.558 779.035H408.495C408.152 779.035 407.874 779.313 407.874 779.655C407.874 779.998 408.152 780.275 408.495 780.275H419.453C419.91 780.275 420.28 780.646 420.28 781.102V782.078C420.28 782.473 420.002 782.812 419.615 782.889L418.877 783.037C418.49 783.114 418.212 783.454 418.212 783.848V785.237C418.212 785.694 417.842 786.064 417.385 786.064H416.972C416.515 786.064 416.145 785.694 416.145 785.237V783.79C416.145 783.448 415.867 783.17 415.524 783.17C415.182 783.17 414.904 783.448 414.904 783.79V785.237C414.904 785.694 414.534 786.064 414.077 786.064H404.98C404.523 786.064 404.153 785.694 404.153 785.237V783.997C404.153 783.54 403.783 783.17 403.326 783.17H392.988C392.531 783.17 392.161 782.8 392.161 782.343V780.275C392.161 779.819 392.531 779.448 392.988 779.448H400.845C401.302 779.448 401.672 779.078 401.672 778.621C401.672 778.165 401.302 777.794 400.845 777.794H392.988C392.531 777.794 392.161 777.424 392.161 776.967Z" fill="#217AFF"/>
<path d="M443.578 624.751C443.178 621.875 440.719 619.735 437.816 619.735V619.735C435.763 619.735 433.862 620.817 432.814 622.582L432.216 623.588C431.78 624.322 431.466 625.123 431.287 625.959L431.02 627.206C430.556 629.368 430.556 631.604 431.02 633.766L431.287 635.014C431.466 635.849 431.78 636.65 432.216 637.385L432.814 638.391C433.862 640.155 435.763 641.237 437.816 641.237V641.237C440.719 641.237 443.178 639.097 443.578 636.221L444.17 631.968C444.307 630.985 444.307 629.988 444.17 629.005L443.578 624.751Z" fill="#217AFF"/>
<path d="M358.539 725.443V725.234C358.539 724.772 358.934 724.408 359.395 724.446L364.977 724.903C365.365 724.935 365.476 724.387 365.108 724.264C364.754 724.147 364.838 723.625 365.211 723.625H367.29C367.353 723.625 367.416 723.633 367.476 723.651L383.932 728.459C384.352 728.582 384.799 728.4 385.052 728.042C387.772 724.176 391.781 724.558 394.052 725.44C394.487 725.609 394.993 725.502 395.279 725.133L395.409 724.964C395.677 724.617 396.153 724.487 396.516 724.732C398.148 725.828 399.151 728.117 399.621 729.745C399.764 730.239 399.379 730.706 398.865 730.706C398.404 730.706 398.034 731.088 398.048 731.549L398.051 731.668C398.063 732.058 398.316 732.399 398.685 732.524L402.094 733.678C402.647 733.865 403.237 733.516 403.384 732.95C405.564 724.542 412.886 725.087 416.2 726.72C416.685 726.959 416.698 727.6 416.271 727.933C415.906 728.218 415.853 728.746 416.112 729.13C418.266 732.326 417.317 735.625 416.294 737.348C416.127 737.629 416.242 738.008 416.55 738.118C417.04 738.293 416.948 739.012 416.43 739.058L409.641 739.667C409.323 739.696 409.214 740.106 409.477 740.288C409.797 740.51 409.555 741.009 409.182 740.895L407.405 740.348C407.056 740.24 406.681 740.449 406.522 740.778C405.614 742.654 402.338 746.455 396.296 744.656C395.956 744.554 396.526 744.369 397.109 743.893C397.491 743.581 397.412 743.02 397.056 742.678C396.527 742.169 395.804 741.401 395.433 740.685C394.925 739.705 394.759 738.171 394.704 737.258C394.678 736.814 394.373 736.427 393.941 736.321L391.118 735.635C390.48 735.48 389.87 735.995 389.865 736.651C389.859 737.367 389.803 738.231 389.608 738.861C389.364 739.65 388.879 740.335 388.504 740.782C388.249 741.085 388.266 741.554 388.572 741.803C388.886 742.059 388.886 742.529 388.551 742.757C387.623 743.388 385.753 744.465 383.567 744.656C381.699 744.818 379.946 744.404 378.837 744.044C378.225 743.845 378.09 743.122 378.491 742.619C378.724 742.327 378.746 742.203 378.605 742.08C376.006 739.829 376.013 735.892 377.158 733.494C377.508 732.759 377.194 731.595 376.403 731.402L373.862 730.782C373.256 730.634 372.647 731.093 372.522 731.705C372.178 733.396 371.041 736.431 367.278 738.003C364.814 739.032 361.945 738.333 360.273 737.735C359.606 737.497 359.52 736.651 360.065 736.197C360.462 735.866 360.783 735.568 360.697 735.535C358.162 734.565 357.566 729.126 359.067 726.82C359.27 726.509 359.189 726.029 358.844 725.892C358.66 725.819 358.539 725.641 358.539 725.443Z" fill="#217AFF"/>
<path d="M438.384 586.908L441.445 586.454C441.78 583.79 442.537 581.091 443.913 578.561L443.969 578.458L444.069 578.398L445.029 577.822L445.218 577.708L445.42 577.795L446.764 578.372L447.024 578.483V580.2L446.989 580.281C445.615 583.466 443.664 592.184 446.998 601.277L447.024 601.348V603.052L446.764 603.164L445.42 603.74L445.218 603.827L445.029 603.713L444.069 603.137L443.955 603.069L443.899 602.947C443.001 600.977 441.955 597.718 441.484 593.929L438.384 593.473V603.775H434.452V602.046H432.724V596.386H434.452V583.997H432.724V579.105H434.452V576.417H438.384V586.908ZM438.739 588.449V592.29L441.774 592.592C441.643 591.047 441.617 589.431 441.742 587.792L438.739 588.449Z" fill="#217AFF"/>
<path d="M434.792 665.221H436.621V663.054H439.914V682.109H436.621V679.745H434.792V684.371L439.841 688.838L443.144 685.536L443.193 685.485L443.243 685.536L446.002 688.294L446.052 688.344L440.241 694.154L436.306 690.743L434.382 693.117L434.366 693.137L434.342 693.142C433.559 693.301 432.914 693.257 432.388 693.075C431.861 692.894 431.457 692.576 431.152 692.195C430.544 691.436 430.329 690.424 430.316 689.725L430.315 689.699L430.331 689.68L432.26 687.236L431.325 686.427L431.302 686.405V663.054H434.792V665.221ZM434.724 673.173V678.69H436.693V673.173H434.724ZM434.65 672.258H436.762V666.403H434.65V672.258Z" fill="#217AFF"/>
<path d="M520.451 559.28H493.872M520.451 559.28V544.33M520.451 559.28V577.638C520.451 578.967 519.373 580.045 518.044 580.045H496.279C494.95 580.045 493.872 578.967 493.872 577.638V559.28M493.872 559.28V553.978C493.872 553.381 494.094 552.806 494.494 552.363L501.046 545.122C501.502 544.617 502.151 544.33 502.831 544.33H520.451M520.451 544.33V537.911" stroke="#BDB16F" stroke-width="2.4066"/>
<path d="M203.012 1070.45L198.336 1066.85C197.978 1066.58 197.49 1066.96 197.671 1067.37L199.474 1071.47C199.547 1071.64 199.713 1071.74 199.893 1071.73L204.109 1071.53C204.195 1071.53 204.28 1071.55 204.354 1071.6L208.38 1074.01C208.491 1074.08 208.566 1074.19 208.586 1074.32L209.581 1080.57C209.654 1081.03 210.294 1081.07 210.429 1080.63L211.801 1076.13C211.857 1075.95 211.787 1075.75 211.629 1075.64L210.189 1074.67C210.055 1074.57 209.982 1074.42 210.001 1074.25L210.945 1066.3C210.961 1066.17 211.038 1066.05 211.153 1065.98L215.376 1063.44C215.764 1063.21 215.583 1062.61 215.131 1062.63L210.265 1062.86C210.048 1062.87 209.872 1063.04 209.852 1063.26L209.595 1065.96C209.583 1066.08 209.517 1066.2 209.414 1066.27L203.531 1070.46C203.374 1070.57 203.164 1070.56 203.012 1070.45Z" fill="#21C01C"/>
<path d="M226.645 1074.63L221.035 1072.81C220.606 1072.67 220.274 1073.19 220.583 1073.52L223.655 1076.78C223.778 1076.91 223.97 1076.95 224.137 1076.88L228.043 1075.28C228.122 1075.25 228.21 1075.24 228.294 1075.26L232.898 1076.19C233.024 1076.22 233.132 1076.3 233.194 1076.41L236.226 1081.97C236.448 1082.37 237.065 1082.2 237.044 1081.74L236.83 1077.04C236.821 1076.85 236.689 1076.69 236.505 1076.64L234.821 1076.2C234.663 1076.16 234.542 1076.03 234.506 1075.87L232.731 1068.06C232.701 1067.93 232.734 1067.79 232.819 1067.69L235.949 1063.88C236.236 1063.53 235.866 1063.03 235.447 1063.2L230.939 1065.05C230.738 1065.13 230.628 1065.35 230.681 1065.56L231.344 1068.19C231.375 1068.31 231.351 1068.44 231.278 1068.55L227.136 1074.46C227.026 1074.62 226.827 1074.68 226.645 1074.63Z" fill="#21C01C"/>
<path d="M208.42 1092.29L214.306 1091.91C214.756 1091.88 214.871 1091.27 214.463 1091.08L210.407 1089.18C210.244 1089.11 210.05 1089.14 209.92 1089.26L206.878 1092.19C206.816 1092.25 206.738 1092.29 206.653 1092.3L202.03 1093.13C201.904 1093.16 201.774 1093.12 201.675 1093.04L196.807 1088.99C196.452 1088.69 195.941 1089.08 196.131 1089.5L198.062 1093.79C198.14 1093.97 198.323 1094.07 198.513 1094.05L200.239 1093.83C200.401 1093.81 200.56 1093.89 200.652 1094.02L205.179 1100.63C205.255 1100.74 205.276 1100.88 205.235 1101.01L203.727 1105.7C203.588 1106.13 204.117 1106.46 204.444 1106.15L207.955 1102.77C208.111 1102.62 208.133 1102.38 208.007 1102.2L206.422 1100C206.348 1099.9 206.323 1099.77 206.352 1099.64L208.024 1092.62C208.068 1092.43 208.229 1092.3 208.42 1092.29Z" fill="#21C01C"/>
<path d="M234.152 1100.22L239.829 1101.82C240.263 1101.94 240.574 1101.4 240.252 1101.09L237.057 1097.95C236.928 1097.82 236.735 1097.79 236.571 1097.86L232.73 1099.61C232.652 1099.65 232.564 1099.66 232.48 1099.65L227.843 1098.9C227.716 1098.88 227.605 1098.8 227.539 1098.69L224.293 1093.25C224.056 1092.85 223.445 1093.05 223.484 1093.51L223.881 1098.2C223.897 1098.39 224.035 1098.55 224.222 1098.59L225.921 1098.96C226.08 1099 226.207 1099.12 226.249 1099.27L228.326 1107.01C228.361 1107.14 228.333 1107.28 228.252 1107.39L225.273 1111.31C224.999 1111.67 225.389 1112.16 225.801 1111.97L230.234 1109.95C230.431 1109.86 230.532 1109.64 230.471 1109.43L229.707 1106.83C229.672 1106.71 229.69 1106.58 229.759 1106.47L233.668 1100.4C233.771 1100.24 233.968 1100.16 234.152 1100.22Z" fill="#21C01C"/>
<path d="M292.162 1101.6L293.873 1106.29C294.004 1106.65 294.526 1106.59 294.583 1106.22L295.154 1102.47C295.177 1102.32 295.105 1102.17 294.972 1102.1L291.872 1100.33C291.809 1100.29 291.758 1100.24 291.725 1100.17L289.947 1096.62C289.898 1096.53 289.895 1096.41 289.938 1096.31L292.062 1091.4C292.217 1091.04 291.781 1090.71 291.484 1090.97L288.464 1093.56C288.341 1093.67 288.302 1093.84 288.366 1093.99L288.951 1095.34C289.005 1095.46 288.985 1095.61 288.898 1095.72L284.62 1100.97C284.548 1101.06 284.439 1101.11 284.325 1101.1L280.161 1101C279.778 1100.99 279.636 1101.5 279.969 1101.69L283.547 1103.73C283.706 1103.82 283.908 1103.78 284.021 1103.64L285.428 1101.83C285.493 1101.74 285.592 1101.69 285.699 1101.68L291.797 1101.36C291.958 1101.35 292.107 1101.45 292.162 1101.6Z" fill="#21C01C"/>
<path d="M330.668 1101.6L332.379 1106.29C332.509 1106.65 333.032 1106.59 333.089 1106.22L333.66 1102.47C333.683 1102.32 333.611 1102.17 333.478 1102.1L330.378 1100.33C330.315 1100.29 330.264 1100.24 330.231 1100.17L328.453 1096.62C328.404 1096.53 328.401 1096.41 328.444 1096.31L330.568 1091.4C330.723 1091.04 330.286 1090.71 329.99 1090.97L326.97 1093.56C326.847 1093.67 326.808 1093.84 326.872 1093.99L327.457 1095.34C327.511 1095.46 327.491 1095.61 327.404 1095.72L323.126 1100.97C323.054 1101.06 322.945 1101.11 322.831 1101.1L318.666 1101C318.284 1100.99 318.142 1101.5 318.475 1101.69L322.053 1103.73C322.212 1103.82 322.414 1103.78 322.526 1103.64L323.933 1101.83C323.999 1101.74 324.098 1101.69 324.205 1101.68L330.303 1101.36C330.464 1101.35 330.613 1101.45 330.668 1101.6Z" fill="#21C01C"/>
<path d="M340.015 1126.14L338.445 1130.88C338.325 1131.24 338.767 1131.52 339.046 1131.26L341.819 1128.68C341.93 1128.58 341.966 1128.42 341.91 1128.28L340.579 1124.96C340.552 1124.9 340.545 1124.82 340.56 1124.75L341.372 1120.86C341.395 1120.76 341.463 1120.67 341.559 1120.62L346.278 1118.08C346.622 1117.9 346.48 1117.37 346.089 1117.39L342.112 1117.54C341.951 1117.55 341.812 1117.66 341.771 1117.82L341.39 1119.24C341.355 1119.37 341.248 1119.47 341.114 1119.5L334.499 1120.96C334.387 1120.99 334.271 1120.96 334.183 1120.88L330.983 1118.22C330.689 1117.97 330.263 1118.28 330.405 1118.64L331.941 1122.46C332.01 1122.63 332.193 1122.72 332.371 1122.68L334.599 1122.13C334.702 1122.11 334.812 1122.13 334.9 1122.19L339.878 1125.73C340.01 1125.82 340.066 1125.99 340.015 1126.14Z" fill="#A3A3A3"/>
<path d="M329.769 1147.36L328.199 1152.1C328.079 1152.46 328.52 1152.74 328.8 1152.48L331.573 1149.9C331.684 1149.8 331.72 1149.64 331.663 1149.5L330.333 1146.19C330.306 1146.12 330.299 1146.04 330.314 1145.97L331.126 1142.09C331.148 1141.98 331.217 1141.89 331.313 1141.84L336.032 1139.3C336.376 1139.12 336.234 1138.59 335.843 1138.61L331.866 1138.76C331.705 1138.77 331.566 1138.88 331.525 1139.04L331.144 1140.46C331.109 1140.59 331.002 1140.69 330.868 1140.72L324.253 1142.18C324.141 1142.21 324.025 1142.18 323.937 1142.1L320.737 1139.44C320.443 1139.19 320.017 1139.5 320.159 1139.86L321.695 1143.68C321.764 1143.85 321.947 1143.94 322.125 1143.9L324.352 1143.36C324.456 1143.33 324.566 1143.35 324.653 1143.41L329.632 1146.95C329.764 1147.04 329.82 1147.21 329.769 1147.36Z" fill="#A3A3A3"/>
<path d="M305.701 1132.92L304.132 1137.66C304.012 1138.02 304.453 1138.3 304.732 1138.04L307.505 1135.46C307.617 1135.36 307.653 1135.2 307.596 1135.06L306.265 1131.75C306.238 1131.68 306.232 1131.6 306.247 1131.53L307.059 1127.65C307.081 1127.54 307.149 1127.45 307.245 1127.4L311.964 1124.86C312.309 1124.68 312.166 1124.15 311.776 1124.17L307.799 1124.32C307.637 1124.33 307.499 1124.44 307.457 1124.6L307.077 1126.02C307.041 1126.15 306.935 1126.25 306.8 1126.28L300.185 1127.74C300.074 1127.77 299.957 1127.74 299.87 1127.66L296.67 1125C296.376 1124.75 295.949 1125.06 296.092 1125.42L297.628 1129.24C297.696 1129.41 297.879 1129.5 298.057 1129.46L300.285 1128.92C300.389 1128.89 300.499 1128.91 300.586 1128.97L305.565 1132.51C305.697 1132.6 305.752 1132.77 305.701 1132.92Z" fill="#A3A3A3"/>
<path d="M199.81 1130.52L198.24 1135.25C198.12 1135.61 198.561 1135.9 198.841 1135.64L201.614 1133.06C201.725 1132.95 201.761 1132.79 201.705 1132.65L200.374 1129.34C200.347 1129.27 200.34 1129.2 200.355 1129.13L201.167 1125.24C201.189 1125.13 201.258 1125.04 201.354 1124.99L206.073 1122.46C206.417 1122.27 206.275 1121.75 205.884 1121.76L201.907 1121.92C201.746 1121.92 201.607 1122.04 201.566 1122.19L201.185 1123.61C201.15 1123.75 201.043 1123.85 200.909 1123.88L194.294 1125.34C194.182 1125.36 194.066 1125.33 193.978 1125.26L190.778 1122.59C190.484 1122.35 190.058 1122.66 190.2 1123.01L191.736 1126.83C191.805 1127 191.988 1127.1 192.166 1127.05L194.393 1126.51C194.497 1126.48 194.607 1126.5 194.694 1126.57L199.673 1130.1C199.805 1130.2 199.861 1130.36 199.81 1130.52Z" fill="#A3A3A3"/>
<path d="M231.096 1140.14L229.526 1144.88C229.406 1145.24 229.848 1145.52 230.127 1145.26L232.9 1142.68C233.011 1142.58 233.047 1142.42 232.991 1142.28L231.66 1138.97C231.633 1138.9 231.626 1138.82 231.641 1138.75L232.453 1134.86C232.476 1134.76 232.544 1134.67 232.64 1134.62L237.359 1132.08C237.703 1131.9 237.561 1131.37 237.17 1131.39L233.193 1131.54C233.032 1131.55 232.893 1131.66 232.852 1131.82L232.471 1133.24C232.436 1133.37 232.329 1133.47 232.195 1133.5L225.58 1134.96C225.468 1134.99 225.352 1134.96 225.264 1134.88L222.064 1132.22C221.77 1131.97 221.344 1132.28 221.486 1132.64L223.022 1136.46C223.091 1136.63 223.274 1136.72 223.452 1136.68L225.68 1136.14C225.784 1136.11 225.893 1136.13 225.981 1136.19L230.959 1139.73C231.091 1139.82 231.147 1139.99 231.096 1140.14Z" fill="#A3A3A3"/>
<path d="M257.04 935H228.161V968.693H241.661V958.462H244.74V953.779H248.961V945.867H257.04V935Z" fill="#21C01C"/>
<ellipse cx="464.516" cy="279.442" rx="21.6711" ry="20.7289" fill="#D21648"/>
<ellipse cx="463.573" cy="214.429" rx="24.4978" ry="27.3244" fill="#D21648"/>
<path d="M533.298 268.12C533.298 287.886 531.577 303.057 513.511 303.909C495.445 304.761 493.725 287.886 493.725 268.12C493.725 248.354 495.445 233.183 513.511 232.331C533.298 232.331 533.298 248.354 533.298 268.12Z" fill="#D21648"/>
<path d="M710.53 561.733C704.086 580.419 697.513 594.2 680.156 589.116C662.799 584.032 666.674 567.517 673.118 548.831C679.562 530.146 686.135 516.364 703.492 521.449C722.197 527.899 716.974 543.047 710.53 561.733Z" fill="#D21648"/>
<path d="M419.951 181.366L368.553 157.492C366.958 156.751 365.133 157.916 365.133 159.675V259.525C365.133 260.854 366.21 261.932 367.539 261.932H379.045M414.576 261.932H379.045M379.045 261.932V322.649C379.045 323.978 380.123 325.056 381.452 325.056H424.103H537.979C539.308 325.056 540.385 323.978 540.385 322.649V237.845" stroke="#892F2F" stroke-width="2.4066"/>
<path d="M503.336 825.931H496.363C495.947 825.931 495.609 826.269 495.609 826.685V833.657C495.609 834.074 495.947 834.411 496.363 834.411H502.058C502.474 834.411 502.812 834.749 502.812 835.165V840.253C502.812 840.669 503.149 841.007 503.566 841.007H510.873C511.29 841.007 511.627 840.669 511.627 840.253V833.28C511.627 832.864 511.29 832.527 510.873 832.527H504.843C504.427 832.527 504.089 832.189 504.089 831.773V826.685C504.089 826.269 503.752 825.931 503.336 825.931Z" fill="#F7DA69"/>
<circle cx="344.854" cy="305.824" r="5.65333" fill="#21C01C"/>
<circle cx="484.302" cy="537.611" r="5.65333" fill="#21C01C"/>
<circle cx="297.742" cy="955.958" r="5.65333" fill="#21C01C"/>
<defs>
<filter id="filter0_d_2694_1028" x="9.48756" y="61.7231" width="812.949" height="1328.56" filterUnits="userSpaceOnUse" color-interpolation-filters="sRGB">
<feFlood flood-opacity="0" result="BackgroundImageFix"/>
<feColorMatrix in="SourceAlpha" type="matrix" values="0 0 0 0 0 0 0 0 0 0 0 0 0 0 0 0 0 0 127 0" result="hardAlpha"/>
<feOffset dx="4.81321" dy="9.62641"/>
<feGaussianBlur stdDeviation="9.50608"/>
<feComposite in2="hardAlpha" operator="out"/>
<feColorMatrix type="matrix" values="0 0 0 0 0 0 0 0 0 0 0 0 0 0 0 0 0 0 0.3 0"/>
<feBlend mode="normal" in2="BackgroundImageFix" result="effect1_dropShadow_2694_1028"/>
<feBlend mode="normal" in="SourceGraphic" in2="effect1_dropShadow_2694_1028" result="shape"/>
</filter>
</defs>
</svg>
