<svg width="848" height="1405" viewBox="0 0 848 1405" fill="none" xmlns="http://www.w3.org/2000/svg">
<g filter="url(#filter0_d_2742_1161)">
<path d="M637.771 75.9221H320.808C319.093 75.9221 317.928 77.6658 318.585 79.2505L331.929 111.432C332.05 111.724 332.112 112.038 332.112 112.354V189.619C332.112 189.818 332.088 190.016 332.039 190.209L314.714 258.642C314.622 259.005 314.616 259.384 314.697 259.75L319.285 280.604C319.359 280.942 319.36 281.291 319.287 281.628L307.202 337.738C307.148 337.987 307.134 338.243 307.161 338.497L310.419 369.451C310.541 370.602 309.825 371.677 308.715 372.008L274.201 382.323C273.182 382.627 272.483 383.565 272.483 384.629V427.344C272.483 428.673 271.406 429.75 270.077 429.75H200.921C200.693 429.75 200.467 429.782 200.248 429.846L132.931 449.445C131.955 449.729 131.262 450.596 131.201 451.611L122.743 592.441C122.642 594.122 120.89 595.183 119.354 594.492L43.0609 560.18C41.4684 559.464 39.6672 560.629 39.6672 562.375V588.868C39.6672 589.183 39.6054 589.495 39.4852 589.786L28.6812 615.966C28.4182 616.603 28.4458 617.329 28.7433 617.951C43.312 648.413 40.4006 675.092 36.5285 686.696C36.1181 687.926 36.6561 689.299 37.8357 689.837L151.356 741.589C153.003 742.34 153.281 744.578 151.934 745.786C131.535 764.099 112.509 806.878 122.534 869.952L153.535 1298.66C153.612 1299.72 154.369 1300.6 155.402 1300.84L401.516 1356.77C403.022 1357.11 404.456 1355.97 404.456 1354.42V1240.72C404.456 1240.53 404.436 1240.35 404.394 1240.17L393.778 1194.33C393.294 1192.24 395.579 1190.61 397.398 1191.74L409.242 1199.15C411.198 1200.37 413.588 1198.4 412.766 1196.25L401.193 1165.88C401.089 1165.61 401.036 1165.32 401.036 1165.02V1127.1C401.036 1125.77 402.113 1124.69 403.442 1124.69H544.545C545.875 1124.69 546.952 1123.61 546.952 1122.28V1025C546.952 1024.61 546.861 1024.24 546.687 1023.9L538.48 1007.87C538.035 1007.01 537.11 1006.49 536.138 1006.57L518.966 1008C517.694 1008.11 516.56 1007.2 516.383 1005.94L505.651 929.481C505.459 928.109 506.462 926.858 507.843 926.747L569.65 921.804C571.113 921.688 572.131 920.301 571.805 918.871L534.725 756.175C534.692 756.029 534.673 755.881 534.667 755.732L530.302 640.925C530.295 640.738 530.309 640.551 530.345 640.368L546.932 556.169C547.202 554.797 548.581 553.944 549.929 554.314L637.227 578.251C637.546 578.339 637.844 578.492 638.102 578.699L711.996 638.318C713.351 639.412 715.383 638.748 715.832 637.066L726.526 596.965C726.871 595.668 728.212 594.905 729.504 595.269L773.637 607.706C774.671 607.998 775.773 607.569 776.337 606.655L793.44 578.966C793.674 578.586 793.799 578.148 793.799 577.701V483.293C793.799 480.494 789.826 479.95 789.074 482.647L781.601 509.445C781.299 510.53 780.3 511.269 779.188 511.088C755.71 507.271 667.495 456.692 624.014 430.48C623.252 430.021 622.326 430.035 621.563 430.491L589.613 449.578C589.24 449.801 588.814 449.919 588.379 449.919H572.389C570.973 449.919 569.863 448.702 569.993 447.292L595.579 168.883C595.606 168.587 595.688 168.298 595.821 168.031L639.926 79.4009C640.722 77.801 639.558 75.9221 637.771 75.9221Z" fill="white"/>
<path d="M637.771 75.9221H320.808C319.093 75.9221 317.928 77.6658 318.585 79.2505L331.929 111.432C332.05 111.724 332.112 112.038 332.112 112.354V189.619C332.112 189.818 332.088 190.016 332.039 190.209L314.714 258.642C314.622 259.005 314.616 259.384 314.697 259.75L319.285 280.604C319.359 280.942 319.36 281.291 319.287 281.628L307.202 337.738C307.148 337.987 307.134 338.243 307.161 338.497L310.419 369.451C310.541 370.602 309.825 371.677 308.715 372.008L274.201 382.323C273.182 382.627 272.483 383.565 272.483 384.629V427.344C272.483 428.673 271.406 429.75 270.077 429.75H200.921C200.693 429.75 200.467 429.782 200.248 429.846L132.931 449.445C131.955 449.729 131.262 450.596 131.201 451.611L122.743 592.441C122.642 594.122 120.89 595.183 119.354 594.492L43.0609 560.18C41.4684 559.464 39.6672 560.629 39.6672 562.375V588.868C39.6672 589.183 39.6054 589.495 39.4852 589.786L28.6812 615.966C28.4182 616.603 28.4458 617.329 28.7433 617.951C43.312 648.413 40.4006 675.092 36.5285 686.696C36.1181 687.926 36.6561 689.299 37.8357 689.837L151.356 741.589C153.003 742.34 153.281 744.578 151.934 745.786C131.535 764.099 112.509 806.878 122.534 869.952L153.535 1298.66C153.612 1299.72 154.369 1300.6 155.402 1300.84L401.516 1356.77C403.022 1357.11 404.456 1355.97 404.456 1354.42V1240.72C404.456 1240.53 404.436 1240.35 404.394 1240.17L393.778 1194.33C393.294 1192.24 395.579 1190.61 397.398 1191.74L409.242 1199.15C411.198 1200.37 413.588 1198.4 412.766 1196.25L401.193 1165.88C401.089 1165.61 401.036 1165.32 401.036 1165.02V1127.1C401.036 1125.77 402.113 1124.69 403.442 1124.69H544.545C545.875 1124.69 546.952 1123.61 546.952 1122.28V1025C546.952 1024.61 546.861 1024.24 546.687 1023.9L538.48 1007.87C538.035 1007.01 537.11 1006.49 536.138 1006.57L518.966 1008C517.694 1008.11 516.56 1007.2 516.383 1005.94L505.651 929.481C505.459 928.109 506.462 926.858 507.843 926.747L569.65 921.804C571.113 921.688 572.131 920.301 571.805 918.871L534.725 756.175C534.692 756.029 534.673 755.881 534.667 755.732L530.302 640.925C530.295 640.738 530.309 640.551 530.345 640.368L546.932 556.169C547.202 554.797 548.581 553.944 549.929 554.314L637.227 578.251C637.546 578.339 637.844 578.492 638.102 578.699L711.996 638.318C713.351 639.412 715.383 638.748 715.832 637.066L726.526 596.965C726.871 595.668 728.212 594.905 729.504 595.269L773.637 607.706C774.671 607.998 775.773 607.569 776.337 606.655L793.44 578.966C793.674 578.586 793.799 578.148 793.799 577.701V483.293C793.799 480.494 789.826 479.95 789.074 482.647L781.601 509.445C781.299 510.53 780.3 511.269 779.188 511.088C755.71 507.271 667.495 456.692 624.014 430.48C623.252 430.021 622.326 430.035 621.563 430.491L589.613 449.578C589.24 449.801 588.814 449.919 588.379 449.919H572.389C570.973 449.919 569.863 448.702 569.993 447.292L595.579 168.883C595.606 168.587 595.688 168.298 595.821 168.031L639.926 79.4009C640.722 77.801 639.558 75.9221 637.771 75.9221Z" stroke="white" stroke-width="9.62641"/>
</g>
<path d="M419.805 181.445L364.987 155.983M334.488 302.055C324.189 299.065 323.734 291.635 324.288 287.759L338.762 223.661C338.803 223.48 338.823 223.304 338.821 223.119C338.676 206.113 337.814 169.84 335.501 158.604C333.245 147.648 339.663 145.703 343.461 146.101C343.691 146.126 343.913 146.195 344.123 146.292L364.987 155.983M334.488 302.055C336.15 297.072 341.315 292.743 350.452 295.65C352.347 296.253 354.158 297.731 355.382 299.802M334.488 302.055C332.412 311.192 339.039 317.66 344.222 317.66M356.681 308.108C355.382 314.602 351.344 317.66 344.222 317.66M356.681 308.108C357.324 304.894 356.687 302.011 355.382 299.802M356.681 308.108L378.899 325.135M344.222 317.66V391.997M355.382 299.802L363.535 296.277C364.416 295.896 364.987 295.028 364.987 294.068V262.011M364.987 155.983V262.011M364.987 262.011H378.899M414.43 262.011H378.899M378.899 262.011V325.135M378.899 325.135H423.957M576.37 249.552L567.489 323.017C567.343 324.226 566.317 325.135 565.1 325.135H553.736M540.239 325.135V237.924M540.239 325.135H553.736M540.239 325.135H423.957M553.736 325.135V409.439M485.521 471.808H580.192C581.521 471.808 582.599 472.886 582.599 474.215V538.179M485.521 471.808V484.692C485.521 486.021 484.444 487.098 483.114 487.098H423.957M485.521 471.808C485.521 471.808 485.521 465.792 495.147 465.792C500.391 465.792 540.991 465.792 551.341 465.792C552.67 465.792 553.736 464.714 553.736 463.385V409.439M582.599 556.867V538.179M582.599 538.179H536.501M495.802 538.179C495.802 534.026 492.066 527.797 484.174 527.797C476.283 527.797 472.962 536.103 474.207 541.086M495.802 538.179C495.802 543.578 490.571 550.139 484.59 549.807M495.802 538.179C505.371 538.179 520.305 538.179 520.305 538.179H536.501M474.207 541.086C475.119 544.734 477.115 549.392 484.59 549.807M474.207 541.086H358.341M484.59 549.807V653.214M471.716 791.921V704.2C471.716 703.721 471.859 703.252 472.127 702.855L484.18 684.971C484.447 684.574 484.59 684.105 484.59 683.626V653.214M471.716 791.921L466.066 806.451C465.958 806.729 465.902 807.025 465.902 807.323V840.926C465.764 843.279 464.241 848.816 459.258 852.139C454.368 855.398 434.686 867.454 424.924 873.398C424.559 873.621 424.266 873.932 424.064 874.309L421.782 878.546C421.575 878.93 421.269 879.25 420.895 879.473L374.538 907.09M471.716 791.921L478.508 805.107C478.684 805.448 478.776 805.826 478.776 806.209V811.025M304.354 948.901C302.277 947.24 296.878 944.749 290.65 948.901M304.354 948.901C305.664 951.218 306.338 953.291 306.543 955.131M304.354 948.901L374.538 907.09M290.65 948.901L287.191 942.37C287.008 942.023 286.912 941.636 286.912 941.243V929.798M290.65 948.901C288.054 950.631 286.562 954.333 286.912 957.622M299.786 965.928L319.018 984.76C319.468 985.2 320.072 985.447 320.701 985.447H337.992M299.786 965.928C297.229 967.09 293.336 966.602 290.65 964.682M299.786 965.928C303.246 964.355 307.183 960.876 306.543 955.131M160.663 764.512L145.142 795.146C144.971 795.483 144.882 795.856 144.882 796.234V914.094C144.882 914.584 145.032 915.063 145.312 915.466L155.265 929.798M160.663 764.512L173.245 741.378C173.437 741.026 173.537 740.63 173.537 740.229V728.382M160.663 764.512H200.531M223.787 764.512V929.798M223.787 764.512H251.197M223.787 764.512H200.531M223.787 1034.04L254.934 1034.45M223.787 1034.04V1025.73M223.787 1034.04H180.597M155.265 929.798H223.787M155.265 929.798C155.194 942.435 155.109 962.229 155.087 980.048M223.787 929.798V991.261M223.787 929.798H269.054M286.912 929.798V873.734M286.912 929.798H269.054M173.537 718C178.936 716.339 181.843 712.186 179.767 703.88M173.537 718C165.647 718 161.176 715.657 160.663 707.202M173.537 718V728.382M179.767 703.88C178.372 694.813 159.833 693.498 160.663 707.202M179.767 703.88L204.239 690.854C205.024 690.436 205.515 689.619 205.515 688.73V656.122M160.663 707.202H144.882M144.882 612.931C133.531 609.055 108.171 599.891 97.5391 594.243C87.4688 588.893 81.8202 592.809 79.9578 595.826C79.7615 596.144 79.6816 596.514 79.6816 596.888V681.958C79.6816 682.914 80.2468 683.779 81.1219 684.162L133.207 707C133.512 707.133 133.841 707.202 134.174 707.202H144.882M144.882 612.931V707.202M144.882 612.931V541.086M284.835 451.383C246.905 454.29 168.969 460.354 160.663 461.35C152.988 462.271 147.558 466.81 145.358 469.46C145.035 469.849 144.882 470.344 144.882 470.85V541.086M284.835 451.383L343.204 410.158C343.843 409.707 344.222 408.974 344.222 408.193V391.997M284.835 451.383V465.919M344.222 391.997H385.836C387.165 391.997 388.242 393.074 388.242 394.404V396.565M284.835 541.086H251.197M284.835 541.086V465.919M284.835 541.086H358.341M217.143 541.086C214.236 527.797 193.471 528.212 193.056 541.086M217.143 541.086C217.143 548.146 211.329 552.299 205.515 552.714M217.143 541.086H251.197M193.056 541.086C192.801 548.973 198.039 552.714 205.515 552.714M193.056 541.086H144.882M205.515 552.714V656.122M205.515 656.122H251.197M251.197 656.122V541.086M251.197 656.122V685.607M251.197 685.607V728.382M251.197 685.607H290.649M329.686 685.607H308.507M308.507 685.607V728.382M308.507 685.607H290.649M308.507 728.382H290.649M308.507 728.382H323.457H251.197M251.197 728.382H290.649M251.197 728.382V764.512M290.649 685.607V728.382M251.197 764.512H284.505C285.834 764.512 286.912 765.59 286.912 766.919V873.734M200.531 764.512V730.789C200.531 729.46 199.454 728.382 198.125 728.382H173.537M536.501 538.179L520.38 601.009C520.33 601.204 520.305 601.405 520.305 601.607V653.214M492.065 985.447V914.347C492.065 913.018 493.142 911.94 494.472 911.94H549.875C551.205 911.94 552.282 910.863 552.282 909.534V876.1C552.282 875.907 552.259 875.716 552.213 875.529L546.293 851.308M492.065 985.447H337.992M492.065 985.447L518.159 1020.1C518.474 1020.52 518.644 1021.03 518.644 1021.55V1071.83M337.992 985.447V1041.93M337.992 1098.41V1075.98M337.992 1098.41V1108.87C337.992 1110.2 336.915 1111.28 335.586 1111.28H311.829M337.992 1098.41H382.428M518.644 1071.83H529.941C531.271 1071.83 532.348 1072.9 532.348 1074.23V1096C532.348 1097.33 531.271 1098.41 529.941 1098.41H518.644M518.644 1071.83V1098.41M518.644 1098.41H414.406M337.992 1041.93H411.999C413.328 1041.93 414.406 1043 414.406 1044.33V1098.41M337.992 1041.93V1075.98M414.406 1098.41H382.428M286.912 957.622C287.071 959.123 287.882 960.237 288.358 961.25C288.517 961.588 288.721 961.907 288.924 962.22C289.414 962.979 289.711 964.011 290.65 964.682M286.912 957.622L268.223 970.081C264.763 972.019 257.924 978.636 258.256 989.6C258.547 999.192 258.435 1003.55 258.31 1004.95C258.285 1005.24 258.18 1005.5 258.031 1005.75L255.291 1010.2C255.058 1010.58 254.934 1011.02 254.934 1011.46V1034.45M254.934 1058.12L258.068 1065.57C258.192 1065.86 258.256 1066.18 258.256 1066.5V1147.99C258.256 1148.43 258.374 1148.85 258.596 1149.23L294.048 1208.72C294.27 1209.09 294.387 1209.52 294.387 1209.95V1247.57C294.387 1248.06 294.237 1248.54 293.959 1248.94L291.077 1253.11C290.798 1253.51 290.649 1253.99 290.649 1254.48V1278.69C290.649 1278.93 290.612 1279.18 290.54 1279.41L288.682 1285.35C288.61 1285.58 288.573 1285.83 288.573 1286.07V1309.37M254.934 1058.12V1034.45M254.934 1058.12L250.323 1065.42C250.08 1065.81 249.951 1066.25 249.951 1066.71V1109.2M288.573 1309.37L274.868 1326.82M288.573 1309.37L306.015 1313.53M306.015 1313.53L318.474 1337.2M306.015 1313.53V1286.27C306.015 1285.9 305.928 1285.53 305.761 1285.19L302.947 1279.57C302.78 1279.23 302.693 1278.86 302.693 1278.49V1264.11M290.65 964.682L273.207 975.895C268.223 978.802 265.455 985.862 265.316 989.6V1004.63C265.316 1005.12 265.466 1005.6 265.744 1006L268.626 1010.16C268.905 1010.56 269.054 1011.04 269.054 1011.53V1034.45M306.543 955.131L423.8 884.461C424.175 884.235 424.605 884.116 425.042 884.116H427.859C428.295 884.116 428.723 883.997 429.097 883.773L465.756 861.778C465.853 861.72 465.944 861.657 466.032 861.585C470.5 857.914 479.105 848.822 478.776 840.926V811.025M478.776 811.025H536.446M536.446 811.025L520.373 745.275C520.328 745.088 520.305 744.896 520.305 744.704V653.214M536.446 811.025L546.293 851.308M546.293 851.308H518.143C516.814 851.308 515.736 850.23 515.736 848.901V845.079M515.736 845.079V823.814C515.736 822.485 514.659 821.407 513.33 821.407H494.099C492.77 821.407 491.692 822.485 491.692 823.814V842.672C491.692 844.001 492.77 845.079 494.099 845.079H515.736ZM286.912 873.734H350.026C350.813 873.734 351.55 874.118 352 874.764L374.538 907.09M223.787 991.261H237.53C238.706 991.261 239.715 990.41 239.848 989.241C240.893 980.011 239.185 971.168 254.104 961.775C265.316 954.715 269.054 946.825 269.054 941.841V929.798M223.787 991.261V1025.73M155.087 980.048C155.065 997.169 155.102 1012.47 155.265 1017.84C155.593 1028.67 165.676 1033.1 170.858 1034C170.985 1034.03 171.11 1034.04 171.239 1034.04H180.597M155.087 980.048C158.745 980.879 166.145 984.284 166.477 991.261C166.803 998.095 166.623 1013.19 166.486 1020.31C166.48 1020.6 166.523 1020.89 166.645 1021.15C167.566 1023.16 170.446 1026.35 176.029 1025.73H180.597M223.787 1025.73H180.597M180.597 1025.73V1034.04M180.597 1034.04V1101.16C180.597 1101.79 180.35 1102.4 179.909 1102.85L160.974 1122.17C160.511 1122.64 160.263 1123.28 160.288 1123.94L161.448 1153.64M285.25 1244.17V1212.85C285.25 1212.42 285.135 1212 284.916 1211.63L249.951 1152.39M285.25 1244.17H248.29M285.25 1244.17V1274.07M249.951 1152.39V1109.2M249.951 1152.39H226.694M249.951 1109.2H243.306M243.306 1109.2V1059.28C243.306 1057.95 242.229 1056.88 240.899 1056.88H192.971C191.642 1056.88 190.564 1057.95 190.564 1059.28V1110.95C190.564 1112.28 191.642 1113.36 192.971 1113.36H214.462C214.859 1113.36 215.249 1113.45 215.599 1113.64L226.077 1119.25C226.48 1119.47 226.937 1119.57 227.393 1119.53L241.079 1118.51C242.335 1118.41 243.306 1117.37 243.306 1116.11V1109.2ZM161.448 1153.64L164.401 1229.22C164.816 1234.48 169.717 1244.84 185.996 1244.17H195.132M161.448 1153.64H184.335M248.29 1244.17V1252.98C248.29 1254.31 249.367 1255.39 250.696 1255.39H257.841M248.29 1244.17H225.864M257.841 1255.39H277.03C278.359 1255.39 279.436 1256.46 279.436 1257.79V1266.6M257.841 1255.39V1266.6M257.841 1266.6H279.436M257.841 1266.6V1279.89M279.436 1266.6V1274.07M257.841 1279.89V1290.77C257.841 1292.1 258.919 1293.18 260.248 1293.18H277.03C278.359 1293.18 279.436 1292.1 279.436 1290.77V1279.89M257.841 1279.89H279.436M279.436 1279.89V1274.07M195.132 1244.17V1262.44C195.132 1263.44 195.751 1264.34 196.687 1264.69L225.864 1275.73M195.132 1244.17H225.864M225.864 1275.73H231.763C233.092 1275.73 234.17 1274.66 234.17 1273.33V1250.88C234.17 1250.06 233.758 1249.3 233.075 1248.86L225.864 1244.17M225.864 1275.73V1244.17M285.25 1279.89V1274.07M285.25 1274.07H279.436M302.693 1264.11V1254.25C302.693 1253.9 302.617 1253.56 302.471 1253.24L300.422 1248.81C300.276 1248.49 300.201 1248.15 300.201 1247.8V1206.62C300.201 1206.19 300.086 1205.77 299.869 1205.4L265.648 1147.14C265.431 1146.77 265.316 1146.35 265.316 1145.92V1066.55C265.316 1066.2 265.396 1065.85 265.548 1065.52L268.822 1058.61C268.975 1058.29 269.054 1057.94 269.054 1057.58V1034.45M302.693 1264.11H310.998M310.998 1264.11V1279.89M310.998 1264.11V1241.27M269.054 1034.45L276.22 1047.19C276.423 1047.55 276.529 1047.96 276.529 1048.37V1075.98M276.529 1075.98V1111.28M276.529 1075.98H295.633M337.992 1075.98H319.719M276.529 1111.28V1143.85C276.529 1144.28 276.644 1144.7 276.862 1145.07L300.201 1184.72M276.529 1111.28H302.693M295.633 1075.98V1093.37C295.633 1093.68 295.692 1093.99 295.808 1094.27L302.693 1111.28M295.633 1075.98H319.719M302.693 1111.28H311.829M311.829 1111.28L319.505 1094.31C319.646 1094 319.719 1093.66 319.719 1093.32V1075.98M382.428 1098.41V1181.46M382.428 1181.46H372.461M382.428 1181.46C382.29 1184.79 382.594 1191.93 384.92 1193.92C387.827 1196.41 390.319 1216.35 389.904 1218.42C389.488 1220.5 384.92 1241.27 367.893 1241.27C354.272 1241.27 324.288 1241.27 310.998 1241.27M306.015 1181.46L300.201 1184.72M306.015 1181.46L318.084 1199.17C318.339 1199.54 318.483 1199.98 318.5 1200.43L319.629 1229.4C319.68 1230.69 320.741 1231.71 322.034 1231.71H365.182C365.598 1231.71 366.005 1231.61 366.363 1231.4C370.69 1228.86 378.76 1223.2 380.352 1218.42C382.428 1212.2 377.86 1196 375.368 1193.92C373.375 1192.26 372.6 1184.92 372.461 1181.46M306.015 1181.46H372.461M300.201 1184.72L310.666 1202.49C310.883 1202.86 310.998 1203.29 310.998 1203.71V1241.27M284.835 465.919H352.527M423.957 465.919V427.712M423.957 465.919V487.098M423.957 465.919H352.527M423.957 427.712H418.136M423.957 427.712V325.135M423.957 487.098H419.096C417.767 487.098 416.69 488.176 416.69 489.505V502.134C416.69 503.463 415.612 504.541 414.283 504.541H358.341M352.527 465.919V502.134C352.527 503.463 353.605 504.541 354.934 504.541H358.341M358.341 504.541V541.086M553.736 409.439H456.765M484.59 653.214H520.305" stroke="#D5D5D5" stroke-width="2.4066"/>
<path d="M532.497 444.659H554.923M532.497 444.659H502.511C501.182 444.659 500.104 443.581 500.104 442.252V428.41M532.497 444.659V428.41M500.104 428.41V412.181C500.104 410.852 501.182 409.774 502.511 409.774H530.09C531.42 409.774 532.497 410.852 532.497 412.181V428.41M500.104 428.41H532.497M485.569 501.969V516.576C485.569 517.91 486.655 518.99 487.989 518.983L514.547 518.839M485.569 501.969H504.673M485.569 501.969V486.731M514.547 501.812V518.839M514.547 501.812L504.673 501.969M514.547 501.812V495.239C514.547 493.91 515.625 492.832 516.954 492.832H534.989M514.547 518.839L529.175 518.996M504.673 501.969V477.882M504.673 477.882H487.976C486.647 477.882 485.569 478.96 485.569 480.289V486.731M504.673 477.882H534.989M534.989 477.882V492.832M534.989 477.882H549.443M534.989 501.969H531.581C530.252 501.969 529.175 503.046 529.175 504.375V518.996M534.989 501.969V492.832M534.989 501.969H547.036C548.365 501.969 549.443 500.891 549.443 499.562V492.832M529.175 518.996H561.152M549.443 477.882H573.281C574.61 477.882 575.687 478.96 575.687 480.289V492.832M549.443 477.882V492.832M549.443 492.832H561.152M575.687 492.832V516.589C575.687 517.918 574.61 518.996 573.281 518.996H561.152M575.687 492.832H561.152M561.152 492.832V518.996M485.569 486.731H426.407C425.077 486.731 424 485.654 424 484.325V458.464" stroke="#BDB16F" stroke-width="2.4066" stroke-linecap="round"/>
<path d="M450.684 985.367V977.336C450.684 977.189 450.671 977.042 450.642 976.898C449.464 970.999 445.097 966.94 436.564 967.925M436.564 967.925V956.659C436.564 955.33 435.486 954.253 434.157 954.253H402.84C401.511 954.253 400.434 955.33 400.434 956.659V975.485C400.434 976.814 401.511 977.892 402.84 977.892H434.157C435.486 977.892 436.564 976.814 436.564 975.485V967.925Z" stroke="#966174" stroke-width="2.4066"/>
<path d="M356.827 431.786H341.791C340.462 431.786 339.385 432.863 339.385 434.193V457.289C339.385 458.619 340.462 459.696 341.791 459.696H356.827M356.827 431.786V416.75C356.827 415.421 357.904 414.344 359.234 414.344H361.395M356.827 431.786V443.414M373.854 414.344V396.902M373.854 414.344H361.395M373.854 414.344V424.726M373.854 396.902H363.802C362.473 396.902 361.395 397.979 361.395 399.308V414.344M373.854 396.902H390.05M373.854 443.414H356.827M373.854 443.414H400.848M373.854 443.414V424.726M417.875 443.414V457.289C417.875 458.619 416.797 459.696 415.468 459.696H356.827M417.875 443.414V411.437M417.875 443.414H400.848M356.827 443.414V459.696M390.05 396.902H415.468C416.797 396.902 417.875 397.979 417.875 399.308V411.437M390.05 396.902V409.03C390.05 410.359 391.128 411.437 392.457 411.437H417.875M400.848 443.414V427.133C400.848 425.804 399.77 424.726 398.441 424.726H373.854" stroke="#BDB16F" stroke-width="2.4066"/>
<path d="M463.573 181.365H422.774C421.445 181.365 420.367 182.442 420.367 183.771V219.14M463.573 181.365C481.015 181.365 493.724 193.7 493.724 212.545C493.724 237.042 479.591 247.407 463.573 247.407C455.103 247.407 448.498 245.942 439.075 235.158M463.573 181.365C449.869 181.365 432.48 189.931 432.48 212.545C432.48 225.73 433.152 228.378 439.075 235.158M442.378 271.898H422.774C421.445 271.898 420.367 270.821 420.367 269.491V219.14M420.367 219.14L439.075 235.158" stroke="#892F2F" stroke-width="2.4066"/>
<path d="M439.054 864.932C436.424 862.302 431.164 854.965 431.164 846.66M431.164 846.66V803.885M431.164 846.66H403.67C402.34 846.66 401.263 845.582 401.263 844.253V791.807M431.164 764.432H290.548C289.124 764.432 288.012 763.175 288.632 761.893C289.874 759.322 292.803 756.637 298.686 757.372C308.653 758.618 325.265 752.389 324.019 742.422V712.936M431.164 764.432H473.108M431.164 764.432V803.885M431.164 764.432L424.52 754.662C424.249 754.263 424.104 753.792 424.104 753.309V729.548M431.164 803.885L447.095 817.824C447.534 818.208 448.097 818.42 448.68 818.42H467.294M336.893 607.452L318.099 575.585C317.896 575.24 317.782 574.85 317.767 574.45L316.544 541.006M336.893 607.452V654.38M336.893 607.452H347.275M324.019 712.936V698.475C324.019 698.152 324.084 697.832 324.21 697.535L336.701 668.12C336.828 667.823 336.893 667.503 336.893 667.18V654.38M324.019 712.936H347.275M424.104 712.936V729.548M424.104 712.936H375.1M424.104 712.936V688.434M424.104 654.38H456.081M424.104 654.38H375.1M424.104 654.38V623.233M424.104 654.38V688.434M336.893 654.38H347.275M484.321 654.38H473.108M456.081 654.38V629.463M456.081 654.38V702.154C456.081 702.419 456.125 702.682 456.21 702.932L461.895 719.581M456.081 654.38H473.108M461.895 719.581H472.278M461.895 719.581H439.885M439.885 719.581L424.104 729.548M439.885 719.581L433.945 713.641C433.494 713.19 433.24 712.577 433.24 711.939V706.291M347.275 712.936V654.38M347.275 712.936H375.1M347.275 654.38H375.1M375.1 712.936V697.986M375.1 654.38V623.233M375.1 654.38V670.992M375.1 623.233H424.104M375.1 623.233V592.087M375.1 623.233H349.682C348.353 623.233 347.275 622.156 347.275 620.827V607.452M424.104 623.233V592.087M424.104 541.006V570.907M424.104 570.907V592.087M424.104 570.907H395.241M424.104 592.087H385.067M375.1 592.087H368.785C367.456 592.087 366.379 591.009 366.379 589.68V584.196M375.1 592.087H385.067M366.379 584.196V573.313C366.379 571.984 367.456 570.907 368.785 570.907H385.067M366.379 584.196H349.682C348.353 584.196 347.275 585.274 347.275 586.603V607.452M395.241 570.907V541.006M395.241 570.907H385.067M375.1 697.986C389.081 697.847 418.456 695.743 424.104 688.434M375.1 697.986V683.035M424.104 688.434C421.446 684.115 407.215 678.052 400.432 675.56M375.1 683.035C382.16 682.343 397.11 679.879 400.432 675.56M375.1 683.035V670.992M400.432 675.56C394.203 673.483 380.914 669.746 375.1 670.992M484.321 610.775H473.108M424.104 610.775H467.709M467.709 610.775V560.439C467.709 559.11 468.787 558.033 470.116 558.033H484.321M467.709 610.775H473.108M473.108 610.775V623.856V636.938M473.108 654.38V688.434M385.067 570.907V592.087" stroke="#6D7CB2" stroke-width="2.4066"/>
<path d="M390.92 417.216L391.744 416.392H395.453V420.1L394.628 420.924H390.92V417.216Z" fill="#D9D9D9"/>
<path d="M399.16 415.569L399.984 414.745H403.693V418.453L402.869 419.277H399.16V415.569Z" fill="#D9D9D9"/>
<path d="M366.197 404.854L367.021 404.03H370.73V407.739L369.906 408.563H366.197V404.854Z" fill="#D9D9D9"/>
<path d="M348.462 439.468L349.287 438.644H352.583L353.407 439.468V442.352L352.995 443.176H350.111V446.061H352.995L353.407 446.473V449.769L352.995 450.593H349.699V453.89L349.287 454.302H345.578L345.166 453.89V450.593L345.578 450.181H348.462V446.473H345.578L345.166 446.061V442.352L345.578 441.94H348.462V439.468Z" fill="#FBDB5F"/>
<path d="M364.945 422.16L365.769 421.336H369.065L369.89 422.16V425.044L369.478 425.869H366.593V428.753H369.478L369.89 429.165V432.461L369.478 433.286H366.181V436.582L365.769 436.994H362.06L361.648 436.582V433.286L362.06 432.874H364.945V429.165H362.06L361.648 428.753V425.044L362.06 424.632H364.945V422.16Z" fill="#FBDB5F"/>
<path d="M409.445 424.633L410.269 423.809H413.565L414.39 424.633V427.517L413.978 428.341H411.093V431.226H413.978L414.39 431.638V434.934L413.978 435.759H410.681V439.055L410.269 439.467H406.56L406.148 439.055V435.759L406.56 435.346H409.445V431.638H406.56L406.148 431.226V427.517L406.56 427.105H409.445V424.633Z" fill="#FBDB5F"/>
<path d="M381.425 403.206L382.249 402.382H385.546L386.37 403.206V406.091L385.958 406.915H383.074V409.799H385.958L386.37 410.211V413.508L385.958 414.332H382.662V417.628L382.249 418.04H378.541L378.129 417.628V414.332L378.541 413.92H381.425V410.211H378.541L378.129 409.799V406.091L378.541 405.679H381.425V403.206Z" fill="#FBDB5F"/>
<path d="M381.428 434.523L380.604 433.699V430.402L381.428 429.578H384.312L385.136 429.99V432.875H388.021V429.99L388.433 429.578H391.729L392.553 429.99V433.287H395.85L396.262 433.699V437.407L395.85 437.819H392.553L392.141 437.407V434.523H388.433V437.407L388.021 437.819H384.312L383.9 437.407V434.523H381.428Z" fill="#FBDB5F"/>
<path d="M364.945 453.477L364.121 452.653V449.357L364.945 448.533H367.83L368.654 448.945V451.829H371.538V448.945L371.95 448.533H375.247L376.071 448.945V452.241H379.367L379.779 452.653V456.362L379.367 456.774H376.071L375.659 456.362V453.477H371.95V456.362L371.538 456.774H367.83L367.418 456.362V453.477H364.945Z" fill="#FBDB5F"/>
<path d="M396.26 453.477L395.436 452.653V449.357L396.26 448.533H399.144L399.968 448.945V451.829H402.853V448.945L403.265 448.533H406.561L407.385 448.945V452.241H410.682L411.094 452.653V456.362L410.682 456.774H407.385L406.973 456.362V453.477H403.265V456.362L402.853 456.774H399.144L398.732 456.362V453.477H396.26Z" fill="#FBDB5F"/>
<path d="M397.908 405.678L397.084 404.854V401.558L397.908 400.734H400.793L401.617 401.146V404.03H404.501V401.146L404.913 400.734H408.21L409.034 401.146V404.442H412.33L412.742 404.854V408.563L412.33 408.975H409.034L408.622 408.563V405.678H404.913V408.563L404.501 408.975H400.793L400.38 408.563V405.678H397.908Z" fill="#FBDB5F"/>
<path d="M506.822 492.836L507.615 492.043H511.182V495.61L510.39 496.403H506.822V492.836Z" fill="#D9D9D9"/>
<path d="M553.053 497.791L553.845 496.998H557.413V500.565L556.62 501.358H553.053V497.791Z" fill="#D9D9D9"/>
<path d="M515.129 485.701L514.336 484.908V481.737L515.129 480.945H517.903L518.696 481.341V484.115H521.47V481.341L521.867 480.945H525.038L525.83 481.341V484.512H529.001L529.398 484.908V488.475L529.001 488.872H525.83L525.434 488.475V485.701H521.867V488.475L521.47 488.872H517.903L517.507 488.475V485.701H515.129Z" fill="#FADB5F"/>
<path d="M514.377 552.293L515.17 551.501V548.33L514.377 547.537H511.603L510.81 547.933V550.708H508.035V547.933L507.639 547.537H504.468L503.675 547.933V551.104H500.505L500.108 551.501V555.068L500.505 555.464H503.675L504.072 555.068V552.293H507.639V555.068L508.035 555.464H511.603L511.999 555.068V552.293H514.377Z" fill="#FADB5F"/>
<path d="M514.377 569.139L515.17 568.346V565.176L514.377 564.383H511.603L510.81 564.779V567.554H508.035V564.779L507.639 564.383H504.468L503.675 564.779V567.95H500.505L500.108 568.346V571.914L500.505 572.31H503.675L504.072 571.914V569.139H507.639V571.914L508.035 572.31H511.603L511.999 571.914V569.139H514.377Z" fill="#FADB5F"/>
<path d="M556.254 485.701L555.461 484.908V481.737L556.254 480.945H559.028L559.821 481.341V484.115H562.595V481.341L562.992 480.945H566.163L566.955 481.341V484.512H570.126L570.523 484.908V488.475L570.126 488.872H566.955L566.559 488.475V485.701H562.992V488.475L562.595 488.872H559.028L558.632 488.475V485.701H556.254Z" fill="#FADB5F"/>
<path d="M537 511.381L536.207 510.588V507.417L537 506.624H539.774L540.567 507.021V509.795H543.342V507.021L543.738 506.624H546.909L547.701 507.021V510.192H550.872L551.269 510.588V514.155L550.872 514.552H547.701L547.305 514.155V511.381H543.738V514.155L543.342 514.552H539.774L539.378 514.155V511.381H537Z" fill="#FADB5F"/>
<path d="M491.275 511.381L490.482 510.588V507.417L491.275 506.624H494.05L494.842 507.021V509.795H497.617V507.021L498.013 506.624H501.184L501.977 507.021V510.192H505.148L505.544 510.588V514.155L505.148 514.552H501.977L501.581 514.155V511.381H498.013V514.155L497.617 514.552H494.05L493.653 514.155V511.381H491.275Z" fill="#FADB5F"/>
<path d="M520.677 497.591L521.469 496.798H524.64L525.433 497.591V500.366L525.037 501.158H522.262V503.933H525.037L525.433 504.329V507.5L525.037 508.293H521.866V511.464L521.469 511.86H517.902L517.506 511.464V508.293L517.902 507.896H520.677V504.329H517.902L517.506 503.933V500.366L517.902 499.969H520.677V497.591Z" fill="#FADB5F"/>
<path d="M541.523 492.763L542.212 492.074H544.968L545.657 492.763V495.174L545.313 495.863H542.901V498.275H545.313L545.657 498.619V501.375L545.313 502.064H542.557V504.82L542.212 505.164H539.112L538.768 504.82V502.064L539.112 501.719H541.523V498.619H539.112L538.768 498.275V495.174L539.112 494.83H541.523V492.763Z" fill="#FADB5F"/>
<path d="M540.497 482.531L541.29 481.738H544.461L545.253 482.531V485.305L544.857 486.098H542.083V488.873H544.857L545.253 489.269V492.44L544.857 493.232H541.686V496.403L541.29 496.8H537.723L537.326 496.403V493.232L537.723 492.836H540.497V489.269H537.723L537.326 488.873V485.305L537.723 484.909H540.497V482.531Z" fill="#FADB5F"/>
<path d="M494.519 482.531L495.311 481.738H498.482L499.275 482.531V485.305L498.879 486.098H496.104V488.873H498.879L499.275 489.269V492.44L498.879 493.232H495.708V496.403L495.311 496.8H491.744L491.348 496.403V493.232L491.744 492.836H494.519V489.269H491.744L491.348 488.873V485.305L491.744 484.909H494.519V482.531Z" fill="#FADB5F"/>
<path d="M406.25 962.676C406.25 961.347 407.327 960.269 408.657 960.269H415.876C417.206 960.269 418.283 961.347 418.283 962.676V969.895C418.283 971.225 417.206 972.302 415.876 972.302H408.657C407.327 972.302 406.25 971.225 406.25 969.895V962.676Z" fill="#FF00D7"/>
<rect x="497.703" y="364.635" width="14.4396" height="2.4066" rx="1.2033" fill="#F7DA69"/>
<rect x="514.549" y="364.635" width="16.8462" height="2.4066" rx="1.2033" fill="#F7DA69"/>
<rect x="497.703" y="369.448" width="14.4396" height="2.4066" rx="1.2033" fill="#F7DA69"/>
<rect x="504.92" y="403.141" width="16.8462" height="2.4066" rx="1.2033" transform="rotate(-90 504.92 403.141)" fill="#F7DA69"/>
<rect x="509.734" y="403.141" width="16.8462" height="2.4066" rx="1.2033" transform="rotate(-90 509.734 403.141)" fill="#F7DA69"/>
<rect x="514.549" y="403.141" width="16.8462" height="2.4066" rx="1.2033" transform="rotate(-90 514.549 403.141)" fill="#F7DA69"/>
<rect x="519.361" y="403.141" width="16.8462" height="2.4066" rx="1.2033" transform="rotate(-90 519.361 403.141)" fill="#F7DA69"/>
<rect x="524.174" y="403.141" width="16.8462" height="2.4066" rx="1.2033" transform="rotate(-90 524.174 403.141)" fill="#F7DA69"/>
<rect x="528.988" y="403.141" width="16.8462" height="2.4066" rx="1.2033" transform="rotate(-90 528.988 403.141)" fill="#F7DA69"/>
<rect x="514.549" y="369.448" width="16.8462" height="2.4066" rx="1.2033" fill="#F7DA69"/>
<rect x="519.361" y="374.261" width="12.033" height="4.81321" rx="1.2033" fill="#F7DA69"/>
<rect x="504.92" y="374.261" width="12.033" height="4.81321" rx="1.2033" fill="#F7DA69"/>
<rect x="504.92" y="448.865" width="21.3156" height="12.7894" rx="1.06578" fill="#F28521"/>
<rect x="358.119" y="470.526" width="21.3156" height="12.7894" rx="1.06578" fill="#F28521"/>
<rect x="555.91" y="543.264" width="21.3156" height="12.7894" rx="1.06578" fill="#F28521"/>
<rect x="382.543" y="190.873" width="21.3156" height="12.7894" rx="1.06578" fill="#FF5B87"/>
<rect x="599.254" y="466.002" width="62.1867" height="71.6089" rx="1.06578" fill="#FF5B87"/>
<rect x="408.924" y="209.718" width="15.0756" height="16.96" rx="1.06578" transform="rotate(90 408.924 209.718)" fill="#FF5B87"/>
<rect x="616.213" y="548.918" width="15.0756" height="16.96" rx="1.06578" transform="rotate(90 616.213 548.918)" fill="#FF5B87"/>
<rect x="414.578" y="245.522" width="11.3067" height="13.1911" rx="1.06578" transform="rotate(90 414.578 245.522)" fill="#FF5B87"/>
<rect x="414.578" y="268.135" width="11.3067" height="30.1511" rx="1.06578" transform="rotate(90 414.578 268.135)" fill="#FF5B87"/>
<rect x="388.195" y="215.371" width="35.8044" height="18.8444" rx="1.06578" transform="rotate(90 388.195 215.371)" fill="#FF5B87"/>
<rect x="391.811" y="576.416" width="21.6594" height="12.033" rx="1.06578" fill="#5A9CFE"/>
<rect x="258.168" y="548.918" width="13.1911" height="13.1911" rx="1.06578" fill="#42CD3D"/>
<path d="M275.129 549.984C275.129 549.395 275.606 548.918 276.195 548.918H283.485C284.074 548.918 284.551 549.396 284.551 549.985C284.551 554.146 284.551 556.88 284.551 561.042C284.551 561.631 284.074 562.109 283.485 562.109H276.195C275.606 562.109 275.129 561.632 275.129 561.043V549.984Z" fill="#42CD3D"/>
<path d="M288.32 549.984C288.32 549.395 288.797 548.918 289.386 548.918H296.677C297.265 548.918 297.743 549.396 297.743 549.985C297.743 554.146 297.743 556.88 297.743 561.042C297.743 561.631 297.265 562.109 296.677 562.109H289.386C288.797 562.109 288.32 561.632 288.32 561.043V549.984Z" fill="#42CD3D"/>
<path d="M301.512 549.984C301.512 549.395 301.989 548.918 302.578 548.918H309.868C310.457 548.918 310.934 549.396 310.934 549.985C310.934 554.146 310.934 556.88 310.934 561.042C310.934 561.631 310.457 562.109 309.868 562.109H302.578C301.989 562.109 301.512 561.632 301.512 561.043V549.984Z" fill="#42CD3D"/>
<rect x="370.152" y="578.823" width="9.62641" height="9.62641" rx="1.06578" fill="#5A9CFE"/>
<rect x="389.404" y="470.526" width="21.6594" height="28.8792" rx="1.2033" fill="#F28521"/>
<rect x="497.703" y="374.261" width="4.81321" height="4.81321" rx="1.2033" fill="#F7DA69"/>
<rect x="497.703" y="386.294" width="4.81321" height="9.62641" rx="1.2033" fill="#F7DA69"/>
<rect x="504.92" y="381.481" width="4.81321" height="2.4066" rx="1.2033" fill="#F7DA69"/>
<rect x="519.361" y="381.481" width="4.81321" height="2.4066" rx="1.2033" fill="#F7DA69"/>
<rect x="512.141" y="381.481" width="4.81321" height="2.4066" rx="1.2033" fill="#F7DA69"/>
<rect x="526.58" y="381.481" width="4.81321" height="2.4066" rx="1.2033" fill="#F7DA69"/>
<path d="M523.984 420.244C523.851 420.244 523.743 420.352 523.743 420.485V422.152C523.743 422.285 523.635 422.393 523.502 422.393H521.319C521.186 422.393 521.079 422.285 521.079 422.152V420.485C521.079 420.352 520.971 420.244 520.838 420.244H516.351V419.729V417.735C516.351 417.602 516.459 417.494 516.592 417.494L517.916 417.494C518.048 417.494 518.156 417.386 518.156 417.253V415.414C518.156 415.281 518.264 415.173 518.397 415.173L520.58 415.173C520.713 415.173 520.821 415.281 520.821 415.414V417.253C520.821 417.386 520.928 417.494 521.061 417.494L525.651 417.494C525.784 417.494 525.892 417.602 525.892 417.735V420.004C525.892 420.137 525.784 420.244 525.651 420.244H523.984Z" fill="#F7DA69"/>
<path d="M506.828 419.729C506.961 419.729 507.069 419.621 507.069 419.488V417.821C507.069 417.688 507.176 417.58 507.309 417.58H509.492C509.625 417.58 509.733 417.688 509.733 417.821V419.488C509.733 419.621 509.841 419.729 509.974 419.729H514.46V420.244V422.238C514.46 422.371 514.353 422.479 514.22 422.479H512.896C512.763 422.479 512.655 422.587 512.655 422.72V424.559C512.655 424.692 512.548 424.8 512.415 424.8H510.232C510.099 424.8 509.991 424.692 509.991 424.559V422.72C509.991 422.587 509.883 422.479 509.75 422.479H505.161C505.028 422.479 504.92 422.371 504.92 422.238V419.969C504.92 419.836 505.028 419.729 505.161 419.729H506.828Z" fill="#F7DA69"/>
<path d="M516.351 420.244H520.838C520.971 420.244 521.079 420.352 521.079 420.485V422.152C521.079 422.285 521.186 422.393 521.319 422.393H523.502C523.635 422.393 523.743 422.285 523.743 422.152V420.485C523.743 420.352 523.851 420.244 523.984 420.244H525.651C525.784 420.244 525.892 420.137 525.892 420.004V417.735C525.892 417.602 525.784 417.494 525.651 417.494L521.061 417.494C520.928 417.494 520.821 417.386 520.821 417.253V415.414C520.821 415.281 520.713 415.173 520.58 415.173L518.397 415.173C518.264 415.173 518.156 415.281 518.156 415.414V417.253C518.156 417.386 518.048 417.494 517.916 417.494L516.592 417.494C516.459 417.494 516.351 417.602 516.351 417.735V419.729M516.351 420.244V419.729M516.351 420.244H514.46M516.351 419.729L514.46 419.729M514.46 419.729H509.974C509.841 419.729 509.733 419.621 509.733 419.488V417.821C509.733 417.688 509.625 417.58 509.492 417.58H507.309C507.176 417.58 507.069 417.688 507.069 417.821V419.488C507.069 419.621 506.961 419.729 506.828 419.729H505.161C505.028 419.729 504.92 419.836 504.92 419.969V422.238C504.92 422.371 505.028 422.479 505.161 422.479H509.75C509.883 422.479 509.991 422.587 509.991 422.72V424.559C509.991 424.692 510.099 424.8 510.232 424.8H512.415C512.548 424.8 512.655 424.692 512.655 424.559V422.72C512.655 422.587 512.763 422.479 512.896 422.479H514.22C514.353 422.479 514.46 422.371 514.46 422.238V420.244M514.46 419.729V420.244" stroke="#F7DA69" stroke-width="0.859501"/>
<path d="M523.984 437.091C523.851 437.091 523.743 437.198 523.743 437.331V438.999C523.743 439.132 523.635 439.239 523.502 439.239H521.319C521.186 439.239 521.079 439.132 521.079 438.999V437.331C521.079 437.198 520.971 437.091 520.838 437.091H516.351V436.575V434.581C516.351 434.448 516.459 434.34 516.592 434.34L517.916 434.34C518.048 434.34 518.156 434.232 518.156 434.1V432.26C518.156 432.127 518.264 432.02 518.397 432.02L520.58 432.02C520.713 432.02 520.821 432.127 520.821 432.26V434.1C520.821 434.232 520.928 434.34 521.061 434.34L525.651 434.34C525.784 434.34 525.892 434.448 525.892 434.581V436.85C525.892 436.983 525.784 437.091 525.651 437.091H523.984Z" fill="#F7DA69"/>
<path d="M506.828 436.575C506.961 436.575 507.069 436.467 507.069 436.334V434.667C507.069 434.534 507.176 434.426 507.309 434.426H509.492C509.625 434.426 509.733 434.534 509.733 434.667V436.334C509.733 436.467 509.841 436.575 509.974 436.575H514.46V437.091V439.085C514.46 439.218 514.353 439.325 514.22 439.325H512.896C512.763 439.325 512.655 439.433 512.655 439.566V441.405C512.655 441.538 512.548 441.646 512.415 441.646H510.232C510.099 441.646 509.991 441.538 509.991 441.405V439.566C509.991 439.433 509.883 439.325 509.75 439.325H505.161C505.028 439.325 504.92 439.218 504.92 439.085V436.816C504.92 436.683 505.028 436.575 505.161 436.575H506.828Z" fill="#F7DA69"/>
<path d="M516.351 437.091H520.838C520.971 437.091 521.079 437.198 521.079 437.331V438.999C521.079 439.132 521.186 439.239 521.319 439.239H523.502C523.635 439.239 523.743 439.132 523.743 438.999V437.331C523.743 437.198 523.851 437.091 523.984 437.091H525.651C525.784 437.091 525.892 436.983 525.892 436.85V434.581C525.892 434.448 525.784 434.34 525.651 434.34L521.061 434.34C520.928 434.34 520.821 434.232 520.821 434.1V432.26C520.821 432.127 520.713 432.02 520.58 432.02L518.397 432.02C518.264 432.02 518.156 432.127 518.156 432.26V434.1C518.156 434.232 518.048 434.34 517.916 434.34L516.592 434.34C516.459 434.34 516.351 434.448 516.351 434.581V436.575M516.351 437.091V436.575M516.351 437.091H514.46M516.351 436.575L514.46 436.575M514.46 436.575H509.974C509.841 436.575 509.733 436.467 509.733 436.334V434.667C509.733 434.534 509.625 434.426 509.492 434.426H507.309C507.176 434.426 507.069 434.534 507.069 434.667V436.334C507.069 436.467 506.961 436.575 506.828 436.575H505.161C505.028 436.575 504.92 436.683 504.92 436.816V439.085C504.92 439.218 505.028 439.325 505.161 439.325H509.75C509.883 439.325 509.991 439.433 509.991 439.566V441.405C509.991 441.538 510.099 441.646 510.232 441.646H512.415C512.548 441.646 512.655 441.538 512.655 441.405V439.566C512.655 439.433 512.763 439.325 512.896 439.325H514.22C514.353 439.325 514.46 439.218 514.46 439.085V437.091M514.46 436.575V437.091" stroke="#F7DA69" stroke-width="0.859501"/>
<path d="M540.763 436.644C540.763 436.511 540.655 436.403 540.522 436.403L538.855 436.403C538.722 436.403 538.614 436.296 538.614 436.163L538.614 433.98C538.614 433.847 538.722 433.739 538.855 433.739L540.522 433.739C540.655 433.739 540.763 433.631 540.763 433.498L540.763 429.012L541.279 429.012L543.273 429.012C543.406 429.012 543.513 429.119 543.513 429.252L543.513 430.576C543.513 430.709 543.621 430.817 543.754 430.817L545.593 430.817C545.726 430.817 545.834 430.924 545.834 431.057L545.834 433.24C545.834 433.373 545.726 433.481 545.593 433.481L543.754 433.481C543.621 433.481 543.513 433.589 543.513 433.722L543.513 438.311C543.513 438.444 543.406 438.552 543.273 438.552L541.004 438.552C540.871 438.552 540.763 438.444 540.763 438.311L540.763 436.644Z" fill="#F7DA69"/>
<path d="M541.279 419.488C541.279 419.621 541.386 419.729 541.519 419.729L543.187 419.729C543.32 419.729 543.427 419.837 543.427 419.97L543.427 422.153C543.427 422.286 543.32 422.394 543.187 422.394L541.519 422.394C541.386 422.394 541.279 422.501 541.279 422.634L541.279 427.121L540.763 427.121L538.769 427.121C538.636 427.121 538.528 427.013 538.528 426.88L538.528 425.556C538.528 425.424 538.42 425.316 538.288 425.316L536.448 425.316C536.315 425.316 536.208 425.208 536.208 425.075L536.208 422.892C536.208 422.759 536.315 422.651 536.448 422.651L538.288 422.651C538.42 422.651 538.528 422.544 538.528 422.411L538.528 417.821C538.528 417.688 538.636 417.58 538.769 417.58L541.038 417.58C541.171 417.58 541.279 417.688 541.279 417.821L541.279 419.488Z" fill="#F7DA69"/>
<path d="M540.763 429.012L540.763 433.498C540.763 433.631 540.655 433.739 540.522 433.739L538.855 433.739C538.722 433.739 538.614 433.847 538.614 433.98L538.614 436.163C538.614 436.296 538.722 436.403 538.855 436.403L540.522 436.403C540.655 436.403 540.763 436.511 540.763 436.644L540.763 438.311C540.763 438.444 540.871 438.552 541.004 438.552L543.273 438.552C543.406 438.552 543.513 438.444 543.513 438.311L543.513 433.722C543.513 433.589 543.621 433.481 543.754 433.481L545.593 433.481C545.726 433.481 545.834 433.373 545.834 433.24L545.834 431.057C545.834 430.924 545.726 430.817 545.593 430.817L543.754 430.817C543.621 430.817 543.513 430.709 543.513 430.576L543.513 429.252C543.513 429.119 543.406 429.012 543.273 429.012L541.279 429.012M540.763 429.012L541.279 429.012M540.763 429.012L540.763 427.121M541.279 429.012L541.279 427.121M541.279 427.121L541.279 422.634C541.279 422.501 541.386 422.394 541.519 422.394L543.187 422.394C543.32 422.394 543.427 422.286 543.427 422.153L543.427 419.97C543.427 419.837 543.32 419.729 543.187 419.729L541.519 419.729C541.386 419.729 541.279 419.621 541.279 419.488L541.279 417.821C541.279 417.688 541.171 417.58 541.038 417.58L538.769 417.58C538.636 417.58 538.528 417.688 538.528 417.821L538.528 422.411C538.528 422.544 538.42 422.651 538.288 422.651L536.448 422.651C536.315 422.651 536.208 422.759 536.208 422.892L536.208 425.075C536.208 425.208 536.315 425.316 536.448 425.316L538.288 425.316C538.42 425.316 538.528 425.424 538.528 425.556L538.528 426.88C538.528 427.013 538.636 427.121 538.769 427.121L540.763 427.121M541.279 427.121L540.763 427.121" stroke="#F7DA69" stroke-width="0.859501"/>
<path d="M490.226 436.644C490.226 436.511 490.118 436.403 489.985 436.403L488.318 436.403C488.185 436.403 488.077 436.296 488.077 436.163L488.077 433.98C488.077 433.847 488.185 433.739 488.318 433.739L489.985 433.739C490.118 433.739 490.226 433.631 490.226 433.498L490.226 429.012L490.742 429.012L492.736 429.012C492.868 429.012 492.976 429.119 492.976 429.252L492.976 430.576C492.976 430.709 493.084 430.817 493.217 430.817L495.056 430.817C495.189 430.817 495.297 430.924 495.297 431.057L495.297 433.24C495.297 433.373 495.189 433.481 495.056 433.481L493.217 433.481C493.084 433.481 492.976 433.589 492.976 433.722L492.976 438.311C492.976 438.444 492.868 438.552 492.736 438.552L490.466 438.552C490.334 438.552 490.226 438.444 490.226 438.311L490.226 436.644Z" fill="#F7DA69"/>
<path d="M490.742 419.488C490.742 419.621 490.849 419.729 490.982 419.729L492.65 419.729C492.783 419.729 492.89 419.837 492.89 419.97L492.89 422.153C492.89 422.286 492.783 422.394 492.65 422.394L490.982 422.394C490.849 422.394 490.742 422.501 490.742 422.634L490.742 427.121L490.226 427.121L488.232 427.121C488.099 427.121 487.991 427.013 487.991 426.88L487.991 425.556C487.991 425.424 487.883 425.316 487.75 425.316L485.911 425.316C485.778 425.316 485.67 425.208 485.67 425.075L485.67 422.892C485.67 422.759 485.778 422.651 485.911 422.651L487.75 422.651C487.883 422.651 487.991 422.544 487.991 422.411L487.991 417.821C487.991 417.688 488.099 417.58 488.232 417.58L490.501 417.58C490.634 417.58 490.742 417.688 490.742 417.821L490.742 419.488Z" fill="#F7DA69"/>
<path d="M490.226 429.012L490.226 433.498C490.226 433.631 490.118 433.739 489.985 433.739L488.318 433.739C488.185 433.739 488.077 433.847 488.077 433.98L488.077 436.163C488.077 436.296 488.185 436.403 488.318 436.403L489.985 436.403C490.118 436.403 490.226 436.511 490.226 436.644L490.226 438.311C490.226 438.444 490.334 438.552 490.466 438.552L492.736 438.552C492.868 438.552 492.976 438.444 492.976 438.311L492.976 433.722C492.976 433.589 493.084 433.481 493.217 433.481L495.056 433.481C495.189 433.481 495.297 433.373 495.297 433.24L495.297 431.057C495.297 430.924 495.189 430.817 495.056 430.817L493.217 430.817C493.084 430.817 492.976 430.709 492.976 430.576L492.976 429.252C492.976 429.119 492.868 429.012 492.736 429.012L490.742 429.012M490.226 429.012L490.742 429.012M490.226 429.012L490.226 427.121M490.742 429.012L490.742 427.121M490.742 427.121L490.742 422.634C490.742 422.501 490.849 422.394 490.982 422.394L492.65 422.394C492.783 422.394 492.89 422.286 492.89 422.153L492.89 419.97C492.89 419.837 492.783 419.729 492.65 419.729L490.982 419.729C490.849 419.729 490.742 419.621 490.742 419.488L490.742 417.821C490.742 417.688 490.634 417.58 490.501 417.58L488.232 417.58C488.099 417.58 487.991 417.688 487.991 417.821L487.991 422.411C487.991 422.544 487.883 422.651 487.75 422.651L485.911 422.651C485.778 422.651 485.67 422.759 485.67 422.892L485.67 425.075C485.67 425.208 485.778 425.316 485.911 425.316L487.75 425.316C487.883 425.316 487.991 425.424 487.991 425.556L487.991 426.88C487.991 427.013 488.099 427.121 488.232 427.121L490.226 427.121M490.742 427.121L490.226 427.121" stroke="#F7DA69" stroke-width="0.859501"/>
<path d="M184.578 988.685V992.51M184.371 1019.28L184.578 1014.74M184.578 1014.74H180.029M184.578 1014.74V1001.71M184.578 1014.74H196.57M213.11 1014.74H208.561M184.578 1001.71H180.029M184.578 1001.71H196.57M184.578 1001.71V992.51M196.57 1001.71V1014.74M196.57 1001.71V992.51M196.57 1001.71H208.561M196.57 1014.74L196.363 1019.28M196.57 1014.74H208.561M196.57 979.174V983.309M196.57 983.309H192.021H196.363M196.57 983.309V992.51M201.532 983.309H196.363M196.363 983.309L196.57 992.51M196.57 992.51H201.532M196.57 992.51H184.578M213.11 1001.71H208.561M208.561 1001.71V997.782V1014.74" stroke="#42CD3D" stroke-width="3.30808"/>
<path d="M355.196 672.351H357.756C358.243 672.351 358.627 672.768 358.592 673.254C358.486 674.745 358.34 677.646 358.733 678.553C359.373 680.036 360.732 681.695 361.146 681.861C361.492 682.001 363.584 676.673 364.25 674.948C364.374 674.628 364.681 674.418 365.024 674.418H366.94C367.529 674.418 367.931 675.015 367.71 675.561C366.892 677.588 365.281 681.658 365.281 682.275C365.281 682.369 365.075 682.492 364.808 682.629L363.627 683.515C364.46 684.842 367.078 686.353 366.935 686.823C366.683 687.65 365.509 688.434 365.281 688.891C364.97 689.513 367.235 694.118 368.375 696.358C368.657 696.913 368.255 697.575 367.633 697.575H365.364C365.058 697.575 364.778 697.408 364.633 697.139C363.872 695.728 361.492 691.372 361.146 691.372C360.796 691.372 358.084 695.802 357.252 697.174C357.102 697.423 356.833 697.575 356.542 697.575H354.663C354.039 697.575 353.64 696.915 353.936 696.366C355.022 694.356 357.12 690.545 357.424 690.545C357.838 690.545 359.905 690.345 359.905 690.131C359.905 689.718 354.943 686.41 354.53 684.756C354.323 683.929 357.011 683.929 357.011 683.515C357.011 683.102 355.086 680.647 354.53 678.553C354.118 677.005 354.278 674.356 354.389 673.08C354.425 672.662 354.777 672.351 355.196 672.351Z" fill="#5A9CFE"/>
<path d="M413.247 643.683C413.247 644.215 412.816 644.646 412.284 644.646H387.332C386.8 644.646 386.369 644.215 386.369 643.683V631.136C386.369 630.604 386.8 630.173 387.332 630.173H412.284C412.816 630.173 413.247 630.604 413.247 631.136V643.683ZM403.874 632.239C403.342 632.239 402.911 632.67 402.911 633.201V641.614C402.911 642.146 403.342 642.577 403.874 642.577H410.219C410.751 642.577 411.182 642.146 411.182 641.614V633.201C411.182 632.67 410.751 632.239 410.219 632.239H403.874ZM389.676 640.788C389.676 641.319 390.107 641.75 390.638 641.75H395.329C395.861 641.75 396.292 641.319 396.292 640.788V634.443C396.292 633.911 395.861 633.48 395.329 633.48H390.638C390.107 633.48 389.676 633.911 389.676 634.443V640.788Z" fill="#5A9CFE"/>
<path d="M252.397 899.367H249.916C249.459 899.367 249.089 899.738 249.089 900.194V902.493C249.089 902.849 249.317 903.165 249.654 903.278L251.004 903.728C251.342 903.84 251.57 904.156 251.57 904.512V904.892C251.57 905.286 251.292 905.626 250.905 905.703L250.167 905.851C249.781 905.928 249.502 906.267 249.502 906.662V909.523C249.502 909.879 249.274 910.195 248.937 910.307L248.889 910.323C248.522 910.445 248.289 910.805 248.328 911.19L248.601 913.923C248.643 914.345 248.999 914.667 249.424 914.667H255.041C255.204 914.667 255.364 914.619 255.5 914.528L256.388 913.936C256.482 913.874 256.592 913.84 256.705 913.84C257.051 913.84 257.318 914.145 257.273 914.488L256.657 919.107C256.591 919.602 256.976 920.043 257.477 920.043H263.975C264.432 920.043 264.802 919.673 264.802 919.216V915.494C264.802 915.038 265.172 914.667 265.629 914.667C266.086 914.667 266.456 915.038 266.456 915.494V917.148C266.456 917.605 266.826 917.975 267.283 917.975H269.764C270.221 917.975 270.591 917.605 270.591 917.148V913.634C270.591 913.291 270.869 913.013 271.211 913.013C271.554 913.013 271.832 913.291 271.832 913.634V913.84C271.832 914.297 272.202 914.667 272.659 914.667H275.14C275.597 914.667 275.967 914.297 275.967 913.84V910.946C275.967 910.489 276.337 910.119 276.794 910.119H278.448C278.905 910.119 279.275 909.748 279.275 909.292V903.916C279.275 903.459 278.905 903.089 278.448 903.089H276.794C276.337 903.089 275.967 902.719 275.967 902.262V898.954C275.967 898.497 275.597 898.127 275.14 898.127H271.418C270.961 898.127 270.591 898.497 270.591 898.954V902.493C270.591 902.849 270.819 903.165 271.157 903.278L272.507 903.728C272.844 903.84 273.072 904.156 273.072 904.512V909.292C273.072 909.748 272.702 910.119 272.245 910.119C271.985 910.119 271.74 910.241 271.584 910.45L270.839 911.442C270.683 911.65 270.438 911.773 270.178 911.773H269.351C268.894 911.773 268.524 911.402 268.524 910.946V902.676C268.524 902.219 268.153 901.849 267.697 901.849H267.283C266.826 901.849 266.456 902.219 266.456 902.676V904.743C266.456 905.2 266.086 905.57 265.629 905.57C265.172 905.57 264.802 905.2 264.802 904.743V898.954C264.802 898.497 264.432 898.127 263.975 898.127H259.013C258.556 898.127 258.186 898.497 258.186 898.954V902.262C258.186 902.719 257.816 903.089 257.359 903.089H254.051C253.594 903.089 253.224 902.719 253.224 902.262V900.195C253.224 899.738 252.854 899.367 252.397 899.367Z" fill="#42CD3D"/>
<path d="M296.227 884.481H293.746C293.289 884.481 292.919 884.852 292.919 885.308V887.607C292.919 887.963 293.147 888.279 293.484 888.391L294.834 888.841C295.172 888.954 295.4 889.27 295.4 889.626V890.006C295.4 890.4 295.122 890.74 294.735 890.817L293.997 890.964C293.611 891.042 293.332 891.381 293.332 891.775V894.636C293.332 894.992 293.105 895.308 292.767 895.421L292.719 895.437C292.352 895.559 292.119 895.919 292.158 896.304L292.431 899.036C292.473 899.459 292.829 899.781 293.254 899.781H298.871C299.034 899.781 299.194 899.733 299.33 899.642L300.218 899.05C300.312 898.988 300.422 898.954 300.535 898.954C300.881 898.954 301.148 899.259 301.103 899.602L300.487 904.22C300.421 904.716 300.806 905.157 301.307 905.157H307.805C308.262 905.157 308.632 904.786 308.632 904.33V900.608C308.632 900.151 309.002 899.781 309.459 899.781C309.916 899.781 310.286 900.151 310.286 900.608V902.262C310.286 902.719 310.656 903.089 311.113 903.089H313.594C314.051 903.089 314.421 902.719 314.421 902.262V898.747C314.421 898.405 314.699 898.127 315.042 898.127C315.384 898.127 315.662 898.405 315.662 898.747V898.954C315.662 899.411 316.032 899.781 316.489 899.781H318.97C319.427 899.781 319.797 899.411 319.797 898.954V896.06C319.797 895.603 320.167 895.232 320.624 895.232H322.278C322.735 895.232 323.105 894.862 323.105 894.405V889.03C323.105 888.573 322.735 888.203 322.278 888.203H320.624C320.167 888.203 319.797 887.833 319.797 887.376V884.068C319.797 883.611 319.427 883.241 318.97 883.241H315.248C314.792 883.241 314.421 883.611 314.421 884.068V887.607C314.421 887.963 314.649 888.279 314.987 888.391L316.337 888.841C316.675 888.954 316.902 889.27 316.902 889.626V894.405C316.902 894.862 316.532 895.232 316.075 895.232C315.815 895.232 315.57 895.355 315.414 895.563L314.669 896.556C314.513 896.764 314.268 896.887 314.008 896.887H313.181C312.724 896.887 312.354 896.516 312.354 896.06V887.789C312.354 887.333 311.983 886.962 311.527 886.962H311.113C310.656 886.962 310.286 887.333 310.286 887.789V889.857C310.286 890.314 309.916 890.684 309.459 890.684C309.002 890.684 308.632 890.314 308.632 889.857V884.068C308.632 883.611 308.262 883.241 307.805 883.241H302.843C302.386 883.241 302.016 883.611 302.016 884.068V887.376C302.016 887.833 301.646 888.203 301.189 888.203H297.881C297.424 888.203 297.054 887.833 297.054 887.376V885.308C297.054 884.852 296.684 884.481 296.227 884.481Z" fill="#42CD3D"/>
<path d="M356.985 596.264H354.531C354.075 596.264 353.704 596.635 353.704 597.091V601.227C353.704 601.683 353.334 602.054 352.877 602.054H352.464C352.007 602.054 351.637 602.424 351.637 602.881V614.045C351.637 614.502 352.007 614.872 352.464 614.872H352.877C353.334 614.872 353.704 615.243 353.704 615.699V617.74C353.704 618.207 354.091 618.581 354.558 618.566L365.707 618.207C366.159 618.192 366.516 617.817 366.507 617.364L366.125 597.902C366.117 597.452 365.749 597.091 365.299 597.091H357.84C357.609 597.091 357.42 596.908 357.412 596.678C357.404 596.447 357.215 596.264 356.985 596.264Z" fill="#5A9CFE"/>
<path d="M391.332 668.746V663.253C391.332 662.796 391.702 662.426 392.159 662.426H414.075C414.532 662.426 414.902 662.796 414.902 663.253V670.696C414.902 671.153 414.532 671.523 414.075 671.523H413.03C412.901 671.523 412.775 671.493 412.66 671.436L410.528 670.37C410.413 670.312 410.287 670.282 410.158 670.282H407.641C407.285 670.282 406.969 670.51 406.857 670.848L406.437 672.109C406.31 672.488 405.931 672.722 405.535 672.666L398.245 671.624C397.837 671.566 397.535 671.217 397.535 670.806V668.215C397.535 667.987 397.35 667.801 397.121 667.801C396.893 667.801 396.708 667.987 396.708 668.215V669.318C396.708 669.825 396.256 670.213 395.755 670.136L392.033 669.563C391.63 669.501 391.332 669.154 391.332 668.746Z" fill="#5A9CFE"/>
<path d="M436.82 755.33V739.474C436.82 738.942 437.251 738.511 437.783 738.511H452.812C453.343 738.511 453.774 738.942 453.774 739.474V755.33C453.774 755.861 453.343 756.292 452.812 756.292H437.783C437.251 756.292 436.82 755.861 436.82 755.33Z" fill="#5A9CFE"/>
<path d="M377.371 842.586V832.479C377.371 831.947 377.802 831.516 378.334 831.516H395.661C396.193 831.516 396.624 831.947 396.624 832.479V842.586C396.624 843.118 396.193 843.549 395.661 843.549H378.334C377.802 843.549 377.371 843.118 377.371 842.586Z" fill="#5A9CFE"/>
<path d="M177.623 1148.23V1135.71C177.623 1135.18 178.054 1134.75 178.586 1134.75H191.1C191.632 1134.75 192.063 1135.18 192.063 1135.71V1148.23C192.063 1148.76 191.632 1149.19 191.1 1149.19H178.586C178.054 1149.19 177.623 1148.76 177.623 1148.23Z" fill="#A3A3A3"/>
<path d="M163.186 972.543V938.369C163.186 937.838 163.617 937.407 164.148 937.407H212.762C213.293 937.407 213.724 937.838 213.724 938.369V972.543C213.724 973.075 213.293 973.506 212.762 973.506H164.148C163.617 973.506 163.186 973.075 163.186 972.543Z" fill="#A1A1A1"/>
<path d="M324.426 1205.98V1188.66C324.426 1188.12 324.857 1187.69 325.388 1187.69H342.716C343.248 1187.69 343.679 1188.12 343.679 1188.66V1205.98C343.679 1206.51 343.248 1206.95 342.716 1206.95H325.388C324.857 1206.95 324.426 1206.51 324.426 1205.98Z" fill="#42CD3D"/>
<path d="M199.283 1148.23V1140.52C199.283 1139.99 199.714 1139.56 200.246 1139.56H212.76C213.292 1139.56 213.723 1139.99 213.723 1140.52V1148.23C213.723 1148.76 213.292 1149.19 212.76 1149.19H200.246C199.714 1149.19 199.283 1148.76 199.283 1148.23Z" fill="#42CD3D"/>
<path d="M548.373 306.746V286.058C548.373 285.526 548.804 285.095 549.336 285.095H562.486C563.018 285.095 563.449 285.526 563.449 286.058V306.746C563.449 307.278 563.018 307.709 562.486 307.709H549.336C548.804 307.709 548.373 307.278 548.373 306.746Z" fill="#42CD3D"/>
<path d="M454.06 774.073H451.668C451.212 774.073 450.841 774.443 450.841 774.9V777.959C450.841 778.064 450.821 778.169 450.782 778.266C450.111 779.941 449.892 780.366 448.145 780.366H441.78C441.323 780.366 440.953 780.736 440.953 781.193V783.584C440.953 784.04 441.323 784.411 441.779 784.411H445.448C448.145 784.411 448.145 786.209 448.145 788.006V793.921C448.145 794.378 448.515 794.748 448.972 794.748H451.363C451.82 794.748 452.19 794.378 452.19 793.921V791.153C452.19 789.714 453.089 788.456 455.336 788.456H460.802C461.258 788.456 461.629 788.086 461.629 787.629V785.238C461.629 784.781 461.258 784.411 460.802 784.411H458.135C458.067 784.411 458 784.403 457.935 784.384C456.186 783.879 454.887 781.689 454.887 780.366V774.9C454.887 774.443 454.516 774.073 454.06 774.073Z" fill="#5A9CFE"/>
<path d="M392.162 776.967V774.073C392.162 773.616 392.532 773.246 392.989 773.246H400.432C400.889 773.246 401.259 772.875 401.259 772.419V771.592C401.259 771.135 401.63 770.765 402.086 770.765H406.635C407.092 770.765 407.462 771.135 407.462 771.592V773.246C407.462 773.702 407.832 774.073 408.289 774.073H409.323C409.665 774.073 409.943 774.35 409.943 774.693C409.943 775.036 410.221 775.313 410.563 775.313H416.559C417.016 775.313 417.386 775.684 417.386 776.14V778.208C417.386 778.665 417.016 779.035 416.559 779.035H408.496C408.153 779.035 407.875 779.313 407.875 779.655C407.875 779.998 408.153 780.275 408.496 780.275H419.454C419.91 780.275 420.281 780.646 420.281 781.102V782.078C420.281 782.473 420.002 782.812 419.616 782.889L418.878 783.037C418.491 783.114 418.213 783.454 418.213 783.848V785.237C418.213 785.694 417.843 786.064 417.386 786.064H416.973C416.516 786.064 416.146 785.694 416.146 785.237V783.79C416.146 783.448 415.868 783.17 415.525 783.17C415.183 783.17 414.905 783.448 414.905 783.79V785.237C414.905 785.694 414.535 786.064 414.078 786.064H404.981C404.524 786.064 404.154 785.694 404.154 785.237V783.997C404.154 783.54 403.784 783.17 403.327 783.17H392.989C392.532 783.17 392.162 782.8 392.162 782.343V780.275C392.162 779.819 392.532 779.448 392.989 779.448H400.846C401.303 779.448 401.673 779.078 401.673 778.621C401.673 778.165 401.303 777.794 400.846 777.794H392.989C392.532 777.794 392.162 777.424 392.162 776.967Z" fill="#5A9CFE"/>
<path d="M443.577 624.751C443.177 621.875 440.718 619.735 437.815 619.735V619.735C435.762 619.735 433.861 620.817 432.813 622.582L432.215 623.588C431.779 624.322 431.465 625.123 431.286 625.959L431.019 627.206C430.555 629.368 430.555 631.604 431.019 633.766L431.286 635.014C431.465 635.849 431.779 636.65 432.215 637.385L432.813 638.391C433.861 640.155 435.762 641.237 437.815 641.237V641.237C440.718 641.237 443.177 639.097 443.577 636.221L444.169 631.968C444.306 630.985 444.306 629.988 444.169 629.005L443.577 624.751Z" fill="#5A9CFE"/>
<path d="M358.539 725.443V725.234C358.539 724.772 358.934 724.408 359.395 724.446L364.977 724.903C365.365 724.935 365.476 724.387 365.108 724.264C364.754 724.147 364.838 723.625 365.211 723.625H367.29C367.353 723.625 367.416 723.633 367.476 723.651L383.932 728.459C384.352 728.582 384.799 728.4 385.052 728.042C387.772 724.176 391.781 724.558 394.052 725.44C394.487 725.609 394.993 725.502 395.279 725.133L395.409 724.964C395.677 724.617 396.153 724.487 396.516 724.732C398.148 725.828 399.151 728.117 399.621 729.745C399.764 730.239 399.379 730.706 398.865 730.706C398.404 730.706 398.034 731.088 398.048 731.549L398.051 731.668C398.063 732.058 398.316 732.399 398.685 732.524L402.094 733.678C402.647 733.865 403.237 733.516 403.384 732.95C405.564 724.542 412.886 725.087 416.2 726.72C416.685 726.959 416.698 727.6 416.271 727.933C415.906 728.218 415.853 728.746 416.112 729.13C418.266 732.326 417.317 735.625 416.294 737.348C416.127 737.629 416.242 738.008 416.55 738.118C417.04 738.293 416.948 739.012 416.43 739.058L409.641 739.667C409.323 739.696 409.214 740.106 409.477 740.288C409.797 740.51 409.555 741.009 409.182 740.895L407.405 740.348C407.056 740.24 406.681 740.449 406.522 740.778C405.614 742.654 402.338 746.455 396.296 744.656C395.956 744.554 396.526 744.369 397.109 743.893C397.491 743.581 397.412 743.02 397.056 742.678C396.527 742.169 395.804 741.401 395.433 740.685C394.925 739.705 394.759 738.171 394.704 737.258C394.678 736.814 394.373 736.427 393.941 736.321L391.118 735.635C390.48 735.48 389.87 735.995 389.865 736.651C389.859 737.367 389.803 738.231 389.608 738.861C389.364 739.65 388.879 740.335 388.504 740.782C388.249 741.085 388.266 741.554 388.572 741.803C388.886 742.059 388.886 742.529 388.551 742.757C387.623 743.388 385.753 744.465 383.567 744.656C381.699 744.818 379.946 744.404 378.837 744.044C378.225 743.845 378.09 743.122 378.491 742.619C378.724 742.327 378.746 742.203 378.605 742.08C376.006 739.829 376.013 735.892 377.158 733.494C377.508 732.759 377.194 731.595 376.403 731.402L373.862 730.782C373.256 730.634 372.647 731.093 372.522 731.705C372.178 733.396 371.041 736.431 367.278 738.003C364.814 739.032 361.945 738.333 360.273 737.735C359.606 737.497 359.52 736.651 360.065 736.197C360.462 735.866 360.783 735.568 360.697 735.535C358.162 734.565 357.566 729.126 359.067 726.82C359.27 726.509 359.189 726.029 358.844 725.892C358.66 725.819 358.539 725.641 358.539 725.443Z" fill="#5A9CFE"/>
<path d="M438.385 586.908L441.446 586.454C441.781 583.79 442.538 581.091 443.914 578.561L443.97 578.458L444.07 578.398L445.03 577.822L445.219 577.708L445.421 577.795L446.765 578.372L447.025 578.483V580.2L446.99 580.281C445.616 583.466 443.665 592.184 446.999 601.277L447.025 601.348V603.052L446.765 603.164L445.421 603.74L445.219 603.827L445.03 603.713L444.07 603.137L443.956 603.069L443.9 602.947C443.002 600.977 441.956 597.718 441.485 593.929L438.385 593.473V603.775H434.453V602.046H432.725V596.386H434.453V583.997H432.725V579.105H434.453V576.417H438.385V586.908ZM438.74 588.449V592.29L441.775 592.592C441.644 591.047 441.618 589.431 441.743 587.792L438.74 588.449Z" fill="#5A9CFE"/>
<path d="M434.793 665.221H436.622V663.054H439.915V682.109H436.622V679.745H434.793V684.371L439.842 688.838L443.145 685.536L443.194 685.485L443.244 685.536L446.003 688.294L446.053 688.344L440.242 694.154L436.307 690.743L434.383 693.117L434.367 693.137L434.343 693.142C433.56 693.301 432.915 693.257 432.389 693.075C431.862 692.894 431.458 692.576 431.153 692.195C430.545 691.436 430.33 690.424 430.317 689.725L430.316 689.699L430.332 689.68L432.261 687.236L431.326 686.427L431.303 686.405V663.054H434.793V665.221ZM434.725 673.173V678.69H436.694V673.173H434.725ZM434.651 672.258H436.763V666.403H434.651V672.258Z" fill="#5A9CFE"/>
<path d="M520.45 559.28H493.871M520.45 559.28V544.33M520.45 559.28V577.638C520.45 578.967 519.372 580.045 518.043 580.045H496.278C494.949 580.045 493.871 578.967 493.871 577.638V559.28M493.871 559.28V553.978C493.871 553.381 494.093 552.806 494.493 552.363L501.045 545.122C501.501 544.617 502.15 544.33 502.83 544.33H520.45M520.45 544.33V537.911" stroke="#BDB16F" stroke-width="2.4066"/>
<path d="M203.012 1070.45L198.336 1066.85C197.978 1066.58 197.49 1066.96 197.671 1067.37L199.474 1071.47C199.547 1071.64 199.713 1071.74 199.893 1071.73L204.109 1071.53C204.195 1071.53 204.28 1071.55 204.354 1071.6L208.38 1074.01C208.491 1074.08 208.566 1074.19 208.586 1074.32L209.581 1080.57C209.654 1081.03 210.294 1081.07 210.429 1080.63L211.801 1076.13C211.857 1075.95 211.787 1075.75 211.629 1075.64L210.189 1074.67C210.055 1074.57 209.982 1074.42 210.001 1074.25L210.945 1066.3C210.961 1066.17 211.038 1066.05 211.153 1065.98L215.376 1063.44C215.764 1063.21 215.583 1062.61 215.131 1062.63L210.265 1062.86C210.048 1062.87 209.872 1063.04 209.852 1063.26L209.595 1065.96C209.583 1066.08 209.517 1066.2 209.414 1066.27L203.531 1070.46C203.374 1070.57 203.164 1070.56 203.012 1070.45Z" fill="#42CD3D"/>
<path d="M226.645 1074.63L221.035 1072.81C220.606 1072.67 220.274 1073.19 220.583 1073.52L223.655 1076.78C223.778 1076.91 223.97 1076.95 224.137 1076.88L228.043 1075.28C228.122 1075.25 228.21 1075.24 228.294 1075.26L232.898 1076.19C233.024 1076.22 233.132 1076.3 233.194 1076.41L236.226 1081.97C236.448 1082.37 237.065 1082.2 237.044 1081.74L236.83 1077.04C236.821 1076.85 236.689 1076.69 236.505 1076.64L234.821 1076.2C234.663 1076.16 234.542 1076.03 234.506 1075.87L232.731 1068.06C232.701 1067.93 232.734 1067.79 232.819 1067.69L235.949 1063.88C236.236 1063.53 235.866 1063.03 235.447 1063.2L230.939 1065.05C230.738 1065.13 230.628 1065.35 230.681 1065.56L231.344 1068.19C231.375 1068.31 231.351 1068.44 231.278 1068.55L227.136 1074.46C227.026 1074.62 226.827 1074.68 226.645 1074.63Z" fill="#42CD3D"/>
<path d="M208.421 1092.29L214.307 1091.91C214.757 1091.88 214.872 1091.27 214.464 1091.08L210.408 1089.18C210.245 1089.11 210.051 1089.14 209.921 1089.26L206.879 1092.19C206.817 1092.25 206.739 1092.29 206.654 1092.3L202.031 1093.13C201.905 1093.16 201.774 1093.12 201.676 1093.04L196.808 1088.99C196.453 1088.69 195.942 1089.08 196.132 1089.5L198.063 1093.79C198.141 1093.97 198.324 1094.07 198.514 1094.05L200.24 1093.83C200.402 1093.81 200.561 1093.89 200.653 1094.02L205.18 1100.63C205.256 1100.74 205.277 1100.88 205.236 1101.01L203.728 1105.7C203.589 1106.13 204.118 1106.46 204.445 1106.15L207.956 1102.77C208.112 1102.62 208.134 1102.38 208.008 1102.2L206.423 1100C206.349 1099.9 206.324 1099.77 206.353 1099.64L208.025 1092.62C208.069 1092.43 208.23 1092.3 208.421 1092.29Z" fill="#42CD3D"/>
<path d="M234.153 1100.22L239.83 1101.82C240.264 1101.94 240.575 1101.4 240.253 1101.09L237.058 1097.95C236.929 1097.82 236.736 1097.79 236.572 1097.86L232.731 1099.61C232.653 1099.65 232.565 1099.66 232.481 1099.65L227.844 1098.9C227.717 1098.88 227.606 1098.8 227.54 1098.69L224.294 1093.25C224.057 1092.85 223.446 1093.05 223.485 1093.51L223.882 1098.2C223.898 1098.39 224.036 1098.55 224.223 1098.59L225.922 1098.96C226.081 1099 226.207 1099.12 226.25 1099.27L228.327 1107.01C228.362 1107.14 228.334 1107.28 228.253 1107.39L225.274 1111.31C225 1111.67 225.39 1112.16 225.802 1111.97L230.235 1109.95C230.432 1109.86 230.533 1109.64 230.472 1109.43L229.708 1106.83C229.673 1106.71 229.691 1106.58 229.76 1106.47L233.669 1100.4C233.772 1100.24 233.969 1100.16 234.153 1100.22Z" fill="#42CD3D"/>
<path d="M292.163 1101.6L293.874 1106.29C294.005 1106.65 294.527 1106.59 294.584 1106.22L295.155 1102.47C295.178 1102.32 295.106 1102.17 294.973 1102.1L291.873 1100.33C291.81 1100.29 291.759 1100.24 291.726 1100.17L289.948 1096.62C289.899 1096.53 289.896 1096.41 289.939 1096.31L292.063 1091.4C292.218 1091.04 291.782 1090.71 291.485 1090.97L288.465 1093.56C288.342 1093.67 288.303 1093.84 288.367 1093.99L288.952 1095.34C289.006 1095.46 288.986 1095.61 288.899 1095.72L284.621 1100.97C284.549 1101.06 284.44 1101.11 284.326 1101.1L280.162 1101C279.779 1100.99 279.637 1101.5 279.97 1101.69L283.548 1103.73C283.707 1103.82 283.909 1103.78 284.022 1103.64L285.428 1101.83C285.494 1101.74 285.593 1101.69 285.7 1101.68L291.798 1101.36C291.959 1101.35 292.108 1101.45 292.163 1101.6Z" fill="#42CD3D"/>
<path d="M330.669 1101.6L332.38 1106.29C332.51 1106.65 333.033 1106.59 333.09 1106.22L333.661 1102.47C333.684 1102.32 333.612 1102.17 333.479 1102.1L330.379 1100.33C330.316 1100.29 330.265 1100.24 330.232 1100.17L328.454 1096.62C328.405 1096.53 328.402 1096.41 328.445 1096.31L330.569 1091.4C330.724 1091.04 330.287 1090.71 329.991 1090.97L326.971 1093.56C326.848 1093.67 326.808 1093.84 326.873 1093.99L327.458 1095.34C327.512 1095.46 327.492 1095.61 327.405 1095.72L323.127 1100.97C323.055 1101.06 322.946 1101.11 322.832 1101.1L318.667 1101C318.285 1100.99 318.143 1101.5 318.476 1101.69L322.054 1103.73C322.213 1103.82 322.415 1103.78 322.527 1103.64L323.934 1101.83C324 1101.74 324.099 1101.69 324.206 1101.68L330.304 1101.36C330.465 1101.35 330.614 1101.45 330.669 1101.6Z" fill="#42CD3D"/>
<path d="M340.016 1126.14L338.446 1130.88C338.326 1131.24 338.767 1131.52 339.047 1131.26L341.82 1128.68C341.931 1128.58 341.967 1128.42 341.911 1128.28L340.58 1124.96C340.553 1124.9 340.546 1124.82 340.561 1124.75L341.373 1120.86C341.396 1120.76 341.464 1120.67 341.56 1120.62L346.279 1118.08C346.623 1117.9 346.481 1117.37 346.09 1117.39L342.113 1117.54C341.952 1117.55 341.813 1117.66 341.772 1117.82L341.391 1119.24C341.356 1119.37 341.249 1119.47 341.115 1119.5L334.5 1120.96C334.388 1120.99 334.272 1120.96 334.184 1120.88L330.984 1118.22C330.69 1117.97 330.264 1118.28 330.406 1118.64L331.942 1122.46C332.011 1122.63 332.194 1122.72 332.372 1122.68L334.6 1122.13C334.703 1122.11 334.813 1122.13 334.901 1122.19L339.879 1125.73C340.011 1125.82 340.067 1125.99 340.016 1126.14Z" fill="#A3A3A3"/>
<path d="M329.768 1147.36L328.198 1152.1C328.078 1152.46 328.519 1152.74 328.799 1152.48L331.572 1149.9C331.683 1149.8 331.719 1149.64 331.663 1149.5L330.332 1146.19C330.305 1146.12 330.298 1146.04 330.313 1145.97L331.125 1142.09C331.148 1141.98 331.216 1141.89 331.312 1141.84L336.031 1139.3C336.375 1139.12 336.233 1138.59 335.842 1138.61L331.865 1138.76C331.704 1138.77 331.565 1138.88 331.524 1139.04L331.143 1140.46C331.108 1140.59 331.001 1140.69 330.867 1140.72L324.252 1142.18C324.14 1142.21 324.024 1142.18 323.936 1142.1L320.736 1139.44C320.442 1139.19 320.016 1139.5 320.158 1139.86L321.694 1143.68C321.763 1143.85 321.946 1143.94 322.124 1143.9L324.351 1143.36C324.455 1143.33 324.565 1143.35 324.652 1143.41L329.631 1146.95C329.763 1147.04 329.819 1147.21 329.768 1147.36Z" fill="#A3A3A3"/>
<path d="M305.701 1132.92L304.132 1137.66C304.012 1138.02 304.453 1138.3 304.732 1138.04L307.505 1135.46C307.617 1135.36 307.653 1135.2 307.596 1135.06L306.265 1131.75C306.238 1131.68 306.232 1131.6 306.247 1131.53L307.059 1127.65C307.081 1127.54 307.149 1127.45 307.245 1127.4L311.964 1124.86C312.309 1124.68 312.166 1124.15 311.776 1124.17L307.799 1124.32C307.637 1124.33 307.499 1124.44 307.457 1124.6L307.077 1126.02C307.041 1126.15 306.935 1126.25 306.8 1126.28L300.185 1127.74C300.074 1127.77 299.957 1127.74 299.87 1127.66L296.67 1125C296.376 1124.75 295.949 1125.06 296.092 1125.42L297.628 1129.24C297.696 1129.41 297.879 1129.5 298.057 1129.46L300.285 1128.92C300.389 1128.89 300.499 1128.91 300.586 1128.97L305.565 1132.51C305.697 1132.6 305.752 1132.77 305.701 1132.92Z" fill="#A3A3A3"/>
<path d="M199.811 1130.52L198.241 1135.25C198.121 1135.61 198.562 1135.9 198.842 1135.64L201.615 1133.06C201.726 1132.95 201.762 1132.79 201.705 1132.65L200.375 1129.34C200.348 1129.27 200.341 1129.2 200.356 1129.13L201.168 1125.24C201.19 1125.13 201.259 1125.04 201.355 1124.99L206.074 1122.46C206.418 1122.27 206.276 1121.75 205.885 1121.76L201.908 1121.92C201.747 1121.92 201.608 1122.04 201.567 1122.19L201.186 1123.61C201.151 1123.75 201.044 1123.85 200.91 1123.88L194.295 1125.34C194.183 1125.36 194.067 1125.33 193.979 1125.26L190.779 1122.59C190.485 1122.35 190.059 1122.66 190.201 1123.01L191.737 1126.83C191.806 1127 191.989 1127.1 192.167 1127.05L194.394 1126.51C194.498 1126.48 194.608 1126.5 194.695 1126.57L199.674 1130.1C199.806 1130.2 199.862 1130.36 199.811 1130.52Z" fill="#A3A3A3"/>
<path d="M231.096 1140.14L229.526 1144.88C229.406 1145.24 229.848 1145.52 230.127 1145.26L232.9 1142.68C233.011 1142.58 233.047 1142.42 232.991 1142.28L231.66 1138.97C231.633 1138.9 231.626 1138.82 231.641 1138.75L232.453 1134.86C232.476 1134.76 232.544 1134.67 232.64 1134.62L237.359 1132.08C237.703 1131.9 237.561 1131.37 237.17 1131.39L233.193 1131.54C233.032 1131.55 232.893 1131.66 232.852 1131.82L232.471 1133.24C232.436 1133.37 232.329 1133.47 232.195 1133.5L225.58 1134.96C225.468 1134.99 225.352 1134.96 225.264 1134.88L222.064 1132.22C221.77 1131.97 221.344 1132.28 221.486 1132.64L223.022 1136.46C223.091 1136.63 223.274 1136.72 223.452 1136.68L225.68 1136.14C225.784 1136.11 225.893 1136.13 225.981 1136.19L230.959 1139.73C231.091 1139.82 231.147 1139.99 231.096 1140.14Z" fill="#A3A3A3"/>
<path d="M257.041 935H228.162V968.693H241.662V958.462H244.74V953.779H248.962V945.867H257.041V935Z" fill="#42CD3D"/>
<ellipse cx="464.515" cy="279.442" rx="21.6711" ry="20.7289" fill="#FF5B87"/>
<ellipse cx="463.574" cy="214.429" rx="24.4978" ry="27.3244" fill="#FF5B87"/>
<path d="M533.298 268.12C533.298 287.886 531.577 303.057 513.511 303.909C495.445 304.761 493.725 287.886 493.725 268.12C493.725 248.354 495.445 233.183 513.511 232.331C533.298 232.331 533.298 248.354 533.298 268.12Z" fill="#FF5B87"/>
<path d="M710.529 561.733C704.085 580.419 697.512 594.2 680.155 589.116C662.798 584.032 666.673 567.517 673.117 548.831C679.561 530.146 686.134 516.364 703.491 521.449C722.196 527.899 716.973 543.047 710.529 561.733Z" fill="#FF5B87"/>
<path d="M419.951 181.366L368.553 157.492C366.958 156.751 365.133 157.916 365.133 159.675V259.525C365.133 260.854 366.21 261.932 367.539 261.932H379.045M414.576 261.932H379.045M379.045 261.932V322.649C379.045 323.978 380.123 325.056 381.452 325.056H424.103H537.979C539.308 325.056 540.385 323.978 540.385 322.649V237.845" stroke="#892F2F" stroke-width="2.4066"/>
<path d="M503.336 825.931H496.363C495.947 825.931 495.609 826.269 495.609 826.685V833.657C495.609 834.074 495.947 834.411 496.363 834.411H502.058C502.474 834.411 502.812 834.749 502.812 835.165V840.253C502.812 840.669 503.149 841.007 503.566 841.007H510.873C511.29 841.007 511.627 840.669 511.627 840.253V833.28C511.627 832.864 511.29 832.527 510.873 832.527H504.843C504.427 832.527 504.089 832.189 504.089 831.773V826.685C504.089 826.269 503.752 825.931 503.336 825.931Z" fill="#F7DA69"/>
<circle cx="344.853" cy="305.824" r="5.65333" fill="#42CD3D"/>
<circle cx="484.302" cy="537.611" r="5.65333" fill="#42CD3D"/>
<circle cx="297.743" cy="955.958" r="5.65333" fill="#42CD3D"/>
<path d="M486.871 527.537C489.738 528.253 494.398 530.955 496.045 536.329C496.396 537.474 497.387 538.366 498.584 538.366H534.285C535.864 538.366 537.015 539.861 536.611 541.388L520.643 601.839C520.59 602.04 520.563 602.246 520.563 602.454V745.035C520.563 745.234 520.588 745.432 520.636 745.624L552.97 873.761C553.025 873.977 553.049 874.201 553.042 874.425L551.922 910.262C551.881 911.561 550.816 912.593 549.517 912.593H495.294C493.965 912.593 492.887 913.671 492.887 915V984.775C492.887 986.11 491.8 987.19 490.464 987.181L320.557 986.001C319.949 985.997 319.366 985.763 318.924 985.347L300.024 967.559C299.477 967.044 298.722 966.822 297.976 966.909C296.209 967.115 294.009 967.162 292.317 966.522C291.285 966.131 290.068 965.937 289.121 966.505L272.683 976.368C269.908 978.351 264.623 983.705 265.433 989.407C265.451 989.538 265.463 989.671 265.463 989.804L265.463 1003.48C265.463 1003.85 265.55 1004.22 265.717 1004.55L268.819 1010.76C268.986 1011.09 269.073 1011.46 269.073 1011.83V1056.5C269.073 1056.82 269.007 1057.14 268.879 1057.44L265.658 1064.96C265.53 1065.26 265.463 1065.58 265.463 1065.91V1145.4C265.463 1145.81 265.572 1146.22 265.778 1146.59L300.045 1206.85C300.251 1207.21 300.359 1207.62 300.359 1208.04V1250.15C300.359 1250.53 300.446 1250.89 300.613 1251.23L302.512 1255.03C302.679 1255.36 302.766 1255.73 302.766 1256.1V1275.99C302.766 1277.32 301.688 1278.4 300.359 1278.4H293.139C291.81 1278.4 290.733 1277.32 290.733 1275.99V1268.77C290.733 1267.44 289.655 1266.36 288.326 1266.36V1266.36C286.997 1266.36 285.92 1265.29 285.92 1263.96V1247.11C285.92 1245.78 284.842 1244.7 283.513 1244.7H251.024C249.695 1244.7 248.617 1245.78 248.617 1247.11V1253.13C248.617 1254.46 249.695 1255.53 251.024 1255.53H277.496C278.826 1255.53 279.903 1256.61 279.903 1257.94V1274.79" stroke="#DB0016" stroke-width="1.2033" stroke-linecap="round"/>
<path d="M484.319 527.616C479.506 527.616 473.489 531.562 473.489 539.649C473.489 546.697 478.262 549.252 482.171 550.133C483.377 550.405 484.319 551.42 484.319 552.657V683.335C484.319 683.799 484.185 684.253 483.933 684.642L471.469 703.905C471.217 704.294 471.083 704.748 471.083 705.212V791.729C471.083 792.132 471.184 792.528 471.376 792.881L478.009 805.04C478.201 805.394 478.302 805.79 478.302 806.193V809.189C478.302 810.518 479.38 811.595 480.709 811.595H533.281C534.389 811.595 535.354 812.353 535.618 813.429L550.422 873.845C550.474 874.059 550.497 874.279 550.489 874.498L549.375 907.94C549.331 909.237 548.267 910.266 546.969 910.266H492.742C491.413 910.266 490.335 911.344 490.335 912.673V982.447C490.335 983.783 489.247 984.863 487.912 984.854L321.612 983.674C321.006 983.67 320.425 983.438 319.983 983.023L303.742 967.798C302.576 966.705 302.798 964.813 304.018 963.781C307.985 960.427 308.953 956.226 305.027 951.178C298.316 942.55 286.408 948.922 286.694 956.627C286.734 957.692 286.363 958.789 285.469 959.369C280.392 962.662 270.855 969.034 266.521 971.634C260.505 975.244 258.098 982.464 258.098 988.481V1003.56C258.098 1003.93 258.011 1004.3 257.844 1004.63L254.742 1010.84C254.575 1011.17 254.488 1011.54 254.488 1011.91V1057.78C254.488 1058.1 254.554 1058.43 254.683 1058.73L257.904 1066.24C258.032 1066.54 258.098 1066.86 258.098 1067.19V1147.85C258.098 1148.29 258.217 1148.72 258.441 1149.09L293.854 1208.11C294.079 1208.49 294.197 1208.92 294.197 1209.35V1247.73C294.197 1248.16 294.079 1248.59 293.854 1248.97L290.93 1253.84C290.706 1254.21 290.587 1254.64 290.587 1255.08V1261.63" stroke="#C800FF" stroke-width="1.2033" stroke-linecap="round"/>
<defs>
<filter id="filter0_d_2742_1161" x="9.48854" y="61.7231" width="812.948" height="1328.56" filterUnits="userSpaceOnUse" color-interpolation-filters="sRGB">
<feFlood flood-opacity="0" result="BackgroundImageFix"/>
<feColorMatrix in="SourceAlpha" type="matrix" values="0 0 0 0 0 0 0 0 0 0 0 0 0 0 0 0 0 0 127 0" result="hardAlpha"/>
<feOffset dx="4.81321" dy="9.62641"/>
<feGaussianBlur stdDeviation="9.50608"/>
<feComposite in2="hardAlpha" operator="out"/>
<feColorMatrix type="matrix" values="0 0 0 0 0 0 0 0 0 0 0 0 0 0 0 0 0 0 0.3 0"/>
<feBlend mode="normal" in2="BackgroundImageFix" result="effect1_dropShadow_2742_1161"/>
<feBlend mode="normal" in="SourceGraphic" in2="effect1_dropShadow_2742_1161" result="shape"/>
</filter>
</defs>
</svg>
