<svg width="150" height="108" viewBox="0 0 150 108" fill="none" xmlns="http://www.w3.org/2000/svg">
<path d="M129.102 59.2271C129.43 60.2789 129.931 61.1474 130.578 61.7939L130.5 61.8325L127.549 60.1245L129.102 59.2271Z" fill="#121212"/>
<path d="M55.246 105.294L55.0531 105.409L52.1016 103.701L53.9342 102.64H53.9439C54.2139 103.701 54.648 104.58 55.2363 105.274C55.2363 105.274 55.2396 105.281 55.246 105.294Z" fill="#121212"/>
<path d="M83.0157 40.237L80.8261 43.8749L80.6911 44.0968L69.9171 62.0062H69.9074C68.5667 62.9518 66.763 63.2703 64.9207 63.2703C61.0239 63.2703 56.9921 61.8421 56.9439 61.8325L37.1996 50.7839C33.4185 48.2847 35.3959 44.6758 35.7238 44.1258L35.7624 44.0582H35.772L40.508 39.6291L52.9024 28.0498L52.9796 27.9726C52.9796 27.9726 53.0085 27.9533 53.0278 27.9629L53.867 28.3007H53.8766L82.9964 40.1695C83.0253 40.1791 83.0349 40.2081 83.0157 40.237Z" fill="#4D4D4D"/>
<path d="M120.16 25.9365C121.192 26.0234 122.958 25.9655 124.076 26.062C124.125 26.062 124.163 26.0813 124.211 26.1199C124.25 26.1392 124.279 26.1681 124.308 26.2067C124.356 26.2453 124.395 26.3032 124.433 26.3611C124.472 26.419 124.52 26.4962 124.559 26.5734C124.626 26.6988 124.694 26.8339 124.761 26.9883C124.8 27.0655 124.838 27.1427 124.867 27.2295C124.925 27.3839 124.993 27.5383 125.051 27.7024C125.244 28.2041 125.446 28.7638 125.639 29.3042C125.668 29.391 125.707 29.4779 125.735 29.5647C125.755 29.6033 125.774 29.6515 125.793 29.6901C125.793 29.7191 125.813 29.7577 125.832 29.7866C125.928 30.0665 126.044 30.327 126.15 30.5682C126.497 31.3113 126.382 32.1797 125.832 32.7876C125.832 32.7876 125.552 33.0867 125.128 33.5692L124.655 34.0903C124.607 34.1385 124.559 34.1964 124.51 34.2447C121.569 37.4386 118.164 40.1791 114.392 42.3406L103.281 48.7381V32.8938L105.866 31.3981L111.566 28.1655L114.296 26.5444C114.296 26.5444 114.315 26.5348 114.325 26.5348C114.373 26.5348 114.431 26.5058 114.479 26.4962C116.244 26.0523 118.058 25.869 119.881 25.9269H120.16V25.9365Z" fill="#4D4D4D"/>
<path d="M147.775 39.8414C147.91 40.073 148.036 40.3239 148.152 40.5844C148.209 40.7098 148.267 40.8449 148.316 40.98C148.373 41.1248 148.422 41.2695 148.46 41.4239C148.499 41.5204 148.528 41.6265 148.547 41.7327C148.595 41.8774 148.624 42.0318 148.653 42.1862C148.701 42.3985 148.74 42.6204 148.769 42.8424C148.807 43.0933 148.827 43.3538 148.846 43.6143V43.6336C148.865 43.9038 148.875 44.174 148.875 44.4538C148.875 44.6275 148.875 44.7916 148.865 44.9652C148.798 45.7276 148.537 46.4416 148.113 47.0495C148.316 46.0267 148.422 45.0135 148.422 44.0389C148.422 43.7591 148.422 43.4792 148.393 43.2187V43.1994C148.373 42.9389 148.354 42.6783 148.316 42.4371C148.287 42.2055 148.248 41.9836 148.2 41.7713C148.171 41.6169 148.142 41.4625 148.094 41.3178C148.074 41.2116 148.045 41.1055 148.007 41.009C147.968 40.8546 147.92 40.7098 147.862 40.5651C147.814 40.43 147.756 40.2949 147.698 40.1695C147.592 39.9089 147.467 39.6581 147.322 39.4265C147.255 39.301 147.177 39.1949 147.1 39.0791C146.994 38.9247 146.878 38.7703 146.753 38.6352C146.714 38.5773 146.666 38.5291 146.618 38.4808C146.599 38.4519 146.57 38.4229 146.541 38.4036C146.57 38.4229 146.599 38.4422 146.628 38.4712C146.734 38.558 146.84 38.6545 146.946 38.7607H146.956C146.994 38.8186 147.033 38.8475 147.081 38.8957C147.11 38.9343 147.148 38.9729 147.177 39.0115C147.187 39.0212 147.197 39.0405 147.206 39.0501C147.274 39.1177 147.332 39.1949 147.399 39.2721C147.409 39.2914 147.428 39.3203 147.447 39.3396C147.486 39.3879 147.515 39.4458 147.554 39.494C147.631 39.6098 147.708 39.716 147.775 39.8414Z" fill="#121212"/>
<path d="M149.338 45.0231C149.338 45.9109 149.068 46.76 148.576 47.4645C148.778 46.4416 148.885 45.4284 148.885 44.4538V44.2898L148.933 41.4143L149.145 28.6963C149.29 28.7735 149.444 28.8507 149.608 28.9279L149.396 41.8292L149.338 45.0231Z" fill="#FFCB04"/>
<path d="M58.0917 104.232C58.2075 104.29 58.3232 104.348 58.439 104.386C58.4968 104.415 58.5643 104.435 58.6222 104.444C58.6319 104.464 58.6512 104.464 58.6608 104.464C58.9309 104.56 59.2202 104.618 59.5192 104.647C59.6832 104.666 59.8568 104.676 60.0401 104.676C61.1493 104.676 62.4033 104.319 63.7343 103.547C66.9463 101.685 69.7338 97.9599 71.0938 94.1001C71.2867 93.5501 71.4507 92.9905 71.5858 92.4404C71.8365 91.3983 71.9716 90.3562 71.9716 89.3623C71.9716 89.1693 71.9619 88.9763 71.9523 88.7833C71.9523 88.6965 71.9426 88.6096 71.933 88.5228C71.9137 88.1947 71.8655 87.8859 71.8076 87.5964C71.7883 87.5192 71.7787 87.4324 71.7594 87.3552C71.7304 87.2104 71.6919 87.0753 71.6533 86.9499C71.6147 86.8148 71.5761 86.699 71.5279 86.5736C71.4989 86.4867 71.4604 86.3902 71.4218 86.3034C71.3928 86.2165 71.3543 86.1297 71.306 86.0428C71.2675 85.9657 71.2385 85.8981 71.1999 85.8306C71.171 85.763 71.1324 85.6955 71.0842 85.6279C71.0456 85.5411 70.9974 85.4639 70.9299 85.3867C70.9299 85.3674 70.9202 85.3577 70.9009 85.3384C70.872 85.2902 70.8431 85.2516 70.8045 85.2034H70.7948L70.7852 85.184C70.7852 85.184 70.7788 85.1776 70.7659 85.1648C70.7273 85.1069 70.6887 85.0586 70.6598 85.0104C70.6309 84.9814 70.6116 84.9525 70.5826 84.9332C70.5633 84.9139 70.544 84.8849 70.5248 84.8656L70.3994 84.7402L70.3897 84.7305C70.3704 84.7016 70.3608 84.6823 70.3318 84.6726H70.3222C70.2354 84.5858 70.1389 84.4989 70.0425 84.4314C69.946 84.3445 69.8303 84.2674 69.7242 84.1998C69.7049 84.1998 69.6856 84.1805 69.6759 84.1709C69.5795 84.113 69.4927 84.0551 69.3866 84.0068H69.3769C69.3094 83.9682 69.2419 83.9393 69.1647 83.9103C68.9622 83.8138 68.7403 83.7463 68.5088 83.6884H68.4992C68.3931 83.6594 68.287 83.6401 68.1713 83.6305C68.1713 83.6305 68.1648 83.6273 68.152 83.6208H68.1423C68.0652 83.6015 67.9976 83.5919 67.9205 83.5919C67.7565 83.5726 67.5925 83.5629 67.4189 83.5629C67.2839 83.5629 67.1488 83.5726 67.0041 83.5822C66.8691 83.5822 66.7341 83.6112 66.5894 83.6305C66.3675 83.6594 66.1457 83.7077 65.9142 83.7752C65.8274 83.7945 65.7406 83.8138 65.6538 83.8428C65.0365 84.0261 64.3999 84.306 63.7343 84.6919C63.1652 85.02 62.6154 85.406 62.0753 85.8402C61.9403 85.9464 61.8052 86.0621 61.6798 86.1779C61.4194 86.4095 61.1686 86.6411 60.9178 86.9016H60.9082C60.7828 87.0271 60.6574 87.1525 60.532 87.2876C60.2909 87.5482 60.0497 87.8184 59.8183 88.0982C59.7025 88.2429 59.5868 88.378 59.471 88.5228C59.3553 88.6675 59.2492 88.8122 59.1334 88.9666C59.0273 89.1114 58.9212 89.2561 58.8151 89.4105C58.709 89.5649 58.6029 89.7193 58.5065 89.8737C58.4004 90.0281 58.3039 90.1825 58.2075 90.3465C58.1592 90.414 58.111 90.5009 58.0628 90.5877C57.9181 90.8193 57.7831 91.0606 57.648 91.3018C57.6191 91.35 57.5901 91.4079 57.5612 91.4658C57.4165 91.736 57.2718 92.0159 57.1465 92.2957C57.1175 92.3439 57.0982 92.4018 57.0693 92.4597C56.9439 92.7106 56.8378 92.9712 56.7317 93.2317C56.5002 93.801 56.288 94.3896 56.124 94.9686C56.0662 95.1616 56.0083 95.3642 55.9601 95.5572L55.8154 96.1651C55.8057 96.2327 55.7864 96.3002 55.7768 96.3678C55.7189 96.6379 55.6707 96.9178 55.6418 97.188C55.6321 97.2555 55.6225 97.323 55.6128 97.3809C55.5742 97.6415 55.555 97.902 55.5357 98.1529V98.1915C55.526 98.4231 55.5164 98.6547 55.5164 98.8766C55.5164 99.3687 55.5549 99.8416 55.6128 100.276C55.6803 100.72 55.7768 101.125 55.9022 101.501C55.989 101.771 56.0855 102.022 56.2012 102.254C56.2398 102.331 56.2784 102.408 56.3266 102.486C56.4423 102.698 56.5677 102.891 56.7124 103.074C56.8474 103.257 56.9921 103.431 57.1561 103.576C57.2622 103.682 57.3683 103.779 57.4841 103.865C57.677 104.01 57.8795 104.136 58.0917 104.242V104.232ZM72.8397 83.8138C72.9361 83.9779 73.0229 84.1419 73.1001 84.3252C73.1194 84.3542 73.129 84.3832 73.1387 84.4121C73.1869 84.5086 73.2255 84.6051 73.2544 84.7016C73.3219 84.8753 73.3895 85.0586 73.4473 85.2516C73.5052 85.4639 73.5631 85.6858 73.6113 85.9174C73.621 85.9367 73.621 85.9464 73.6306 85.9657C73.6788 86.1972 73.7174 86.4288 73.7463 86.6701C73.7849 86.921 73.8042 87.1815 73.8235 87.442V87.4613C73.8428 87.7315 73.8524 88.0017 73.8524 88.2815C73.8524 88.5614 73.8428 88.8605 73.8235 89.15C73.8139 89.3623 73.7946 89.5746 73.7753 89.7868C73.7271 90.2597 73.6499 90.7518 73.5631 91.2343C73.5534 91.2632 73.5534 91.2921 73.5438 91.3211C72.4346 96.9757 68.4703 102.978 63.744 105.708C60.397 107.648 57.4262 107.494 55.5935 105.679H55.5839C55.5357 105.631 55.4874 105.583 55.4392 105.525C55.3813 105.448 55.3138 105.371 55.2559 105.293H55.2463C55.2463 105.293 55.2366 105.293 55.2366 105.274C54.6579 104.57 54.2239 103.692 53.9538 102.63H53.9442V102.601C53.8959 102.408 53.8477 102.215 53.8188 102.013C53.7802 101.839 53.7512 101.656 53.732 101.472C53.6644 100.99 53.6355 100.478 53.6355 99.9477C53.6355 99.06 53.7223 98.1529 53.8863 97.2266C54.9087 91.4755 58.9309 85.3095 63.744 82.5208C65.3741 81.5752 66.9173 81.1313 68.287 81.1313C68.4703 81.1313 68.6439 81.1409 68.8175 81.1602C68.885 81.1602 68.9525 81.1602 69.0201 81.1795C69.1744 81.1988 69.3191 81.2181 69.4734 81.2567C69.647 81.2857 69.8206 81.3339 69.9846 81.3918C70.0232 81.4015 70.0521 81.4111 70.0811 81.4208C70.245 81.4787 70.3994 81.5366 70.544 81.6138H70.5537C70.7177 81.691 70.872 81.7778 71.0263 81.8743H71.036C71.3543 82.0673 71.6533 82.3085 71.9233 82.5787C72.0584 82.7138 72.1838 82.8489 72.3092 83.0033C72.396 83.1191 72.4828 83.2349 72.5696 83.3603C72.6178 83.4279 72.666 83.5051 72.7143 83.5822C72.7625 83.6594 72.8011 83.7366 72.8397 83.8138Z" fill="#121212"/>
<path d="M40.3247 37.8053C39.1479 38.8764 37.8072 40.0633 36.2639 41.3949L32.3382 38.6062L32.3286 38.5966C29.1938 34.7851 33.9394 33.4052 34.2191 33.328C34.2287 33.328 34.2384 33.328 34.248 33.328L37.9712 35.4123L38.9068 35.9334C39.6399 36.5509 40.0932 37.1878 40.3247 37.8053Z" fill="#222121"/>
<path d="M35.7237 44.1257C35.3958 44.6757 33.4185 48.2846 37.1995 50.7838L56.9438 61.8325C56.9438 61.8325 61.0239 63.2702 64.9206 63.2702C66.7629 63.2702 68.5666 62.9518 69.9074 62.0158H69.917L80.691 44.0968L80.8261 43.8748L83.0156 40.237C83.0156 40.237 83.0252 40.1791 82.9963 40.1695L53.8765 28.3103H53.8669L53.0277 27.9629C53.0085 27.9533 52.9892 27.9629 52.9795 27.9726L52.9024 28.0498L40.5079 39.6291L35.772 44.0485H35.7623C35.7623 44.0485 35.743 44.0871 35.7237 44.1161V44.1257ZM83.7583 45.3126C83.7583 45.3126 83.739 45.3416 83.739 45.3609C83.7293 45.3705 83.7293 45.3802 83.7293 45.3802H83.7197L83.5171 45.7275L72.0776 65.0071H72.0679C71.8847 65.1133 71.7014 65.2098 71.5182 65.287C64.9496 68.3362 55.1787 63.7527 53.7994 63.0772C53.6933 63.0193 53.6354 62.9904 53.6354 62.9904L35.8298 52.7041H35.8202C35.7623 52.6558 35.444 52.4339 35.0196 52.0769C34.9232 51.99 34.8267 51.9032 34.7206 51.8067C34.3637 51.4786 33.9586 51.0637 33.5824 50.5812C33.4763 50.4461 33.3702 50.3014 33.2738 50.1566C33.1677 50.0022 33.0616 49.8478 32.9651 49.6838C32.8783 49.5294 32.7915 49.3654 32.7143 49.2013C32.589 48.9504 32.4828 48.6803 32.396 48.4101C32.3575 48.2943 32.3285 48.1785 32.2996 48.0627C32.2707 47.9469 32.2514 47.8311 32.2321 47.7153C32.2031 47.5995 32.1935 47.4741 32.1838 47.3486C32.1742 47.2135 32.1646 47.0785 32.1646 46.9434C32.1646 46.8276 32.1742 46.7021 32.1935 46.5767C32.2031 46.3547 32.2417 46.1328 32.2996 45.9109C32.3285 45.7951 32.3575 45.6696 32.396 45.5538C32.4346 45.4284 32.4828 45.303 32.5311 45.1872C32.5793 45.0617 32.6372 44.9363 32.7047 44.8108C32.724 44.7626 32.7529 44.7047 32.7819 44.6564C32.8397 44.5407 32.9073 44.4249 32.9844 44.3091C33.0423 44.2222 33.1002 44.145 33.158 44.0582C33.1677 44.0582 33.1677 44.0485 33.1677 44.0485C33.7657 43.5468 34.3444 43.0546 34.8942 42.5818C35.2029 42.3213 35.5019 42.0607 35.7913 41.8099C35.9552 41.6651 36.1096 41.53 36.2639 41.3949C37.8072 40.0633 39.1479 38.8764 40.3246 37.8053C44.3854 34.1385 46.5556 31.9192 48.4461 30.1244C48.8416 29.7481 50.1245 28.4357 51.5134 27.2392C51.5809 27.1813 51.6484 27.1234 51.7256 27.0655C52.3911 26.4865 53.0856 25.9655 53.6933 25.5795L53.7126 25.5602L55.0822 24.7689L58.8247 22.6075L64.2647 19.4617L79.2731 10.7965C79.2731 10.7965 79.3021 10.7772 79.3696 10.7483C79.3985 10.7387 79.4275 10.7194 79.466 10.7001C80.4595 10.2465 84.9929 8.2105 90.6837 6.435C92.0727 6.00077 93.5388 5.58585 95.0339 5.20952C99.6444 4.05159 104.593 3.31823 108.808 3.8007H108.817C110.042 4.27352 111.209 4.7367 112.338 5.20952C131.532 13.151 136.249 19.9442 137.04 21.3144C137.136 21.4785 136.953 21.5267 136.953 21.5267L135.863 21.5653C123.006 21.9899 116.707 22.7619 113.659 23.4759H113.65L110.939 25.0488L96.6543 33.2991C95.1689 34.1579 93.8378 35.0166 92.6611 35.8658C91.9377 36.3869 91.2625 36.8983 90.6452 37.4097C90.2979 37.6895 89.97 37.9694 89.6613 38.2396C89.1308 38.6931 88.6485 39.1466 88.2049 39.5808C87.9927 39.7738 87.7997 39.9765 87.6165 40.1695C87.52 40.2659 87.4332 40.3528 87.3464 40.4493C87.2499 40.5458 87.1728 40.6326 87.086 40.7291C86.7291 41.1054 86.4204 41.4625 86.1504 41.7906C86.0057 41.9546 85.8706 42.1186 85.7453 42.2827C85.3594 42.7651 85.0508 43.1897 84.7904 43.5757C84.7325 43.6625 84.6746 43.7494 84.6264 43.8266C84.5589 43.9327 84.4913 44.0292 84.4335 44.1161C84.3081 44.2994 84.2116 44.4731 84.1248 44.6178C83.9994 44.8398 83.903 45.0231 83.8354 45.1486C83.7969 45.2161 83.7776 45.274 83.7583 45.3126Z" fill="#FFCB04"/>
<path d="M149.242 22.3373C149.299 23.9391 149.184 25.3962 149.184 26.0234L149.145 28.5129V28.6963C144.072 26.062 147.882 23.1961 149.242 22.3373Z" fill="#F05A25"/>
<path d="M149.676 22.0864C149.801 23.9295 149.647 25.7243 149.647 26.4383L149.608 28.9279C149.444 28.8507 149.29 28.7735 149.145 28.6963V28.513L149.184 26.0234C149.184 25.3962 149.299 23.9391 149.241 22.3373C149.502 22.1733 149.676 22.0864 149.676 22.0864Z" fill="#F05A25"/>
<path d="M70.0426 84.4218C70.139 84.4894 70.2355 84.5762 70.3223 84.6631H70.3319C70.3319 84.6631 70.3705 84.7113 70.3898 84.7306H70.3995C70.4477 84.7885 70.4766 84.8175 70.5249 84.8657C70.5442 84.885 70.5634 84.914 70.5827 84.9333C70.602 84.9622 70.631 84.9815 70.6503 85.0105C70.6792 85.0587 70.7178 85.107 70.7564 85.1552H70.766C70.766 85.1552 70.766 85.1745 70.7853 85.1842C70.7853 85.1842 70.7949 85.1842 70.7949 85.2035C70.8335 85.2517 70.8625 85.2903 70.8914 85.3386C70.9107 85.3579 70.9203 85.3675 70.9203 85.3868C70.9782 85.464 71.0264 85.5412 71.0747 85.628C71.1229 85.6956 71.1615 85.7631 71.1904 85.8307C71.229 85.8982 71.2579 85.9658 71.2965 86.043C71.3447 86.1298 71.3833 86.2167 71.4122 86.3035C71.4508 86.3903 71.4894 86.4868 71.5183 86.5737C71.5666 86.6991 71.6052 86.8246 71.6437 86.95C71.6823 87.0754 71.7209 87.2105 71.7498 87.3553C71.7691 87.4325 71.7788 87.5193 71.7981 87.5965C71.8559 87.886 71.9042 88.1948 71.9235 88.5229C71.9331 88.6097 71.9428 88.6966 71.9428 88.7834C71.9524 88.9764 71.962 89.1694 71.962 89.3624C71.962 90.3563 71.827 91.3984 71.5762 92.4405C71.4412 92.9906 71.2869 93.5502 71.0939 94.1002C69.7339 97.96 66.9464 101.685 63.7344 103.547C62.4034 104.319 61.1494 104.676 60.0402 104.676C59.8569 104.676 59.6833 104.666 59.5194 104.647C59.2203 104.618 58.931 104.56 58.6609 104.464C58.6513 104.464 58.632 104.464 58.6223 104.444C58.5645 104.435 58.4969 104.415 58.4391 104.387C58.3233 104.348 58.2076 104.29 58.0918 104.232C57.8796 104.126 57.6771 104.001 57.4842 103.856C57.3684 103.769 57.2623 103.672 57.1562 103.566C56.9922 103.422 56.8476 103.248 56.7125 103.065C56.5775 102.881 56.4521 102.688 56.3363 102.476C56.2881 102.399 56.2495 102.322 56.211 102.244C56.0952 102.013 55.9988 101.762 55.9119 101.492C55.7866 101.115 55.6901 100.71 55.6226 100.276C55.5647 99.832 55.5261 99.3592 55.5261 98.8671C55.5261 98.6451 55.5358 98.4135 55.5454 98.182V98.1434C55.5647 97.8925 55.584 97.6319 55.6226 97.3714C55.6322 97.3135 55.6419 97.246 55.6515 97.1784C55.6805 96.9082 55.7287 96.6284 55.7866 96.3582C55.7962 96.2907 55.8155 96.2231 55.8251 96.1556L55.9698 95.5477C56.018 95.3547 56.0759 95.152 56.1338 94.959C56.2978 94.3801 56.51 93.7915 56.7415 93.2221C56.8476 92.9616 56.9537 92.7011 57.079 92.4502C57.108 92.3923 57.1273 92.3344 57.1562 92.2861C57.2816 92.0063 57.4263 91.7265 57.571 91.4563C57.5999 91.3984 57.6288 91.3405 57.6578 91.2923C57.7928 91.051 57.9278 90.8098 58.0725 90.5782C58.1208 90.4914 58.169 90.4045 58.2172 90.337C58.3137 90.1729 58.4101 90.0185 58.5162 89.8641C58.6127 89.7097 58.7188 89.5554 58.8249 89.401C58.931 89.2466 59.0371 89.1018 59.1432 88.9571C59.2589 88.8027 59.365 88.658 59.4808 88.5132C59.5965 88.3685 59.7123 88.2334 59.828 88.0886C60.0595 87.8088 60.3006 87.5386 60.5418 87.2781C60.6672 87.143 60.7926 87.0176 60.918 86.8921C61.1687 86.6316 61.4195 86.4 61.6799 86.1684C61.8053 86.0526 61.9404 85.9368 62.0754 85.8307C62.6156 85.3965 63.1654 85.0105 63.7344 84.6824C64.4 84.2964 65.0366 84.0166 65.6539 83.8332C65.7407 83.8043 65.8275 83.785 65.9143 83.7657C66.1458 83.6981 66.3677 83.6499 66.5895 83.621C66.7342 83.6017 66.8692 83.5824 67.0043 83.5727C67.1489 83.5631 67.284 83.5534 67.419 83.5534C67.5926 83.5534 67.7566 83.5631 67.9206 83.5824C67.9977 83.5824 68.0653 83.592 68.1424 83.6113H68.1521C68.1521 83.6113 68.1617 83.6113 68.1714 83.621C68.2871 83.621 68.3932 83.6499 68.4993 83.6788H68.509C68.7404 83.7367 68.9623 83.8043 69.1648 83.9008C69.242 83.9297 69.3095 83.9587 69.377 83.9973H69.3867C69.4928 84.0455 69.5796 84.1034 69.6761 84.1613C69.6857 84.171 69.705 84.1806 69.7243 84.1903C69.8304 84.2578 69.9461 84.335 70.0426 84.4218Z" fill="#292929"/>
<path d="M39.2056 90.3852H39.2152C39.2152 90.3852 39.2441 90.3852 39.2538 90.3852C39.3117 90.3755 39.3792 90.3659 39.4371 90.3562C39.4756 90.3562 39.5239 90.3466 39.5624 90.3369C39.6107 90.3369 39.6685 90.3273 39.7168 90.3176C39.7457 90.3176 39.7746 90.308 39.7939 90.2983C39.9386 90.279 40.0833 90.2501 40.2183 90.2211C40.2376 90.2211 40.2666 90.2115 40.2859 90.2115C40.3244 90.2115 40.3727 90.2018 40.4209 90.1922C40.4691 90.1825 40.5174 90.1729 40.5656 90.1536C40.6331 90.1536 40.7006 90.1343 40.7585 90.115C40.7971 90.1053 40.8453 90.0957 40.8839 90.086C41.2022 90.0281 41.5108 89.951 41.8195 89.8738C42.1378 89.7966 42.4464 89.7194 42.7551 89.6229C42.813 89.6229 42.8708 89.5939 42.9191 89.5746C43.0541 89.536 43.1795 89.4974 43.3049 89.4588C43.3435 89.4492 43.3821 89.4395 43.4206 89.4202C43.7486 89.3237 44.0765 89.2272 44.3948 89.1018C44.4141 89.1018 44.4334 89.1018 44.4527 89.0825C44.4624 89.0825 44.472 89.0728 44.4816 89.0728C44.8868 88.9281 45.2919 88.7737 45.6873 88.6097L45.697 88.6C45.7066 88.5904 45.7066 88.5807 45.7163 88.5904C46.2564 88.243 46.7966 87.8763 47.3271 87.5096C47.6936 87.2588 48.0505 87.0079 48.4074 86.757C48.4074 86.757 48.9186 92.8361 44.2309 93.666C40.0447 94.4186 34.132 94.1195 31.0841 92.9905C29.8494 92.537 29.8301 91.051 29.917 90.2597C30.3606 90.3273 30.7947 90.4045 31.2384 90.4624C31.5278 90.5106 31.8171 90.5396 32.1065 90.5685C32.3283 90.5878 32.5502 90.6071 32.7624 90.6264C33.1964 90.665 33.6401 90.694 34.0838 90.7036C34.0838 90.7036 34.0935 90.7036 34.1031 90.7036C35.3088 90.7422 36.5145 90.7036 37.7202 90.5782C38.0577 90.5492 38.3953 90.5106 38.7329 90.4624C38.7908 90.4527 38.8583 90.4431 38.9162 90.4334C38.9644 90.4334 39.0223 90.4334 39.0705 90.4141C39.0995 90.4141 39.1284 90.4045 39.1573 90.4045C39.1573 90.4045 39.1638 90.4013 39.1766 90.3948H39.1959L39.2056 90.3852Z" fill="#F0F0F0"/>
<path d="M83.0446 59.2271C81.1348 58.2043 79.6879 58.5902 78.6655 59.3622L81.8871 53.9296C81.8871 53.9296 83.5944 56.2358 84.665 59.449L83.9416 59.864C83.9416 59.864 83.9127 59.9122 83.932 59.9315L83.8837 59.8929L83.0446 59.2271Z" fill="#272727"/>
<path d="M143.879 39.9572C143.985 39.9861 144.091 40.0344 144.187 40.0826C144.207 40.0826 144.216 40.0826 144.226 40.0923C144.274 40.1116 144.322 40.1309 144.371 40.1598C144.467 40.1984 144.563 40.2467 144.65 40.3142C144.699 40.3432 144.737 40.3625 144.785 40.4011C144.988 40.5169 145.181 40.6712 145.354 40.8449C145.393 40.8739 145.422 40.9028 145.451 40.9414C145.489 40.98 145.518 41.009 145.547 41.0476C145.644 41.1441 145.731 41.2502 145.808 41.3564C145.991 41.5976 146.155 41.8581 146.3 42.1476C146.358 42.2731 146.415 42.3985 146.464 42.5239C146.579 42.7941 146.676 43.0836 146.743 43.3924C146.772 43.4985 146.801 43.6047 146.821 43.7108C146.888 44.0293 146.936 44.3573 146.956 44.7047C146.965 44.7916 146.975 44.8784 146.975 44.9653C146.984 45.1582 146.994 45.3512 146.994 45.5442C146.994 46.7214 146.801 47.9566 146.454 49.2014C145.277 53.4375 142.277 57.6929 138.767 59.7192C136.934 60.7807 135.256 61.0702 133.886 60.6938H133.876C133.741 60.6552 133.606 60.607 133.471 60.5588C133.336 60.5105 133.211 60.4526 133.095 60.3851C133.037 60.3658 132.979 60.3368 132.931 60.2982C132.815 60.2307 132.7 60.1631 132.593 60.0763C132.497 60.0087 132.41 59.9412 132.323 59.864H132.314L132.188 59.7385C132.188 59.7385 132.13 59.6903 132.111 59.6614C132.034 59.5842 131.957 59.507 131.889 59.4201C131.667 59.1596 131.465 58.8604 131.301 58.5324C131.301 58.5227 131.301 58.5227 131.301 58.5131C131.224 58.378 131.166 58.2236 131.098 58.0788C131.021 57.8859 130.954 57.6929 130.886 57.4806C130.867 57.4227 130.848 57.3551 130.838 57.2972C130.78 57.1043 130.741 56.9016 130.703 56.699C130.684 56.6121 130.674 56.5156 130.664 56.4288V56.4191V56.3998C130.655 56.3516 130.645 56.313 130.655 56.2647C130.635 56.1683 130.626 56.0814 130.616 55.9849C130.606 55.9656 130.606 55.9463 130.616 55.927C130.606 55.8788 130.597 55.8209 130.597 55.7726C130.578 55.5314 130.568 55.2902 130.568 55.0393C130.568 54.8173 130.578 54.5954 130.587 54.3735V54.3156C130.587 54.1708 130.606 54.0357 130.626 53.891C130.635 53.7366 130.655 53.5726 130.684 53.4085C130.722 53.119 130.77 52.8295 130.828 52.5304C130.828 52.4918 130.828 52.4532 130.857 52.405C130.905 52.1348 130.973 51.855 131.05 51.5751C131.233 50.8707 131.475 50.1567 131.754 49.4619C131.86 49.211 131.957 48.9698 132.073 48.7285C132.111 48.6417 132.15 48.5452 132.198 48.4583C132.217 48.4101 132.237 48.3619 132.265 48.3136C132.275 48.2943 132.285 48.2654 132.294 48.2461C132.41 48.0241 132.516 47.8022 132.642 47.5803L132.7 47.4645C132.825 47.2425 132.95 47.0206 133.076 46.8083C133.134 46.7118 133.191 46.6057 133.259 46.5092C133.355 46.3451 133.462 46.1811 133.568 46.017C133.664 45.8723 133.761 45.7179 133.867 45.5732C134.079 45.274 134.291 44.9749 134.523 44.6854C134.629 44.5407 134.744 44.3959 134.87 44.2608C135.217 43.8363 135.584 43.4406 135.96 43.0643C136.085 42.9389 136.22 42.8134 136.346 42.6976C136.741 42.3213 137.146 41.9836 137.561 41.6748C137.667 41.5976 137.783 41.5108 137.889 41.4336C138.188 41.2309 138.487 41.0379 138.786 40.8642C139.123 40.6712 139.451 40.5072 139.77 40.3625C139.934 40.2949 140.088 40.2274 140.252 40.1695C140.406 40.1116 140.561 40.0537 140.715 40.0151C140.84 39.9765 140.956 39.9475 141.072 39.9186C141.13 39.8993 141.188 39.8896 141.245 39.88C141.332 39.851 141.429 39.8317 141.515 39.8221C141.622 39.8028 141.728 39.7835 141.834 39.7835C142.229 39.7256 142.615 39.716 142.972 39.7642C143.049 39.7642 143.117 39.7739 143.184 39.7931C143.31 39.7931 143.425 39.8317 143.541 39.8607C143.541 39.8607 143.56 39.851 143.56 39.8607C143.676 39.8896 143.792 39.9186 143.898 39.9572H143.879Z" fill="#292929"/>
<path d="M77.7011 65.644C79.4565 65.4606 78.7138 63.965 78.3955 63.4439C78.3666 63.4053 78.4148 63.3571 78.4631 63.386L83.035 66.3194H83.0543C83.8935 66.58 84.559 66.6475 85.0992 66.5607C85.186 66.551 85.2631 66.5414 85.3403 66.5221C85.4078 66.5028 85.4657 66.4835 85.5236 66.4642C85.6972 66.4063 85.8515 66.3387 85.9865 66.2519C86.0251 66.2326 86.0637 66.2036 86.0926 66.1844C86.1602 66.1361 86.218 66.0879 86.2759 66.0396C86.5363 65.808 86.7292 65.5185 86.8739 65.2001C86.9029 65.1326 86.9318 65.065 86.9607 64.9878C87.0186 64.8431 87.0572 64.6983 87.0958 64.5536C87.1151 64.4764 87.1344 64.3992 87.144 64.3317C87.1633 64.2545 87.1729 64.1869 87.1826 64.1194C87.308 63.3571 87.2308 62.6816 87.2212 62.5851C87.2212 62.5755 87.2115 62.5755 87.2019 62.5658L86.2759 61.8228L83.9321 59.9315C83.9321 59.9315 83.9128 59.8736 83.9417 59.864L84.6651 59.449L85.8129 58.7832L101.275 49.8961C102.75 49.0469 104.622 49.925 104.892 51.604C104.921 51.7391 104.94 51.8742 104.95 52.019C104.969 52.1251 104.979 52.2216 104.988 52.3374C105.017 52.5593 105.027 52.8006 105.036 53.0515C105.123 55.1357 105.123 60.4526 105.094 65.0843C105.094 66.7923 105.075 68.3941 105.065 69.7257C105.056 70.1599 105.056 70.5652 105.056 70.9319C105.046 71.2214 105.046 71.4915 105.046 71.7328C105.036 72.6012 104.573 73.3925 103.831 73.8171L77.5467 89.0053L77.0066 65.4124C77.1609 65.4799 77.296 65.5282 77.4117 65.5571C77.5853 65.615 77.7011 65.644 77.7011 65.644Z" fill="#FFCB04"/>
<path d="M143.84 37.3422C143.907 37.3422 143.975 37.3422 144.043 37.3615C144.197 37.3808 144.351 37.4001 144.496 37.4387C144.669 37.4676 144.833 37.5159 144.988 37.5641C145.036 37.5834 145.084 37.5931 145.123 37.6124C145.277 37.6606 145.431 37.7282 145.567 37.7957C145.74 37.8729 145.904 37.9597 146.058 38.0562C146.174 38.1238 146.28 38.201 146.386 38.2878C146.425 38.3071 146.473 38.3457 146.512 38.3747C146.521 38.3843 146.531 38.3843 146.541 38.4036C146.57 38.4229 146.599 38.4519 146.618 38.4808C146.666 38.5291 146.714 38.5773 146.753 38.6352C146.878 38.7703 146.994 38.9247 147.1 39.0791C147.177 39.1949 147.254 39.301 147.322 39.4265C147.467 39.658 147.592 39.9089 147.698 40.1695C147.756 40.2949 147.814 40.43 147.862 40.5651C147.92 40.7098 147.968 40.8546 148.007 41.009C148.045 41.1055 148.074 41.2116 148.094 41.3177C148.142 41.4625 148.171 41.6169 148.2 41.7713C148.248 41.9836 148.287 42.2055 148.315 42.4274C148.354 42.6783 148.373 42.9389 148.393 43.1994V43.2187C148.412 43.4792 148.422 43.7591 148.422 44.0389C148.422 45.0135 148.315 46.0267 148.113 47.0495C148.537 46.4416 148.798 45.7275 148.865 44.9652C148.836 45.7854 148.73 46.6153 148.566 47.4644C147.467 53.1287 143.502 59.1499 138.766 61.8807C135.535 63.7431 132.661 63.6659 130.819 62.0158C130.732 61.9483 130.655 61.8711 130.577 61.7939C129.931 61.1474 129.43 60.2789 129.102 59.2271C128.957 58.7639 128.841 58.2622 128.774 57.7218C128.783 57.7218 128.783 57.7122 128.783 57.7122C128.716 57.2104 128.677 56.6893 128.677 56.1296C128.677 55.2515 128.764 54.3348 128.928 53.4182C129.053 52.7041 129.227 51.9707 129.439 51.247C129.545 50.89 129.661 50.5233 129.796 50.1663C129.941 49.761 130.095 49.3557 130.269 48.9505C130.442 48.5452 130.626 48.1496 130.819 47.7539C131.108 47.1557 131.426 46.5767 131.764 45.9977C132.111 45.4284 132.468 44.8784 132.844 44.338C133.423 43.5275 134.031 42.7652 134.686 42.0511C134.899 41.8195 135.12 41.5879 135.352 41.366C136.423 40.3046 137.57 39.3975 138.766 38.7028C140.397 37.7571 141.94 37.3132 143.309 37.3132C143.493 37.3132 143.666 37.3229 143.84 37.3422ZM131.291 58.5131C131.291 58.5131 131.291 58.5227 131.291 58.5324C131.455 58.8604 131.658 59.1596 131.88 59.4201C131.947 59.507 132.024 59.5841 132.101 59.6613C132.121 59.6903 132.15 59.7096 132.179 59.7385C132.217 59.7771 132.256 59.8157 132.304 59.8543H132.314C132.4 59.9412 132.487 60.0087 132.584 60.0763C132.69 60.1631 132.806 60.2307 132.921 60.2982C132.969 60.3368 133.027 60.3658 133.085 60.3851C133.201 60.4526 133.326 60.5105 133.461 60.5587C133.596 60.607 133.731 60.6552 133.867 60.6938H133.876C135.246 61.0702 136.924 60.7807 138.757 59.7192C142.268 57.6929 145.267 53.4375 146.444 49.2013C146.791 47.9566 146.984 46.7214 146.984 45.5442C146.984 45.3512 146.975 45.1582 146.965 44.9652C146.965 44.8784 146.965 44.7916 146.946 44.7047C146.927 44.3573 146.878 44.0292 146.811 43.7108C146.791 43.6047 146.763 43.4985 146.734 43.3924C146.666 43.0836 146.57 42.7941 146.454 42.5239C146.406 42.3985 146.348 42.273 146.29 42.1476C146.145 41.8581 145.981 41.5976 145.798 41.3563C145.721 41.2502 145.634 41.1441 145.538 41.0476C145.509 41.009 145.48 40.98 145.441 40.9414C145.412 40.9028 145.383 40.8739 145.345 40.8449C145.171 40.6712 144.978 40.5168 144.776 40.4011C144.727 40.3625 144.689 40.3432 144.641 40.3142C144.554 40.2467 144.457 40.1984 144.361 40.1598C144.313 40.1309 144.264 40.1116 144.216 40.0923C144.206 40.0826 144.197 40.0826 144.178 40.0826C144.081 40.0344 143.975 39.9861 143.869 39.9572C143.763 39.9186 143.647 39.8896 143.531 39.8607C143.531 39.851 143.512 39.8607 143.512 39.8607C143.396 39.8317 143.281 39.8028 143.155 39.7931C143.088 39.7738 143.02 39.7642 142.943 39.7642C142.586 39.7159 142.2 39.7256 141.805 39.7835C141.699 39.7835 141.593 39.8028 141.486 39.8221C141.4 39.8317 141.303 39.851 141.216 39.88C141.159 39.8896 141.101 39.8993 141.043 39.9186C140.927 39.9475 140.811 39.9765 140.686 40.0151C140.532 40.0537 140.377 40.1116 140.223 40.1695C140.069 40.2274 139.905 40.2853 139.741 40.3625C139.422 40.5072 139.094 40.6712 138.757 40.8642C138.458 41.0379 138.159 41.2309 137.86 41.4335C137.754 41.5107 137.638 41.5976 137.532 41.6748C137.117 41.9836 136.712 42.3213 136.316 42.6976C136.191 42.8134 136.056 42.9389 135.931 43.0643C135.554 43.4406 135.188 43.8363 134.841 44.2608C134.715 44.3959 134.6 44.5407 134.493 44.6854C134.262 44.9749 134.05 45.274 133.838 45.5732C133.731 45.7179 133.635 45.8723 133.539 46.017C133.432 46.1811 133.326 46.3451 133.23 46.5092C133.162 46.6056 133.105 46.7118 133.047 46.8083C132.921 47.0206 132.796 47.2425 132.67 47.4644L132.613 47.5802C132.487 47.8022 132.381 48.0241 132.265 48.2461C132.256 48.2653 132.246 48.2943 132.236 48.3136C132.207 48.3618 132.188 48.4101 132.169 48.4583C132.121 48.5452 132.082 48.6417 132.044 48.7285C131.928 48.9698 131.831 49.211 131.725 49.4619C131.446 50.1566 131.204 50.8707 131.021 51.5751C130.944 51.8549 130.876 52.1348 130.828 52.405C130.809 52.4532 130.809 52.4918 130.799 52.5304C130.741 52.8295 130.693 53.119 130.655 53.4085C130.626 53.5725 130.606 53.7366 130.597 53.891C130.577 54.0357 130.568 54.1708 130.558 54.3156V54.3734C130.548 54.5954 130.539 54.8173 130.539 55.0393C130.539 55.2901 130.548 55.5314 130.568 55.7726C130.568 55.8209 130.577 55.8788 130.587 55.927C130.577 55.9463 130.577 55.9656 130.587 55.9849C130.597 56.0814 130.606 56.1682 130.626 56.2647C130.616 56.313 130.626 56.3516 130.645 56.3998V56.4191C130.645 56.4191 130.645 56.4191 130.645 56.4288C130.655 56.5156 130.664 56.6121 130.684 56.699C130.722 56.9016 130.761 57.1042 130.819 57.2972C130.828 57.3551 130.847 57.4227 130.867 57.4806C130.925 57.6929 131.002 57.8858 131.079 58.0788C131.146 58.2236 131.204 58.378 131.282 58.5131H131.291Z" fill="#121212"/>
<path d="M147.119 17.3775C147.987 18.1012 148.846 19.0661 149.27 20.0021C149.396 20.2723 149.483 20.5328 149.531 20.7837C149.598 21.218 149.646 21.6522 149.675 22.0864C149.675 22.0864 149.502 22.1732 149.241 22.3373C149.241 22.1154 149.232 21.8934 149.212 21.6715C149.184 21.2373 149.135 20.803 149.068 20.3688C149.02 20.1179 148.933 19.8574 148.807 19.5872C148.46 18.8152 147.814 18.0336 147.119 17.3775Z" fill="#FFCB04"/>
<path d="M137.04 21.3145C137.136 21.4785 137.175 21.5653 137.175 21.5653H135.863L136.953 21.5267C136.953 21.5267 137.136 21.4785 137.04 21.3145Z" fill="#FFCB04"/>
<path d="M2.95803 67.5449C2.99662 67.487 3.06413 67.5256 3.06413 67.5739C3.05449 67.5931 3.05449 67.6221 3.05449 67.651C3.02555 67.8054 3.00626 67.9502 2.98697 68.1046C2.94839 68.3651 2.91945 68.6256 2.90981 68.8958C2.89052 69.1467 2.88087 69.4072 2.88087 69.6581C2.88087 70.7678 3.0352 71.8775 3.33421 72.9486C3.69109 74.2127 4.26018 75.4189 5.05111 76.5189H5.04146C5.04146 76.5189 4.06727 78.2847 3.10272 77.8795C1.4244 77.1654 1 74.9943 1 74.9943V73.9425C1 71.5108 1.72341 69.3301 2.95803 67.5449Z" fill="#F0F0F0"/>
<path d="M127.761 31.2823C127.896 31.3595 128.021 31.4367 128.156 31.5332C128.234 31.5815 128.311 31.6394 128.388 31.6876C128.504 31.7744 128.619 31.8613 128.726 31.9674C128.899 32.1122 129.063 32.2762 129.217 32.4596C129.314 32.5657 129.391 32.6718 129.468 32.7973C129.565 32.9324 129.642 33.0868 129.709 33.2508C129.758 33.3377 129.787 33.4438 129.816 33.5403C129.825 33.5499 129.825 33.5596 129.825 33.5789C129.873 33.714 129.893 33.8491 129.912 33.9938C129.922 34.0421 129.922 34.1 129.922 34.1579C129.922 34.2737 129.951 34.4087 129.96 34.5438C130.018 35.2096 130.086 36.0588 130.153 36.9755L130.182 37.3518C130.201 37.5931 130.221 37.8439 130.23 38.0948C130.278 38.7703 130.327 39.4458 130.365 40.0826C130.385 40.266 130.394 40.4493 130.404 40.623C130.442 41.2213 130.471 41.752 130.5 42.1669C130.5 42.2248 130.51 42.273 130.51 42.3309C130.51 42.8231 130.346 43.3248 130.037 43.7301C130.037 43.7301 130.028 43.7591 130.018 43.7687C129.951 43.8652 129.873 43.9713 129.787 44.0871C129.449 44.5503 129.034 45.1872 128.61 45.9784C128.523 46.1521 128.427 46.3355 128.33 46.5284C128.147 46.8855 127.983 47.2618 127.819 47.6574C127.751 47.8118 127.684 47.9662 127.626 48.1303C127.53 48.3618 127.443 48.6031 127.366 48.854C127.288 49.047 127.221 49.2496 127.163 49.4619C127.076 49.7128 126.999 49.9733 126.941 50.2435C126.883 50.4268 126.835 50.6198 126.796 50.8225C126.739 51.0251 126.7 51.2277 126.661 51.4304C126.613 51.6909 126.555 51.9707 126.517 52.2506C126.459 52.5883 126.42 52.926 126.382 53.2734C126.333 53.6497 126.305 54.0261 126.295 54.4217C126.276 54.7594 126.266 55.1068 126.266 55.4542C126.266 57.0174 126.44 58.7157 126.854 60.5298L115.54 67.0625L107.284 71.8293L105.036 73.1223C105.036 73.1223 105.046 72.6012 105.046 71.7328C105.046 71.4916 105.046 71.2214 105.056 70.9319C105.056 70.5652 105.056 70.1599 105.065 69.7257C105.075 68.3941 105.084 66.7923 105.094 65.0843C105.123 60.4526 105.123 55.1357 105.036 53.0515C105.027 52.8006 105.017 52.5593 104.988 52.3374C104.978 52.2216 104.969 52.1251 104.949 52.019C104.94 51.8742 104.92 51.7391 104.892 51.6041C104.467 48.9505 103.281 48.7382 103.281 48.7382L114.392 42.3406C118.164 40.1791 121.569 37.4387 124.51 34.2447C124.559 34.1965 124.607 34.1386 124.655 34.0903L125.128 33.5692C125.552 33.0868 125.832 32.7876 125.832 32.7876C126.382 32.1797 126.497 31.3113 126.15 30.5683C126.15 30.5683 126.565 30.6937 127.115 30.9542C127.163 30.9639 127.211 30.9928 127.269 31.0218C127.375 31.07 127.481 31.1279 127.597 31.1955C127.655 31.2148 127.703 31.2534 127.761 31.2823Z" fill="#FFCB04"/>
<path d="M53.9441 102.63H53.9345L52.1018 103.692H52.0922L51.6581 103.943L48.1375 105.979C48.0218 106.046 47.8964 106.114 47.7613 106.162C46.4881 106.693 39.6013 109.221 31.5183 105.93C31.2868 105.824 31.0553 105.708 30.8239 105.593L5.25366 90.8097C4.74245 90.5106 4.26018 90.1632 3.82613 89.7676C2.35037 88.4649 1.38582 86.6701 1.09645 84.7016C1.02894 84.2867 1 83.8718 1 83.4472V74.9847C1 74.9847 1.4244 77.1558 3.10272 77.8698C4.06727 78.2751 5.04146 76.5189 5.04146 76.5189H5.05111C5.43693 77.0593 5.88062 77.59 6.37254 78.0725C7.07666 78.7672 7.88688 79.3945 8.8032 79.9252L20.9276 86.921C21.1977 87.0754 21.4774 87.2298 21.7475 87.3745C22.0079 87.5193 22.2683 87.6544 22.5384 87.7798C23.1846 88.1079 23.8502 88.407 24.5254 88.6676C24.7954 88.7737 25.0751 88.8799 25.3452 88.986C25.6249 89.0825 25.895 89.179 26.1747 89.2755C26.4545 89.3623 26.7245 89.4492 27.0042 89.536C27.8434 89.7869 28.6922 89.9992 29.541 90.1632C29.6664 90.1922 29.8014 90.2115 29.9268 90.2308C29.84 91.0317 29.8593 92.5177 31.0939 92.9712C34.1419 94.1002 40.0546 94.3993 44.2407 93.6467C48.9284 92.8168 48.4172 86.7377 48.4172 86.7377C50.2885 85.4157 52.1018 84.0262 53.838 82.6077C54.272 82.2507 54.6964 81.9033 55.1208 81.5463C55.6996 81.0542 56.2687 80.5717 56.8377 80.0796C60.7635 76.6733 64.1683 73.296 66.8401 70.6038C67.0523 70.3819 67.2645 70.1696 67.4767 69.9573C69.4058 67.9695 70.8044 66.4353 71.5182 65.6343C71.8365 65.2773 72.0294 65.065 72.068 65.0071H72.0776L83.5172 45.7275L83.7294 45.3705C83.7294 45.3705 83.7294 45.3609 83.739 45.3512C83.739 45.3319 83.7487 45.3223 83.7583 45.303C83.7776 45.2644 83.7969 45.2065 83.8355 45.1389C83.903 45.0135 83.9994 44.8301 84.1248 44.6082C84.2116 44.4635 84.3081 44.2898 84.4335 44.1064C84.4914 44.0196 84.5589 43.9231 84.6264 43.817C84.6746 43.7398 84.7325 43.6529 84.7904 43.5661C85.0508 43.1801 85.3595 42.7555 85.7453 42.273C85.8707 42.109 86.0057 41.945 86.1504 41.7809C86.4205 41.4528 86.7291 41.0958 87.086 40.7195C87.1728 40.623 87.25 40.5361 87.3464 40.4397C87.4332 40.3432 87.5201 40.2563 87.6165 40.1598L88.2049 39.5712C88.6486 39.137 89.1308 38.6835 89.6613 38.2299C89.97 37.9597 90.298 37.6799 90.6452 37.4001C91.2625 36.8887 91.9377 36.3772 92.6611 35.8562C93.8378 35.007 95.1689 34.1482 96.6543 33.2894L110.939 25.0391L113.65 23.4663H113.659C116.707 22.7522 123.006 21.9803 135.863 21.5557H137.175C137.175 21.5557 137.136 21.4688 137.04 21.3048C136.249 19.9346 131.532 13.1414 112.338 5.19989C111.209 4.72706 110.042 4.26389 108.817 3.79107L110.004 3.10596C113.939 0.838338 118.791 0.838338 122.726 3.10596L145.914 16.4994C146.29 16.7213 146.705 17.0108 147.12 17.3678C147.814 18.024 148.46 18.8056 148.808 19.5776C148.933 19.8477 149.02 20.1083 149.068 20.3592C149.135 20.7934 149.184 21.2276 149.213 21.6618C149.232 21.8838 149.242 22.1057 149.242 22.3276C147.882 23.1864 144.072 26.0523 149.145 28.6866L148.933 41.4046L148.885 44.2801C148.885 44.0582 148.875 43.8363 148.856 43.624V43.6047C148.836 43.3441 148.817 43.0836 148.779 42.8424C148.75 42.6108 148.711 42.3888 148.663 42.1766C148.634 42.0222 148.605 41.8678 148.557 41.723C148.537 41.6169 148.508 41.5107 148.47 41.4142C148.431 41.2599 148.383 41.1151 148.325 40.9704C148.277 40.8353 148.219 40.7002 148.161 40.5747C148.055 40.3142 147.93 40.0633 147.785 39.8317C147.718 39.7063 147.64 39.6002 147.563 39.4844C147.525 39.4361 147.496 39.3782 147.447 39.33C147.428 39.3107 147.409 39.2817 147.399 39.2624C147.341 39.1852 147.284 39.108 147.216 39.0405C147.216 39.0308 147.197 39.0115 147.177 39.0019C147.148 38.9633 147.11 38.9247 147.081 38.8861C147.033 38.8378 146.994 38.8089 146.956 38.7607L146.946 38.751C146.84 38.6449 146.734 38.5484 146.628 38.4615C146.599 38.4326 146.57 38.4133 146.541 38.394C146.531 38.3747 146.522 38.3747 146.512 38.365C146.473 38.3361 146.425 38.2975 146.386 38.2782C146.28 38.1913 146.174 38.1141 146.059 38.0466C145.904 37.9501 145.74 37.8633 145.567 37.7861C145.432 37.7185 145.277 37.651 145.123 37.6027C145.084 37.5834 145.036 37.5738 144.988 37.5545C144.834 37.5062 144.67 37.458 144.496 37.429C144.351 37.3904 144.197 37.3711 144.043 37.3518C143.975 37.3422 143.908 37.3325 143.84 37.3325C143.666 37.3132 143.493 37.3036 143.31 37.3036C141.94 37.3036 140.397 37.7475 138.767 38.6931C137.571 39.3879 136.423 40.2949 135.352 41.3563C135.121 41.5783 134.899 41.8099 134.687 42.0415C134.031 42.7555 133.413 43.5178 132.844 44.3284C132.458 44.8591 132.102 45.4188 131.764 45.9881C131.426 46.567 131.108 47.146 130.819 47.7443C130.626 48.1399 130.442 48.5355 130.269 48.9408C130.095 49.3461 129.941 49.7514 129.796 50.1566C129.661 50.5137 129.545 50.8804 129.439 51.2374C129.218 51.9611 129.044 52.6944 128.918 53.4085C128.755 54.3252 128.668 55.2419 128.668 56.12C128.668 56.6797 128.706 57.2104 128.774 57.7122C128.33 58.5806 127.993 59.2368 127.549 60.1052L127.539 60.1149L126.854 60.5201C126.44 58.706 126.266 57.0077 126.266 55.4445C126.266 55.0972 126.276 54.7498 126.295 54.412C126.305 54.0164 126.334 53.6401 126.382 53.2638C126.42 52.9164 126.459 52.5787 126.517 52.2409C126.555 51.9611 126.604 51.6909 126.661 51.4207C126.7 51.2181 126.739 51.0154 126.796 50.8128C126.835 50.6102 126.883 50.4172 126.941 50.2338C126.999 49.9637 127.076 49.7031 127.163 49.4522C127.221 49.2399 127.288 49.0373 127.366 48.8443C127.443 48.5934 127.53 48.3522 127.626 48.1206C127.684 47.9566 127.751 47.8022 127.819 47.6478C127.983 47.2522 128.147 46.8758 128.33 46.5188C128.427 46.3258 128.523 46.1425 128.61 45.9688C129.034 45.1775 129.449 44.5407 129.787 44.0775C129.873 43.9617 129.951 43.8556 130.018 43.7591C130.028 43.7494 130.037 43.7301 130.037 43.7205C130.356 43.3152 130.558 43.1029 130.558 43.1029C130.558 43.1029 130.539 42.8134 130.51 42.3213C130.51 42.2634 130.5 42.2152 130.5 42.1573C130.471 41.7423 130.442 41.2116 130.404 40.6133C130.394 40.4397 130.385 40.2563 130.365 40.073C130.327 39.4361 130.279 38.7606 130.23 38.0852C130.221 37.8343 130.201 37.5834 130.182 37.3422L130.153 36.9659C130.086 36.0492 130.018 35.2 129.96 34.5342C129.951 34.3991 129.931 34.264 129.922 34.1482C129.922 34.0903 129.922 34.0324 129.912 33.9842C129.893 33.8394 129.873 33.7043 129.825 33.5692C129.825 33.55 129.825 33.5403 129.816 33.5307C129.796 33.4342 129.758 33.3377 129.709 33.2412C129.642 33.0771 129.565 32.9227 129.468 32.7876C129.391 32.6622 129.314 32.5561 129.218 32.4499C129.063 32.2666 128.899 32.1025 128.726 31.9578C128.619 31.8517 128.504 31.7648 128.388 31.678C128.311 31.6297 128.234 31.5718 128.157 31.5236C128.021 31.4271 127.896 31.3499 127.761 31.2727C127.703 31.2437 127.655 31.2051 127.597 31.1858C127.481 31.1183 127.375 31.0604 127.269 31.0121C127.211 30.9832 127.163 30.9543 127.115 30.9446C127.086 30.9253 127.057 30.906 127.028 30.8964C126.517 30.6648 126.083 30.2691 125.832 29.777C125.813 29.7481 125.793 29.7095 125.793 29.6805C125.735 29.5551 125.687 29.4296 125.639 29.2945C125.446 28.7542 125.244 28.1945 125.051 27.6927C124.993 27.5287 124.925 27.3743 124.867 27.2199C124.838 27.1331 124.8 27.0559 124.761 26.9787C124.694 26.8243 124.626 26.6892 124.559 26.5638C124.52 26.4866 124.472 26.4094 124.433 26.3515C124.395 26.2936 124.356 26.2357 124.308 26.1971C124.279 26.1585 124.25 26.1295 124.211 26.1102C124.163 26.0716 124.125 26.0523 124.076 26.0523C122.958 25.9558 121.192 26.0137 120.16 25.9269H119.948L119.881 25.9172C118.058 25.8593 116.244 26.0427 114.479 26.4866C114.431 26.4962 114.373 26.5155 114.325 26.5252C114.315 26.5252 114.306 26.5348 114.296 26.5348L111.566 28.1559L105.866 31.3885L103.281 32.8841L98.4291 35.6825C97.6768 36.1167 96.9726 36.5509 96.2975 36.9948L96.2589 37.0238C96.0081 37.1878 95.7669 37.3422 95.5258 37.5062C93.751 38.7028 92.2753 39.8703 91.0503 40.9704C90.5005 41.4721 90.0086 41.945 89.5552 42.4081C87.4815 44.5214 86.3819 46.2293 85.8996 47.0978C85.8707 47.1557 85.8417 47.2039 85.8128 47.2522C85.6392 47.5609 85.5717 47.725 85.5717 47.725L81.8871 53.9199L78.6655 59.3429C78.5015 59.478 78.3472 59.6131 78.2025 59.7578C78.1061 59.8447 78.0192 59.9315 77.9421 60.028C77.8746 60.0956 77.8167 60.1728 77.7588 60.2403C77.7299 60.2789 77.7009 60.3079 77.6817 60.3368C77.6045 60.4333 77.5273 60.5298 77.4694 60.6263C77.4019 60.7228 77.3441 60.8096 77.2958 60.8868C77.1222 61.157 76.9968 61.3982 76.9004 61.5912C76.8714 61.6395 76.8521 61.6877 76.8329 61.7263C76.7267 61.929 76.5821 62.1123 76.4084 62.2763C76.148 62.5176 75.9551 62.7395 75.8201 62.9518C75.7718 63.0193 75.7429 63.0772 75.714 63.1255C75.7043 63.1351 75.7043 63.1448 75.7043 63.1448C75.6754 63.193 75.6464 63.2413 75.6368 63.2895C75.5789 63.415 75.5403 63.5211 75.5307 63.6273C75.5211 63.6948 75.5114 63.7624 75.5114 63.8202C75.5114 63.9071 75.5114 63.9939 75.5404 64.0711C75.55 64.1387 75.5789 64.2062 75.6079 64.2738V64.2931C75.6368 64.351 75.6657 64.3992 75.7043 64.4571C75.8394 64.6694 76.0323 64.8527 76.2541 65.0071C76.4953 65.1712 76.7653 65.3063 77.0065 65.4028L77.5466 88.9956L76.2541 89.7387L75.6754 90.0764L73.6305 91.2633C73.6305 91.2633 73.563 91.2633 73.563 91.2247C73.6498 90.7422 73.727 90.2501 73.7752 89.7773C73.7945 89.565 73.8138 89.3527 73.8235 89.1404C73.8427 88.8509 73.8524 88.5614 73.8524 88.2719C73.8524 87.9825 73.8427 87.7123 73.8235 87.4517V87.4324C73.8042 87.1719 73.7849 86.9114 73.7463 86.6605C73.7174 86.4192 73.6788 86.178 73.6305 85.9561C73.6209 85.9368 73.6209 85.9271 73.6113 85.9078C73.563 85.6762 73.5052 85.4543 73.4473 85.242C73.3894 85.049 73.3219 84.8657 73.2544 84.692C73.2254 84.5955 73.1869 84.499 73.1386 84.4025C73.129 84.3736 73.1193 84.3446 73.1 84.3157C73.0229 84.1323 72.9361 83.9683 72.8396 83.8042C72.801 83.727 72.7624 83.6499 72.7142 83.5727C72.666 83.4955 72.6178 83.4183 72.5695 83.3507C72.4827 83.2253 72.3959 83.1095 72.3091 82.9937C72.1837 82.8393 72.0583 82.7042 71.9233 82.5691C71.6532 82.2989 71.3542 82.0577 71.0359 81.8647H71.0263C70.8719 81.7682 70.7273 81.6814 70.5536 81.6042H70.544C70.3993 81.527 70.245 81.4691 70.081 81.4112C70.0521 81.4015 70.0231 81.3919 69.9845 81.3822C69.8206 81.3243 69.647 81.2761 69.4733 81.2471C69.319 81.2085 69.1743 81.1892 69.02 81.1699C68.9525 81.1603 68.885 81.1506 68.8174 81.1506C68.6438 81.1313 68.4702 81.1217 68.2869 81.1217C66.9173 81.1217 65.374 81.5656 63.7439 82.5112C58.9308 85.2999 54.9086 91.4659 53.8862 97.217C53.7223 98.1433 53.6354 99.0504 53.6354 99.9381C53.6354 100.469 53.6644 100.98 53.7319 101.463C53.7512 101.646 53.7801 101.829 53.8187 102.003C53.8476 102.206 53.8959 102.399 53.9441 102.592V102.611V102.63ZM27.3901 95.8468V92.1414L6.75836 80.2243V83.9297L27.3901 95.8468Z" fill="#FFCB04"/>
<path d="M78.6653 59.3622C79.6877 58.5902 81.1345 58.2043 83.0444 59.2271L83.8835 59.8929L83.9317 59.9315L86.2756 61.8228C86.565 62.5465 86.9026 63.3957 87.1823 64.1194C87.1726 64.1869 87.163 64.2545 87.1437 64.3317C87.134 64.3992 87.1148 64.4764 87.0955 64.5536C87.0569 64.6983 87.0183 64.8431 86.9604 64.9878C86.9315 65.065 86.9026 65.1326 86.8736 65.2001C86.7289 65.5185 86.536 65.808 86.2756 66.0396C86.2177 66.0879 86.1599 66.1361 86.0923 66.1844C86.0634 66.2037 86.0248 66.2326 85.9862 66.2519C85.8512 66.3387 85.6969 66.4063 85.5232 66.4642C85.4654 66.4835 85.4075 66.5028 85.34 66.5221C85.2628 66.5414 85.1857 66.551 85.0989 66.5607C84.5587 66.6475 83.8932 66.58 83.054 66.3194H83.0347L78.4627 63.386C78.4145 63.3571 78.3663 63.4053 78.3952 63.4439C78.7135 63.965 79.4562 65.4606 77.7008 65.644C77.7008 65.644 77.585 65.615 77.4114 65.5571C77.2956 65.5282 77.1606 65.4799 77.0063 65.4124C76.7651 65.3159 76.4951 65.1808 76.2539 65.0168C76.0321 64.8624 75.8392 64.679 75.7041 64.4667C75.6656 64.4089 75.6366 64.3606 75.6077 64.3027V64.2834C75.5787 64.2159 75.5498 64.1483 75.5402 64.0808C75.5209 64.0036 75.5112 63.9167 75.5112 63.8299C75.5112 63.772 75.5112 63.7045 75.5305 63.6369C75.5402 63.5308 75.5787 63.4246 75.6366 63.2992C75.6463 63.2509 75.6752 63.2027 75.7041 63.1544C75.7041 63.1544 75.7041 63.1448 75.7138 63.1351C75.7427 63.0869 75.7717 63.029 75.8199 62.9614C75.9549 62.7492 76.1478 62.5272 76.4083 62.286C76.5047 62.1991 76.6108 62.1026 76.7169 62.0158C76.7169 62.0158 76.7555 61.9096 76.8327 61.736C76.852 61.6974 76.8712 61.6491 76.9002 61.6009C76.9966 61.4079 77.122 61.1666 77.2956 60.8965C77.3439 60.8193 77.4017 60.7324 77.4693 60.6359C77.5271 60.5394 77.6043 60.4429 77.6815 60.3464C77.7008 60.3175 77.7297 60.2885 77.7586 60.2499C77.8165 60.1824 77.8744 60.1052 77.9419 60.0377C78.0191 59.9412 78.1059 59.8543 78.2023 59.7675C78.347 59.6227 78.5013 59.4876 78.6653 59.3622Z" fill="#272727"/>
<path d="M103.281 32.8938V48.7382L101.275 49.8961L85.8129 58.7833L84.6651 59.4491C83.5945 56.2358 81.8872 53.9296 81.8872 53.9296L85.5718 47.7346C85.5718 47.7346 85.6393 47.5706 85.8129 47.2618C85.8419 47.2136 85.8708 47.1653 85.8997 47.1074C86.382 46.239 87.4816 44.531 89.5554 42.4178C90.0087 41.9546 90.5006 41.4818 91.0504 40.98C92.2754 39.88 93.7512 38.7124 95.5259 37.5159C95.7671 37.3518 96.0082 37.1975 96.259 37.0334L96.2976 37.0045C96.9728 36.5606 97.6769 36.1264 98.4292 35.6921L103.281 32.8938Z" fill="#4D4D4D"/>
<path d="M45.7261 88.5711C45.7261 88.5711 45.7165 88.5807 45.7068 88.5904H45.6875C45.2631 88.764 44.8291 88.9281 44.3951 89.0825C44.2986 89.1211 44.2021 89.15 44.1057 89.1886C43.8838 89.2658 43.6523 89.343 43.4209 89.4106C43.3823 89.4299 43.3437 89.4395 43.3051 89.4492C43.1797 89.4878 43.0543 89.5264 42.9193 89.565C42.8711 89.5843 42.8132 89.6036 42.7553 89.6132C42.4467 89.7097 42.138 89.7869 41.8197 89.8641C41.511 89.9413 41.2024 90.0088 40.8841 90.0764C40.8455 90.086 40.7973 90.0957 40.7587 90.1053C40.7008 90.1246 40.6333 90.1343 40.5658 90.1439C40.5176 90.1536 40.479 90.1632 40.4308 90.1729L40.2861 90.2018C40.2861 90.2018 40.2378 90.2115 40.2186 90.2115C40.0835 90.2404 39.9388 90.2694 39.7942 90.2887C39.717 90.308 39.6398 90.3176 39.5627 90.3273C39.5241 90.3273 39.4758 90.3466 39.4373 90.3466C39.3794 90.3562 39.3119 90.3659 39.254 90.3755H39.2154H39.2058H39.1865C39.1865 90.3755 39.119 90.3852 39.0804 90.3948C39.0322 90.4045 38.9743 90.4141 38.9261 90.4141C38.5306 90.472 38.1351 90.5202 37.73 90.5588C36.5243 90.6843 35.3186 90.7229 34.113 90.6843C34.1033 90.6843 34.0937 90.6843 34.0937 90.6843C33.6596 90.665 33.2159 90.636 32.7722 90.6071C32.56 90.5878 32.3382 90.5685 32.1163 90.5492C31.827 90.5203 31.5376 90.4913 31.2482 90.4431C30.8046 90.3852 30.3705 90.308 29.9268 90.2308C29.8014 90.2115 29.6664 90.1922 29.541 90.1632C28.6922 89.9992 27.8434 89.7869 27.0042 89.536C26.7245 89.4492 26.4544 89.3623 26.1747 89.2755C25.895 89.179 25.6249 89.0825 25.3452 88.986C25.0751 88.8798 24.7954 88.7737 24.5253 88.6676C23.8502 88.407 23.1846 88.1079 22.5384 87.7798C22.2683 87.6544 22.0079 87.5193 21.7474 87.3745C21.4774 87.2298 21.1976 87.0754 20.9276 86.921L8.80319 79.9252C7.88687 79.3944 7.07665 78.7672 6.37253 78.0725C5.88061 77.59 5.43691 77.0593 5.05109 76.5093C4.26016 75.4092 3.69108 74.203 3.3342 72.939C3.03519 71.8679 2.88086 70.7582 2.88086 69.6485C2.88086 69.3976 2.8905 69.1371 2.9098 68.8862C2.91944 68.616 2.94838 68.3555 2.98696 68.0949C3.00625 67.9406 3.02554 67.7958 3.05448 67.6414C3.05448 67.6125 3.05448 67.5835 3.06412 67.5642C3.07377 67.487 3.08341 67.4098 3.10271 67.3326L3.11235 67.3133C3.83576 66.2905 4.73279 65.422 5.73592 64.708C5.76486 64.6887 5.80344 64.6597 5.83238 64.6404C6.14104 64.4571 6.44969 64.2641 6.75835 64.0518C6.76799 64.0518 6.78728 64.0422 6.80657 64.0229C13.7224 59.6227 21.2073 53.9103 28.1231 48.246C29.7532 46.9048 31.364 45.5538 32.9266 44.2415C32.9651 44.2029 33.0134 44.2415 32.9844 44.2994C32.9073 44.4152 32.8398 44.531 32.7819 44.6468C32.7529 44.695 32.724 44.7529 32.7047 44.8012C32.6372 44.9266 32.5793 45.0521 32.5311 45.1775C32.4732 45.303 32.425 45.4284 32.3961 45.5442C32.3478 45.66 32.3189 45.7854 32.2996 45.9012C32.2417 46.1232 32.2032 46.3451 32.1935 46.567C32.1742 46.6925 32.1646 46.8179 32.1646 46.9337C32.1646 47.0688 32.1742 47.2039 32.1839 47.339C32.1839 47.4644 32.2032 47.5899 32.2321 47.7057C32.2514 47.8215 32.2707 47.9373 32.2996 48.053C32.3285 48.1688 32.3575 48.2846 32.3961 48.4004C32.4829 48.6706 32.589 48.9408 32.7144 49.1917C32.7915 49.3557 32.8783 49.5198 32.9651 49.6742C33.0616 49.8382 33.1677 49.9926 33.2738 50.147C33.3703 50.2917 33.4764 50.4365 33.5825 50.5716C33.9586 51.054 34.3637 51.469 34.7206 51.797C34.8267 51.8935 34.9232 51.9804 35.0196 52.0672C35.444 52.4242 35.7623 52.6462 35.8202 52.6848H35.8299L53.6354 62.9807C53.6354 62.9807 53.6933 63.0097 53.7994 63.0676C55.1787 63.743 64.9496 68.3265 71.5182 65.2773V65.6343C70.8044 66.4352 69.4058 67.9695 67.4767 69.9573C67.2645 70.1696 67.0523 70.3819 66.8401 70.6038C64.1683 73.296 60.7634 76.6733 56.8377 80.0795C56.2686 80.5717 55.6996 81.0541 55.1208 81.5463C54.6964 81.9033 54.272 82.2507 53.838 82.6077C52.1018 84.0262 50.2884 85.4157 48.4172 86.7377C48.0603 86.9886 47.7035 87.2394 47.3369 87.4903C46.8064 87.857 46.2663 88.214 45.7261 88.5614V88.5711Z" fill="#FFCB04"/>
<path d="M27.39 92.1414V95.8468L6.7583 83.9297V80.2243L27.39 92.1414Z" fill="#FF6C02"/>
<path d="M149.675 22.0864C149.801 23.9294 149.646 25.7242 149.646 26.4383L149.608 28.9279" stroke="black" stroke-width="0.4" stroke-miterlimit="10"/>
<path d="M146.958 38.7725V38.7606H146.946" stroke="black" stroke-width="0.4" stroke-miterlimit="10"/>
<path d="M147.399 39.272C147.341 39.1948 147.283 39.1176 147.216 39.0501C147.216 39.0404 147.197 39.0211 147.177 39.0115" stroke="black" stroke-width="0.4" stroke-miterlimit="10"/>
<path d="M149.608 28.9278L149.396 41.8291L149.338 45.0231C149.338 45.9108 149.068 46.76 148.576 47.4644C148.779 46.4416 148.885 45.4284 148.885 44.4538V44.2897C148.885 44.0678 148.875 43.8459 148.856 43.6336V43.6143C148.836 43.3537 148.817 43.0932 148.779 42.852C148.75 42.6204 148.711 42.3984 148.663 42.1862C148.634 42.0318 148.605 41.8774 148.557 41.7326C148.537 41.6265 148.509 41.5203 148.47 41.4239C148.431 41.2695 148.383 41.1247 148.325 40.98C148.277 40.8449 148.219 40.7098 148.161 40.5844C148.055 40.3238 147.93 40.0729 147.785 39.8413C147.718 39.7159 147.64 39.6098 147.563 39.494C147.525 39.4457 147.496 39.3878 147.448 39.3396" stroke="black" stroke-width="0.4" stroke-miterlimit="10"/>
<path d="M108.817 3.80065L110.004 3.11554C113.939 0.847921 118.791 0.847921 122.726 3.11554L145.914 16.509C146.29 16.7309 146.705 17.0204 147.119 17.3774C147.987 18.1011 148.846 19.0661 149.27 20.0021C149.396 20.2723 149.483 20.5328 149.531 20.7837C149.598 21.2179 149.647 21.6521 149.675 22.0863" stroke="black" stroke-width="0.4" stroke-miterlimit="10"/>
<path d="M29.9268 90.2404V90.2523" stroke="black" stroke-width="0.4" stroke-miterlimit="10"/>
<path d="M43.4209 89.4106C43.6524 89.343 43.8839 89.2658 44.1057 89.1886C44.2022 89.1597 44.2986 89.1307 44.3951 89.0921" stroke="black" stroke-width="0.4" stroke-miterlimit="10"/>
<path d="M45.6971 88.5903C45.2727 88.764 44.8386 88.9281 44.4046 89.0825C44.3081 89.1211 44.2117 89.15 44.1152 89.1886" stroke="black" stroke-width="0.4" stroke-miterlimit="10"/>
<path d="M40.4211 90.1827C40.4211 90.1827 40.5182 90.1633 40.5667 90.1439" stroke="black" stroke-width="0.4" stroke-miterlimit="10"/>
<path d="M39.7942 90.2886C39.7171 90.3079 39.6399 90.3176 39.5627 90.3272" stroke="black" stroke-width="0.4" stroke-miterlimit="10"/>
<path d="M39.167 90.3954C39.167 90.3954 39.1772 90.3954 39.1874 90.3852" stroke="black" stroke-width="0.4" stroke-miterlimit="10"/>
<path d="M39.1676 90.3948C39.1676 90.3948 39.1094 90.4045 39.0803 90.4045" stroke="black" stroke-width="0.4" stroke-miterlimit="10"/>
<path d="M38.926 90.4237C38.5306 90.4816 38.1351 90.5299 37.73 90.5685" stroke="black" stroke-width="0.4" stroke-miterlimit="10"/>
<path d="M126.517 52.2505C126.555 51.9707 126.613 51.6909 126.661 51.4303" stroke="black" stroke-width="0.4" stroke-miterlimit="10"/>
<path d="M105.046 71.7328C105.046 72.6012 105.036 73.1223 105.036 73.1223L107.284 71.8293L115.54 67.0624L126.854 60.5298" stroke="black" stroke-width="0.4" stroke-miterlimit="10"/>
<path d="M103.281 48.7382C103.281 48.7382 104.467 48.9504 104.892 51.604" stroke="black" stroke-width="0.4" stroke-miterlimit="10"/>
<path d="M127.115 30.9542C126.565 30.6937 126.15 30.5682 126.15 30.5682" stroke="black" stroke-width="0.4" stroke-miterlimit="10"/>
<path d="M129.816 33.5403C129.796 33.4438 129.758 33.3473 129.709 33.2508" stroke="black" stroke-width="0.4" stroke-miterlimit="10"/>
<path d="M130.037 43.7301C130.356 43.3248 130.558 43.1125 130.558 43.1125C130.558 43.1125 130.539 42.823 130.51 42.3309" stroke="black" stroke-width="0.4" stroke-miterlimit="10"/>
<path d="M146.512 38.3758C146.512 38.3758 146.502 38.3557 146.492 38.3457" stroke="black" stroke-width="0.4" stroke-miterlimit="10"/>
<path d="M148.865 44.9652C148.798 45.7275 148.537 46.4416 148.113 47.0495C148.316 46.0267 148.422 45.0135 148.422 44.0389C148.422 43.759 148.422 43.4792 148.393 43.2187V43.1994C148.373 42.9388 148.354 42.6783 148.316 42.4371C148.287 42.2055 148.248 41.9835 148.2 41.7713C148.171 41.6169 148.142 41.4625 148.094 41.3177C148.074 41.2116 148.045 41.1054 148.007 41.0089C147.968 40.8546 147.92 40.7098 147.862 40.5651C147.814 40.43 147.756 40.2949 147.698 40.1694C147.592 39.9089 147.467 39.658 147.322 39.4264C147.255 39.301 147.177 39.1949 147.1 39.0791C146.994 38.9247 146.878 38.7703 146.753 38.6352C146.714 38.5773 146.666 38.529 146.618 38.4808C146.599 38.4518 146.57 38.4229 146.541 38.4036" stroke="black" stroke-width="0.4" stroke-miterlimit="10"/>
<path d="M108.354 3.38576L109.541 2.70065C113.476 0.433034 118.328 0.433034 122.263 2.70065L145.451 16.0941C145.962 16.3932 146.56 16.8467 147.119 17.3775C147.814 18.0336 148.46 18.8152 148.807 19.5872C148.933 19.8574 149.02 20.1179 149.068 20.3688C149.135 20.803 149.184 21.2372 149.213 21.6715C149.232 21.8934 149.241 22.1153 149.241 22.3373C149.299 23.9391 149.184 25.3961 149.184 26.0234L149.145 28.5129V28.6963L148.933 41.4142L148.885 44.2898V44.4538" stroke="black" stroke-width="0.4" stroke-miterlimit="10"/>
<path d="M87.6162 40.1695L88.2046 39.5808" stroke="black" stroke-width="0.4" stroke-miterlimit="10"/>
<path d="M45.7261 88.5807C46.2662 88.2333 46.8064 87.8666 47.3369 87.5" stroke="black" stroke-width="0.4" stroke-miterlimit="10"/>
<path d="M40.884 90.0764C41.2023 90.0185 41.511 89.9413 41.8196 89.8641" stroke="black" stroke-width="0.4" stroke-miterlimit="10"/>
<path d="M40.2861 90.2019C40.2861 90.2019 40.3734 90.1922 40.422 90.1825C40.4317 90.1825 40.4317 90.1825 40.4317 90.1825" stroke="black" stroke-width="0.4" stroke-miterlimit="10"/>
<path d="M32.7722 90.6168C33.2063 90.6554 33.65 90.6843 34.0937 90.694" stroke="black" stroke-width="0.4" stroke-miterlimit="10"/>
<path d="M1 74.9943V73.9425C1 71.5109 1.72341 69.3301 2.95803 67.5449C2.99662 67.487 3.06414 67.5256 3.06414 67.5739" stroke="black" stroke-width="0.4" stroke-miterlimit="10"/>
<path d="M71.0261 81.8743C70.8718 81.7778 70.7271 81.691 70.5535 81.6138" stroke="black" stroke-width="0.4" stroke-miterlimit="10"/>
<path d="M73.7464 86.6701C73.7174 86.4289 73.6788 86.1876 73.6306 85.9657" stroke="black" stroke-width="0.4" stroke-miterlimit="10"/>
<path d="M73.8524 88.2816C73.8524 88.0017 73.8428 87.7219 73.8235 87.4614" stroke="black" stroke-width="0.4" stroke-miterlimit="10"/>
<path d="M101.274 49.8961C102.75 49.0469 104.621 49.925 104.892 51.604C104.92 51.7391 104.94 51.8742 104.949 52.019C104.969 52.1251 104.978 52.2216 104.988 52.3374C105.017 52.5593 105.027 52.8006 105.036 53.0515C105.123 55.1357 105.123 60.4526 105.094 65.0843C105.094 66.7923 105.075 68.3941 105.065 69.7257C105.056 70.1599 105.056 70.5652 105.056 70.9319C105.046 71.2214 105.046 71.4915 105.046 71.7328C105.036 72.6012 104.573 73.3925 103.831 73.8171L77.5466 89.0053L76.2541 89.7483L75.6753 90.086L73.6305 91.2729C73.6305 91.2729 73.563 91.2729 73.563 91.2343" stroke="black" stroke-width="0.4" stroke-miterlimit="10"/>
<path d="M83.9318 59.9315C83.9318 59.9315 83.9125 59.8736 83.9415 59.864L84.6649 59.449" stroke="black" stroke-width="0.4" stroke-miterlimit="10"/>
<path d="M76.8329 61.7359C76.7268 61.9386 76.5821 62.1219 76.4084 62.2859" stroke="black" stroke-width="0.4" stroke-miterlimit="10"/>
<path d="M81.8871 53.9295L78.6655 59.3525V59.3622" stroke="black" stroke-width="0.4" stroke-miterlimit="10"/>
<path d="M125.793 29.6901C125.793 29.6901 125.755 29.6033 125.735 29.5647C125.706 29.4779 125.668 29.391 125.639 29.3042" stroke="black" stroke-width="0.4" stroke-miterlimit="10"/>
<path d="M126.854 60.5298C126.439 58.7157 126.266 57.0174 126.266 55.4542C126.266 55.1068 126.275 54.7594 126.295 54.4217C126.304 54.0261 126.333 53.6497 126.382 53.2734C126.42 52.926 126.459 52.5883 126.517 52.2506C126.555 51.9707 126.603 51.7005 126.661 51.4304C126.7 51.2277 126.738 51.0251 126.796 50.8224C126.835 50.6198 126.883 50.4268 126.941 50.2435C126.999 49.9733 127.076 49.7128 127.163 49.4619C127.221 49.2496 127.288 49.0469 127.365 48.854C127.443 48.6031 127.529 48.3618 127.626 48.1302C127.684 47.9662 127.751 47.8118 127.819 47.6574C127.983 47.2618 128.147 46.8855 128.33 46.5284C128.426 46.3354 128.523 46.1521 128.61 45.9784C129.034 45.1872 129.449 44.5503 129.786 44.0871C129.873 43.9713 129.95 43.8652 130.018 43.7687C130.028 43.759 130.037 43.7397 130.037 43.7301C130.346 43.3248 130.51 42.8231 130.51 42.3309C130.51 42.273 130.5 42.2248 130.5 42.1669C130.471 41.752 130.442 41.2212 130.404 40.623C130.394 40.4493 130.384 40.2659 130.365 40.0826C130.327 39.4457 130.278 38.7703 130.23 38.0948C130.22 37.8439 130.201 37.593 130.182 37.3518L130.153 36.9755C130.085 36.0588 130.018 35.2096 129.96 34.5438C129.95 34.4087 129.931 34.2736 129.921 34.1578C129.921 34.1 129.921 34.0421 129.912 33.9938C129.893 33.8491 129.873 33.714 129.825 33.5789C129.825 33.5596 129.825 33.5499 129.815 33.5403C129.786 33.4438 129.758 33.3376 129.709 33.2508C129.642 33.0868 129.565 32.9324 129.468 32.7973C129.391 32.6718 129.314 32.5657 129.217 32.4595C129.063 32.2762 128.899 32.1122 128.725 31.9674C128.619 31.8613 128.504 31.7744 128.388 31.6876C128.311 31.6393 128.234 31.5814 128.156 31.5332C128.021 31.4367 127.896 31.3595 127.761 31.2823C127.703 31.2534 127.655 31.2148 127.597 31.1955C127.481 31.1279 127.375 31.07 127.269 31.0218C127.211 30.9928 127.163 30.9639 127.115 30.9542C127.086 30.9349 127.057 30.9156 127.028 30.906C126.517 30.6744 126.083 30.2788 125.832 29.7867" stroke="black" stroke-width="0.4" stroke-miterlimit="10"/>
<path d="M129.439 51.247C129.227 51.9707 129.054 52.7041 128.928 53.4181C128.764 54.3348 128.677 55.2515 128.677 56.1296C128.677 56.6893 128.716 57.2104 128.783 57.7121C128.783 57.7121 128.783 57.7218 128.774 57.7218C128.33 58.5902 127.993 59.2464 127.549 60.1148" stroke="black" stroke-width="0.4" stroke-miterlimit="10"/>
<path d="M134.686 42.0511C134.031 42.7651 133.423 43.5274 132.844 44.338C132.468 44.8783 132.111 45.4284 131.764 45.9977" stroke="black" stroke-width="0.4" stroke-miterlimit="10"/>
<path d="M39.2153 90.3852H39.2251H39.2543" stroke="black" stroke-width="0.4" stroke-miterlimit="10"/>
<path d="M44.395 89.0922C44.395 89.0922 44.4338 89.0922 44.4532 89.0728" stroke="black" stroke-width="0.4" stroke-miterlimit="10"/>
<path d="M126.15 30.5682C126.498 31.3113 126.382 32.1797 125.832 32.7876C125.832 32.7876 125.552 33.0867 125.128 33.5692L124.655 34.0903C124.607 34.1385 124.559 34.1964 124.511 34.2447C121.569 37.4386 118.164 40.1791 114.393 42.3406L103.281 48.7381L101.275 49.8961L85.8129 58.7832L84.6651 59.449C83.5945 56.2358 81.8872 53.9295 81.8872 53.9295L85.5718 47.7346C85.5718 47.7346 85.6393 47.5706 85.8129 47.2618C85.8419 47.2135 85.8708 47.1653 85.8997 47.1074C86.382 46.2389 87.4816 44.531 89.5554 42.4178C90.0087 41.9546 90.5006 41.4818 91.0504 40.98C92.2754 39.88 93.7512 38.7124 95.5259 37.5158C95.7671 37.3518 96.0082 37.1974 96.259 37.0334L96.2976 37.0044C96.9728 36.5605 97.6769 36.1263 98.4292 35.6921L103.281 32.8938L105.866 31.3981L111.566 28.1655L114.296 26.5444C114.296 26.5444 114.315 26.5348 114.325 26.5348C114.373 26.5348 114.431 26.5058 114.479 26.4962C116.244 26.0523 118.058 25.869 119.881 25.9269H120.161C121.193 26.0234 122.958 25.9655 124.077 26.062C124.125 26.062 124.163 26.0813 124.212 26.1199C124.25 26.1392 124.279 26.1681 124.308 26.2067C124.356 26.2453 124.395 26.3032 124.433 26.3611C124.472 26.419 124.52 26.4962 124.559 26.5734C124.626 26.6988 124.694 26.8339 124.761 26.9883C124.8 27.0655 124.839 27.1427 124.868 27.2295C124.925 27.3839 124.993 27.5383 125.051 27.7024C125.244 28.2041 125.446 28.7638 125.639 29.3042C125.687 29.4393 125.736 29.5647 125.793 29.6901C125.793 29.7191 125.813 29.7577 125.832 29.7866C125.929 30.0665 126.044 30.327 126.15 30.5682Z" stroke="black" stroke-width="0.4" stroke-miterlimit="10"/>
<path d="M83.7294 45.3801C83.7294 45.3801 83.7294 45.3705 83.7391 45.3608C83.7391 45.3415 83.7487 45.3319 83.7584 45.3126C83.7776 45.274 83.7969 45.2161 83.8355 45.1485C83.903 45.0231 83.9995 44.8397 84.1249 44.6178C84.2117 44.4731 84.3081 44.2994 84.4335 44.116C84.4914 44.0292 84.5589 43.9327 84.6264 43.8266C84.6747 43.7494 84.7325 43.6625 84.7904 43.5757C85.0508 43.1897 85.3595 42.7651 85.7453 42.2826C85.8707 42.1186 86.0057 41.9546 86.1504 41.7905C86.4205 41.4624 86.7292 41.1054 87.086 40.7291C87.1729 40.6326 87.25 40.5457 87.3465 40.4493C87.4333 40.3528 87.5201 40.2659 87.6166 40.1694C87.7998 39.9764 87.9927 39.7738 88.2049 39.5808C88.6486 39.1466 89.1309 38.6931 89.6614 38.2395C89.97 37.9693 90.298 37.6895 90.6452 37.4097C91.2625 36.8983 91.9377 36.3868 92.6611 35.8658C93.8379 35.0166 95.169 34.1578 96.6544 33.299L110.939 25.0487L113.65 23.4759H113.659C116.707 22.7618 123.006 21.9899 135.863 21.5653L136.953 21.5267C136.953 21.5267 137.136 21.4784 137.04 21.3144C136.249 19.9442 131.532 13.151 112.338 5.20949C111.209 4.73667 110.042 4.27349 108.817 3.80067H108.808C104.593 3.3182 99.6445 4.05156 95.0339 5.20949C93.5389 5.58582 92.0728 6.00074 90.6838 6.43497C84.993 8.21047 80.4596 10.2465 79.4661 10.7C79.4275 10.7193 79.3986 10.7386 79.3697 10.7483C79.3021 10.7772 79.2732 10.7965 79.2732 10.7965L64.2648 19.4617L58.8248 22.6074L55.0823 24.7689L53.7126 25.5602L53.6934 25.5795C53.0857 25.9654 52.3912 26.4865 51.7257 27.0655C51.6485 27.1234 51.581 27.1813 51.5135 27.2392C50.1245 28.4357 48.8417 29.748 48.4462 30.1244C46.5557 31.9191 44.3855 34.1385 40.3247 37.8053" stroke="black" stroke-width="0.4" stroke-miterlimit="10"/>
<path d="M72.0679 65.0167H72.0775L83.5171 45.7372" stroke="black" stroke-width="0.4" stroke-miterlimit="10"/>
<path d="M32.5313 45.1872C32.4831 45.303 32.4348 45.4284 32.3963 45.5538C32.3577 45.6696 32.3287 45.7951 32.2998 45.9109" stroke="black" stroke-width="0.4" stroke-miterlimit="10"/>
<path d="M36.2638 41.3949C36.1095 41.53 35.9552 41.6651 35.7912 41.8099C35.5018 42.0607 35.2028 42.3213 34.8942 42.5818C34.3444 43.0546 33.7657 43.5468 33.1676 44.0485C33.1676 44.0485 33.1676 44.0582 33.158 44.0582C33.1001 44.145 33.0422 44.2222 32.9844 44.3091" stroke="black" stroke-width="0.4" stroke-miterlimit="10"/>
<path d="M55.2461 105.294L55.0532 105.409" stroke="black" stroke-width="0.4" stroke-miterlimit="10"/>
<path d="M130.578 61.7938L130.5 61.8326" stroke="black" stroke-width="0.4" stroke-miterlimit="10"/>
<path d="M55.5839 105.68H55.5935C57.4262 107.494 60.397 107.648 63.744 105.708C68.4703 102.978 72.4346 96.9757 73.5438 91.3211C73.5534 91.2922 73.5534 91.2632 73.5631 91.2343C73.6499 90.7518 73.7271 90.2597 73.7753 89.7869C73.7946 89.5746 73.8139 89.3623 73.8235 89.15C73.8428 88.8605 73.8524 88.571 73.8524 88.2816C73.8524 87.9921 73.8428 87.7315 73.8235 87.4613V87.4421C73.8042 87.1815 73.7849 86.921 73.7463 86.6701C73.7174 86.4289 73.6788 86.1973 73.6306 85.9657C73.621 85.9464 73.621 85.9367 73.6113 85.9174C73.5631 85.6859 73.5052 85.4639 73.4473 85.2516C73.3895 85.0586 73.3219 84.8753 73.2544 84.7016C73.2255 84.6051 73.1869 84.5086 73.1387 84.4121C73.129 84.3832 73.1194 84.3542 73.1001 84.3253C73.0229 84.1419 72.9361 83.9779 72.8397 83.8139C72.8011 83.7367 72.7625 83.6595 72.7143 83.5823C72.666 83.5051 72.6178 83.4279 72.5696 83.3603C72.4828 83.2349 72.396 83.1191 72.3092 83.0033C72.1838 82.8489 72.0584 82.7138 71.9233 82.5787C71.6533 82.3085 71.3543 82.0673 71.036 81.8743H71.0263C70.872 81.7778 70.7177 81.691 70.5537 81.6138H70.544C70.3994 81.5366 70.245 81.4787 70.0811 81.4208C70.0521 81.4111 70.0232 81.4015 69.9846 81.3918C69.8206 81.334 69.647 81.2857 69.4734 81.2568C69.3191 81.2182 69.1744 81.1989 69.0201 81.1796C68.9525 81.1699 68.885 81.1603 68.8175 81.1603C68.6439 81.141 68.4703 81.1313 68.287 81.1313C66.9173 81.1313 65.3741 81.5752 63.744 82.5208C58.9309 85.3095 54.9087 91.4755 53.8863 97.2266C53.7223 98.1529 53.6355 99.06 53.6355 99.9477C53.6355 100.478 53.6644 100.99 53.732 101.472C53.7512 101.656 53.7802 101.839 53.8188 102.013C53.8477 102.215 53.8959 102.408 53.9442 102.601V102.621L53.9538 102.63C54.2239 103.692 54.6579 104.57 55.2366 105.274" stroke="black" stroke-width="0.4" stroke-miterlimit="10"/>
<path d="M55.2461 105.294H55.2557C55.3136 105.371 55.3811 105.448 55.439 105.525" stroke="black" stroke-width="0.4" stroke-miterlimit="10"/>
<path d="M70.7949 85.2034H70.8046C70.8432 85.2516 70.8721 85.2902 70.901 85.3385C70.9203 85.3578 70.93 85.3674 70.93 85.3867C70.9975 85.4639 71.0457 85.5411 71.0843 85.628C71.1325 85.6955 71.1711 85.7631 71.2 85.8306C71.2386 85.8982 71.2675 85.9657 71.3061 86.0429C71.3544 86.1297 71.3929 86.2166 71.4219 86.3034C71.4605 86.3903 71.499 86.4868 71.528 86.5736C71.5762 86.6991 71.6148 86.8149 71.6534 86.9499C71.692 87.0754 71.7305 87.2105 71.7595 87.3552C71.7788 87.4324 71.7884 87.5193 71.8077 87.5965C71.8656 87.8859 71.9138 88.1947 71.9331 88.5228C71.9427 88.6096 71.9524 88.6965 71.9524 88.7833C71.962 88.9763 71.9717 89.1693 71.9717 89.3623C71.9717 90.3562 71.8366 91.3983 71.5859 92.4405C71.4508 92.9905 71.2868 93.5502 71.0939 94.1002" stroke="black" stroke-width="0.4" stroke-miterlimit="10"/>
<path d="M70.5825 84.9332C70.5825 84.9332 70.6307 84.9815 70.6597 85.0104C70.6886 85.0587 70.7272 85.1069 70.7658 85.1552C70.7658 85.1552 70.7658 85.1648 70.7851 85.1841" stroke="black" stroke-width="0.4" stroke-miterlimit="10"/>
<path d="M70.322 84.663H70.3317C70.3317 84.663 70.3705 84.7018 70.3899 84.7309H70.3996" stroke="black" stroke-width="0.4" stroke-miterlimit="10"/>
<path d="M68.1519 83.6114C68.1519 83.6114 68.162 83.6012 68.1722 83.6216" stroke="black" stroke-width="0.4" stroke-miterlimit="10"/>
<path d="M56.7125 103.065C56.5775 102.881 56.4521 102.688 56.3363 102.476C56.2881 102.399 56.2495 102.322 56.211 102.244C56.0952 102.013 55.9988 101.762 55.9119 101.492C55.7866 101.115 55.6901 100.71 55.6226 100.276C55.5647 99.832 55.5261 99.3591 55.5261 98.867C55.5261 98.6451 55.5358 98.4135 55.5454 98.1819V98.1433C55.5647 97.8924 55.584 97.6319 55.6226 97.3714C55.6322 97.3135 55.6419 97.2459 55.6515 97.1784C55.6805 96.9082 55.7287 96.6283 55.7866 96.3582C55.7962 96.2906 55.8155 96.2231 55.8251 96.1555L55.9698 95.5476C56.018 95.3546 56.0759 95.152 56.1338 94.959C56.2978 94.38 56.51 93.7914 56.7415 93.2221C56.8476 92.9616 56.9537 92.701 57.079 92.4501C57.108 92.3922 57.1273 92.3343 57.1562 92.2861C57.2816 92.0063 57.4263 91.7264 57.571 91.4562C57.5999 91.3983 57.6288 91.3404 57.6578 91.2922C57.7928 91.051 57.9278 90.8097 58.0725 90.5781C58.1208 90.4913 58.169 90.4045 58.2172 90.3369C58.3137 90.1729 58.4101 90.0185 58.5162 89.8641C58.6127 89.7097 58.7188 89.5553 58.8249 89.4009C58.931 89.2465 59.0371 89.1018 59.1432 88.957C59.2589 88.8026 59.365 88.6579 59.4808 88.5132C59.5965 88.3684 59.7123 88.2333 59.828 88.0886C60.0595 87.8088 60.3006 87.5386 60.5418 87.278C60.6672 87.1429 60.7926 87.0175 60.918 86.8921" stroke="black" stroke-width="0.4" stroke-miterlimit="10"/>
<path d="M70.7852 85.1841C70.7852 85.1841 70.7948 85.1841 70.7948 85.2034C70.8334 85.2516 70.8623 85.2902 70.8913 85.3385C70.9106 85.3578 70.9202 85.3674 70.9202 85.3867C70.9781 85.4639 71.0263 85.5411 71.0745 85.628C71.1228 85.6955 71.1613 85.7631 71.1903 85.8306C71.2289 85.8982 71.2578 85.9657 71.2964 86.0429C71.3446 86.1297 71.3832 86.2166 71.4121 86.3034C71.4507 86.3903 71.4893 86.4868 71.5182 86.5736C71.5665 86.6991 71.605 86.8245 71.6436 86.9499C71.6822 87.0754 71.7208 87.2105 71.7497 87.3552C71.769 87.4324 71.7787 87.5193 71.7979 87.5965C71.8558 87.8859 71.904 88.1947 71.9233 88.5228C71.933 88.6096 71.9426 88.6965 71.9426 88.7833C71.9523 88.9763 71.9619 89.1693 71.9619 89.3623C71.9619 90.3562 71.8269 91.3983 71.5761 92.4405C71.4411 92.9905 71.2867 93.5502 71.0938 94.1002C69.7338 97.96 66.9463 101.685 63.7343 103.547C62.4032 104.319 61.1493 104.676 60.0401 104.676C59.8568 104.676 59.6832 104.666 59.5192 104.647C59.2202 104.618 58.9309 104.56 58.6608 104.464C58.6511 104.464 58.6319 104.464 58.6222 104.444C58.5643 104.435 58.4968 104.415 58.4389 104.386C58.3232 104.348 58.2074 104.29 58.0917 104.232C57.8795 104.126 57.6769 104.001 57.484 103.856C57.3683 103.769 57.2622 103.672 57.1561 103.566C56.9921 103.422 56.8474 103.248 56.7124 103.065C56.5677 102.881 56.4423 102.688 56.3266 102.476C56.2784 102.399 56.2398 102.322 56.2012 102.244C56.0854 102.013 55.989 101.762 55.9022 101.492C55.7768 101.115 55.6803 100.71 55.6128 100.276C55.5549 99.832 55.5164 99.3591 55.5164 98.867C55.5164 98.6451 55.526 98.4135 55.5356 98.1819V98.1433C55.5549 97.8924 55.5742 97.6319 55.6128 97.3713C55.6225 97.3135 55.6321 97.2459 55.6417 97.1784C55.6707 96.9082 55.7189 96.6283 55.7768 96.3582C55.7864 96.2906 55.8057 96.2231 55.8154 96.1555L55.96 95.5476C56.0083 95.3546 56.0662 95.152 56.124 94.959C56.288 94.38 56.5002 93.7914 56.7317 93.2221C56.8378 92.9615 56.9439 92.701 57.0693 92.4501C57.0982 92.3922 57.1175 92.3343 57.1464 92.2861C57.2718 92.0063 57.4165 91.7264 57.5612 91.4562C57.5901 91.3983 57.6191 91.3404 57.648 91.2922C57.783 91.051 57.9181 90.8097 58.0628 90.5781C58.111 90.4913 58.1592 90.4044 58.2075 90.3369C58.3039 90.1729 58.4004 90.0185 58.5065 89.8641C58.6029 89.7097 58.709 89.5553 58.8151 89.4009C58.9212 89.2465 59.0273 89.1018 59.1334 88.957C59.2492 88.8026 59.3553 88.6579 59.471 88.5132C59.5868 88.3684 59.7025 88.2333 59.8182 88.0886C60.0497 87.8087 60.2909 87.5386 60.532 87.278C60.6574 87.1429 60.7828 87.0175 60.9082 86.8921H60.9178C61.1686 86.6315 61.4194 86.3999 61.6798 86.1683C61.8052 86.0525 61.9403 85.9368 62.0753 85.8306C62.6154 85.3964 63.1652 85.0104 63.7343 84.6823C64.3999 84.2964 65.0365 84.0165 65.6538 83.8332C65.7406 83.8042 65.8274 83.7849 65.9142 83.7656C66.1457 83.6981 66.3675 83.6498 66.5894 83.6209C66.7341 83.6016 66.8691 83.5823 67.0041 83.5726C67.1488 83.563 67.2839 83.5533 67.4189 83.5533C67.5925 83.5533 67.7565 83.563 67.9205 83.5823C67.9976 83.5823 68.0651 83.5919 68.1423 83.6112H68.152C68.152 83.6112 68.1616 83.6112 68.1712 83.6209C68.287 83.6209 68.3931 83.6498 68.4992 83.6788H68.5088C68.7403 83.7367 68.9622 83.8042 69.1647 83.9007C69.2419 83.9297 69.3094 83.9586 69.3769 83.9972H69.3866C69.4927 84.0455 69.5795 84.1034 69.6759 84.1613C69.6856 84.1709 69.7049 84.1806 69.7242 84.1902C69.8303 84.2578 69.946 84.3349 70.0425 84.4218C70.1389 84.4893 70.2354 84.5762 70.3222 84.663H70.3318C70.3318 84.663 70.3704 84.7113 70.3897 84.7306H70.3993C70.4476 84.7885 70.4765 84.8174 70.5247 84.8657C70.544 84.885 70.5633 84.9139 70.5826 84.9332C70.6019 84.9622 70.6308 84.9815 70.6501 85.0104C70.6791 85.0587 70.7176 85.1069 70.7562 85.1551H70.7659C70.7659 85.1551 70.7659 85.1744 70.7852 85.1841Z" stroke="black" stroke-width="0.4" stroke-miterlimit="10"/>
<path d="M130.819 62.0158C132.661 63.6658 135.535 63.743 138.767 61.8807C143.502 59.1499 147.467 53.1286 148.566 47.4644C148.73 46.6153 148.836 45.7854 148.865 44.9652C148.875 44.7915 148.875 44.6275 148.875 44.4538C148.875 44.174 148.865 43.9038 148.846 43.6336V43.6143C148.827 43.3538 148.808 43.0932 148.769 42.852C148.74 42.6204 148.701 42.3985 148.653 42.1862C148.624 42.0318 148.595 41.8774 148.547 41.7326C148.528 41.6265 148.499 41.5204 148.46 41.4239C148.422 41.2695 148.373 41.1247 148.316 40.98C148.267 40.8449 148.209 40.7098 148.152 40.5844C148.036 40.3238 147.91 40.0729 147.775 39.8414C147.708 39.7159 147.631 39.6098 147.554 39.494C147.515 39.4457 147.486 39.3878 147.447 39.3396C147.428 39.3203 147.409 39.2913 147.399 39.272C147.332 39.1948 147.274 39.1176 147.206 39.0501C147.197 39.0405 147.187 39.0212 147.177 39.0115C147.148 38.9729 147.11 38.9343 147.081 38.8957C147.033 38.8475 146.994 38.8185 146.956 38.7703H146.946C146.84 38.6545 146.734 38.558 146.628 38.4711C146.599 38.4422 146.57 38.4229 146.541 38.4036C146.531 38.3843 146.522 38.3843 146.512 38.3746C146.473 38.3457 146.425 38.3071 146.386 38.2878C146.28 38.2009 146.174 38.1238 146.059 38.0562C145.904 37.9597 145.74 37.8729 145.567 37.7957C145.432 37.7281 145.277 37.6606 145.123 37.6123C145.084 37.593 145.036 37.5834 144.988 37.5641C144.834 37.5158 144.67 37.4676 144.496 37.4386C144.351 37.4 144.197 37.3807 144.043 37.3614C143.975 37.3518 143.908 37.3421 143.84 37.3421C143.666 37.3229 143.493 37.3132 143.31 37.3132C141.94 37.3132 140.397 37.7571 138.767 38.7027C137.571 39.3975 136.423 40.3045 135.352 41.366C135.121 41.5879 134.899 41.8195 134.687 42.0511C134.031 42.7651 133.413 43.5274 132.844 44.338C132.458 44.8687 132.102 45.4284 131.764 45.9977C131.426 46.5767 131.108 47.1556 130.819 47.7539C130.626 48.1495 130.442 48.5452 130.269 48.9504C130.095 49.3557 129.941 49.761 129.796 50.1663C129.661 50.5233 129.545 50.89 129.439 51.247C129.218 51.9707 129.044 52.7041 128.919 53.4181C128.755 54.3348 128.668 55.2515 128.668 56.1296C128.668 56.6893 128.706 57.22 128.774 57.7218C128.841 58.2621 128.957 58.7639 129.102 59.2271" stroke="black" stroke-width="0.4" stroke-miterlimit="10"/>
<path d="M139.75 40.3624C139.914 40.2852 140.078 40.2273 140.233 40.1694" stroke="black" stroke-width="0.4" stroke-miterlimit="10"/>
<path d="M130.655 56.4309V56.4191" stroke="black" stroke-width="0.4" stroke-miterlimit="10"/>
<path d="M131.089 58.0788C131.012 57.8858 130.934 57.6928 130.876 57.4805" stroke="black" stroke-width="0.4" stroke-miterlimit="10"/>
<path d="M140.233 40.1694C140.387 40.1115 140.541 40.0537 140.696 40.0151C140.821 39.9765 140.937 39.9475 141.053 39.9186C141.11 39.8993 141.168 39.8896 141.226 39.88C141.313 39.851 141.409 39.8317 141.496 39.8221C141.602 39.8028 141.708 39.7835 141.815 39.7835C142.21 39.7256 142.596 39.7159 142.953 39.7642C143.03 39.7642 143.097 39.7738 143.165 39.7931C143.29 39.7931 143.406 39.8317 143.522 39.8607C143.522 39.8607 143.541 39.851 143.541 39.8607C143.657 39.8896 143.773 39.9186 143.879 39.9572C143.985 39.9861 144.091 40.0344 144.187 40.0826C144.207 40.0826 144.216 40.0826 144.226 40.0922C144.274 40.1115 144.322 40.1309 144.371 40.1598C144.467 40.1984 144.563 40.2466 144.65 40.3142C144.699 40.3431 144.737 40.3624 144.785 40.401C144.988 40.5168 145.181 40.6712 145.354 40.8449C145.393 40.8739 145.422 40.9028 145.451 40.9414C145.489 40.98 145.518 41.0089 145.547 41.0475C145.644 41.144 145.731 41.2502 145.808 41.3563C145.991 41.5976 146.155 41.8581 146.3 42.1476C146.358 42.273 146.415 42.3985 146.464 42.5239C146.579 42.7941 146.676 43.0836 146.743 43.3924C146.772 43.4985 146.801 43.6046 146.821 43.7108C146.888 44.0292 146.936 44.3573 146.956 44.7047C146.965 44.7915 146.975 44.8784 146.975 44.9652C146.984 45.1582 146.994 45.3512 146.994 45.5442C146.994 46.7214 146.801 47.9565 146.454 49.2013C145.277 53.4374 142.277 57.6928 138.767 59.7192C136.934 60.7807 135.256 61.0701 133.886 60.6938H133.876C133.741 60.6552 133.606 60.607 133.471 60.5587C133.336 60.5105 133.211 60.4526 133.095 60.385C133.037 60.3657 132.979 60.3368 132.931 60.2982C132.815 60.2306 132.7 60.1631 132.593 60.0763C132.497 60.0087 132.41 59.9412 132.323 59.864H132.314L132.188 59.7385C132.188 59.7385 132.13 59.6903 132.111 59.6613C132.034 59.5841 131.957 59.5069 131.889 59.4201C131.667 59.1596 131.465 58.8604 131.301 58.5323C131.301 58.5227 131.301 58.5227 131.301 58.513C131.224 58.3779 131.166 58.2236 131.098 58.0788C131.021 57.8858 130.954 57.6928 130.886 57.4805C130.867 57.4227 130.848 57.3551 130.838 57.2972C130.78 57.1042 130.741 56.9016 130.703 56.6989C130.684 56.6121 130.674 56.5156 130.664 56.4288V56.4191V56.3998C130.655 56.3516 130.645 56.313 130.655 56.2647C130.635 56.1682 130.626 56.0814 130.616 55.9849C130.606 55.9656 130.606 55.9463 130.616 55.927C130.606 55.8787 130.597 55.8208 130.597 55.7726C130.578 55.5314 130.568 55.2901 130.568 55.0392C130.568 54.8173 130.578 54.5954 130.587 54.3734V54.3155C130.587 54.1708 130.606 54.0357 130.626 53.891C130.635 53.7366 130.655 53.5725 130.684 53.4085C130.722 53.119 130.77 52.8295 130.828 52.5304C130.828 52.4918 130.828 52.4532 130.857 52.4049C130.905 52.1348 130.973 51.8549 131.05 51.5751C131.233 50.8707 131.475 50.1566 131.754 49.4619C131.86 49.211 131.957 48.9697 132.073 48.7285C132.111 48.6417 132.15 48.5452 132.198 48.4583C132.217 48.4101 132.237 48.3618 132.265 48.3136C132.275 48.2943 132.285 48.2653 132.294 48.246C132.41 48.0241 132.516 47.8022 132.642 47.5802L132.7 47.4644C132.825 47.2425 132.95 47.0206 133.076 46.8083C133.134 46.7118 133.191 46.6056 133.259 46.5091C133.355 46.3451 133.462 46.1811 133.568 46.017C133.664 45.8723 133.761 45.7179 133.867 45.5731C134.079 45.274 134.291 44.9749 134.523 44.6854C134.629 44.5406 134.744 44.3959 134.87 44.2608C135.217 43.8362 135.584 43.4406 135.96 43.0643C136.085 42.9388 136.22 42.8134 136.346 42.6976C136.741 42.3213 137.146 41.9835 137.561 41.6748C137.667 41.5976 137.783 41.5107 137.889 41.4335C138.188 41.2309 138.487 41.0379 138.786 40.8642C139.123 40.6712 139.451 40.5072 139.77 40.3624C139.934 40.2949 140.088 40.2273 140.252 40.1694H140.233Z" stroke="black" stroke-width="0.4" stroke-miterlimit="10"/>
<path d="M53.9439 102.63C54.2139 103.701 54.648 104.579 55.2363 105.274C55.2363 105.274 55.2396 105.281 55.246 105.294C55.3039 105.371 55.3714 105.448 55.4389 105.525C55.4871 105.583 55.5354 105.631 55.5836 105.68L55.5546 105.699L55.0531 105.409L52.1016 103.701" stroke="black" stroke-width="0.4" stroke-miterlimit="10"/>
<path d="M1 74.9943V83.4568C1 83.8814 1.02894 84.2963 1.09645 84.7113C1.38582 86.6797 2.35037 88.4745 3.82613 89.7772C4.26018 90.1728 4.74245 90.5202 5.25366 90.8194L30.8239 105.602C31.0554 105.718 31.2868 105.834 31.5183 105.94C39.6013 109.23 46.4881 106.702 47.7613 106.172C47.8964 106.123 48.0218 106.056 48.1375 105.988L51.6581 103.952L52.0922 103.701H52.1018L53.9345 102.64H53.9441" stroke="black" stroke-width="0.4" stroke-miterlimit="10"/>
<path d="M126.854 60.5297L127.539 60.1244H127.549M127.549 60.1244L129.102 59.2271C129.43 60.2788 129.931 61.1473 130.577 61.7938C130.655 61.871 130.732 61.9482 130.819 62.0157L130.5 61.8324L127.549 60.1244Z" stroke="black" stroke-width="0.4" stroke-miterlimit="10"/>
<path d="M71.5182 65.644C70.8044 66.4449 69.4058 67.9791 67.4767 69.9669C67.2645 70.1792 67.0523 70.3915 66.8401 70.6134C64.1683 73.3056 60.7634 76.6829 56.8377 80.0892C56.2686 80.5813 55.6996 81.0638 55.1208 81.5559C54.6964 81.9129 54.272 82.2603 53.838 82.6173C52.1018 84.0358 50.2884 85.4253 48.4172 86.7473C48.0603 86.9982 47.7035 87.2491 47.3369 87.4999C46.8064 87.8666 46.2663 88.2237 45.7261 88.571C45.7261 88.571 45.7165 88.5807 45.7068 88.5903H45.6875C45.2921 88.764 44.887 88.9184 44.4819 89.0632C44.4722 89.0632 44.4626 89.0728 44.4529 89.0728C44.4336 89.0824 44.4143 89.0825 44.3951 89.0921C44.0768 89.2175 43.7488 89.314 43.4209 89.4105C43.3823 89.4298 43.3437 89.4395 43.3051 89.4491C43.1797 89.4877 43.0543 89.5263 42.9193 89.5649C42.8711 89.5842 42.8132 89.6035 42.7553 89.6132C42.4467 89.7097 42.138 89.7869 41.8197 89.8641C41.511 89.9412 41.2024 90.0088 40.8841 90.0763C40.8455 90.086 40.7973 90.0956 40.7587 90.1053C40.7008 90.1246 40.6333 90.1342 40.5658 90.1439C40.5176 90.1535 40.479 90.1632 40.4308 90.1728L40.2861 90.2018C40.2861 90.2018 40.2378 90.2114 40.2186 90.2114C40.0835 90.2404 39.9388 90.2693 39.7942 90.2886C39.7749 90.2886 39.7459 90.3079 39.717 90.3079C39.6688 90.3176 39.6109 90.3272 39.5627 90.3272C39.5241 90.3272 39.4758 90.3465 39.4373 90.3465C39.3794 90.3562 39.3119 90.3658 39.254 90.3755C39.2444 90.3755 39.2347 90.3755 39.2154 90.3755H39.1865C39.1865 90.3755 39.119 90.3851 39.0804 90.3948C39.0322 90.4044 38.9743 90.4141 38.9261 90.4141C38.8682 90.4237 38.8007 90.4334 38.7428 90.443C38.4052 90.4913 38.0676 90.5299 37.73 90.5588C36.5243 90.6843 35.3186 90.7229 34.113 90.6843C34.1033 90.6843 34.0937 90.6843 34.0937 90.6843C33.6596 90.665 33.2159 90.636 32.7722 90.6071C32.56 90.5878 32.3382 90.5685 32.1163 90.5492C31.827 90.5202 31.5376 90.4913 31.2482 90.443C30.8046 90.3851 30.3705 90.3079 29.9268 90.2307C29.8014 90.2114 29.6664 90.1921 29.541 90.1632C28.6922 89.9992 27.8434 89.7869 27.0042 89.536C26.7245 89.4491 26.4544 89.3623 26.1747 89.2754C25.895 89.179 25.6249 89.0825 25.3452 88.986C25.0751 88.8798 24.7954 88.7737 24.5253 88.6675C23.8502 88.407 23.1846 88.1079 22.5384 87.7798C22.2683 87.6543 22.0079 87.5192 21.7474 87.3745C21.4774 87.2298 21.1976 87.0754 20.9276 86.921L8.80319 79.9251C7.88687 79.3944 7.07665 78.7672 6.37253 78.0724C5.88061 77.59 5.43691 77.0592 5.05109 76.5092C4.26016 75.4092 3.69108 74.203 3.3342 72.9389C3.03519 71.8678 2.88086 70.7582 2.88086 69.6485C2.88086 69.3976 2.8905 69.1371 2.9098 68.8862C2.91944 68.616 2.94838 68.3554 2.98696 68.0949C3.00625 67.9405 3.02554 67.7958 3.05448 67.6414C3.05448 67.6124 3.05448 67.5835 3.06412 67.5642C3.07377 67.487 3.08341 67.4098 3.10271 67.3326L3.11235 67.3133C3.83576 66.2905 4.73279 65.422 5.73592 64.708C5.76486 64.6887 5.80344 64.6597 5.83238 64.6404C6.14104 64.4571 6.44969 64.2641 6.75835 64.0518C6.76799 64.0518 6.78728 64.0421 6.80657 64.0228C13.7224 59.6227 21.2073 53.9102 28.1231 48.246C29.7532 46.9047 31.364 45.5538 32.9266 44.2415C32.9651 44.2029 33.0134 44.2415 32.9844 44.2994C32.9073 44.4152 32.8398 44.531 32.7819 44.6468C32.7529 44.695 32.724 44.7529 32.7047 44.8012C32.6372 44.9266 32.5793 45.052 32.5311 45.1775C32.4732 45.3029 32.425 45.4284 32.3961 45.5442C32.3478 45.66 32.3189 45.7854 32.2996 45.9012C32.2417 46.1231 32.2032 46.3451 32.1935 46.567C32.1742 46.6924 32.1646 46.8179 32.1646 46.9337C32.1646 47.0688 32.1742 47.2039 32.1839 47.339C32.1839 47.4644 32.2032 47.5898 32.2321 47.7056C32.2514 47.8214 32.2707 47.9372 32.2996 48.053C32.3285 48.1688 32.3575 48.2846 32.3961 48.4004C32.4829 48.6706 32.589 48.9408 32.7144 49.1917C32.7915 49.3557 32.8783 49.5197 32.9651 49.6741C33.0616 49.8382 33.1677 49.9926 33.2738 50.1469C33.3703 50.2917 33.4764 50.4364 33.5825 50.5715C33.9586 51.054 34.3637 51.4689 34.7206 51.797C34.8267 51.8935 34.9232 51.9803 35.0196 52.0672C35.444 52.4242 35.7623 52.6462 35.8202 52.6848H35.8299L53.6354 62.9807C53.6354 62.9807 53.6933 63.0097 53.7994 63.0676C55.1787 63.743 64.9496 68.3265 71.5182 65.2773" stroke="black" stroke-width="0.4" stroke-miterlimit="10"/>
<path d="M72.0679 65.0168C72.0293 65.0747 71.8364 65.287 71.5181 65.644V65.287C71.7013 65.2098 71.8846 65.1133 72.0679 65.0168Z" stroke="black" stroke-width="0.4" stroke-miterlimit="10"/>
<path d="M27.39 95.8467L6.7583 83.9297V80.2243L27.39 92.1413V95.8467Z" stroke="black" stroke-width="0.4" stroke-miterlimit="10"/>
<path d="M83.7293 45.3802L83.5171 45.7275L83.7196 45.3802H83.7293Z" stroke="black" stroke-width="0.4" stroke-miterlimit="10"/>
<path d="M87.1823 64.1194C87.1726 64.1869 87.163 64.2545 87.1437 64.3317C87.134 64.3992 87.1148 64.4764 87.0955 64.5536C87.0569 64.6983 87.0183 64.8431 86.9604 64.9878C86.9315 65.065 86.9026 65.1326 86.8736 65.2001C86.7289 65.5185 86.536 65.808 86.2756 66.0396C86.2177 66.0879 86.1599 66.1361 86.0923 66.1844C86.0634 66.2037 86.0248 66.2326 85.9862 66.2519C85.8512 66.3387 85.6969 66.4063 85.5232 66.4642C85.4654 66.4835 85.4075 66.5028 85.34 66.5221C85.2628 66.5414 85.1857 66.551 85.0989 66.5607C84.5587 66.6475 83.8932 66.58 83.054 66.3194H83.0347L78.4627 63.386C78.4145 63.3571 78.3663 63.4053 78.3952 63.4439C78.7135 63.965 79.4562 65.4606 77.7008 65.644C77.7008 65.644 77.585 65.615 77.4114 65.5571C77.2956 65.5282 77.1606 65.4799 77.0063 65.4124C76.7651 65.3159 76.4951 65.1808 76.2539 65.0168C76.0321 64.8624 75.8392 64.679 75.7041 64.4667C75.6656 64.4089 75.6366 64.3606 75.6077 64.3027V64.2834C75.5787 64.2159 75.5498 64.1483 75.5402 64.0808C75.5209 64.0036 75.5112 63.9167 75.5112 63.8299C75.5112 63.772 75.5112 63.7045 75.5305 63.6369C75.5402 63.5308 75.5787 63.4246 75.6366 63.2992C75.6463 63.2509 75.6752 63.2027 75.7041 63.1544C75.7041 63.1544 75.7041 63.1448 75.7138 63.1351C75.7427 63.0869 75.7717 63.029 75.8199 62.9614C75.9549 62.7492 76.1478 62.5272 76.4083 62.286C76.5047 62.1991 76.6108 62.1026 76.7169 62.0158C76.7169 62.0158 76.7555 61.9096 76.8327 61.736C76.852 61.6974 76.8712 61.6491 76.9002 61.6009C76.9966 61.4079 77.122 61.1666 77.2956 60.8965C77.3439 60.8193 77.4017 60.7324 77.4693 60.6359C77.5271 60.5394 77.6043 60.4429 77.6815 60.3464C77.7008 60.3175 77.7297 60.2885 77.7586 60.2499C77.8165 60.1824 77.8744 60.1052 77.9419 60.0377C78.0191 59.9412 78.1059 59.8543 78.2023 59.7675C78.347 59.6227 78.5013 59.4876 78.6653 59.3622C79.6877 58.5902 81.1345 58.2043 83.0444 59.2271L83.8835 59.8929L83.9317 59.9315L86.2756 61.8228L87.2016 62.5658C87.2016 62.5658 87.2209 62.5755 87.2209 62.5851C87.2305 62.6816 87.3077 63.3571 87.1823 64.1194Z" stroke="black" stroke-width="0.4" stroke-miterlimit="10"/>
<path d="M48.4171 86.7473C48.4171 86.7473 48.9283 92.8265 44.2406 93.6563C40.0545 94.409 34.1418 94.1098 31.0938 92.9809C29.8592 92.5273 29.8399 91.0413 29.9267 90.2501" stroke="black" stroke-width="0.4" stroke-miterlimit="10"/>
<path d="M5.04146 76.5285C5.04146 76.5285 4.06727 78.2847 3.10272 77.8794C1.4244 77.1654 1 74.9943 1 74.9943" stroke="black" stroke-width="0.4" stroke-miterlimit="10"/>
<path d="M103.281 48.7382V32.8938" stroke="black" stroke-width="0.4" stroke-miterlimit="10"/>
<path d="M118.414 54.5085C118.414 54.5085 113.129 59.2754 105.094 65.0843C99.5478 69.0985 92.6705 73.6048 85.3303 77.3874" stroke="black" stroke-width="0.4" stroke-miterlimit="10"/>
<path d="M40.3247 37.8053C39.1479 38.8764 37.8072 40.0633 36.2639 41.3949L32.3382 38.6062L32.3286 38.5966C29.1938 34.785 33.9394 33.4052 34.2191 33.328C34.2287 33.328 34.2384 33.328 34.248 33.328L37.9712 35.4123L38.9068 35.9333C39.6399 36.5509 40.0932 37.1877 40.3247 37.8053Z" stroke="black" stroke-width="0.4" stroke-miterlimit="10"/>
<path d="M77.0066 65.4124L77.5467 89.0053" stroke="black" stroke-width="0.4" stroke-miterlimit="10"/>
<path d="M147.64 22.0864L129.921 34.1578L122.928 38.9247" stroke="black" stroke-width="0.4" stroke-miterlimit="10"/>
<path d="M82.9964 40.1695C82.9964 40.1695 83.0349 40.2081 83.0157 40.237L80.8261 43.8748L80.6911 44.0968L69.9171 62.0061H69.9074C68.5667 62.9518 66.763 63.2702 64.9207 63.2702C61.0239 63.2702 56.9921 61.8421 56.9439 61.8325L37.1996 50.7838C33.4185 48.2846 35.3959 44.6757 35.7238 44.1257L35.7624 44.0582H35.772L40.508 39.6291L52.9024 28.0498L52.9796 27.9726C52.9796 27.9726 53.0085 27.9533 53.0278 27.9629L53.867 28.3006H53.8766L82.9964 40.1695Z" stroke="black" stroke-width="0.4" stroke-miterlimit="10"/>
<path d="M149.676 22.0864C149.676 22.0864 149.502 22.1732 149.242 22.3373C147.882 23.1961 144.072 26.062 149.145 28.6963C149.29 28.7735 149.444 28.8507 149.608 28.9279" stroke="black" stroke-width="0.4" stroke-miterlimit="10"/>
</svg>
