<svg width="163" height="135" viewBox="0 0 163 135" fill="none" xmlns="http://www.w3.org/2000/svg">
<g clip-path="url(#clip0_46_952)">
<path d="M162.786 18.7872V64.4989C162.786 65.725 162.135 66.8483 161.073 67.4657L157.759 69.3779V69.335L159.155 68.529C159.155 68.529 159.181 68.4861 159.189 68.4689V51.1566C159.189 51.1566 159.198 51.1138 159.223 51.1052C159.249 51.088 159.275 51.0709 159.3 51.0452C159.3 51.0452 159.309 51.0452 159.318 51.0452C159.335 51.0366 159.352 51.0194 159.369 51.0109C159.472 50.9337 159.574 50.848 159.669 50.7622C159.72 50.7193 159.771 50.6679 159.814 50.6164C159.866 50.565 159.908 50.5135 159.96 50.4621C159.986 50.4364 160.003 50.4106 160.02 50.3849C160.097 50.3077 160.165 50.222 160.225 50.1277C160.354 49.939 160.457 49.7418 160.551 49.536C160.585 49.4674 160.602 49.3988 160.636 49.3302C160.688 49.193 160.731 49.0558 160.765 48.9101C160.773 48.8415 160.799 48.7643 160.808 48.6957L160.825 48.6014C160.833 48.4985 160.85 48.387 160.859 48.2841C160.859 48.1984 160.859 48.1212 160.859 48.0269V28.4423C160.859 27.4562 159.797 26.8388 158.941 27.3276L55.0983 87.359C54.8928 87.479 54.6873 87.5905 54.4903 87.7106C53.6168 88.2079 52.5292 88.6538 51.6814 89.0482C51.5358 89.1168 51.3903 89.1854 51.2532 89.254C51.1162 89.314 50.9792 89.3826 50.8507 89.4512C50.6538 89.5455 50.4654 89.6399 50.2855 89.7428C50.1913 89.7856 50.1057 89.8371 50.0286 89.8885C49.943 89.94 49.8659 89.9914 49.7803 90.0343C49.6775 90.0943 49.5748 90.1544 49.4806 90.223C49.4035 90.2744 49.335 90.3258 49.2665 90.3773C49.1894 90.4287 49.1295 90.4802 49.0695 90.5231C49.0181 90.5659 48.9582 90.6174 48.9068 90.6603C48.8554 90.7117 48.804 90.7546 48.7527 90.806C48.7013 90.8489 48.6585 90.9004 48.6156 90.9518C48.5643 91.0032 48.5214 91.0547 48.4958 91.0976L48.3844 91.2433L47.9562 90.9947C47.7678 90.8918 47.5452 90.8918 47.3654 90.9947C47.3654 90.9947 47.3482 90.9604 47.3311 90.9518C47.2968 90.9089 47.2712 90.8746 47.2369 90.8318C47.2026 90.7889 47.1855 90.7546 47.1427 90.7203C47.0656 90.6345 46.9886 90.5488 46.9115 90.4716L46.8772 90.4373C46.8002 90.3687 46.7231 90.3001 46.646 90.2401C46.5861 90.1886 46.5261 90.1372 46.4576 90.1029C46.4576 90.0943 46.4405 90.0858 46.4234 90.0772C46.2093 89.9314 45.978 89.8114 45.7297 89.717C45.6355 89.6827 45.5413 89.6484 45.4385 89.6227C45.3872 89.6056 45.3358 89.5884 45.293 89.5798C45.2159 89.5627 45.1474 89.5456 45.0617 89.5284C44.899 89.4941 44.7449 89.477 44.5736 89.477C40.1205 88.9539 36.7379 87.1103 36.7379 87.1103L10.97 72.2161C10.97 72.2161 10.97 72.2161 10.9443 72.2075C10.9443 72.2075 10.9271 72.2075 10.91 72.1989C10.8929 72.1904 10.8758 72.1904 10.8586 72.1732C10.8415 72.1732 10.8244 72.1561 10.7987 72.1389C10.7473 72.1132 10.6959 72.0875 10.636 72.0532C10.6274 72.0532 10.6017 72.0446 10.5932 72.0274C10.5418 72.0017 10.4904 71.976 10.4476 71.9503C10.3705 71.916 10.2934 71.8645 10.2078 71.8131C10.1564 71.7874 10.105 71.7616 10.0622 71.7359C9.40281 71.3158 8.63208 70.6984 8.77767 70.1324C8.78623 70.081 8.81192 70.0381 8.83761 69.9867C9.06883 69.6351 9.40281 69.2578 9.91663 68.8977C9.37712 69.4207 9.45419 70.3382 10.1393 70.7327L35.7531 85.6098C36.0785 85.7984 36.4125 85.9699 36.755 86.1157C40.0435 87.6077 43.8714 87.4362 47.0399 85.6098L162.486 18.8643L162.7 18.7443L162.777 18.7872H162.786Z" fill="#979797"/>
<path d="M162.486 18.6071C162.589 18.6585 162.589 18.8043 162.486 18.8643L47.0572 85.584C43.8886 87.4105 40.0607 87.5819 36.7723 86.09C36.4297 85.9442 36.0957 85.7727 35.7703 85.584L10.1565 70.7069C9.47144 70.3125 9.39437 69.395 9.93387 68.872C10.088 68.7519 10.2593 68.6404 10.4563 68.529L125.312 1.38911C128.052 -0.214356 131.443 -0.180057 134.149 1.45771L162.486 18.6071ZM131.606 28.1679C131.983 27.4047 131.751 26.4015 130.921 25.9213L114.461 16.412C113.931 16.1033 113.28 16.1033 112.74 16.412L87.2976 31.1176C86.467 31.5978 86.2358 32.6096 86.6126 33.3727C86.7581 33.6643 86.9808 33.9215 87.2976 34.1101L103.757 43.6195C104.288 43.9282 104.947 43.9282 105.478 43.6195L130.921 28.9053C131.238 28.7167 131.46 28.4594 131.606 28.1679ZM83.3327 56.2243C83.7609 55.444 83.5382 54.3979 82.6819 53.9005L66.2226 44.3912C65.6916 44.0825 65.0322 44.0825 64.5013 44.3912L39.0588 59.0968C38.2024 59.5941 37.9883 60.6403 38.4079 61.4206C38.5535 61.6864 38.7676 61.9179 39.0588 62.0894L55.518 71.5987C56.049 71.9074 56.6998 71.9074 57.2393 71.5987L82.6819 56.8845C82.973 56.7216 83.1871 56.4901 83.3327 56.2243Z" fill="white"/>
<path d="M160.859 28.4166V48.0012C160.859 48.0869 160.859 48.1641 160.859 48.2584C160.85 48.3613 160.833 48.4728 160.825 48.5757L160.808 48.67C160.799 48.7472 160.773 48.8158 160.765 48.8844C160.731 49.0301 160.688 49.1673 160.636 49.3045C160.602 49.3731 160.585 49.4417 160.551 49.5103C160.457 49.7161 160.354 49.9219 160.225 50.102C160.165 50.1963 160.097 50.282 160.02 50.3592C160.003 50.3935 159.986 50.4107 159.96 50.4364C159.908 50.4878 159.866 50.5393 159.814 50.5907C159.763 50.6422 159.711 50.6936 159.669 50.7365C159.574 50.8222 159.48 50.8994 159.369 50.9852C159.36 50.9937 159.335 51.0109 159.318 51.0195C159.318 51.0195 159.309 51.0195 159.3 51.0195C159.249 51.0366 159.198 51.0109 159.198 50.9509V34.2988C159.198 33.4928 158.324 32.9783 157.622 33.3727L157.297 33.5614L152.544 36.3139L148.322 38.7576C148.014 38.9291 147.825 39.255 147.825 39.6065V57.6391C147.825 57.6391 147.817 57.682 147.791 57.6991L146.395 58.5052L145.924 58.7796L145.385 59.0968L108.45 80.4478L106.129 81.7855C106.078 81.8198 106.018 81.7855 106.018 81.7254V65.1334C106.018 64.2845 105.101 63.7529 104.365 64.173L104.288 64.2245L99.6548 66.8998L95.1931 69.4722L95.1418 69.5065C94.8335 69.7123 94.6451 70.0553 94.6451 70.424V88.388V88.4223C94.6451 88.4223 94.6451 88.4251 94.6451 88.4309H94.6279V88.448L93.2321 89.254L93.018 89.3741L61.1099 107.827L59.4486 108.787V108.864H59.4314V91.775C59.4314 91.2434 58.9947 90.8575 58.5151 90.8575C58.361 90.8575 58.2068 90.8918 58.0613 90.9775L57.9499 91.0461L55.5436 92.4352L53.0858 93.8586L49.8744 95.7108V92.7182C49.8744 92.7182 49.8744 92.6668 49.8744 92.581C49.8744 92.5553 49.8744 92.5296 49.8744 92.5038C49.8573 92.2723 49.7545 91.9208 49.3778 91.6978L48.4529 91.1662L48.5642 91.0204C48.5985 90.969 48.6413 90.9175 48.6841 90.8746C48.7269 90.8318 48.7697 90.7717 48.8211 90.7289C48.8725 90.6774 48.9239 90.6345 48.9753 90.5831C49.0266 90.5402 49.078 90.4888 49.138 90.4459C49.1979 90.3945 49.2579 90.343 49.3349 90.3001C49.4034 90.2487 49.472 90.1972 49.549 90.1458C49.6432 90.0858 49.7374 90.0257 49.8487 89.9572C49.9258 89.9057 50.0115 89.8543 50.0971 89.8114C50.1742 89.7599 50.2598 89.7085 50.354 89.6656C50.5338 89.5627 50.7137 89.4684 50.9192 89.3741C51.0477 89.3055 51.1847 89.2369 51.3217 89.1769C51.4673 89.1083 51.6043 89.0397 51.7499 88.9711C52.5977 88.5766 53.6767 88.1222 54.5587 87.6334C54.7557 87.5134 54.9612 87.4019 55.1668 87.2818L158.932 27.3018C159.789 26.8131 160.85 27.4305 160.85 28.4166H160.859ZM145.359 57.5962V39.5894L108.424 60.949V78.9558L145.359 57.5962ZM92.958 87.7277V68.0059L61.05 86.4501V106.172L92.958 87.7277Z" fill="#F8F8F8"/>
<path d="M159.292 51.0366C159.292 51.0366 159.241 51.0795 159.215 51.0966C159.198 51.1052 159.181 51.1309 159.181 51.1481V68.4604C159.181 68.4604 159.155 68.4947 159.146 68.5204L157.75 69.3264L150.497 73.5194L148.527 74.6599C148.279 74.7971 148.039 74.9257 147.8 75.0457V73.1422L148.587 72.6877L152.518 70.4154L155.841 68.4947L157.271 67.6629V33.5785L157.596 33.3899C158.299 32.9954 159.172 33.5099 159.172 34.3159V50.968C159.172 51.0194 159.223 51.0537 159.275 51.0366H159.292Z" fill="#FFCB04"/>
<path d="M157.759 69.3264V69.3693L146.378 75.9547L139.33 80.0276C139.33 79.8304 139.33 79.6418 139.33 79.4446V74.1968C139.33 73.3994 138.773 72.7992 138.097 72.6362C137.72 72.5419 137.318 72.5934 136.941 72.8077L135.956 73.3737L127.358 78.347C126.998 78.5528 126.742 78.8872 126.622 79.2731C126.579 79.4188 126.553 79.5732 126.553 79.7361V87.4276L125.611 87.9678L104.562 100.135V100.101L106 99.2693V81.9226L108.433 80.5164L145.367 59.1397L145.907 58.8224L146.378 58.548L147.774 57.742L147.808 57.7249V75.0629C148.048 74.9428 148.288 74.8142 148.536 74.677L150.506 73.5366L157.759 69.3436V69.3264Z" fill="#FF6C02"/>
<path d="M157.279 33.5785V67.6629L155.849 68.4861L152.527 70.4068V36.331L157.279 33.5785Z" fill="#292929"/>
<path d="M152.527 36.331V70.4068L148.596 72.6791L147.808 73.1336V57.6991V39.6151C147.808 39.2635 147.996 38.9377 148.305 38.7662L152.527 36.3224V36.331Z" fill="#292929"/>
<path d="M145.359 48.3013V57.5962L108.424 78.9472V69.6523L145.359 48.3013Z" fill="#292929"/>
<path d="M145.359 39.5808V48.3013L108.424 69.6523V60.9404L145.359 39.5808Z" fill="#292929"/>
<path d="M139.33 80.0276C139.296 83.2003 137.626 86.493 134.817 88.388C131.623 90.5402 127.915 90.2487 125.603 87.9592L126.545 87.419V79.7275C126.545 79.5646 126.57 79.4103 126.613 79.2645C126.733 78.8786 126.99 78.5442 127.35 78.3384L135.947 73.3651L136.932 72.7992C137.309 72.5848 137.712 72.5333 138.088 72.6277C138.765 72.7906 139.321 73.3908 139.321 74.1883V80.0276H139.33ZM132.471 87.5991C134.706 86.3043 136.513 83.1917 136.513 80.6279C136.513 78.6042 135.382 77.5324 133.806 77.8154C133.395 77.8925 132.942 78.0554 132.471 78.3298C132.008 78.5957 131.563 78.9386 131.152 79.3502C129.567 80.8937 128.429 83.2774 128.429 85.3011C128.429 87.8649 130.235 88.8939 132.471 87.6077V87.5991Z" fill="#303030"/>
<path d="M136.513 80.6193C136.513 83.1831 134.706 86.3043 132.471 87.5905C130.236 88.8767 128.429 87.8478 128.429 85.2839C128.429 83.2603 129.568 80.8765 131.152 79.3331C131.563 78.9215 132.008 78.5785 132.471 78.3127C132.942 78.0383 133.387 77.8754 133.807 77.7982C135.382 77.5238 136.513 78.5871 136.513 80.6107V80.6193Z" fill="#979797"/>
<path d="M130.921 25.9127C131.751 26.3929 131.982 27.3962 131.606 28.1593C131.46 27.8678 131.237 27.6105 130.921 27.4219L114.461 17.9125C113.93 17.6038 113.28 17.6038 112.74 17.9125L87.2975 32.6267C86.9806 32.8154 86.758 33.0726 86.6124 33.3641C86.2356 32.601 86.4668 31.5892 87.2975 31.109L112.74 16.4034C113.28 16.0947 113.93 16.0947 114.461 16.4034L130.921 25.9127Z" fill="#FFCB04"/>
<path d="M130.921 27.4305C131.238 27.6191 131.46 27.8763 131.606 28.1679C131.46 28.4594 131.238 28.7167 130.921 28.9053L105.478 43.6195C104.947 43.9282 104.288 43.9282 103.757 43.6195L87.2976 34.1101C86.9808 33.9215 86.7581 33.6643 86.6125 33.3727C86.7581 33.0812 86.9808 32.8239 87.2976 32.6353L112.74 17.9211C113.28 17.6124 113.931 17.6124 114.461 17.9211L130.921 27.4305Z" fill="#979797"/>
<path d="M105.992 81.8712V99.2607L104.553 100.092L97.3084 104.277L95.3387 105.417C95.0904 105.555 94.8506 105.683 94.6108 105.803V103.917L95.6556 103.317L99.6291 101.027L102.9 99.1321L104.313 98.3175C104.313 98.3175 104.339 98.2832 104.339 98.266V64.2845C104.339 64.2416 104.296 64.2159 104.262 64.2416L104.339 64.1902C105.076 63.7615 105.992 64.2931 105.992 65.1506V81.8712Z" fill="#FFCB04"/>
<path d="M104.562 100.092V100.127L93.1807 106.704L75.4626 116.95C75.4626 116.745 75.4455 116.53 75.4284 116.324V111.3C75.4284 110.091 74.1181 109.327 73.0648 109.936L71.7717 110.682L63.4222 115.51C62.934 115.793 62.6429 116.316 62.6429 116.873V124.367L62.0177 124.728L59.3801 126.254V111.454H59.3973V108.907L61.0586 107.947L92.9667 89.477L93.1807 89.3483L94.5338 88.5681C94.5338 88.5681 94.6109 88.5681 94.6109 88.6109V105.82C94.8507 105.7 95.0904 105.572 95.3388 105.434L97.3084 104.294L104.553 100.11L104.562 100.092Z" fill="#FF6C02"/>
<path d="M104.339 64.2845V98.266C104.339 98.266 104.331 98.3003 104.313 98.3175L102.9 99.1321L99.6292 101.019V66.9169L104.262 64.2416C104.262 64.2416 104.339 64.2416 104.339 64.2845Z" fill="#292929"/>
<path d="M99.6291 66.9084V101.01L95.6556 103.308L94.6108 103.908V88.4137V70.4411C94.6108 70.0724 94.7992 69.7209 95.1075 69.5236L95.1589 69.4893L99.6206 66.9169L99.6291 66.9084Z" fill="#292929"/>
<path d="M92.9581 77.6353V87.7277L61.05 106.18V96.0795L92.9581 77.6353Z" fill="#292929"/>
<path d="M92.9581 68.0145V77.6353L61.05 96.0795V86.4587L92.9581 68.0145Z" fill="#292929"/>
<path d="M82.6816 53.9006C83.538 54.3979 83.7521 55.444 83.3325 56.2243C83.1954 55.9585 82.9813 55.727 82.6816 55.5469L66.2223 46.0376C65.6914 45.7289 65.032 45.7289 64.501 46.0376L39.0585 60.7517C38.7588 60.9147 38.5447 61.1547 38.4077 61.4206C37.9795 60.6403 38.2022 59.6027 39.0585 59.0968L64.501 44.3912C65.032 44.0825 65.6914 44.0825 66.2223 44.3912L82.6816 53.9006Z" fill="#FFCB04"/>
<path d="M82.6817 55.5469C82.9814 55.7184 83.1955 55.9585 83.3325 56.2243C83.1869 56.4901 82.9728 56.7216 82.6817 56.8845L57.2391 71.5987C56.6996 71.9074 56.0488 71.9074 55.5178 71.5987L39.0586 62.0894C38.7674 61.9265 38.5533 61.6864 38.4077 61.4205C38.5447 61.1547 38.7588 60.9232 39.0586 60.7517L64.5011 46.0375C65.032 45.7289 65.6914 45.7289 66.2224 46.0375L82.6817 55.5469Z" fill="#979797"/>
<path d="M75.4539 116.95C75.5567 120.123 73.9382 123.476 71.1122 125.379C67.9265 127.523 64.2013 127.154 62.009 124.719L62.6342 124.359V116.865C62.6342 116.299 62.9339 115.784 63.4135 115.501L71.763 110.674L73.0561 109.928C74.1009 109.319 75.4197 110.082 75.4197 111.291V116.967L75.4539 116.95ZM68.6972 124.539C70.9323 123.244 72.7393 120.123 72.7393 117.559C72.7393 114.995 70.9323 113.975 68.6972 115.261C66.4621 116.556 64.6552 119.668 64.6552 122.232C64.6552 124.796 66.4621 125.825 68.6972 124.539Z" fill="#303030"/>
<path d="M72.7393 117.559C72.7393 120.123 70.9324 123.244 68.6973 124.539C66.4622 125.834 64.6553 124.796 64.6553 122.232C64.6553 119.668 66.4622 116.547 68.6973 115.261C70.9324 113.966 72.7393 115.004 72.7393 117.559Z" fill="#979797"/>
<path d="M59.3715 111.445V126.202C59.3715 126.202 59.363 126.245 59.3373 126.262L58.0014 127.034L57.9414 127.068L50.688 131.261L48.7184 132.402C48.4872 132.522 48.2731 132.642 48.0504 132.753C48.0333 132.762 48.0076 132.771 47.9905 132.788V131.013C47.9905 131.064 48.0504 131.107 48.1018 131.073L49.3178 130.378L53.0345 128.235L56.5712 126.185L56.6312 126.151L57.9671 125.388C57.9671 125.388 58.0014 125.345 58.0014 125.319V91.149C58.0014 91.0976 57.9414 91.0547 57.89 91.089L58.0014 91.0204C58.1469 90.9347 58.3011 90.9004 58.4552 90.9004C58.9262 90.9004 59.3715 91.2862 59.3715 91.8179V111.454V111.445Z" fill="#FFCB04"/>
<path d="M58.0013 91.1405V125.311C58.0013 125.311 57.9928 125.362 57.9671 125.379L56.6311 126.142L56.5712 126.177L53.0344 128.217V93.9015L55.4922 92.461L57.8986 91.0719C57.9499 91.0376 58.0099 91.0719 58.0099 91.1319L58.0013 91.1405Z" fill="#292929"/>
<path d="M53.0345 128.226L49.3178 130.378L48.1018 131.073C48.0504 131.107 47.9905 131.073 47.9905 131.013V97.3485L49.4292 96.5168C49.4634 96.4996 49.4891 96.4825 49.5148 96.4653C49.6946 96.3196 49.806 96.1052 49.806 95.8651V95.7536L53.0173 93.9015V128.235L53.0345 128.226Z" fill="#292929"/>
<path d="M49.8145 95.7451V95.8565C49.8145 96.088 49.7032 96.311 49.5234 96.4568L47.999 97.3399L45.37 98.8577L43.2462 100.084V106.335C43.2462 106.755 43.015 107.141 42.6468 107.338L41.3622 108.033C40.8655 108.307 40.2661 108.29 39.7694 108.007L38.8017 107.45C38.5705 107.312 38.4164 107.064 38.4164 106.781V96.5854C38.4164 96.311 38.3393 96.1824 38.8617 95.8823C38.6647 96.0023 38.6647 96.2853 38.8617 96.4053L39.9578 97.0398C39.9578 97.0398 39.9578 97.0398 39.9664 97.0398L40.0777 97.0999C40.1548 97.1513 40.2404 97.177 40.3346 97.2028C40.4887 97.2371 40.6515 97.2371 40.797 97.2028C40.8741 97.177 40.9512 97.1513 41.0283 97.1084L41.1481 97.0398L41.6705 96.7397L43.2291 95.848L45.1131 94.7504L47.9734 93.0955L49.2922 92.3323C49.4891 92.2123 49.7375 92.3323 49.7888 92.5467C49.7888 92.5724 49.7888 92.5981 49.7888 92.6239C49.7888 92.701 49.7888 92.7611 49.7888 92.7611V95.7536L49.8145 95.7451Z" fill="#FFCB04"/>
<path d="M49.8061 92.5467C49.7547 92.3323 49.5064 92.2123 49.3094 92.3323L47.9906 93.0955L45.1304 94.7504L43.2464 95.8394L41.1654 97.0398C40.8057 97.2542 40.3433 97.2542 39.9836 97.0398C39.9836 97.0398 39.9836 97.0398 39.9751 97.0398L38.8789 96.4053C38.682 96.2853 38.682 96.0023 38.8789 95.8823L41.8334 94.1759L47.3826 90.9604C47.571 90.8575 47.7937 90.8575 47.9735 90.9604L48.4017 91.209L49.3265 91.7407C49.7033 91.9636 49.7975 92.3152 49.8232 92.5467H49.8061Z" fill="#979797"/>
<path d="M47.9905 131.013V132.736C47.9905 132.736 47.9734 132.788 47.9477 132.813C47.4767 133.054 47.0143 133.276 46.5604 133.474C44.1455 134.52 42.0645 134.88 40.112 134.768C38.9302 134.7 37.8084 134.451 36.678 134.074V117.773L37.2517 118.099C41.4993 120.406 43.6916 120.192 46.569 118.751C46.5861 118.742 46.6118 118.734 46.6289 118.717C47.0314 118.511 47.451 118.288 47.8878 118.039C47.9391 118.005 47.9991 118.039 47.9991 118.099V131.013H47.9905Z" fill="#FF6C02"/>
<path d="M47.9905 97.3485V117.928C47.9905 117.928 47.9734 117.979 47.9563 117.996C47.9306 118.005 47.9049 118.031 47.8792 118.039C47.4424 118.279 47.0228 118.511 46.6203 118.717C46.6032 118.725 46.5775 118.734 46.5604 118.751C43.683 120.192 41.4993 120.397 37.2432 118.099L36.6694 117.773L12.2802 103.677L10.6788 102.751C10.6788 102.751 10.6788 102.751 10.6531 102.742C10.4133 102.631 8.56359 101.722 8.40088 100.804V96.8426C8.40088 96.8426 8.41801 96.9026 8.43513 96.9284C8.59784 97.3828 9.24868 97.8287 9.24868 97.8287L10.1479 98.3518H10.165L38.2023 114.438C38.2023 114.438 42.0302 116.479 44.685 115.595C45.1046 115.45 45.3615 115.03 45.3615 114.592V98.8834L47.9905 97.3657V97.3485Z" fill="#F8F8F8"/>
<path d="M47.331 90.9261C47.331 90.9261 47.3482 90.9604 47.3653 90.9689L41.8161 94.1844C40.5058 94.0215 39.11 93.6957 38.2022 93.0869L10.8586 77.6782L10.1906 77.2923C10.1906 77.2923 10.1906 77.2923 10.1735 77.2923L9.25717 76.7692C9.25717 76.7692 8.54639 76.1433 8.44362 75.5173C8.44362 75.483 8.43506 75.4402 8.43506 75.3973V72.3447V71.5387C8.52926 70.4325 8.72622 70.1667 8.85468 69.9781C8.82899 70.0295 8.80329 70.0724 8.79473 70.1239C8.64915 70.6898 9.41988 71.3072 10.0793 71.7273C10.1221 71.7616 10.1735 71.7788 10.2249 71.8045C10.3105 71.8559 10.3876 71.9074 10.4646 71.9417C10.516 71.976 10.5674 71.9931 10.6102 72.0189C10.6188 72.0274 10.6445 72.036 10.653 72.0446C10.713 72.0789 10.7729 72.1046 10.8157 72.1303C10.8414 72.1389 10.8586 72.1561 10.8757 72.1646C10.8928 72.1732 10.9099 72.1818 10.9271 72.1904C10.9442 72.1989 10.9528 72.1989 10.9613 72.1989C10.9785 72.1989 10.987 72.2075 10.987 72.2075L36.755 87.1018C36.755 87.1018 40.1376 88.9453 44.5907 89.4684C44.7534 89.4941 44.9075 89.5027 45.0788 89.5198C45.1559 89.5284 45.2329 89.5541 45.31 89.5713C45.3614 89.5798 45.4128 89.597 45.4556 89.6141C45.5584 89.6399 45.6526 89.6656 45.7468 89.7085C45.9951 89.8028 46.2178 89.9228 46.4404 90.0686C46.449 90.0686 46.4661 90.0772 46.4747 90.0943C46.5432 90.1372 46.6117 90.1801 46.6631 90.2315C46.7401 90.2915 46.8258 90.3601 46.8943 90.4287L46.9285 90.463C47.0056 90.5402 47.0913 90.626 47.1598 90.7117C47.194 90.746 47.2197 90.7889 47.254 90.8232C47.2882 90.8575 47.3139 90.9003 47.3482 90.9432L47.331 90.9261Z" fill="#F8F8F8"/>
<path d="M45.3615 98.8663V114.575C45.3615 115.012 45.1045 115.433 44.6849 115.578C42.0302 116.462 38.2023 114.421 38.2023 114.421L10.165 98.3346C10.165 98.3346 10.165 98.3346 10.1478 98.3346L9.24866 97.8116C9.24866 97.8116 8.59782 97.3571 8.43512 96.9112C8.42655 96.8855 8.41799 96.8598 8.40942 96.8255V79.0844H8.41799V75.3973C8.41799 75.4402 8.41799 75.4831 8.42655 75.5174C8.52931 76.1433 9.2401 76.7693 9.2401 76.7693L10.1564 77.2923H10.1735L10.8415 77.6696L38.1851 93.0869C39.0929 93.6957 40.4888 94.0215 41.799 94.1845L38.8445 95.8908C38.3222 96.1909 38.3907 96.3196 38.3992 96.594V106.789C38.3992 107.064 38.5448 107.321 38.7846 107.458L39.7523 108.015C40.249 108.298 40.8399 108.316 41.3451 108.041L42.6297 107.347C42.9979 107.149 43.2291 106.764 43.2291 106.343V100.101L45.3529 98.8748L45.3615 98.8663Z" fill="#303030"/>
<path d="M36.6695 117.756V134.057C35.4449 133.654 34.2288 133.088 32.97 132.428L12.2803 120.474V103.659L36.6695 117.756ZM33.8178 130.936V117.671L13.9759 106.198V119.874L30.812 129.598C31.8396 130.138 32.833 130.601 33.8178 130.927V130.936Z" fill="#979797"/>
<path d="M33.8177 117.671V130.936C32.8244 130.61 31.8395 130.147 30.8119 129.607L13.9758 119.883V106.206L33.8177 117.679V117.671Z" fill="#303030"/>
<path d="M12.2888 103.66V120.474L10.636 119.514C9.84813 119.051 9.24011 118.374 8.85475 117.585C8.55502 116.976 8.40088 116.299 8.40088 115.604V100.778C8.57215 101.696 10.4219 102.605 10.6617 102.716C10.6788 102.716 10.6874 102.725 10.6874 102.725L12.2888 103.651V103.66Z" fill="#FF6C02"/>
<path d="M8.42665 72.3362V74.8228L5.03545 76.7778L3.47687 77.6782L3.3998 77.7211L2.95449 77.9783L2.89455 78.0126C2.53487 78.2012 2.11526 78.1841 1.76415 77.9783L0.659441 77.3438C0.462478 77.2237 0.462478 76.9408 0.659441 76.8207L8.43521 72.3276L8.42665 72.3362Z" fill="#979797"/>
<path d="M8.42656 75.3887V79.0759L5.04393 81.0309V87.2819C5.04393 87.702 4.81271 88.0879 4.45304 88.2851L3.1685 88.9796C2.67181 89.254 2.06379 89.2369 1.57566 88.9539L0.607973 88.3966C0.368192 88.2594 0.22261 88.0107 0.22261 87.7277V77.5324C0.22261 77.258 0.145538 77.1294 0.659355 76.8293C0.462392 76.9493 0.462392 77.2323 0.659355 77.3524L1.76406 77.9869L1.88395 78.0555C1.96103 78.0983 2.04666 78.1327 2.14086 78.1584C2.28644 78.1927 2.44915 78.1927 2.6033 78.1584C2.68037 78.1412 2.75744 78.1069 2.83452 78.0641L2.95441 77.9955L3.39971 77.7382L3.47679 77.6953L5.03537 76.8121V76.795L8.418 74.84V75.4059L8.42656 75.3887Z" fill="#FFCB04"/>
<path d="M62.0092 124.719L59.3716 126.245V126.202" stroke="black" stroke-width="0.25" stroke-miterlimit="10"/>
<path d="M104.562 100.127L93.1808 106.704L75.4541 116.95" stroke="black" stroke-width="0.25" stroke-miterlimit="10"/>
<path d="M59.3887 108.89V111.428L59.3716 111.445" stroke="black" stroke-width="0.25" stroke-miterlimit="10"/>
<path d="M10.4475 68.529L125.311 1.38911C128.052 -0.214356 131.443 -0.180057 134.149 1.45771L162.486 18.6071C162.589 18.6585 162.589 18.8043 162.486 18.8643" stroke="black" stroke-width="0.25" stroke-miterlimit="10"/>
<path d="M10.4477 68.529C10.2593 68.6405 10.088 68.7519 9.92529 68.872C9.9938 68.812 10.0709 68.7519 10.1479 68.7091L10.4477 68.5376V68.529Z" stroke="black" stroke-width="0.25" stroke-miterlimit="10"/>
<path d="M38.4165 61.412C37.9883 60.6317 38.2109 59.5942 39.0673 59.0882L64.5098 44.3826C65.0408 44.074 65.7002 44.074 66.2311 44.3826L82.6904 53.892C83.5468 54.3893 83.7609 55.4354 83.3412 56.2157" stroke="black" stroke-width="0.25" stroke-miterlimit="10"/>
<path d="M83.3325 56.2243C83.1869 56.4901 82.9728 56.7216 82.6817 56.8845L57.2391 71.5987C56.6996 71.9074 56.0488 71.9074 55.5178 71.5987L39.0586 62.0894C38.7674 61.9265 38.5533 61.6864 38.4077 61.4205C38.5447 61.1547 38.7588 60.9232 39.0586 60.7517L64.5011 46.0375C65.032 45.7289 65.6914 45.7289 66.2224 46.0375L82.6817 55.5469C82.9814 55.7184 83.1955 55.9585 83.3325 56.2243Z" stroke="black" stroke-width="0.25" stroke-miterlimit="10"/>
<path d="M86.6124 33.3641C86.2356 32.601 86.4668 31.5892 87.2975 31.109L112.74 16.4034C113.28 16.0947 113.93 16.0947 114.461 16.4034L130.921 25.9127C131.751 26.3929 131.982 27.3962 131.606 28.1593" stroke="black" stroke-width="0.25" stroke-miterlimit="10"/>
<path d="M131.606 28.1679C131.46 28.4594 131.238 28.7167 130.921 28.9053L105.478 43.6195C104.947 43.9282 104.288 43.9282 103.757 43.6195L87.2976 34.1101C86.9808 33.9215 86.7581 33.6643 86.6125 33.3727C86.7581 33.0812 86.9808 32.8239 87.2976 32.6353L112.74 17.9211C113.28 17.6124 113.931 17.6124 114.461 17.9211L130.921 27.4305C131.238 27.6191 131.46 27.8763 131.606 28.1679Z" stroke="black" stroke-width="0.25" stroke-miterlimit="10"/>
<path d="M61.05 107.93L59.3887 108.89" stroke="black" stroke-width="0.25" stroke-miterlimit="10"/>
<path d="M92.967 89.4512L92.958 89.4602" stroke="black" stroke-width="0.25" stroke-miterlimit="10"/>
<path d="M105.992 81.8712L106.103 81.8026" stroke="black" stroke-width="0.25" stroke-miterlimit="10"/>
<path d="M47.9905 132.788V132.736" stroke="black" stroke-width="0.25" stroke-miterlimit="10"/>
<path d="M59.3717 108.907V126.202C59.3717 126.202 59.3631 126.245 59.3374 126.262" stroke="black" stroke-width="0.25" stroke-miterlimit="10"/>
<path d="M47.9905 118.099V117.928" stroke="black" stroke-width="0.25" stroke-miterlimit="10"/>
<path d="M57.89 91.0804C57.9414 91.0461 58.0014 91.0804 58.0014 91.1405V125.311C58.0014 125.311 57.9928 125.362 57.9671 125.379L56.6312 126.142L56.5712 126.177L53.0345 128.217L49.3178 130.37L48.1018 131.064C48.0504 131.099 47.9905 131.064 47.9905 131.004" stroke="black" stroke-width="0.25" stroke-miterlimit="10"/>
<path d="M58.0015 127.034V127.051V127.086L48.0505 132.839V132.796V132.753" stroke="black" stroke-width="0.25" stroke-miterlimit="10"/>
<path d="M94.6194 88.448V88.4137" stroke="black" stroke-width="0.25" stroke-miterlimit="10"/>
<path d="M94.6194 88.5938V88.4995" stroke="black" stroke-width="0.25" stroke-miterlimit="10"/>
<path d="M104.562 100.092L97.3169 104.277L95.3473 105.417C95.0989 105.555 94.8592 105.683 94.6194 105.803V103.917" stroke="black" stroke-width="0.25" stroke-miterlimit="10"/>
<path d="M105.992 81.7426V81.8712V81.9055" stroke="black" stroke-width="0.25" stroke-miterlimit="10"/>
<path d="M93.1806 89.3312L92.9666 89.4512V89.3998" stroke="black" stroke-width="0.25" stroke-miterlimit="10"/>
<path d="M99.629 101.019L95.6555 103.308L94.6108 103.908V88.5852C94.6108 88.5852 94.5679 88.5166 94.5337 88.5423" stroke="black" stroke-width="0.25" stroke-miterlimit="10"/>
<path d="M104.262 64.2416C104.262 64.2416 104.339 64.2416 104.339 64.2845V98.266C104.339 98.266 104.331 98.3003 104.313 98.3175L102.9 99.1321L99.6292 101.019" stroke="black" stroke-width="0.25" stroke-miterlimit="10"/>
<path d="M94.6022 88.4566L94.6194 88.448V88.4994L94.5337 88.5509L93.1807 89.3312V89.2797" stroke="black" stroke-width="0.25" stroke-miterlimit="10"/>
<path d="M147.808 73.1422V75.0457C148.048 74.9257 148.288 74.7971 148.536 74.6599L150.506 73.5194L157.759 69.3264" stroke="black" stroke-width="0.25" stroke-miterlimit="10"/>
<path d="M145.359 59.1225L145.907 58.8138" stroke="black" stroke-width="0.25" stroke-miterlimit="10"/>
<path d="M125.603 87.9592L104.562 100.127V100.092L105.992 99.2521V81.9055L108.424 80.4992" stroke="black" stroke-width="0.25" stroke-miterlimit="10"/>
<path d="M157.759 69.3693L146.378 75.9547L139.33 80.0276" stroke="black" stroke-width="0.25" stroke-miterlimit="10"/>
<path d="M146.378 58.5309L145.907 58.8138V58.7967" stroke="black" stroke-width="0.25" stroke-miterlimit="10"/>
<path d="M147.808 57.6991V57.6562" stroke="black" stroke-width="0.25" stroke-miterlimit="10"/>
<path d="M157.279 33.5785V67.6629L155.849 68.4861L152.527 70.4068L148.596 72.6791L147.808 73.1422V57.7077" stroke="black" stroke-width="0.25" stroke-miterlimit="10"/>
<path d="M147.774 57.7249L146.378 58.5309V58.5223" stroke="black" stroke-width="0.25" stroke-miterlimit="10"/>
<path d="M147.808 57.6991V57.7077L147.782 57.7163L147.808 57.6991Z" stroke="black" stroke-width="0.25" stroke-miterlimit="10"/>
<path d="M59.3715 126.245L58.0014 127.051L57.9414 127.086L48.0504 132.796L47.9905 132.831V132.779C47.9905 132.779 48.0333 132.762 48.0504 132.745C48.2731 132.633 48.4872 132.513 48.7184 132.393L50.688 131.253L57.9414 127.06L58.0014 127.026L59.3373 126.254L59.3715 126.237V126.245Z" stroke="black" stroke-width="0.25" stroke-miterlimit="10"/>
<path d="M47.8792 118.039C47.9306 118.005 47.9905 118.039 47.9905 118.099V132.736C47.9905 132.736 47.9734 132.788 47.9477 132.813C47.4767 133.054 47.0143 133.276 46.5604 133.474C44.1455 134.52 42.0645 134.88 40.112 134.768C38.9302 134.7 37.8084 134.451 36.678 134.074" stroke="black" stroke-width="0.25" stroke-miterlimit="10"/>
<path d="M12.2888 120.474L10.636 119.514C9.84813 119.051 9.24011 118.374 8.85475 117.585C8.55502 116.976 8.40088 116.299 8.40088 115.604V100.778" stroke="black" stroke-width="0.25" stroke-miterlimit="10"/>
<path d="M8.84619 69.9609C9.07741 69.6094 9.41139 69.2321 9.92521 68.872C9.3857 69.395 9.46277 70.3125 10.1479 70.7069L35.7617 85.584C36.0871 85.7727 36.4211 85.9442 36.7636 86.09C40.052 87.582 43.88 87.4105 47.0485 85.584L162.486 18.8643L162.7 18.7443L162.777 18.7872V64.4989C162.777 65.7251 162.126 66.8483 161.065 67.4657L157.75 69.3779V69.335L159.146 68.529C159.146 68.529 159.172 68.4861 159.181 68.469V51.1566C159.181 51.1566 159.189 51.1138 159.215 51.1052C159.241 51.088 159.266 51.0709 159.292 51.0452" stroke="black" stroke-width="0.25" stroke-miterlimit="10"/>
<path d="M45.0704 89.5198C44.9077 89.4855 44.7535 89.4684 44.5823 89.4684" stroke="black" stroke-width="0.25" stroke-miterlimit="10"/>
<path d="M46.6459 90.223C46.586 90.1715 46.526 90.1201 46.4575 90.0858" stroke="black" stroke-width="0.25" stroke-miterlimit="10"/>
<path d="M48.6243 90.9175C48.5729 90.969 48.5301 91.0204 48.5044 91.0633" stroke="black" stroke-width="0.25" stroke-miterlimit="10"/>
<path d="M160.011 50.3592C160.088 50.282 160.157 50.1963 160.217 50.102" stroke="black" stroke-width="0.25" stroke-miterlimit="10"/>
<path d="M159.36 50.9937C159.463 50.9166 159.566 50.8308 159.66 50.7451" stroke="black" stroke-width="0.25" stroke-miterlimit="10"/>
<path d="M8.42651 72.3361V71.5301C8.52071 70.424 8.71768 70.1582 8.84613 69.9695C8.82044 70.021 8.79475 70.0638 8.78619 70.1153C8.6406 70.6812 9.41133 71.2986 10.0707 71.7188C10.1135 71.7531 10.1649 71.7702 10.2163 71.7959C10.3019 71.8474 10.379 71.8988 10.4561 71.9331C10.5075 71.9674 10.5589 71.9846 10.6017 72.0103C10.6102 72.0189 10.6359 72.0274 10.6445 72.036C10.7044 72.0703 10.7644 72.096 10.8072 72.1218C10.8329 72.1303 10.85 72.1475 10.8671 72.1561C10.8843 72.1646 10.9014 72.1732 10.9185 72.1818C10.9357 72.1904 10.9442 72.1904 10.9528 72.1904C10.9699 72.1904 10.9785 72.1989 10.9785 72.1989L36.7464 87.0932C36.7464 87.0932 40.129 88.9367 44.5821 89.4598C44.7448 89.4855 44.899 89.4941 45.0703 89.5112C45.1473 89.5198 45.2244 89.5455 45.3015 89.5627C45.3529 89.5713 45.4042 89.5884 45.4471 89.6056C45.5498 89.6313 45.644 89.657 45.7382 89.6999C45.9866 89.7942 46.2092 89.9143 46.4319 90.06C46.4404 90.06 46.4576 90.0686 46.4661 90.0857C46.5346 90.1286 46.6031 90.1715 46.6545 90.2229C46.7316 90.283 46.8172 90.3516 46.8857 90.4202L46.92 90.4545C46.9971 90.5316 47.0827 90.6174 47.1512 90.7031C47.1855 90.7374 47.2112 90.7803 47.2454 90.8146C47.2797 90.8489 47.3054 90.8918 47.3396 90.9346C47.3482 90.9432 47.3567 90.9689 47.3739 90.9775" stroke="black" stroke-width="0.25" stroke-miterlimit="10"/>
<path d="M12.2887 103.66L10.6873 102.733C10.6873 102.733 10.6873 102.733 10.6617 102.725C10.4219 102.613 8.57213 101.704 8.40942 100.787V96.8255" stroke="black" stroke-width="0.25" stroke-miterlimit="10"/>
<path d="M47.9905 97.3485V117.928C47.9905 117.928 47.9734 117.979 47.9563 117.996C47.9306 118.005 47.9049 118.031 47.8792 118.039C47.4425 118.279 47.0229 118.511 46.6204 118.717C46.6032 118.725 46.5775 118.734 46.5604 118.751C43.683 120.192 41.4993 120.397 37.2432 118.099L36.6694 117.773" stroke="black" stroke-width="0.25" stroke-miterlimit="10"/>
<path d="M8.42651 75.3887C8.42651 75.4316 8.42651 75.4745 8.43508 75.5088C8.53784 76.1347 9.24862 76.7607 9.24862 76.7607L10.1649 77.2837H10.1821L10.85 77.661L38.1937 93.0783C39.1014 93.6871 40.4973 94.013 41.8075 94.1759" stroke="black" stroke-width="0.25" stroke-miterlimit="10"/>
<path d="M45.3615 98.8577V114.567C45.3615 115.004 45.1045 115.424 44.6849 115.57C42.0302 116.453 38.2023 114.412 38.2023 114.412L10.165 98.3261C10.165 98.3261 10.165 98.3261 10.1478 98.3261L9.24866 97.803C9.24866 97.803 8.59782 97.3485 8.43512 96.9027C8.42655 96.8769 8.41799 96.8512 8.40942 96.8169V79.0759" stroke="black" stroke-width="0.25" stroke-miterlimit="10"/>
<path d="M139.33 79.436V74.1883C139.33 73.3908 138.773 72.7906 138.097 72.6277C137.72 72.5333 137.318 72.5848 136.941 72.7992L135.956 73.3651L127.358 78.3384C126.998 78.5442 126.741 78.8786 126.622 79.2645C126.579 79.4103 126.553 79.5646 126.553 79.7275V87.419L125.611 87.9592C127.923 90.2487 131.631 90.5402 134.826 88.388C137.634 86.493 139.304 83.2003 139.339 80.0191" stroke="black" stroke-width="0.25" stroke-miterlimit="10"/>
<path d="M139.33 80.0277V79.4446C139.339 79.6418 139.339 79.8304 139.33 80.0277Z" stroke="black" stroke-width="0.25" stroke-miterlimit="10"/>
<path d="M75.4542 116.95C75.5569 120.123 73.9384 123.476 71.1124 125.379C67.9267 127.523 64.2016 127.154 62.0093 124.719L62.6344 124.359V116.865C62.6344 116.299 62.9341 115.784 63.4137 115.501L71.7632 110.674L73.0563 109.928C74.1011 109.319 75.4199 110.082 75.4199 111.291V116.316" stroke="black" stroke-width="0.25" stroke-miterlimit="10"/>
<path d="M75.4542 116.95L75.4199 116.967V116.316C75.437 116.522 75.4542 116.736 75.4542 116.942V116.95Z" stroke="black" stroke-width="0.25" stroke-miterlimit="10"/>
<path d="M72.7393 117.559C72.7393 120.123 70.9324 123.244 68.6973 124.539C66.4622 125.834 64.6553 124.796 64.6553 122.232C64.6553 119.668 66.4622 116.547 68.6973 115.261C70.9324 113.966 72.7393 115.004 72.7393 117.559Z" stroke="black" stroke-width="0.25" stroke-miterlimit="10"/>
<path d="M132.471 87.5991C130.236 88.8939 128.429 87.8563 128.429 85.2925C128.429 83.2689 129.568 80.8851 131.152 79.3417C131.563 78.9301 132.008 78.5871 132.471 78.3213C132.942 78.0469 133.387 77.884 133.807 77.8068C135.382 77.5324 136.513 78.5957 136.513 80.6193C136.513 83.1831 134.706 86.3043 132.471 87.5905V87.5991Z" stroke="black" stroke-width="0.25" stroke-miterlimit="10"/>
<path d="M36.6695 117.756V134.057C35.4449 133.654 34.2288 133.088 32.97 132.428L12.2803 120.474V103.659L36.6695 117.756Z" stroke="black" stroke-width="0.25" stroke-miterlimit="10"/>
<path d="M33.8177 117.671V130.936C32.8244 130.61 31.8395 130.147 30.8119 129.607L13.9758 119.883V106.206L33.8177 117.679V117.671Z" stroke="black" stroke-width="0.25" stroke-miterlimit="10"/>
<path d="M8.40944 100.778C8.40944 100.736 8.40088 100.684 8.40088 100.641" stroke="black" stroke-width="0.25" stroke-miterlimit="10"/>
<path d="M61.05 96.0795L92.9581 77.6353" stroke="black" stroke-width="0.25" stroke-miterlimit="10"/>
<path d="M92.9581 89.4084V89.4598L61.05 107.93V107.853" stroke="black" stroke-width="0.25" stroke-miterlimit="10"/>
<path d="M145.359 59.114L145.898 58.7967L146.369 58.5223L147.765 57.7163C147.765 57.7163 147.799 57.6734 147.799 57.6477V39.6151C147.799 39.2635 147.988 38.9377 148.296 38.7662L152.518 36.3224L157.271 33.57L157.596 33.3813C158.298 32.9869 159.172 33.5014 159.172 34.3074V50.9594C159.172 51.0109 159.223 51.0452 159.275 51.028C159.275 51.028 159.283 51.028 159.292 51.028C159.309 51.0195 159.326 51.0023 159.343 50.9937C159.446 50.9166 159.549 50.8308 159.643 50.7451C159.694 50.7022 159.746 50.6507 159.789 50.5993C159.84 50.5478 159.883 50.4964 159.934 50.445C159.96 50.4192 159.977 50.3935 159.994 50.3678C160.071 50.2906 160.14 50.2049 160.2 50.1105C160.328 49.9219 160.431 49.7247 160.525 49.5189C160.559 49.4503 160.576 49.3817 160.611 49.3131C160.662 49.1759 160.705 49.0387 160.739 48.8929C160.748 48.8243 160.773 48.7472 160.782 48.6786L160.799 48.5842C160.808 48.4813 160.825 48.3699 160.833 48.267C160.833 48.1812 160.833 48.1041 160.833 48.0097V28.4251C160.833 27.439 159.771 26.8217 158.915 27.3104L55.0725 87.3419C54.867 87.4619 54.6615 87.5734 54.4645 87.6934C53.591 88.1908 52.5034 88.6366 51.6556 89.0311C51.5101 89.0997 51.3645 89.1683 51.2275 89.2369C51.0904 89.2969 50.9534 89.3655 50.825 89.4341C50.628 89.5284 50.4396 89.6227 50.2598 89.7256C50.1656 89.7685 50.0799 89.8199 50.0029 89.8714C49.9172 89.9228 49.8401 89.9743 49.7545 90.0172C49.6517 90.0772 49.549 90.1372 49.4548 90.2058C49.3777 90.2573 49.3092 90.3087 49.2407 90.3602C49.1636 90.4116 49.1037 90.4631 49.0437 90.5059C48.9924 90.5488 48.9324 90.6002 48.881 90.6431C48.8296 90.6946 48.7783 90.7374 48.7269 90.7889C48.6755 90.8318 48.6327 90.8832 48.5899 90.9347C48.547 90.9861 48.5042 91.0376 48.47 91.0804L48.3586 91.2262" stroke="black" stroke-width="0.25" stroke-miterlimit="10"/>
<path d="M49.8145 95.7451L53.0258 93.8929L55.4836 92.4695L57.89 91.0804L58.0013 91.0118C58.1469 90.9261 58.301 90.8918 58.4552 90.8918C58.9262 90.8918 59.3715 91.2777 59.3715 91.8093V108.907H59.3886V108.813L61.0499 107.853L92.958 89.4084L93.1721 89.2798L94.568 88.4737C94.568 88.4737 94.568 88.4652 94.5765 88.4652C94.5765 88.4652 94.5765 88.4566 94.5765 88.448C94.5765 88.448 94.5765 88.4394 94.5765 88.4223V70.4497C94.5765 70.081 94.7649 69.7294 95.0732 69.5322L95.1246 69.4979L99.5862 66.9255L104.219 64.2502L104.296 64.1988C105.033 63.77 105.949 64.3017 105.949 65.1591V81.7512C105.949 81.8026 106.009 81.8455 106.06 81.8112L108.381 80.4735" stroke="black" stroke-width="0.25" stroke-miterlimit="10"/>
<path d="M92.9581 77.6353V87.7277L61.05 106.18V96.0795V86.4587L92.9581 68.0145V77.6353Z" stroke="black" stroke-width="0.25" stroke-miterlimit="10"/>
<path d="M108.424 69.6523V60.9404L145.359 39.5808V48.3013" stroke="black" stroke-width="0.25" stroke-miterlimit="10"/>
<path d="M145.359 48.3013V57.5962L108.424 78.9472V69.6523L145.359 48.3013Z" stroke="black" stroke-width="0.25" stroke-miterlimit="10"/>
<path d="M145.359 59.114V59.1225L108.424 80.4992V80.4649L145.359 59.114Z" stroke="black" stroke-width="0.25" stroke-miterlimit="10"/>
<path d="M99.6292 101.018V66.9084" stroke="black" stroke-width="0.25" stroke-miterlimit="10"/>
<path d="M53.0344 128.226V93.9101" stroke="black" stroke-width="0.25" stroke-miterlimit="10"/>
<path d="M152.527 70.4068V36.331" stroke="black" stroke-width="0.25" stroke-miterlimit="10"/>
<path d="M43.2462 100.092V106.335C43.2462 106.755 43.015 107.141 42.6468 107.338L41.3622 108.033C40.8655 108.307 40.2661 108.29 39.7694 108.007L38.8017 107.45C38.5705 107.312 38.4164 107.064 38.4164 106.781V96.5854C38.4164 96.311 38.3393 96.1824 38.8617 95.8823" stroke="black" stroke-width="0.25" stroke-miterlimit="10"/>
<path d="M49.8061 92.5467C49.8061 92.5467 49.8061 92.5981 49.8061 92.6239C49.8061 92.701 49.8061 92.7611 49.8061 92.7611V95.8651C49.8061 96.0966 49.6947 96.3196 49.5149 96.4653" stroke="black" stroke-width="0.25" stroke-miterlimit="10"/>
<path d="M43.2463 95.8394V95.8565L41.6792 96.7397" stroke="black" stroke-width="0.25" stroke-miterlimit="10"/>
<path d="M47.9906 97.34V97.3485L45.3616 98.8663L43.2463 100.092L45.3616 98.8577L47.9906 97.34Z" stroke="black" stroke-width="0.25" stroke-miterlimit="10"/>
<path d="M49.5148 96.4568C49.5148 96.4568 49.4634 96.4911 49.4292 96.5082L47.9905 97.3399L49.5148 96.4568Z" stroke="black" stroke-width="0.25" stroke-miterlimit="10"/>
<path d="M41.1566 97.0398L41.0367 97.1084C40.9597 97.1427 40.8912 97.177 40.8055 97.2027C40.6599 97.237 40.4972 97.2456 40.3431 97.2027C40.2489 97.177 40.1633 97.1513 40.0862 97.0998L39.9749 97.0398" stroke="black" stroke-width="0.25" stroke-miterlimit="10"/>
<path d="M43.2463 95.8394L41.6791 96.7397L41.1567 97.0398" stroke="black" stroke-width="0.25" stroke-miterlimit="10"/>
<path d="M49.8061 92.5467C49.7547 92.3323 49.5064 92.2123 49.3094 92.3323L47.9906 93.0955L45.1304 94.7504L43.2464 95.8394L41.1654 97.0398C40.8057 97.2542 40.3433 97.2542 39.9836 97.0398C39.9836 97.0398 39.9836 97.0398 39.9751 97.0398L38.8789 96.4053C38.682 96.2853 38.682 96.0023 38.8789 95.8823L41.8334 94.1759L47.3826 90.9604C47.571 90.8575 47.7937 90.8575 47.9735 90.9604L48.4017 91.209L49.3265 91.7407C49.7033 91.9636 49.7975 92.3152 49.8232 92.5467H49.8061Z" stroke="black" stroke-width="0.25" stroke-miterlimit="10"/>
<path d="M2.14096 78.1498C2.04676 78.1326 1.96112 78.0983 1.88405 78.0469L1.76416 77.9783C2.11527 78.1841 2.53489 78.1927 2.89456 78.0126C2.91169 78.0126 2.93738 77.9955 2.9545 77.9783" stroke="black" stroke-width="0.25" stroke-miterlimit="10"/>
<path d="M2.83449 78.0555C2.75742 78.0983 2.68891 78.1326 2.60327 78.1498" stroke="black" stroke-width="0.25" stroke-miterlimit="10"/>
<path d="M2.96291 77.9869L2.84302 78.0555" stroke="black" stroke-width="0.25" stroke-miterlimit="10"/>
<path d="M2.96289 77.9869L3.39964 77.7296" stroke="black" stroke-width="0.25" stroke-miterlimit="10"/>
<path d="M3.48535 77.6868L5.03537 76.795" stroke="black" stroke-width="0.25" stroke-miterlimit="10"/>
<path d="M5.03538 81.0395V87.2818C5.03538 87.702 4.80417 88.0879 4.44449 88.2851L3.15995 88.9796C2.66326 89.254 2.05524 89.2369 1.56712 88.9539L0.599428 88.3965C0.359647 88.2594 0.214065 88.0107 0.214065 87.7277V77.5324C0.214065 77.258 0.136993 77.1294 0.65081 76.8293" stroke="black" stroke-width="0.25" stroke-miterlimit="10"/>
<path d="M8.42651 74.8228V75.3887V79.0759" stroke="black" stroke-width="0.25" stroke-miterlimit="10"/>
<path d="M5.03537 76.7778V76.795V76.8036L3.48535 77.6867" stroke="black" stroke-width="0.25" stroke-miterlimit="10"/>
<path d="M4.77856 80.0534H8.69214H4.77856Z" stroke="black" stroke-width="0.25" stroke-miterlimit="10"/>
<path d="M8.42663 72.3362V74.8228L5.03543 76.7778L3.47685 77.6782L3.39978 77.7211L2.95447 77.9783L2.89453 78.0126L2.84315 78.0469C2.76607 78.0812 2.69756 78.1155 2.61193 78.1412C2.45778 78.1755 2.29507 78.1841 2.14949 78.1412C2.05529 78.1241 1.96966 78.0898 1.89258 78.0383L1.77269 77.9783L0.667986 77.3438C0.471023 77.2237 0.471023 76.9408 0.667986 76.8207L8.44376 72.3276L8.42663 72.3362Z" stroke="black" stroke-width="0.25" stroke-miterlimit="10"/>
</g>
<defs>
<clipPath id="clip0_46_952">
<rect width="163" height="135" fill="white"/>
</clipPath>
</defs>
</svg>
