<svg width="165" height="154" viewBox="0 0 165 154" fill="none" xmlns="http://www.w3.org/2000/svg">
<path d="M67.1243 72.0027C55.1869 78.8947 35.8326 78.8947 23.8953 72.0027C18.7918 69.0562 15.6888 65.3297 14.9465 61.4932L14.9465 53.8929L76.0645 53.8931L75.8302 62.1486C74.896 65.7534 71.9354 69.225 67.1243 72.0027Z" fill="#7A7A7A" stroke="black" stroke-width="0.5"/>
<circle cx="25.2083" cy="25.2083" r="24.9583" transform="matrix(0.866025 0.5 -0.866025 0.5 45.5095 28.7718)" fill="#D9D9D9" stroke="black" stroke-width="0.5"/>
<path d="M22.7807 52.9096C24.7549 42.8015 32.5751 36.2383 36.2384 34.2201C40.1211 32.2678 49.354 28.8897 55.224 30.9956C62.5616 33.6279 66.3127 41.6235 67.3656 44.7823C68.208 47.3094 66.2907 49.367 65.2269 50.0799C59.7099 53.5129 47.9702 60.6795 45.0896 61.7279C35.7778 65.117 21.5018 59.4575 22.7807 52.9096Z" fill="#D9AC00" stroke="black" stroke-width="0.5"/>
<path d="M43.9055 47.1844L49.236 43.8282L54.4348 40.9326L51.6051 32.0156L48.3476 42.3475L34.0014 35.7338L43.9055 47.1844Z" fill="#5A4A10" stroke="black" stroke-width="0.5"/>
<path d="M36.2717 34.1873L36.7653 27.6723L51.1772 34.1873L49.203 43.8282L36.2717 37.379L33.9685 35.7009L36.2717 34.1873Z" fill="#775833" stroke="black" stroke-width="0.5"/>
<path d="M50.914 37.0828C55.4152 35.3718 58.0212 22.8682 57.3632 17.3075L42.6222 11.5164L34.4949 20.4662C34.9994 23.0547 36.3046 28.2118 37.2259 29.449C38.3775 30.9955 44.8596 39.3841 50.914 37.0828Z" fill="#886943" stroke="black" stroke-width="0.5"/>
<path d="M60.3486 17.1455C61.0889 15.8686 60.3678 14.8249 60.0164 14.2986C59.0951 12.9185 56.1896 8.49237 54.7465 6.30392C49.4698 -0.392436 40.7701 3.89913 37.0621 6.83434C30.4787 9.60282 33.701 22.5268 34.2977 23.5814C34.6644 24.2294 35.2689 26.3672 35.1996 27.377C34.9621 29.2752 36.0012 29.676 36.5354 29.8671L36.774 28.7691L35.5802 24.935C36.0591 24.6892 36.5213 24.2897 36.7593 24.1164C35.2386 17.9866 38.6181 16.9464 39.9718 20.3903C41.6477 20.2796 42.1871 19.7344 42.7681 17.7735C43.3317 15.8712 44.3756 14.0269 46.9754 15.6884C55.985 21.4463 59.6279 18.3887 60.3486 17.1455Z" fill="#272727" stroke="black" stroke-width="0.5"/>
<path d="M100.305 84.5996L69.0257 67.706C66.8594 67.5741 66.4635 69.4218 67.046 70.4776L97.6655 86.9753L100.305 84.5996Z" fill="#F05A25" stroke="black" stroke-width="0.5"/>
<path d="M36.6313 109.865L39.9908 74.4745C40.7024 72.5789 43.4073 73.2386 43.4221 74.9729L40.0738 108.993L36.6313 109.865Z" fill="#F05A25" stroke="black" stroke-width="0.5"/>
<path d="M142.089 111.069C130.152 117.961 110.797 117.961 98.8601 111.069C93.7567 108.122 90.6536 104.396 89.9113 100.559L89.9113 92.9591L151.029 92.9593L150.795 101.215C149.861 104.82 146.9 108.291 142.089 111.069Z" fill="#7A7A7A" stroke="black" stroke-width="0.5"/>
<circle cx="25.2083" cy="25.2083" r="24.9583" transform="matrix(0.866025 0.5 -0.866025 0.5 120.475 67.838)" fill="#D9D9D9" stroke="black" stroke-width="0.5"/>
<path d="M142.722 93.0317C140.748 82.9236 132.928 76.3603 129.265 74.3422C125.382 72.3899 116.149 69.0118 110.279 71.1176C102.942 73.7499 99.1905 81.7456 98.1376 84.9044C97.2952 87.4314 99.2124 89.489 100.276 90.2019C105.793 93.6349 117.533 100.802 120.414 101.85C129.725 105.239 144.001 99.5796 142.722 93.0317Z" fill="#D9AC00" stroke="black" stroke-width="0.5"/>
<path d="M121.598 87.3064L116.268 83.9502L111.069 81.0547L113.899 72.1377L117.156 82.4696L131.502 75.8558L121.598 87.3064Z" fill="#5A4A10" stroke="black" stroke-width="0.5"/>
<path d="M129.232 74.3094L128.738 67.7944L114.326 74.3094L116.301 83.9502L129.232 77.5011L131.535 75.8229L129.232 74.3094Z" fill="#775833" stroke="black" stroke-width="0.5"/>
<path d="M114.59 77.2048C110.088 75.4938 107.482 62.9903 108.141 57.4295L122.881 51.6384L131.009 60.5883C130.504 63.1768 129.199 68.3339 128.278 69.5711C127.126 71.1176 120.644 79.5062 114.59 77.2048Z" fill="#886943" stroke="black" stroke-width="0.5"/>
<path d="M105.155 57.2675C104.415 55.9906 105.136 54.9469 105.487 54.4206C106.409 53.0405 109.314 48.6144 110.757 46.4259C116.034 39.7296 124.734 44.0211 128.442 46.9563C135.025 49.7248 131.803 62.6488 131.206 63.7034C130.839 64.3514 130.235 66.4892 130.304 67.499C130.542 69.3972 129.502 69.798 128.968 69.9891L128.73 68.8911L129.923 65.057C129.445 64.8112 128.982 64.4117 128.744 64.2385C130.265 58.1086 126.886 57.0684 125.532 60.5123C123.856 60.4016 123.317 59.8564 122.736 57.8955C122.172 55.9933 121.128 54.1489 118.528 55.8104C109.519 61.5684 105.876 58.5107 105.155 57.2675Z" fill="#272727" stroke="black" stroke-width="0.5"/>
<path d="M62.0021 118.706L94.8022 104.997C96.9709 105.08 97.1817 106.958 96.4974 107.951L64.3932 121.332L62.0021 118.706Z" fill="#F05A25" stroke="black" stroke-width="0.5"/>
<path d="M65.2764 140.896C53.339 147.788 33.9847 147.788 22.0474 140.896C16.9439 137.95 13.8409 134.223 13.0986 130.387L13.0986 122.787L74.2166 122.787L73.9823 131.042C73.0481 134.647 70.0875 138.119 65.2764 140.896Z" fill="#7A7A7A" stroke="black" stroke-width="0.5"/>
<circle cx="25.2083" cy="25.2083" r="24.9583" transform="matrix(0.866025 0.5 -0.866025 0.5 43.6619 97.6656)" fill="#D9D9D9" stroke="black" stroke-width="0.5"/>
<path d="M20.4057 120.484C22.3799 110.375 30.2001 103.812 33.8634 101.794C37.7461 99.8418 46.979 96.4637 52.849 98.5695C60.1866 101.202 63.9377 109.198 64.9906 112.356C65.833 114.883 63.9157 116.941 62.8519 117.654C57.3349 121.087 45.5952 128.253 42.7146 129.302C33.4028 132.691 19.1268 127.031 20.4057 120.484Z" fill="#D9AC00" stroke="black" stroke-width="0.5"/>
<path d="M41.5296 114.758L46.86 111.402L52.0588 108.507L49.2291 99.5897L45.9716 109.922L31.6255 103.308L41.5296 114.758Z" fill="#5A4A10" stroke="black" stroke-width="0.5"/>
<path d="M33.8958 101.761L34.3893 95.2465L48.8013 101.761L46.827 111.402L33.8958 104.953L31.5925 103.275L33.8958 101.761Z" fill="#BA8775" stroke="black" stroke-width="0.5"/>
<path d="M48.5385 104.657C53.0397 102.946 55.6457 90.4423 54.9877 84.8816L40.2467 79.0905L32.1194 88.0403C32.6239 90.6288 33.9291 95.7859 34.8504 97.0231C36.0021 98.5696 42.4841 106.958 48.5385 104.657Z" fill="#CEA992" stroke="black" stroke-width="0.5"/>
<path d="M57.9726 84.7195C58.7129 83.4426 57.9918 82.3989 57.6404 81.8726C56.7191 80.4924 53.8136 76.0663 52.3706 73.8779C47.0938 67.1815 38.3941 71.4731 34.6861 74.4083C28.1028 77.1768 31.3251 90.1008 31.9218 91.1554C32.2884 91.8033 32.8929 93.9412 32.8236 94.951C32.5862 96.8491 33.6253 97.25 34.1594 97.4411L34.3981 96.3431L33.2043 92.509C33.6831 92.2631 34.1454 91.8637 34.3833 91.6904C32.8626 85.5606 36.2421 84.5204 37.5959 87.9643C39.2717 87.8536 39.8111 87.3084 40.3921 85.3475C40.9557 83.4452 41.9996 81.6008 44.5994 83.2624C53.609 89.0203 57.2519 85.9626 57.9726 84.7195Z" fill="#272727" stroke="black" stroke-width="0.5"/>
</svg>
