<svg width="115" height="142" viewBox="0 0 115 142" fill="none" xmlns="http://www.w3.org/2000/svg">
<path d="M100.185 120.885C98.4873 106.037 84.238 93.586 76.676 90.1406C68.6901 86.8605 49.8961 81.5771 38.6072 86.6852C24.4961 93.0702 16.9813 110.2 15.3879 116.652C14.1132 121.814 18.2261 125.61 20.442 126.863C31.8914 132.836 75.2416 140.587 81.2455 141.58C95.9403 144.011 101.883 135.733 100.185 120.885Z" fill="#D9AC00"/>
<path d="M63.5557 117.047L52.2786 111.617L41.3664 107.069L44.9072 88.7328L53.6918 108.476L80.4654 92.059L63.5557 117.047Z" fill="#5A4A10"/>
<path d="M74.551 88.9565L73.9297 74.706L46.2471 92.9416L52.3436 111.609L76.3652 95.8441L80.5228 91.9862L74.551 88.9565Z" fill="#775833"/>
<path d="M41.4951 96.2579C33.0449 91.7647 30.9564 66.3495 33.6069 55.4916L64.0549 47.6272L76.5318 65.8414C74.9076 70.847 74.9185 79.9924 72.6566 82.0683C64.0246 89.9903 52.8609 102.301 41.4951 96.2579Z" fill="#886943"/>
<path d="M23.3661 62.1531C21.5771 59.7401 22.7857 57.4562 23.3704 56.3073C24.9037 53.2948 29.7217 43.6451 32.117 38.8723C41.1807 24.0661 59.7039 30.7171 67.8574 35.7927C81.7628 39.8551 79.8358 64.8198 78.8803 67.0966C78.2933 68.4955 76.3685 74.3869 76.2141 77.0761C77.1355 80.866 75.3103 81.7815 74.2792 82.2941L74.0687 79.1231L75.0687 72.1163C74.0468 71.7307 73.0226 71.0299 72.503 70.7348C74.1342 57.9586 67.0849 56.6451 65.1627 63.9403C61.7617 64.1098 60.548 63.1319 58.92 59.2956C57.3406 55.5741 54.8076 52.0826 49.9595 56.0596C33.1588 69.8415 25.1079 64.5024 23.3661 62.1531Z" fill="#272727"/>
<path d="M0 0L36.6611 6.50278C37.5136 6.654 38.2047 7.48252 38.2047 8.35334V9.14172C38.2047 10.0125 37.5136 10.5959 36.6611 10.4447L1.54362 4.2157C0.691103 4.06448 0 3.23596 0 2.36514V0Z" fill="#F05A25"/>
<path d="M1.54362 39.2986C0.691104 39.1474 0 38.3189 0 37.448V0L2.31544 0.410702C3.16796 0.561918 3.85906 1.39044 3.85906 2.26126V38.1325C3.85906 39.0034 3.16796 39.5867 2.31544 39.4355L1.54362 39.2986Z" fill="#F05A25"/>
<path d="M0 117.469L36.6611 123.971C37.5136 124.123 38.2047 123.539 38.2047 122.668V121.88C38.2047 121.009 37.5136 120.181 36.6611 120.029L1.54362 113.8C0.691103 113.649 0 114.233 0 115.103V117.469Z" fill="#F05A25"/>
<path d="M1.54362 78.7176C0.691104 78.5664 0 79.1497 0 80.0205V117.469L2.31544 117.879C3.16796 118.03 3.85906 117.447 3.85906 116.576V80.705C3.85906 79.8342 3.16796 79.0057 2.31544 78.8545L1.54362 78.7176Z" fill="#F05A25"/>
<path d="M115 20.3982L78.3389 13.8954C77.4864 13.7442 76.7953 14.3275 76.7953 15.1984V15.9867C76.7953 16.8576 77.4864 17.6861 78.3389 17.8373L113.456 24.0663C114.309 24.2175 115 23.6341 115 22.7633V20.3982Z" fill="#F05A25"/>
<path d="M113.456 59.1492C114.309 59.3004 115 58.717 115 57.8462V20.3982L112.685 19.9875C111.832 19.8363 111.141 20.4196 111.141 21.2904V57.1617C111.141 58.0325 111.832 58.8611 112.685 59.0123L113.456 59.1492Z" fill="#F05A25"/>
<path d="M115 137.867L78.3389 131.364C77.4864 131.213 76.7953 130.384 76.7953 129.513V128.725C76.7953 127.854 77.4864 127.271 78.3389 127.422L113.456 133.651C114.309 133.802 115 134.631 115 135.502V137.867Z" fill="#F05A25"/>
<path d="M113.456 98.5682C114.309 98.7194 115 99.5479 115 100.419V137.867L112.685 137.456C111.832 137.305 111.141 136.476 111.141 135.606V99.7343C111.141 98.8634 111.832 98.2801 112.685 98.4313L113.456 98.5682Z" fill="#F05A25"/>
<ellipse cx="37" cy="72" rx="2" ry="4" fill="#3A3A3A"/>
<ellipse cx="49" cy="74" rx="2" ry="4" fill="#3A3A3A"/>
</svg>
