<svg width="128" height="134" viewBox="0 0 128 134" fill="none" xmlns="http://www.w3.org/2000/svg">
<g clip-path="url(#clip0_46_1078)">
<path d="M18.227 11.086L29.1428 22.9722L26.8275 25.4759L25.8719 24.5208L15.7771 13.3251L18.227 11.086Z" fill="#979797"/>
<path d="M29.1428 22.9722L26.8275 25.4759L25.8719 24.5208L15.7771 13.3251L18.227 11.086L29.1428 22.9722Z" stroke="black" stroke-width="0.5" stroke-miterlimit="10"/>
<path d="M110.709 79.1765L98.9149 85.952L94.6115 88.4235L93.3416 89.1526L90.1156 91.0046L86.4728 93.0953L85.4658 93.6761L83.8945 94.5795L82.2142 95.541L67.0784 89.7721L67.072 88.9526L71.5999 86.3005L74.8772 84.384L75.8328 83.8226L75.9034 83.7839L78.9562 81.9964L81.2458 80.6607L81.528 80.4929L84.4397 78.7894L96.76 71.5751L98.0362 70.833V70.8265L102.346 68.3099V68.3035L110.709 63.4122L127.25 69.6779L110.709 79.1765Z" fill="#8B4E1B"/>
<path d="M123.645 50.3968L110.709 63.4122L104.058 59.5276L107.464 42.0145C107.509 41.7952 107.541 41.5758 107.567 41.3564L123.645 50.3968Z" fill="#8B4E1B"/>
<path d="M110.709 79.1765V107.401L67.3157 133.432L67.0784 89.7721L82.2142 95.541L83.8945 94.5795L85.4658 93.6761L86.4727 93.0954L90.1155 91.0046L93.3415 89.1527L94.6114 88.4235L98.9148 85.952L110.709 79.1765Z" fill="#5F310B"/>
<path d="M110.709 63.4122L102.346 68.3035L104.058 59.5276L110.709 63.4122Z" fill="#341900"/>
<path d="M104.27 32.4385C106.348 34.2711 107.592 38.1428 107.207 41.3951C107.182 41.6145 107.15 41.8339 107.105 42.0533L103.699 59.5663L101.987 68.3422L97.6771 70.8653L100.262 57.5595L103.007 43.4729C103.282 42.0533 103.218 40.4659 102.885 38.9623C102.423 36.8974 101.461 34.9874 100.178 33.8581L84.9463 20.5007C84.7411 20.3265 84.5423 20.1652 84.3371 20.0619C83.561 19.5586 82.7786 19.4425 82.0859 19.6554L85.9212 18.3519L86.3765 18.1971C87.2039 18.0099 88.1338 18.2874 89.0445 19.0875L104.27 32.4385Z" fill="#FF6C02"/>
<path d="M102.885 38.9624C103.218 40.4659 103.282 42.0533 103.007 43.4729L100.262 57.5595L97.677 70.8653L96.4007 71.6138L99.2483 56.9658L101.852 43.5891C102.269 41.4338 101.852 39.4915 101.339 38.0912C100.826 36.7039 100.217 35.8521 100.217 35.8521L97.786 33.6065C97.5936 34.7809 97.2793 35.3681 96.9394 35.6198C96.1891 36.1812 95.2976 35.0519 95.2976 35.0519C95.2976 35.0519 94.8615 34.6712 94.1945 34.0775L94.1816 34.0646C92.4436 32.5224 89.1471 29.5864 87.6335 28.1861C85.5235 26.2309 86.8639 23.9272 86.8639 23.9272C86.8639 23.9272 85.9981 23.1916 84.8501 22.2172C82.2526 20.0297 81.4317 23.0303 81.4317 23.0303C81.4317 23.0303 81.1687 24.3273 80.7262 26.5019C79.9437 30.3542 78.6033 36.9749 77.1667 44.0666C76.1149 49.2482 75.0118 54.6815 74.0434 59.4695L73.03 57.5143L73.1326 56.9787L75.8071 43.2729L78.8791 27.4569L79.7385 23.0496C80.0913 21.2299 80.9314 20.0748 81.9896 19.6941L82.0858 19.6554C82.7785 19.4425 83.5609 19.5586 84.337 20.0619C84.5422 20.1652 84.741 20.3265 84.9462 20.5007L100.178 33.8581C101.461 34.9874 102.423 36.8974 102.885 38.9624Z" fill="#303030"/>
<path d="M101.339 38.0912C101.852 39.4915 102.269 41.4338 101.852 43.589L99.2484 56.9658L96.4008 71.6138L84.0805 78.8281L74.0435 59.4695C75.0119 54.6815 76.115 49.2482 77.1668 44.0665C78.6034 36.9749 79.9439 30.3542 80.7263 26.5019C81.1688 24.3273 81.4318 23.0302 81.4318 23.0302C81.4318 23.0302 82.2527 20.0297 84.8502 22.2172C85.9982 23.1916 86.864 23.9272 86.864 23.9272C86.864 23.9272 85.5236 26.2309 87.6336 28.1861C89.1472 29.5863 92.4437 32.5224 94.1818 34.0646L94.1946 34.0775C94.8616 34.6712 95.2977 35.0519 95.2977 35.0519C95.2977 35.0519 96.1892 36.1812 96.9395 35.6198C97.2795 35.3681 97.5937 34.7809 97.7861 33.6065L100.217 35.8521C100.217 35.8521 100.826 36.7038 101.339 38.0912ZM100.307 45.4023C100.403 44.9248 100.217 44.3117 99.9026 44.0343L97.7156 42.1113C97.4013 41.8339 97.0678 42.0016 96.9716 42.4791L96.4649 45.0796C96.3752 45.5572 96.5547 46.1702 96.8754 46.4476L99.0624 48.3706C99.3767 48.6481 99.7102 48.4803 99.7999 48.0028L100.307 45.4023ZM95.0796 40.8401C95.1694 40.3562 94.9898 39.7431 94.6692 39.4657L92.4886 37.5492C92.1679 37.2717 91.8344 37.433 91.7446 37.917L91.238 40.5175C91.1418 40.995 91.3278 41.608 91.642 41.8855L93.829 43.802C94.1433 44.0794 94.4768 43.9181 94.573 43.4406L95.0796 40.8401ZM93.4634 49.1256C93.5596 48.6481 93.3737 48.0351 93.0594 47.7576L90.8724 45.8411C90.5581 45.5636 90.2246 45.7249 90.1284 46.2024L89.6218 48.8029C89.532 49.2869 89.7116 49.8999 90.0258 50.1774L92.2128 52.0939C92.5335 52.3714 92.867 52.21 92.9568 51.7261L93.4634 49.1256ZM89.936 36.407C90.0258 35.923 89.8462 35.31 89.532 35.0325L87.345 33.116C87.0243 32.8386 86.6908 32.9999 86.601 33.4839L86.0944 36.0779C85.9982 36.5619 86.1842 37.1749 86.4984 37.4524L88.6854 39.3689C88.9997 39.6463 89.3332 39.485 89.4294 39.0075L89.936 36.407ZM88.3198 44.6925C88.416 44.215 88.2301 43.6019 87.9158 43.3245L85.7288 41.408C85.4145 41.1305 85.081 41.2918 84.9848 41.7693L84.4782 44.3698C84.3884 44.8473 84.568 45.4668 84.8886 45.7443L87.0692 47.6608C87.3899 47.9383 87.7234 47.7769 87.8132 47.293L88.3198 44.6925ZM85.0041 31.4448C85.1003 30.9672 84.9207 30.3478 84.6 30.0703L82.413 28.1538C82.0988 27.8763 81.7653 28.0377 81.6755 28.5216L81.1688 31.1221C81.0726 31.5996 81.2522 32.2126 81.5729 32.4901L83.7599 34.4066C84.0741 34.6841 84.4076 34.5228 84.5038 34.0453L85.0041 31.4448ZM83.3943 39.7367C83.4841 39.2527 83.3045 38.6397 82.9902 38.3622L80.8033 36.4457C80.4826 36.1682 80.1555 36.3296 80.0593 36.8071L79.5526 39.4076C79.4628 39.8915 79.6424 40.5046 79.9567 40.782L82.1437 42.6985C82.4643 42.976 82.7914 42.8147 82.8876 42.3372L83.3943 39.7367Z" fill="#F8F8F8"/>
<path d="M99.9026 44.0343C100.217 44.3118 100.403 44.9248 100.307 45.4023L99.8 48.0028C99.7102 48.4803 99.3767 48.6481 99.0624 48.3706L96.8754 46.4477C96.5548 46.1702 96.3752 45.5572 96.465 45.0797L96.9716 42.4792C97.0678 42.0016 97.4013 41.8339 97.7156 42.1113L99.9026 44.0343Z" fill="#979797"/>
<path d="M94.669 39.4657C94.9897 39.7431 95.1693 40.3561 95.0795 40.8401L94.5728 43.4406C94.4766 43.9181 94.1431 44.0794 93.8289 43.802L91.6419 41.8855C91.3276 41.608 91.1416 40.995 91.2378 40.5175L91.7445 37.917C91.8343 37.433 92.1678 37.2717 92.4885 37.5492L94.669 39.4657Z" fill="#979797"/>
<path d="M93.0594 47.7576C93.3736 48.035 93.5596 48.6481 93.4634 49.1256L92.9567 51.7261C92.867 52.21 92.5335 52.3714 92.2128 52.0939L90.0258 50.1774C89.7115 49.8999 89.532 49.2869 89.6217 48.8029L90.1284 46.2024C90.2246 45.7249 90.5581 45.5636 90.8724 45.8411L93.0594 47.7576Z" fill="#979797"/>
<path d="M89.5319 35.0325C89.8461 35.31 90.0257 35.923 89.9359 36.407L89.4293 39.0075C89.3331 39.485 88.9996 39.6463 88.6853 39.3689L86.4983 37.4524C86.184 37.1749 85.9981 36.5619 86.0943 36.0779L86.6009 33.4839C86.6907 32.9999 87.0242 32.8386 87.3449 33.116L89.5319 35.0325Z" fill="#979797"/>
<path d="M87.9158 43.3245C88.23 43.6019 88.416 44.215 88.3198 44.6925L87.8132 47.293C87.7234 47.7769 87.3899 47.9383 87.0692 47.6608L84.8886 45.7443C84.5679 45.4668 84.3884 44.8473 84.4782 44.3698L84.9848 41.7693C85.081 41.2918 85.4145 41.1305 85.7288 41.408L87.9158 43.3245Z" fill="#F05A25"/>
<path d="M84.6 30.0703C84.9206 30.3478 85.1002 30.9672 85.004 31.4448L84.5038 34.0453C84.4076 34.5228 84.0741 34.6841 83.7598 34.4066L81.5728 32.4901C81.2521 32.2126 81.0726 31.5996 81.1688 31.1221L81.6754 28.5216C81.7652 28.0376 82.0987 27.8763 82.413 28.1538L84.6 30.0703Z" fill="#979797"/>
<path d="M74.0434 59.4695L84.0805 78.8281L81.1688 80.5316L80.8866 80.6994L78.597 82.0351L75.5442 83.8226L75.4736 83.8613L74.518 84.4227L71.4652 86.2102L32.0544 59.0178L15.6744 47.7189L15.45 47.8479L15.3153 47.7576L5.43213 40.9369C7.80511 39.0462 6.11837 37.9944 6.11837 37.9944C17.6562 39.4334 12.9231 26.3083 12.7884 25.9276C12.8589 25.9663 12.9295 25.9986 12.9936 26.0244C13.1283 26.0824 13.2501 26.1147 13.3592 26.1276C13.5516 26.1599 13.7119 26.1341 13.8402 26.0824C13.9236 26.0502 14.0005 26.005 14.0518 25.9663C14.1673 25.876 14.2186 25.7856 14.2186 25.7856C14.2186 25.7856 14.3468 25.6436 14.892 24.9274C14.9625 24.8306 15.0074 24.7338 15.0267 24.6305C15.0395 24.5983 15.0395 24.566 15.0395 24.5338C15.0523 24.4112 15.0331 24.2885 15.001 24.1724C14.9882 24.1079 14.9625 24.0498 14.9369 23.9917C14.9241 23.9401 14.8984 23.8885 14.8728 23.8433C14.8343 23.7659 14.7894 23.6884 14.7445 23.611C14.6355 23.4303 14.5072 23.2754 14.4238 23.1787C14.3982 23.1464 14.3725 23.1206 14.3533 23.1012C14.334 23.0754 14.3212 23.0625 14.3148 23.0561C18.817 24.7596 21.8891 24.979 23.9799 24.3144C29.4313 22.6044 28.0204 14.9125 27.488 12.6605C28.1358 13.0477 28.9182 12.525 28.9182 12.525C28.9182 12.525 29.1876 12.4217 29.8739 11.8603C30.5601 11.286 30.0663 10.5698 30.0663 10.5698C42.3929 16.3967 42.4699 5.12357 42.4699 5.12357H42.4763C42.4763 5.12357 43.0151 6.3367 44.0027 6.1044C44.9968 5.86564 45.9909 5.37523 45.9909 5.37523L57.7532 28.057L64.0063 40.1174L72.78 57.0303L73.0301 57.5143L74.0434 59.4695Z" fill="#ECBB00"/>
<path d="M82.9903 38.3622C83.3045 38.6397 83.4841 39.2527 83.3943 39.7367L82.8877 42.3372C82.7915 42.8147 82.4644 42.976 82.1437 42.6985L79.9567 40.782C79.6424 40.5046 79.4629 39.8915 79.5527 39.4076L80.0593 36.8071C80.1555 36.3296 80.4826 36.1682 80.8033 36.4457L82.9903 38.3622Z" fill="#979797"/>
<path d="M78.4686 27.2052L75.3581 43.0663L67.5593 38.2073L78.4686 27.2052Z" fill="#764013"/>
<path d="M75.3582 43.0663L72.9531 56.94L64.3655 40.0787L67.5594 38.2073L75.3582 43.0663Z" fill="#341900"/>
<path d="M71.5998 86.3005L67.0719 88.9526L23.4282 64.0704L31.8299 59.1469L71.2406 86.3392L71.4651 86.2102L71.5998 86.3005Z" fill="#341900"/>
<path d="M58.1123 28.0183L67.5593 38.2073L64.3654 40.0787L58.1123 28.0183Z" fill="#955320"/>
<path d="M67.0783 89.7721L67.3156 133.432L23.4282 108.395V79.4734L51.2691 95.541L67.0719 89.7721H67.0783Z" fill="#925425"/>
<path d="M23.4284 79.4734L7.87573 70.4974L23.4284 64.0704L67.072 88.9526L67.0785 89.7721H67.072L51.2693 95.541L23.4284 79.4734Z" fill="#8E4F1E"/>
<path d="M43.6373 0.832413L45.991 5.37522C45.991 5.37522 44.9969 5.86564 44.0029 6.1044C43.0152 6.3367 42.4765 5.11711 42.4765 5.11711H42.47L41.0206 2.26495C40.5524 1.34219 41.3156 0.78079 41.3156 0.78079L42.1494 0.335543C43.1691 -0.251667 43.6373 0.832413 43.6373 0.832413Z" fill="#303030"/>
<path d="M31.8299 59.1469L23.4282 64.0704L9.67773 51.2228L15.4499 47.8479L31.6952 59.0565L31.8299 59.1469Z" fill="#8E4F1E"/>
<path d="M30.0663 10.5698C30.0663 10.5698 30.5601 11.286 29.8739 11.8604C29.1876 12.4218 28.9183 12.525 28.9183 12.525C28.9183 12.525 28.1358 13.0477 27.4881 12.6605H27.4752C27.3854 12.2669 27.3213 12.0346 27.3213 12.0346L25.16 8.94366C24.602 8.16932 25.4165 7.54339 25.4165 7.54339L26.2823 6.90456C27.0776 6.29154 27.7382 7.19494 27.7382 7.19494L30.0663 10.5698Z" fill="#303030"/>
<path d="M15.0009 24.1724C15.033 24.2886 15.0522 24.4112 15.0394 24.5338C15.0394 24.566 15.0394 24.5983 15.0266 24.6306C15.0073 24.7338 14.9624 24.8306 14.8919 24.9274C14.3468 25.6437 14.2185 25.7856 14.2185 25.7856C14.2185 25.7856 14.1672 25.876 14.0517 25.9663C14.0004 26.005 13.9235 26.0502 13.8401 26.0824C13.7118 26.1341 13.5515 26.1599 13.3591 26.1276C13.2501 26.1147 13.1282 26.0824 12.9935 26.0244C12.9294 25.9986 12.8588 25.9663 12.7883 25.9276H12.7819L9.76113 23.198C8.9851 22.5076 9.65851 21.7397 9.65851 21.7397L10.5243 20.7717C11.0438 20.2297 11.8712 20.7976 11.8712 20.7976L14.3083 23.0561H14.3147C14.3147 23.0561 14.3339 23.0819 14.3532 23.1077C14.3724 23.127 14.3981 23.1529 14.4237 23.1851C14.5071 23.2819 14.6354 23.4368 14.7444 23.6175C14.7893 23.6949 14.8342 23.7723 14.8727 23.8498C14.8983 23.8949 14.924 23.9466 14.9368 23.9982C14.9624 24.0562 14.9881 24.1143 15.0009 24.1789V24.1724Z" fill="#303030"/>
<path d="M6.11838 37.9944C6.11838 37.9944 7.80512 39.0462 5.43214 40.9369C4.92547 41.0595 4.55349 40.782 4.55349 40.782L1.02609 38.3558C0.455287 37.9299 0.820855 37.2394 0.820855 37.2394L1.66102 36.0005C2.05224 35.452 2.73848 35.8263 2.73848 35.8263L6.11838 37.9944Z" fill="#303030"/>
<path d="M110.709 79.1765V107.401L67.3157 133.432L67.0784 89.7721" stroke="black" stroke-miterlimit="10"/>
<path d="M23.4282 79.0668V79.4734V108.395L67.3156 133.432" stroke="black" stroke-miterlimit="10"/>
<path d="M110.709 79.1765V79.0668" stroke="black" stroke-miterlimit="10"/>
<path d="M71.5999 86.3005L74.8771 84.384L75.8327 83.8226L75.9033 83.7839L78.9561 81.9964L81.2457 80.6607L81.5279 80.4929L84.4396 78.7894L96.7599 71.5751L98.0362 70.833V70.8265L102.346 68.3099V68.3035" stroke="black" stroke-miterlimit="10"/>
<path d="M110.709 63.4122L127.25 69.6779L110.709 79.1765L98.9148 85.952L94.6114 88.4235L93.3415 89.1526L90.1155 91.0046L86.4727 93.0953L85.4658 93.6761L83.8945 94.5795L82.2142 95.541L67.0784 89.7721" stroke="black" stroke-miterlimit="10"/>
<path d="M67.072 88.9526L67.0785 89.7721H67.072L51.2693 95.541L23.4284 79.4734L7.87573 70.4975L23.4284 64.0704L9.67792 51.2228L15.45 47.8479L15.6745 47.7189L32.0545 59.0178" stroke="black" stroke-miterlimit="10"/>
<path d="M64.3654 40.0787L58.1123 28.0183L67.5593 38.2073L78.4687 27.2052L75.3581 43.0663" fill="#8B4E1B"/>
<path d="M64.3654 40.0787L58.1123 28.0183L67.5593 38.2073L78.4687 27.2052L75.3581 43.0663" stroke="black" stroke-miterlimit="10"/>
<path d="M104.058 59.5276L107.464 42.0145C107.509 41.7952 107.541 41.5758 107.567 41.3564L123.645 50.3968L110.709 63.4122" stroke="black" stroke-miterlimit="10"/>
<path d="M71.5998 86.3005L67.0719 88.9526L23.4282 64.0704L31.8299 59.1469L32.0543 59.0178L71.4651 86.2102L71.5998 86.3005Z" stroke="black" stroke-miterlimit="10"/>
<path d="M75.3582 43.0663L72.9531 56.94L64.3655 40.0787L67.5594 38.2073L75.3582 43.0663Z" stroke="black" stroke-miterlimit="10"/>
<path d="M104.058 59.5276L110.709 63.4122L102.346 68.3035" stroke="black" stroke-miterlimit="10"/>
<path d="M5.43214 40.9369C4.92547 41.0595 4.55349 40.782 4.55349 40.782L1.02609 38.3558C0.455287 37.9299 0.820855 37.2394 0.820855 37.2394L1.66102 36.0005C2.05224 35.452 2.73848 35.8263 2.73848 35.8263L6.11838 37.9944" stroke="black" stroke-width="0.5" stroke-miterlimit="10"/>
<path d="M12.7883 25.9276H12.7819L9.76113 23.198C8.9851 22.5076 9.65851 21.7397 9.65851 21.7397L10.5243 20.7717C11.0438 20.2297 11.8712 20.7976 11.8712 20.7976L14.3083 23.0561H14.3147" stroke="black" stroke-width="0.5" stroke-miterlimit="10"/>
<path d="M27.4752 12.6605C27.3854 12.2669 27.3213 12.0346 27.3213 12.0346L25.16 8.94366C24.602 8.16932 25.4165 7.54339 25.4165 7.54339L26.2823 6.90456C27.0776 6.29154 27.7382 7.19494 27.7382 7.19494L30.0663 10.5698" stroke="black" stroke-width="0.5" stroke-miterlimit="10"/>
<path d="M27.3213 12.525C27.3726 12.5766 27.4239 12.6153 27.4752 12.6605H27.488" stroke="black" stroke-width="0.5" stroke-miterlimit="10"/>
<path d="M42.4763 5.1171C42.4763 5.1171 43.015 6.33669 44.0027 6.10438C44.9968 5.86563 45.9909 5.37521 45.9909 5.37521" stroke="black" stroke-width="0.5" stroke-miterlimit="10"/>
<path d="M84.0805 78.8281L81.1688 80.5316L80.8866 80.6994L78.597 82.0351L75.5442 83.8226L75.4736 83.8613L74.518 84.4227L71.4652 86.2102L71.2407 86.3392L31.83 59.1469L31.6953 59.0565L15.45 47.8479L15.3153 47.7576L5.43213 40.9369C7.80511 39.0462 6.11837 37.9944 6.11837 37.9944C17.6562 39.4334 12.9231 26.3083 12.7884 25.9276C12.8589 25.9663 12.9295 25.9986 12.9936 26.0244C13.1283 26.0824 13.2501 26.1147 13.3592 26.1276C13.5516 26.1599 13.7119 26.1341 13.8402 26.0824C13.9236 26.0502 14.0005 26.005 14.0518 25.9663C14.1673 25.8759 14.2186 25.7856 14.2186 25.7856C14.2186 25.7856 14.3468 25.6436 14.892 24.9274C14.9625 24.8306 15.0074 24.7338 15.0267 24.6305C15.0395 24.5983 15.0395 24.566 15.0395 24.5338C15.0523 24.4111 15.0331 24.2885 15.001 24.1724C14.9882 24.1079 14.9625 24.0498 14.9369 23.9917C14.9241 23.9401 14.8984 23.8885 14.8728 23.8433C14.8343 23.7659 14.7894 23.6884 14.7445 23.611C14.6355 23.4303 14.5072 23.2754 14.4238 23.1787C14.3982 23.1464 14.3725 23.1206 14.3533 23.1012C14.334 23.0754 14.3212 23.0625 14.3148 23.056C18.817 24.7596 21.8891 24.979 23.9799 24.3144C29.4313 22.6043 28.0204 14.9125 27.488 12.6605C28.1358 13.0477 28.9182 12.525 28.9182 12.525C28.9182 12.525 29.1876 12.4217 29.8739 11.8603C30.5601 11.286 30.0663 10.5698 30.0663 10.5698C42.3929 16.3967 42.4699 5.12356 42.4699 5.12356L41.0205 2.26495C40.5523 1.34219 41.3155 0.78079 41.3155 0.78079L42.1492 0.335543C43.169 -0.251667 43.6372 0.832413 43.6372 0.832413L45.9909 5.37522L57.7532 28.057L64.0063 40.1174L72.78 57.0303L73.0301 57.5143" stroke="black" stroke-width="0.5" stroke-miterlimit="10"/>
<path d="M68.3996 77.9505L17.4895 28.2958" stroke="black" stroke-width="0.5" stroke-miterlimit="10"/>
<path d="M71.9205 71.8525L34.3696 18.1454" stroke="black" stroke-width="0.5" stroke-miterlimit="10"/>
<path d="M74.0434 59.4695L73.03 57.5143L73.1326 56.9787L75.8071 43.2728L78.8791 27.4569L79.7385 23.0496C80.0913 21.2299 80.9314 20.0748 81.9896 19.6941L82.0858 19.6554" stroke="black" stroke-width="0.5" stroke-miterlimit="10"/>
<path d="M97.6772 70.8653V70.8717L96.4009 71.6138" stroke="black" stroke-width="0.5" stroke-miterlimit="10"/>
<path d="M82.0859 19.6554L85.9212 18.3519L86.3765 18.1971C87.2039 18.0099 88.1338 18.2874 89.0445 19.0875L104.27 32.4385C106.348 34.2711 107.592 38.1428 107.207 41.3951C107.182 41.6145 107.15 41.8339 107.105 42.0533L103.699 59.5663L101.987 68.3422L97.6771 70.8653L100.262 57.5595L103.007 43.4729C103.282 42.0533 103.218 40.4659 102.885 38.9623C102.423 36.8974 101.461 34.9874 100.178 33.8581L84.9463 20.5007C84.7411 20.3265 84.5423 20.1652 84.3371 20.0619C83.561 19.5586 82.7786 19.4425 82.0859 19.6554Z" stroke="black" stroke-width="0.5" stroke-miterlimit="10"/>
<path d="M96.4008 71.6138L99.2484 56.9658L101.852 43.589C102.269 41.4338 101.852 39.4915 101.339 38.0912C100.826 36.7038 100.217 35.8521 100.217 35.8521L97.7861 33.6065C97.5937 34.7809 97.2795 35.3681 96.9395 35.6198C96.1892 36.1812 95.2977 35.0519 95.2977 35.0519C95.2977 35.0519 94.8616 34.6712 94.1946 34.0775L94.1818 34.0646C92.4437 32.5224 89.1472 29.5863 87.6336 28.1861C85.5236 26.2309 86.864 23.9272 86.864 23.9272C86.864 23.9272 85.9982 23.1916 84.8502 22.2172C82.2527 20.0297 81.4318 23.0302 81.4318 23.0302C81.4318 23.0302 81.1688 24.3273 80.7263 26.5019C79.9439 30.3542 78.6034 36.9749 77.1668 44.0665C76.115 49.2482 75.0119 54.6815 74.0435 59.4695L84.0805 78.8281L96.4008 71.6138Z" stroke="black" stroke-width="0.5" stroke-miterlimit="10"/>
<path d="M83.3943 39.7367L82.8877 42.3372C82.7915 42.8147 82.4644 42.976 82.1437 42.6985L79.9567 40.782C79.6424 40.5046 79.4629 39.8915 79.5527 39.4076L80.0593 36.8071C80.1555 36.3296 80.4826 36.1682 80.8033 36.4457L82.9903 38.3622C83.3045 38.6397 83.4841 39.2527 83.3943 39.7367Z" stroke="black" stroke-width="0.25" stroke-miterlimit="10"/>
<path d="M85.004 31.4448L84.5038 34.0453C84.4076 34.5228 84.0741 34.6841 83.7598 34.4066L81.5728 32.4901C81.2521 32.2126 81.0726 31.5996 81.1688 31.1221L81.6754 28.5216C81.7652 28.0376 82.0987 27.8763 82.413 28.1538L84.6 30.0703C84.9206 30.3478 85.1002 30.9672 85.004 31.4448Z" stroke="black" stroke-width="0.25" stroke-miterlimit="10"/>
<path d="M88.3198 44.6925L87.8132 47.293C87.7234 47.7769 87.3899 47.9383 87.0692 47.6608L84.8886 45.7443C84.5679 45.4668 84.3884 44.8473 84.4782 44.3698L84.9848 41.7693C85.081 41.2918 85.4145 41.1305 85.7288 41.408L87.9158 43.3245C88.23 43.6019 88.416 44.215 88.3198 44.6925Z" stroke="black" stroke-width="0.25" stroke-miterlimit="10"/>
<path d="M89.9359 36.407L89.4293 39.0075C89.3331 39.485 88.9996 39.6463 88.6853 39.3689L86.4983 37.4524C86.184 37.1749 85.9981 36.5619 86.0943 36.0779L86.6009 33.4839C86.6907 32.9999 87.0242 32.8386 87.3449 33.116L89.5319 35.0325C89.8461 35.31 90.0257 35.923 89.9359 36.407Z" stroke="black" stroke-width="0.25" stroke-miterlimit="10"/>
<path d="M93.4634 49.1256L92.9567 51.7261C92.867 52.21 92.5335 52.3714 92.2128 52.0939L90.0258 50.1774C89.7115 49.8999 89.532 49.2869 89.6217 48.8029L90.1284 46.2024C90.2246 45.7249 90.5581 45.5636 90.8724 45.8411L93.0594 47.7576C93.3736 48.035 93.5596 48.6481 93.4634 49.1256Z" stroke="black" stroke-width="0.25" stroke-miterlimit="10"/>
<path d="M95.0795 40.8401L94.5728 43.4406C94.4766 43.9181 94.1431 44.0794 93.8289 43.802L91.6419 41.8855C91.3276 41.608 91.1416 40.995 91.2378 40.5175L91.7445 37.917C91.8343 37.433 92.1678 37.2717 92.4885 37.5492L94.669 39.4657C94.9897 39.7431 95.1693 40.3561 95.0795 40.8401Z" stroke="black" stroke-width="0.25" stroke-miterlimit="10"/>
<path d="M100.307 45.4023L99.8 48.0028C99.7102 48.4803 99.3767 48.6481 99.0624 48.3706L96.8754 46.4477C96.5548 46.1702 96.3752 45.5572 96.465 45.0797L96.9716 42.4792C97.0678 42.0016 97.4013 41.8339 97.7156 42.1113L99.9026 44.0343C100.217 44.3118 100.403 44.9248 100.307 45.4023Z" stroke="black" stroke-width="0.25" stroke-miterlimit="10"/>
<path d="M96.3686 32.8837L87.9028 25.4307" stroke="black" stroke-width="0.5" stroke-miterlimit="10"/>
<path d="M13.8017 5.58816L18.3745 10.9569L15.6744 13.4219L11.6019 8.963C11.6019 8.963 8.18989 4.92351 5.3359 7.53047C2.48191 10.1439 5.6245 13.2219 5.6245 13.2219C5.6245 13.2219 7.81791 14.5899 6.02214 16.2354C4.23278 17.8744 2.57169 15.7772 2.57169 15.7772C2.57169 15.7772 -2.93748 10.1245 2.70638 4.95578C8.35023 -0.206506 13.8017 5.58816 13.8017 5.58816Z" fill="#F05A25"/>
<path d="M18.3745 10.9569L15.6744 13.4219L11.6019 8.963C11.6019 8.963 8.18989 4.92351 5.3359 7.53047C2.48191 10.1439 5.6245 13.2219 5.6245 13.2219C5.6245 13.2219 7.81791 14.5899 6.02214 16.2354C4.23278 17.8744 2.57169 15.7772 2.57169 15.7772C2.57169 15.7772 -2.93748 10.1245 2.70638 4.95578C8.35023 -0.206506 13.8017 5.58816 13.8017 5.58816L18.3745 10.9569Z" stroke="black" stroke-width="0.5" stroke-miterlimit="10"/>
</g>
<defs>
<clipPath id="clip0_46_1078">
<rect width="128" height="134" fill="white"/>
</clipPath>
</defs>
</svg>
