<svg width="147" height="151" viewBox="0 0 147 151" fill="none" xmlns="http://www.w3.org/2000/svg">
<path d="M87.1118 18.4802L97.8579 21.4891C101.583 48.1393 120.64 44.5573 121.356 28.7964C121.356 28.7964 130.121 32.0302 131.242 33.5247C133.821 36.9634 145.942 60.6047 145.942 60.6047L137.833 75.0761L132.446 66.7658L134.681 122.072L84.5328 102.299L85.8223 48.1393L80.9508 54.2928L70.9211 40.2589L87.1118 18.4802Z" fill="#614D00" stroke="black" stroke-width="0.4" stroke-linejoin="round"/>
<path d="M142.074 62.0375L133.965 76.5088L137.976 74.9327L146 60.3181L142.074 62.0375Z" fill="#614D00" stroke="black" stroke-width="0.4" stroke-linejoin="round"/>
<path d="M83.2432 20.0563L93.9892 23.0652L98.0011 21.4891L87.255 18.4802L83.2432 20.0563Z" fill="#B99300" stroke="black" stroke-width="0.4" stroke-linejoin="bevel"/>
<path d="M134.681 121.929L130.669 123.648L128.233 65.7629H132.389L134.681 121.929Z" fill="#B99300" stroke="black" stroke-width="0.4" stroke-linejoin="round"/>
<path d="M83.0999 20.1996L93.8459 23.2085C97.5712 49.8587 116.628 46.2767 117.344 30.5158C117.344 30.5158 126.371 33.668 127.66 34.9575C130.54 37.8374 141.93 62.3241 141.93 62.3241L133.821 76.7954L128.434 68.4852L130.669 123.791L80.5208 104.019L81.8104 49.8587L76.9388 56.0122L66.9092 41.9782L83.0999 20.1996Z" fill="#FFCB04"/>
<path d="M76.9388 56.0122L66.9092 41.9782L83.0999 20.1996L93.8459 23.2085C97.5712 49.8587 116.628 46.2767 117.344 30.5158C117.344 30.5158 126.371 33.668 127.66 34.9575C130.54 37.8374 141.93 62.3241 141.93 62.3241L133.821 76.7954L128.434 68.4852L130.669 123.791M76.9388 56.0122L81.8104 49.8587L80.5208 104.019L130.669 123.791M76.9388 56.0122L81.094 54.3004M130.669 123.791L134.681 122.072" stroke="black" stroke-width="0.4" stroke-linejoin="round"/>
<path d="M101.348 9.31028H98.7688C98.1957 4.0089 100.631 1 105.36 1C110.088 1 113.67 5.15514 114.1 9.8834C114.478 14.0385 111.521 17.334 109.515 18.4802L107.079 19.8228L118.347 30.086C117.63 30.3725 117.63 30.3725 117.344 30.5158C117.344 31.3755 117.201 32.0919 117.057 32.9516L104.5 21.2443L94.7571 26.7905C94.4705 25.9308 95.4735 23.6383 95.4735 23.0652C100.441 20.5339 105.876 17.5346 108.512 15.4713C111.148 13.4081 111.521 11.1729 111.378 10.3132C111.33 8.30731 110.174 4.20949 105.933 3.86561C101.692 3.52174 101.109 7.35211 101.348 9.31028Z" fill="#737373" stroke="black" stroke-width="0.4"/>
<path d="M100.007 10.17H97.4279C96.8548 4.86858 99.2906 1.85968 104.019 1.85968C108.747 1.85968 112.329 6.01482 112.759 10.7431C113.137 14.8982 110.18 18.1937 108.174 19.3399L105.738 20.6825L117.344 30.9457C117.201 32.3785 117.057 33.0949 116.771 34.2411L103.159 22.104L94.5624 27.0771C94.4191 26.2174 93.9893 24.6413 93.9893 23.9249C98.9563 21.3936 104.535 18.3943 107.171 16.331C109.807 14.2678 110.18 12.0326 110.037 11.1729C109.989 9.16699 108.833 5.06917 104.592 4.72529C100.351 4.38142 99.7682 8.21179 100.007 10.17Z" fill="#F4F4F4" stroke="black" stroke-width="0.4"/>
<path d="M101.296 9.31023L100.007 10.1699C99.6631 6.50193 101.726 5.01181 102.729 4.86853C101.296 6.01478 101.153 8.21175 101.296 9.31023Z" fill="#614D00" stroke="black" stroke-width="0.4" stroke-linejoin="bevel"/>
<path d="M80.6641 98.8606L80.8073 94.9921L130.239 113.762L130.382 117.917L80.6641 98.8606Z" fill="#F05A25" stroke="black" stroke-width="0.4" stroke-linejoin="bevel"/>
<path d="M121.213 28.7964L117.487 30.5158C120.926 31.8053 126.477 33.8288 127.517 34.8142C130.216 37.3709 137.42 52.7411 141.733 61.9409L141.845 62.1808L145.857 60.4615C141.129 51.4348 132.532 34.3844 130.669 32.9516C128.806 31.5188 124.221 29.9427 121.213 28.7964Z" fill="#B99300" stroke="black" stroke-width="0.4" stroke-linejoin="bevel"/>
<mask id="path-12-outside-1_46_1263" maskUnits="userSpaceOnUse" x="92.8444" y="60.8778" width="23.4923" height="22.5505" fill="black">
<rect fill="white" x="92.8444" y="60.8778" width="23.4923" height="22.5505"/>
<path d="M98.4825 64.8668C98.4825 64.5057 98.6522 64.3869 98.9915 64.5104L100.371 65.0127C100.711 65.1362 100.88 65.3785 100.88 65.7395V67.0876C100.88 67.4487 100.711 67.5675 100.371 67.444L98.9915 66.9418C98.6522 66.8183 98.4825 66.576 98.4825 66.2149V64.8668ZM107.961 68.3166C107.961 67.9555 108.13 67.8367 108.47 67.9602L109.849 68.4624C110.189 68.5859 110.358 68.8282 110.358 69.1893V70.5374C110.358 70.8985 110.189 71.0172 109.849 70.8937L108.47 70.3915C108.13 70.268 107.961 70.0257 107.961 69.6646V68.3166ZM93.981 68.8012C94.162 68.6183 94.3844 68.7073 94.6483 69.0681C95.3722 70.0538 96.5937 71.2246 98.3129 72.5805C100.025 73.9337 102.132 75.0659 104.635 75.977C107.139 76.8882 109.246 77.2901 110.958 77.1829C112.677 77.0785 113.899 76.7969 114.622 76.3381C114.886 76.1694 115.109 76.2423 115.29 76.557L115.595 77.0894C115.769 77.3932 115.693 77.6386 115.369 77.8255C114.034 78.6156 112.492 79.1095 110.743 79.3073C108.994 79.5052 106.958 79.1814 104.635 78.3361C102.313 77.4908 100.277 76.3326 98.5278 74.8614C96.7784 73.3901 95.2365 71.7737 93.9018 70.0121C93.5776 69.5892 93.5022 69.2889 93.6756 69.1113L93.981 68.8012Z"/>
</mask>
<path d="M98.4825 64.8668C98.4825 64.5057 98.6522 64.3869 98.9915 64.5104L100.371 65.0127C100.711 65.1362 100.88 65.3785 100.88 65.7395V67.0876C100.88 67.4487 100.711 67.5675 100.371 67.444L98.9915 66.9418C98.6522 66.8183 98.4825 66.576 98.4825 66.2149V64.8668ZM107.961 68.3166C107.961 67.9555 108.13 67.8367 108.47 67.9602L109.849 68.4624C110.189 68.5859 110.358 68.8282 110.358 69.1893V70.5374C110.358 70.8985 110.189 71.0172 109.849 70.8937L108.47 70.3915C108.13 70.268 107.961 70.0257 107.961 69.6646V68.3166ZM93.981 68.8012C94.162 68.6183 94.3844 68.7073 94.6483 69.0681C95.3722 70.0538 96.5937 71.2246 98.3129 72.5805C100.025 73.9337 102.132 75.0659 104.635 75.977C107.139 76.8882 109.246 77.2901 110.958 77.1829C112.677 77.0785 113.899 76.7969 114.622 76.3381C114.886 76.1694 115.109 76.2423 115.29 76.557L115.595 77.0894C115.769 77.3932 115.693 77.6386 115.369 77.8255C114.034 78.6156 112.492 79.1095 110.743 79.3073C108.994 79.5052 106.958 79.1814 104.635 78.3361C102.313 77.4908 100.277 76.3326 98.5278 74.8614C96.7784 73.3901 95.2365 71.7737 93.9018 70.0121C93.5776 69.5892 93.5022 69.2889 93.6756 69.1113L93.981 68.8012Z" fill="#F05A25"/>
<path d="M98.8584 65.0036C98.8584 64.8847 98.8861 64.8791 98.8756 64.8865C98.865 64.8939 98.8798 64.8698 98.9915 64.9104V64.1104C98.7639 64.0276 98.5242 64.0012 98.344 64.1273C98.1638 64.2535 98.1067 64.4878 98.1067 64.73L98.8584 65.0036ZM98.9915 64.9104L100.371 65.4127V64.6127L98.9915 64.1104V64.9104ZM100.371 65.4127C100.483 65.4533 100.498 65.4881 100.487 65.4731C100.477 65.4581 100.504 65.4839 100.504 65.6027L101.256 65.8764C101.256 65.6342 101.199 65.3582 101.019 65.1009C100.839 64.8436 100.599 64.6955 100.371 64.6127V65.4127ZM100.504 65.6027V66.9508L101.256 67.2244V65.8764L100.504 65.6027ZM100.504 66.9508C100.504 67.0697 100.477 67.0753 100.487 67.0679C100.498 67.0606 100.483 67.0847 100.371 67.044V67.844C100.599 67.9268 100.839 67.9533 101.019 67.8271C101.199 67.7009 101.256 67.4666 101.256 67.2244L100.504 66.9508ZM100.371 67.044L98.9915 66.5418V67.3418L100.371 67.844V67.044ZM98.9915 66.5418C98.8798 66.5011 98.865 66.4663 98.8756 66.4813C98.8861 66.4963 98.8584 66.4706 98.8584 66.3517L98.1067 66.0781C98.1067 66.3203 98.1638 66.5962 98.344 66.8535C98.5242 67.1108 98.7639 67.2589 98.9915 67.3418V66.5418ZM98.8584 66.3517V65.0036L98.1067 64.73V66.0781L98.8584 66.3517ZM108.337 68.4534C108.337 68.3345 108.364 68.3289 108.354 68.3362C108.343 68.3436 108.358 68.3195 108.47 68.3602V67.5602C108.242 67.4773 108.002 67.4509 107.822 67.5771C107.642 67.7032 107.585 67.9376 107.585 68.1798L108.337 68.4534ZM108.47 68.3602L109.849 68.8624V68.0624L108.47 67.5602V68.3602ZM109.849 68.8624C109.961 68.9031 109.976 68.9379 109.965 68.9229C109.955 68.9078 109.983 68.9336 109.983 69.0525L110.734 69.3261C110.734 69.0839 110.677 68.808 110.497 68.5507C110.317 68.2933 110.077 68.1453 109.849 68.0624V68.8624ZM109.983 69.0525V70.4006L110.734 70.6742V69.3261L109.983 69.0525ZM109.983 70.4006C109.983 70.5194 109.955 70.5251 109.965 70.5177C109.976 70.5103 109.961 70.5344 109.849 70.4937V71.2937C110.077 71.3766 110.317 71.403 110.497 71.2769C110.677 71.1507 110.734 70.9164 110.734 70.6742L109.983 70.4006ZM109.849 70.4937L108.47 69.9915V70.7915L109.849 71.2937V70.4937ZM108.47 69.9915C108.358 69.9509 108.343 69.916 108.354 69.9311C108.364 69.9461 108.337 69.9203 108.337 69.8014L107.585 69.5278C107.585 69.77 107.642 70.046 107.822 70.3033C108.002 70.5606 108.242 70.7087 108.47 70.7915V69.9915ZM108.337 69.8014V68.4534L107.585 68.1798V69.5278L108.337 69.8014ZM93.981 68.8012L93.6838 68.4481L93.6834 68.4485L93.981 68.8012ZM94.6483 69.0681L94.3905 69.2653L94.3912 69.2664L94.6483 69.0681ZM98.3129 72.5805L98.4527 72.2601L98.4522 72.2597L98.3129 72.5805ZM110.958 77.1829L110.819 76.7607L110.818 76.7607L110.958 77.1829ZM114.622 76.3381L114.88 76.7235L114.88 76.723L114.622 76.3381ZM115.29 76.557L115.587 76.421L115.587 76.4203L115.29 76.557ZM115.595 77.0894L115.893 76.9546L115.893 76.9534L115.595 77.0894ZM115.369 77.8255L115.12 77.4352L115.118 77.4365L115.369 77.8255ZM110.743 79.3073L110.589 78.8864L110.743 79.3073ZM98.5278 74.8614L98.6815 74.5523L98.5278 74.8614ZM93.9018 70.0121L94.153 69.806L94.1507 69.803L93.9018 70.0121ZM93.6756 69.1113L93.378 68.7587L93.3773 68.7594L93.6756 69.1113ZM94.2782 69.1542C94.3008 69.1314 94.3123 69.1299 94.3083 69.1308C94.3013 69.1324 94.2866 69.1322 94.2708 69.1259C94.2579 69.1207 94.2608 69.1181 94.2829 69.1385C94.3058 69.1597 94.3418 69.1988 94.3905 69.2653L94.9062 68.871C94.747 68.6533 94.5414 68.4337 94.2963 68.3356C94.0267 68.2278 93.8217 68.3088 93.6838 68.4481L94.2782 69.1542ZM94.3912 69.2664C95.1673 70.3231 96.4418 71.5355 98.1735 72.9013L98.4522 72.2597C96.7456 70.9137 95.577 69.7844 94.9054 68.8699L94.3912 69.2664ZM98.173 72.9009C99.9419 74.2994 102.1 75.4543 104.635 76.377V75.577C102.164 74.6775 100.107 73.568 98.4527 72.2601L98.173 72.9009ZM104.635 76.377C107.171 77.2998 109.329 77.7159 111.098 77.6051L110.818 76.7607C109.164 76.8644 107.107 76.4766 104.635 75.577V76.377ZM111.097 77.6051C112.829 77.4999 114.103 77.2153 114.88 76.7235L114.365 75.9528C113.694 76.3784 112.525 76.657 110.819 76.7607L111.097 77.6051ZM114.88 76.723C114.929 76.6919 114.965 76.6791 114.988 76.6745C115.01 76.6702 115.013 76.6749 115 76.6707C114.984 76.6655 114.97 76.6551 114.962 76.6483C114.959 76.6445 114.97 76.6543 114.993 76.6937L115.587 76.4203C115.449 76.1806 115.244 75.9503 114.975 75.8619C114.729 75.7815 114.524 75.8515 114.365 75.9533L114.88 76.723ZM114.992 76.693L115.298 77.2254L115.893 76.9534L115.587 76.421L114.992 76.693ZM115.297 77.2242C115.311 77.2489 115.311 77.2562 115.31 77.2519C115.309 77.2465 115.311 77.2472 115.308 77.2572C115.299 77.2862 115.259 77.3552 115.12 77.4352L115.618 78.2158C115.803 78.1089 115.963 77.9618 116.029 77.7454C116.103 77.5042 116.048 77.2245 115.893 76.9546L115.297 77.2242ZM115.118 77.4365C113.814 78.2083 112.305 78.6923 110.589 78.8864L110.897 79.7283C112.679 79.5268 114.255 79.0229 115.62 78.2145L115.118 77.4365ZM110.589 78.8864C108.897 79.0777 106.916 78.7661 104.635 77.9361V78.7361C107 79.5967 109.09 79.9326 110.897 79.7283L110.589 78.8864ZM104.635 77.9361C102.355 77.1061 100.373 75.9752 98.6815 74.5523L98.374 75.1704C100.181 76.69 102.271 77.8755 104.635 78.7361V77.9361ZM98.6815 74.5523C96.9653 73.109 95.4567 71.5268 94.153 69.806L93.6506 70.2183C95.0162 72.0207 96.5916 73.6713 98.374 75.1704L98.6815 74.5523ZM94.1507 69.803C94.0119 69.6219 93.9716 69.5236 93.9627 69.4881C93.9596 69.4758 93.9615 69.4765 93.9606 69.4812C93.9598 69.485 93.9598 69.4777 93.9739 69.4633L93.3773 68.7594C93.2233 68.9171 93.1674 69.1562 93.2415 69.4513C93.308 69.7161 93.4675 69.9794 93.6529 70.2212L94.1507 69.803ZM93.9732 69.464L94.2786 69.1538L93.6834 68.4485L93.378 68.7587L93.9732 69.464Z" fill="black" mask="url(#path-12-outside-1_46_1263)"/>
<path d="M54.1573 31.9486L64.9033 34.9575C68.6286 61.6077 87.6849 58.0257 88.4013 42.2648C88.4013 42.2648 97.1668 45.4986 98.2877 46.9931C100.867 50.4318 112.988 74.0731 112.988 74.0731L104.879 88.5445L99.4918 80.2342L101.726 135.54L51.5782 115.768L52.8677 61.6077L47.9962 67.7612L37.9666 53.7273L54.1573 31.9486Z" fill="#303030" stroke="black" stroke-width="0.4" stroke-linejoin="round"/>
<path d="M109.119 75.5059L101.01 89.9773L105.022 88.4012L113.046 73.7866L109.119 75.5059Z" fill="#303030" stroke="black" stroke-width="0.4" stroke-linejoin="round"/>
<path d="M50.2886 33.5247L61.0346 36.5336L65.0465 34.9575L54.3004 31.9486L50.2886 33.5247Z" fill="#CACACA" stroke="black" stroke-width="0.4" stroke-linejoin="bevel"/>
<path d="M101.726 135.397L97.7146 137.117L95.2788 79.2312H99.4339L101.726 135.397Z" fill="#CACACA" stroke="black" stroke-width="0.4" stroke-linejoin="round"/>
<path d="M50.1453 33.668L60.8913 36.6769C64.6166 63.3271 83.673 59.745 84.3894 43.9842C84.3894 43.9842 93.4161 47.1363 94.7056 48.4259C97.5855 51.3058 108.976 75.7925 108.976 75.7925L100.867 90.2638L95.4799 81.9535L97.7145 137.26L47.5662 117.487L48.8558 63.3271L43.9842 69.4806L33.9546 55.4466L50.1453 33.668Z" fill="#F4F4F4"/>
<path d="M43.9842 69.4806L33.9546 55.4466L50.1453 33.668L60.8913 36.6769C64.6166 63.3271 83.673 59.745 84.3894 43.9842C84.3894 43.9842 93.4161 47.1363 94.7056 48.4259C97.5855 51.3058 108.976 75.7925 108.976 75.7925L100.867 90.2638L95.4799 81.9535L97.7145 137.26M43.9842 69.4806L48.8558 63.3271L47.5662 117.487L97.7145 137.26M43.9842 69.4806L48.1394 67.7688M97.7145 137.26L101.726 135.54" stroke="black" stroke-width="0.4" stroke-linejoin="round"/>
<path d="M68.3935 22.7787H65.8145C65.2414 17.4773 67.6771 14.4684 72.4054 14.4684C77.1337 14.4684 80.7157 18.6235 81.1455 23.3518C81.5233 27.5069 78.5665 30.8024 76.5605 31.9486L74.1248 33.2912L85.3925 43.5543C84.6761 43.8409 84.6761 43.8409 84.3896 43.9842C84.3896 44.8439 84.2463 45.5603 84.103 46.42L71.5457 34.7127L61.8027 40.2589C61.5162 39.3992 62.5191 37.1067 62.5191 36.5336C67.4862 34.0023 72.9212 31.003 75.5576 28.9397C78.1939 26.8765 78.5665 24.6413 78.4232 23.7816C78.3754 21.7757 77.2196 17.6779 72.9785 17.334C68.7374 16.9901 68.1547 20.8205 68.3935 22.7787Z" fill="#6B1C00" stroke="black" stroke-width="0.4"/>
<path d="M67.0524 23.6383H64.4733C63.9002 18.337 66.336 15.3281 71.0642 15.3281C75.7925 15.3281 79.3745 19.4832 79.8043 24.2115C80.1821 28.3666 77.2253 31.6621 75.2194 32.8083L72.7836 34.1509L84.3894 44.414C84.2461 45.8468 84.1028 46.5632 83.8163 47.7095L70.2045 35.5724L61.6078 40.5455C61.4645 39.6858 61.0347 38.1097 61.0347 37.3933C66.0017 34.862 71.58 31.8626 74.2164 29.7994C76.8528 27.7362 77.2253 25.501 77.082 24.6413C77.0343 22.6354 75.8785 18.5376 71.6373 18.1937C67.3962 17.8498 66.8136 21.6802 67.0524 23.6383Z" fill="#F05A25" stroke="black" stroke-width="0.4"/>
<path d="M68.3419 22.7786L67.0524 23.6383C66.7085 19.9703 68.7717 18.4802 69.7747 18.3369C68.3419 19.4832 68.1986 21.6801 68.3419 22.7786Z" fill="#614D00" stroke="black" stroke-width="0.4" stroke-linejoin="bevel"/>
<path d="M47.7097 112.329L47.853 108.46L97.2848 127.23L97.4281 131.385L47.7097 112.329Z" fill="#FFCB04" stroke="black" stroke-width="0.4" stroke-linejoin="bevel"/>
<path d="M88.258 42.2648L84.5327 43.9842C87.9714 45.2737 93.5222 47.2972 94.5624 48.2826C97.2611 50.8393 104.466 66.2095 108.778 75.4093L108.89 75.6492L112.902 73.9299C108.174 64.9032 99.5772 47.8528 97.7145 46.42C95.8519 44.9872 91.2669 43.4111 88.258 42.2648Z" fill="#CACACA" stroke="black" stroke-width="0.4" stroke-linejoin="bevel"/>
<mask id="path-25-outside-2_46_1263" maskUnits="userSpaceOnUse" x="59.8898" y="74.3462" width="23.4923" height="22.5505" fill="black">
<rect fill="white" x="59.8898" y="74.3462" width="23.4923" height="22.5505"/>
<path d="M65.5279 78.3352C65.5279 77.9741 65.6976 77.8553 66.0369 77.9788L67.4168 78.481C67.7561 78.6045 67.9258 78.8468 67.9258 79.2079V80.556C67.9258 80.9171 67.7561 81.0359 67.4168 80.9124L66.0369 80.4101C65.6976 80.2866 65.5279 80.0444 65.5279 79.6833V78.3352ZM75.0061 81.785C75.0061 81.4239 75.1757 81.3051 75.515 81.4286L76.8949 81.9308C77.2342 82.0543 77.4039 82.2966 77.4039 82.6577V84.0057C77.4039 84.3668 77.2342 84.4856 76.8949 84.3621L75.515 83.8599C75.1757 83.7364 75.0061 83.4941 75.0061 83.133V81.785ZM61.0264 82.2696C61.2074 82.0867 61.4298 82.1757 61.6937 82.5365C62.4176 83.5222 63.6391 84.693 65.3583 86.0489C67.0699 87.4021 69.1774 88.5342 71.6808 89.4454C74.1842 90.3566 76.2917 90.7585 78.0033 90.6513C79.7225 90.5468 80.944 90.2652 81.6679 89.8065C81.9318 89.6378 82.1542 89.7107 82.3352 90.0253L82.6406 90.5578C82.814 90.8616 82.7386 91.107 82.4144 91.2939C81.0798 92.084 79.5378 92.5779 77.7884 92.7757C76.0391 92.9735 74.0032 92.6498 71.6808 91.8045C69.3584 90.9592 67.3225 89.801 65.5732 88.3297C63.8238 86.8585 62.2819 85.2421 60.9472 83.4805C60.623 83.0576 60.5476 82.7573 60.721 82.5797L61.0264 82.2696Z"/>
</mask>
<path d="M65.5279 78.3352C65.5279 77.9741 65.6976 77.8553 66.0369 77.9788L67.4168 78.481C67.7561 78.6045 67.9258 78.8468 67.9258 79.2079V80.556C67.9258 80.9171 67.7561 81.0359 67.4168 80.9124L66.0369 80.4101C65.6976 80.2866 65.5279 80.0444 65.5279 79.6833V78.3352ZM75.0061 81.785C75.0061 81.4239 75.1757 81.3051 75.515 81.4286L76.8949 81.9308C77.2342 82.0543 77.4039 82.2966 77.4039 82.6577V84.0057C77.4039 84.3668 77.2342 84.4856 76.8949 84.3621L75.515 83.8599C75.1757 83.7364 75.0061 83.4941 75.0061 83.133V81.785ZM61.0264 82.2696C61.2074 82.0867 61.4298 82.1757 61.6937 82.5365C62.4176 83.5222 63.6391 84.693 65.3583 86.0489C67.0699 87.4021 69.1774 88.5342 71.6808 89.4454C74.1842 90.3566 76.2917 90.7585 78.0033 90.6513C79.7225 90.5468 80.944 90.2652 81.6679 89.8065C81.9318 89.6378 82.1542 89.7107 82.3352 90.0253L82.6406 90.5578C82.814 90.8616 82.7386 91.107 82.4144 91.2939C81.0798 92.084 79.5378 92.5779 77.7884 92.7757C76.0391 92.9735 74.0032 92.6498 71.6808 91.8045C69.3584 90.9592 67.3225 89.801 65.5732 88.3297C63.8238 86.8585 62.2819 85.2421 60.9472 83.4805C60.623 83.0576 60.5476 82.7573 60.721 82.5797L61.0264 82.2696Z" fill="#FFCB04"/>
<path d="M65.9038 78.472C65.9038 78.3531 65.9315 78.3475 65.921 78.3549C65.9105 78.3622 65.9252 78.3382 66.0369 78.3788V77.5788C65.8093 77.496 65.5696 77.4695 65.3894 77.5957C65.2092 77.7219 65.1521 77.9562 65.1521 78.1984L65.9038 78.472ZM66.0369 78.3788L67.4168 78.881V78.081L66.0369 77.5788V78.3788ZM67.4168 78.881C67.5285 78.9217 67.5433 78.9565 67.5327 78.9415C67.5222 78.9265 67.5499 78.9522 67.5499 79.0711L68.3016 79.3447C68.3016 79.1025 68.2445 78.8266 68.0643 78.5693C67.8841 78.312 67.6444 78.1639 67.4168 78.081V78.881ZM67.5499 79.0711V80.4192L68.3016 80.6928V79.3447L67.5499 79.0711ZM67.5499 80.4192C67.5499 80.5381 67.5222 80.5437 67.5327 80.5363C67.5433 80.529 67.5285 80.553 67.4168 80.5124V81.3124C67.6444 81.3952 67.8841 81.4217 68.0643 81.2955C68.2445 81.1693 68.3016 80.935 68.3016 80.6928L67.5499 80.4192ZM67.4168 80.5124L66.0369 80.0101V80.8101L67.4168 81.3124V80.5124ZM66.0369 80.0101C65.9252 79.9695 65.9105 79.9347 65.921 79.9497C65.9315 79.9647 65.9038 79.939 65.9038 79.8201L65.1521 79.5465C65.1521 79.7887 65.2092 80.0646 65.3894 80.3219C65.5696 80.5792 65.8093 80.7273 66.0369 80.8101V80.0101ZM65.9038 79.8201V78.472L65.1521 78.1984V79.5465L65.9038 79.8201ZM75.3819 81.9218C75.3819 81.8029 75.4096 81.7973 75.3991 81.8046C75.3886 81.812 75.4033 81.7879 75.515 81.8286V81.0286C75.2874 80.9457 75.0477 80.9193 74.8675 81.0455C74.6873 81.1716 74.6302 81.4059 74.6302 81.6481L75.3819 81.9218ZM75.515 81.8286L76.8949 82.3308V81.5308L75.515 81.0286V81.8286ZM76.8949 82.3308C77.0066 82.3715 77.0214 82.4063 77.0108 82.3913C77.0003 82.3762 77.028 82.402 77.028 82.5209L77.7797 82.7945C77.7797 82.5523 77.7226 82.2764 77.5424 82.019C77.3622 81.7617 77.1225 81.6136 76.8949 81.5308V82.3308ZM77.028 82.5209V83.8689L77.7797 84.1426V82.7945L77.028 82.5209ZM77.028 83.8689C77.028 83.9878 77.0003 83.9934 77.0108 83.9861C77.0214 83.9787 77.0066 84.0028 76.8949 83.9621V84.7621C77.1225 84.845 77.3622 84.8714 77.5424 84.7452C77.7226 84.6191 77.7797 84.3848 77.7797 84.1426L77.028 83.8689ZM76.8949 83.9621L75.515 83.4599V84.2599L76.8949 84.7621V83.9621ZM75.515 83.4599C75.4033 83.4192 75.3886 83.3844 75.3991 83.3995C75.4096 83.4145 75.3819 83.3887 75.3819 83.2698L74.6302 82.9962C74.6302 83.2384 74.6873 83.5143 74.8675 83.7717C75.0477 84.029 75.2874 84.1771 75.515 84.2599V83.4599ZM75.3819 83.2698V81.9218L74.6302 81.6481V82.9962L75.3819 83.2698ZM61.0264 82.2696L60.7292 81.9165L60.7288 81.9169L61.0264 82.2696ZM61.6937 82.5365L61.4359 82.7337L61.4366 82.7348L61.6937 82.5365ZM65.3583 86.0489L65.4982 85.7285L65.4976 85.7281L65.3583 86.0489ZM78.0033 90.6513L77.864 90.2291L77.8635 90.2291L78.0033 90.6513ZM81.6679 89.8065L81.925 90.1919L81.9258 90.1914L81.6679 89.8065ZM82.3352 90.0253L82.6328 89.8893L82.6324 89.8887L82.3352 90.0253ZM82.6406 90.5578L82.9389 90.423L82.9382 90.4218L82.6406 90.5578ZM82.4144 91.2939L82.1655 90.9036L82.1632 90.9049L82.4144 91.2939ZM77.7884 92.7757L77.6347 92.3548L77.7884 92.7757ZM65.5732 88.3297L65.7269 88.0207L65.5732 88.3297ZM60.9472 83.4805L61.1984 83.2743L61.1961 83.2714L60.9472 83.4805ZM60.721 82.5797L60.4234 82.227L60.4227 82.2277L60.721 82.5797ZM61.3236 82.6226C61.3463 82.5998 61.3577 82.5983 61.3537 82.5992C61.3467 82.6008 61.332 82.6006 61.3162 82.5943C61.3033 82.5891 61.3062 82.5865 61.3283 82.6069C61.3512 82.6281 61.3872 82.6672 61.4359 82.7337L61.9516 82.3393C61.7924 82.1216 61.5868 81.9021 61.3417 81.804C61.0721 81.6962 60.8671 81.7772 60.7292 81.9165L61.3236 82.6226ZM61.4366 82.7348C62.2127 83.7915 63.4873 85.0039 65.219 86.3697L65.4976 85.7281C63.791 84.382 62.6224 83.2528 61.9508 82.3383L61.4366 82.7348ZM65.2184 86.3693C66.9874 87.7677 69.1456 88.9227 71.6808 89.8454V89.0454C69.2093 88.1458 67.1525 87.0364 65.4982 85.7285L65.2184 86.3693ZM71.6808 89.8454C74.216 90.7681 76.3743 91.1843 78.1432 91.0735L77.8635 90.2291C76.2091 90.3327 74.1523 89.945 71.6808 89.0454V89.8454ZM78.1427 91.0735C79.8744 90.9683 81.1489 90.6837 81.925 90.1919L81.4108 89.4211C80.7392 89.8468 79.5707 90.1254 77.864 90.2291L78.1427 91.0735ZM81.9258 90.1914C81.9744 90.1603 82.0104 90.1474 82.0333 90.1429C82.0555 90.1386 82.0583 90.1433 82.0454 90.1391C82.0296 90.1339 82.0149 90.1234 82.0079 90.1167C82.0039 90.1129 82.0154 90.1227 82.038 90.162L82.6324 89.8887C82.4945 89.6489 82.2895 89.4187 82.0199 89.3303C81.7748 89.2499 81.5693 89.3198 81.41 89.4216L81.9258 90.1914ZM82.0376 90.1613L82.343 90.6938L82.9382 90.4218L82.6328 89.8893L82.0376 90.1613ZM82.3423 90.6926C82.3564 90.7173 82.3564 90.7246 82.3556 90.7202C82.3547 90.7148 82.3566 90.7156 82.3535 90.7256C82.3446 90.7546 82.3043 90.8236 82.1655 90.9036L82.6633 91.6842C82.8487 91.5773 83.0082 91.4302 83.0747 91.2138C83.1488 90.9726 83.0929 90.6928 82.9389 90.423L82.3423 90.6926ZM82.1632 90.9049C80.8595 91.6767 79.3509 92.1607 77.6347 92.3548L77.9422 93.1967C79.7246 92.9951 81.3 92.4913 82.6656 91.6829L82.1632 90.9049ZM77.6347 92.3548C75.9428 92.5461 73.9612 92.2345 71.6808 91.4045V92.2045C74.0452 93.0651 76.1354 93.401 77.9422 93.1967L77.6347 92.3548ZM71.6808 91.4045C69.4004 90.5745 67.4188 89.4436 65.7269 88.0207L65.4194 88.6388C67.2262 90.1583 69.3164 91.3439 71.6808 92.2045V91.4045ZM65.7269 88.0207C64.0107 86.5773 62.5021 84.9951 61.1984 83.2743L60.696 83.6866C62.0616 85.4891 63.637 87.1397 65.4194 88.6388L65.7269 88.0207ZM61.1961 83.2714C61.0573 83.0903 61.017 82.992 61.0081 82.9565C61.005 82.9442 61.0069 82.9449 61.006 82.9496C61.0052 82.9534 61.0052 82.9461 61.0193 82.9316L60.4227 82.2277C60.2687 82.3855 60.2128 82.6246 60.2869 82.9197C60.3534 83.1845 60.5129 83.4477 60.6983 83.6896L61.1961 83.2714ZM61.0186 82.9323L61.324 82.6222L60.7288 81.9169L60.4234 82.227L61.0186 82.9323Z" fill="black" mask="url(#path-25-outside-2_46_1263)"/>
<path d="M21.2027 45.4169L31.9487 48.4258C35.674 75.076 54.7303 71.494 55.4467 55.7331C55.4467 55.7331 64.2122 58.9669 65.3331 60.4614C67.9122 63.9001 80.0331 87.5414 80.0331 87.5414L71.924 102.013L66.5372 93.7025L68.7718 149.009L18.6236 129.236L19.9131 75.076L15.0416 81.2295L5.01196 67.1956L21.2027 45.4169Z" fill="#6B1C00" stroke="black" stroke-width="0.4" stroke-linejoin="round"/>
<path d="M76.1645 88.9743L68.0554 103.446L72.0673 101.87L80.091 87.2549L76.1645 88.9743Z" fill="#6B1C00" stroke="black" stroke-width="0.4" stroke-linejoin="round"/>
<path d="M17.334 46.993L28.08 50.0019L32.0919 48.4258L21.3459 45.4169L17.334 46.993Z" fill="#E73C00" stroke="black" stroke-width="0.4" stroke-linejoin="bevel"/>
<path d="M68.7718 148.866L64.76 150.585L62.3242 92.6996H66.4794L68.7718 148.866Z" fill="#E73C00" stroke="black" stroke-width="0.4" stroke-linejoin="round"/>
<path d="M17.1907 47.1364L27.9367 50.1452C31.662 76.7954 50.7184 73.2134 51.4348 57.4526C51.4348 57.4526 60.4615 60.6047 61.751 61.8943C64.6309 64.7742 76.0212 89.2609 76.0212 89.2609L67.9121 103.732L62.5253 95.4219L64.7599 150.728L14.6116 130.956L15.9012 76.7954L11.0296 82.949L1 68.915L17.1907 47.1364Z" fill="#F05A25"/>
<path d="M11.0296 82.949L1 68.915L17.1907 47.1364L27.9367 50.1452C31.662 76.7954 50.7184 73.2134 51.4348 57.4526C51.4348 57.4526 60.4615 60.6047 61.751 61.8943C64.6309 64.7742 76.0212 89.2609 76.0212 89.2609L67.9121 103.732L62.5253 95.4219L64.7599 150.728M11.0296 82.949L15.9012 76.7954L14.6116 130.956L64.7599 150.728M11.0296 82.949L15.1848 81.2371M64.7599 150.728L68.7717 149.009" stroke="black" stroke-width="0.4" stroke-linejoin="round"/>
<path d="M35.439 36.247H32.8599C32.2868 30.9457 34.7226 27.9368 39.4508 27.9368C44.1791 27.9368 47.7611 32.0919 48.1909 36.8202C48.5687 40.9753 45.6119 44.2708 43.606 45.417L41.1702 46.7596L52.4379 57.0227C51.7215 57.3093 51.7215 57.3093 51.435 57.4526C51.435 58.3123 51.2917 59.0287 51.1484 59.8883L38.5911 48.1811L28.8481 53.7273C28.5616 52.8676 29.5645 50.5751 29.5645 50.002C34.5316 47.4707 39.9666 44.4714 42.603 42.4081C45.2394 40.3449 45.6119 38.1097 45.4686 37.25C45.4208 35.2441 44.265 31.1463 40.0239 30.8024C35.7828 30.4585 35.2002 34.2889 35.439 36.247Z" fill="#614D00" stroke="black" stroke-width="0.4"/>
<path d="M34.0978 37.1067H31.5187C30.9456 31.8053 33.3814 28.7964 38.1096 28.7964C42.8379 28.7964 46.4199 32.9515 46.8498 37.6798C47.2275 41.8349 44.2707 45.1304 42.2648 46.2766L39.829 47.6192L51.4348 57.8824C51.2915 59.3152 51.1483 60.0316 50.8617 61.1778L37.2499 49.0407L28.6532 54.0138C28.5099 53.1541 28.0801 51.578 28.0801 50.8616C33.0471 48.3303 38.6254 45.331 41.2618 43.2677C43.8982 41.2045 44.2707 38.9693 44.1274 38.1096C44.0797 36.1037 42.9239 32.0059 38.6828 31.662C34.4416 31.3181 33.859 35.1485 34.0978 37.1067Z" fill="#FFCB04" stroke="black" stroke-width="0.4"/>
<path d="M35.3873 36.247L34.0978 37.1067C33.7539 33.4387 35.8171 31.9486 36.8201 31.8053C35.3873 32.9515 35.244 35.1485 35.3873 36.247Z" fill="#614D00" stroke="black" stroke-width="0.4" stroke-linejoin="bevel"/>
<path d="M14.7549 125.797L14.8982 121.929L64.33 140.699L64.4733 144.854L14.7549 125.797Z" fill="#FFCB04" stroke="black" stroke-width="0.4" stroke-linejoin="bevel"/>
<path d="M55.3032 55.7332L51.5779 57.4526C55.0166 58.7421 60.5674 60.7656 61.6075 61.751C64.3063 64.3077 71.5108 79.6778 75.8231 88.8777L75.9356 89.1176L79.9474 87.3982C75.2192 78.3716 66.6223 61.3212 64.7597 59.8884C62.897 58.4555 58.3121 56.8795 55.3032 55.7332Z" fill="#E73C00" stroke="black" stroke-width="0.4" stroke-linejoin="bevel"/>
<mask id="path-38-outside-3_46_1263" maskUnits="userSpaceOnUse" x="26.9352" y="87.8146" width="23.4923" height="22.5505" fill="black">
<rect fill="white" x="26.9352" y="87.8146" width="23.4923" height="22.5505"/>
<path d="M32.5734 91.8035C32.5734 91.4424 32.743 91.3236 33.0823 91.4471L34.4622 91.9494C34.8015 92.0729 34.9712 92.3152 34.9712 92.6763V94.0243C34.9712 94.3854 34.8015 94.5042 34.4622 94.3807L33.0823 93.8785C32.743 93.755 32.5734 93.5127 32.5734 93.1516V91.8035ZM42.0515 95.2533C42.0515 94.8922 42.2211 94.7734 42.5604 94.8969L43.9403 95.3991C44.2796 95.5226 44.4493 95.7649 44.4493 96.126V97.4741C44.4493 97.8352 44.2796 97.954 43.9403 97.8305L42.5604 97.3282C42.2211 97.2047 42.0515 96.9624 42.0515 96.6013V95.2533ZM28.0718 95.7379C28.2528 95.555 28.4752 95.644 28.7391 96.0049C29.463 96.9905 30.6845 98.1613 32.4037 99.5172C34.1153 100.87 36.2228 102.003 38.7262 102.914C41.2296 103.825 43.3371 104.227 45.0487 104.12C46.7679 104.015 47.9894 103.734 48.7133 103.275C48.9772 103.106 49.1997 103.179 49.3806 103.494L49.686 104.026C49.8594 104.33 49.784 104.575 49.4598 104.762C48.1252 105.552 46.5832 106.046 44.8338 106.244C43.0845 106.442 41.0486 106.118 38.7262 105.273C36.4038 104.428 34.3679 103.269 32.6186 101.798C30.8693 100.327 29.3273 98.7104 27.9926 96.9488C27.6684 96.5259 27.593 96.2256 27.7664 96.048L28.0718 95.7379Z"/>
</mask>
<path d="M32.5734 91.8035C32.5734 91.4424 32.743 91.3236 33.0823 91.4471L34.4622 91.9494C34.8015 92.0729 34.9712 92.3152 34.9712 92.6763V94.0243C34.9712 94.3854 34.8015 94.5042 34.4622 94.3807L33.0823 93.8785C32.743 93.755 32.5734 93.5127 32.5734 93.1516V91.8035ZM42.0515 95.2533C42.0515 94.8922 42.2211 94.7734 42.5604 94.8969L43.9403 95.3991C44.2796 95.5226 44.4493 95.7649 44.4493 96.126V97.4741C44.4493 97.8352 44.2796 97.954 43.9403 97.8305L42.5604 97.3282C42.2211 97.2047 42.0515 96.9624 42.0515 96.6013V95.2533ZM28.0718 95.7379C28.2528 95.555 28.4752 95.644 28.7391 96.0049C29.463 96.9905 30.6845 98.1613 32.4037 99.5172C34.1153 100.87 36.2228 102.003 38.7262 102.914C41.2296 103.825 43.3371 104.227 45.0487 104.12C46.7679 104.015 47.9894 103.734 48.7133 103.275C48.9772 103.106 49.1997 103.179 49.3806 103.494L49.686 104.026C49.8594 104.33 49.784 104.575 49.4598 104.762C48.1252 105.552 46.5832 106.046 44.8338 106.244C43.0845 106.442 41.0486 106.118 38.7262 105.273C36.4038 104.428 34.3679 103.269 32.6186 101.798C30.8693 100.327 29.3273 98.7104 27.9926 96.9488C27.6684 96.5259 27.593 96.2256 27.7664 96.048L28.0718 95.7379Z" fill="#FFCB04"/>
<path d="M32.9492 91.9403C32.9492 91.8214 32.9769 91.8158 32.9664 91.8232C32.9559 91.8306 32.9706 91.8065 33.0823 91.8471V91.0471C32.8547 90.9643 32.615 90.9379 32.4348 91.064C32.2546 91.1902 32.1975 91.4245 32.1975 91.6667L32.9492 91.9403ZM33.0823 91.8471L34.4622 92.3494V91.5494L33.0823 91.0471V91.8471ZM34.4622 92.3494C34.5739 92.39 34.5887 92.4249 34.5781 92.4098C34.5676 92.3948 34.5953 92.4206 34.5953 92.5394L35.347 92.8131C35.347 92.5709 35.2899 92.2949 35.1097 92.0376C34.9295 91.7803 34.6898 91.6322 34.4622 91.5494V92.3494ZM34.5953 92.5394V93.8875L35.347 94.1611V92.8131L34.5953 92.5394ZM34.5953 93.8875C34.5953 94.0064 34.5676 94.012 34.5781 94.0046C34.5887 93.9973 34.5739 94.0214 34.4622 93.9807V94.7807C34.6898 94.8635 34.9295 94.89 35.1097 94.7638C35.2899 94.6376 35.347 94.4033 35.347 94.1611L34.5953 93.8875ZM34.4622 93.9807L33.0823 93.4785V94.2785L34.4622 94.7807V93.9807ZM33.0823 93.4785C32.9706 93.4378 32.9559 93.403 32.9664 93.418C32.9769 93.4331 32.9492 93.4073 32.9492 93.2884L32.1975 93.0148C32.1975 93.257 32.2546 93.5329 32.4348 93.7902C32.615 94.0476 32.8547 94.1956 33.0823 94.2785V93.4785ZM32.9492 93.2884V91.9403L32.1975 91.6667V93.0148L32.9492 93.2884ZM42.4274 95.3901C42.4274 95.2712 42.455 95.2656 42.4445 95.2729C42.434 95.2803 42.4487 95.2562 42.5604 95.2969V94.4969C42.3328 94.4141 42.0931 94.3876 41.9129 94.5138C41.7328 94.6399 41.6756 94.8743 41.6756 95.1165L42.4274 95.3901ZM42.5604 95.2969L43.9403 95.7991V94.9991L42.5604 94.4969V95.2969ZM43.9403 95.7991C44.052 95.8398 44.0668 95.8746 44.0563 95.8596C44.0457 95.8445 44.0734 95.8703 44.0734 95.9892L44.8252 96.2628C44.8252 96.0206 44.768 95.7447 44.5878 95.4874C44.4076 95.23 44.1679 95.082 43.9403 94.9991V95.7991ZM44.0734 95.9892V97.3373L44.8252 97.6109V96.2628L44.0734 95.9892ZM44.0734 97.3373C44.0734 97.4561 44.0457 97.4618 44.0563 97.4544C44.0668 97.447 44.052 97.4711 43.9403 97.4305V98.2305C44.1679 98.3133 44.4076 98.3397 44.5878 98.2136C44.768 98.0874 44.8252 97.8531 44.8252 97.6109L44.0734 97.3373ZM43.9403 97.4305L42.5604 96.9282V97.7282L43.9403 98.2305V97.4305ZM42.5604 96.9282C42.4487 96.8876 42.434 96.8527 42.4445 96.8678C42.455 96.8828 42.4274 96.857 42.4274 96.7381L41.6756 96.4645C41.6756 96.7067 41.7328 96.9827 41.9129 97.24C42.0931 97.4973 42.3328 97.6454 42.5604 97.7282V96.9282ZM42.4274 96.7381V95.3901L41.6756 95.1165V96.4645L42.4274 96.7381ZM28.0718 95.7379L27.7746 95.3848L27.7742 95.3853L28.0718 95.7379ZM28.7391 96.0049L28.4813 96.202L28.4821 96.2031L28.7391 96.0049ZM32.4037 99.5172L32.5436 99.1968L32.543 99.1964L32.4037 99.5172ZM45.0487 104.12L44.9094 103.697L44.9089 103.697L45.0487 104.12ZM48.7133 103.275L48.9704 103.66L48.9712 103.66L48.7133 103.275ZM49.3806 103.494L49.6782 103.358L49.6778 103.357L49.3806 103.494ZM49.686 104.026L49.9843 103.891L49.9836 103.89L49.686 104.026ZM49.4598 104.762L49.2109 104.372L49.2086 104.373L49.4598 104.762ZM44.8338 106.244L44.6801 105.823L44.8338 106.244ZM32.6186 101.798L32.7724 101.489L32.6186 101.798ZM27.9926 96.9488L28.2438 96.7427L28.2415 96.7397L27.9926 96.9488ZM27.7664 96.048L27.4688 95.6954L27.4681 95.6961L27.7664 96.048ZM28.369 96.0909C28.3917 96.0681 28.4031 96.0666 28.3992 96.0675C28.3921 96.0692 28.3774 96.0689 28.3616 96.0626C28.3488 96.0575 28.3516 96.0548 28.3737 96.0752C28.3966 96.0964 28.4326 96.1355 28.4813 96.202L28.997 95.8077C28.8378 95.59 28.6322 95.3704 28.3871 95.2723C28.1176 95.1645 27.9125 95.2455 27.7746 95.3848L28.369 96.0909ZM28.4821 96.2031C29.2581 97.2599 30.5327 98.4722 32.2644 99.838L32.543 99.1964C30.8364 97.8504 29.6678 96.7211 28.9962 95.8066L28.4821 96.2031ZM32.2638 99.8376C34.0328 101.236 36.191 102.391 38.7262 103.314V102.514C36.2547 101.614 34.1979 100.505 32.5436 99.1968L32.2638 99.8376ZM38.7262 103.314C41.2614 104.236 43.4197 104.653 45.1886 104.542L44.9089 103.697C43.2545 103.801 41.1977 103.413 38.7262 102.514V103.314ZM45.1881 104.542C46.9198 104.437 48.1943 104.152 48.9704 103.66L48.4562 102.889C47.7846 103.315 46.6161 103.594 44.9094 103.697L45.1881 104.542ZM48.9712 103.66C49.0198 103.629 49.0558 103.616 49.0787 103.611C49.1009 103.607 49.1037 103.612 49.0908 103.607C49.075 103.602 49.0603 103.592 49.0533 103.585C49.0493 103.581 49.0608 103.591 49.0834 103.63L49.6778 103.357C49.54 103.117 49.3349 102.887 49.0653 102.799C48.8202 102.718 48.6147 102.788 48.4554 102.89L48.9712 103.66ZM49.083 103.63L49.3884 104.162L49.9836 103.89L49.6782 103.358L49.083 103.63ZM49.3877 104.161C49.4018 104.186 49.4018 104.193 49.4011 104.189C49.4001 104.183 49.402 104.184 49.3989 104.194C49.39 104.223 49.3497 104.292 49.2109 104.372L49.7087 105.153C49.8941 105.046 50.0536 104.898 50.1201 104.682C50.1942 104.441 50.1383 104.161 49.9843 103.891L49.3877 104.161ZM49.2086 104.373C47.9049 105.145 46.3963 105.629 44.6801 105.823L44.9876 106.665C46.7701 106.463 48.3454 105.96 49.711 105.151L49.2086 104.373ZM44.6801 105.823C42.9882 106.014 41.0066 105.703 38.7262 104.873V105.673C41.0906 106.533 43.1808 106.869 44.9876 106.665L44.6801 105.823ZM38.7262 104.873C36.4458 104.043 34.4642 102.912 32.7724 101.489L32.4648 102.107C34.2717 103.627 36.3618 104.812 38.7262 105.673V104.873ZM32.7724 101.489C31.0561 100.046 29.5475 98.4635 28.2438 96.7427L27.7415 97.155C29.107 98.9574 30.6824 100.608 32.4648 102.107L32.7724 101.489ZM28.2415 96.7397C28.1028 96.5586 28.0624 96.4603 28.0535 96.4248C28.0504 96.4125 28.0523 96.4132 28.0514 96.4179C28.0506 96.4217 28.0506 96.4144 28.0647 96.4L27.4681 95.6961C27.3141 95.8538 27.2582 96.0929 27.3323 96.388C27.3988 96.6528 27.5583 96.9161 27.7437 97.158L28.2415 96.7397ZM28.064 96.4007L28.3694 96.0905L27.7742 95.3853L27.4688 95.6954L28.064 96.4007Z" fill="black" mask="url(#path-38-outside-3_46_1263)"/>
</svg>
