<svg width="185" height="105" viewBox="0 0 185 105" fill="none" xmlns="http://www.w3.org/2000/svg">
<path d="M30.9695 35.3676L30.9695 67.0212L36.5554 67.0212L36.7106 36.1434C36.8659 34.1264 36.8659 34.1264 39.1934 32.1093C49.8063 22.9114 42.4237 5.47616 33.2972 5.73125C22.455 6.35388 20.8839 26.213 28.9524 31.7988C30.1426 32.6228 30.8143 34.4883 30.9695 35.3676Z" fill="#BFBFBF" stroke="black" stroke-width="0.438873"/>
<path d="M30.4935 64.5504C28.0109 64.7986 27.7006 66.8261 27.8557 67.8088L27.8557 96.9799C30.6486 104.428 39.493 101.48 39.8034 96.5144C39.7517 87.3596 39.6482 68.6157 39.6482 66.8778C39.6482 65.14 38.0966 64.6021 37.3208 64.5503C36.0795 64.4469 32.9762 64.3021 30.4935 64.5504Z" fill="#F05A25" stroke="black" stroke-width="0.438873"/>
<path d="M152.956 34.3846L152.801 67.1245L147.37 66.9694L147.37 34.6951C144.018 34.5709 142.663 32.5745 142.405 31.5917C142.146 30.609 142.405 26.0058 142.405 26.0058L143.801 25.8506L143.801 6.29982C145.042 4.74818 146.439 5.83434 146.594 6.61015L146.594 25.8506L148.766 25.8506L148.766 6.29982C149.852 4.90334 151.249 5.67917 151.559 6.61015L151.404 26.0058H153.576L153.732 6.61008C154.507 5.21367 156.369 5.8343 156.525 6.61008L156.369 26.0058L157.921 26.0057C158.076 27.4023 158.387 28.9539 157.611 31.5917C156.95 33.8375 154.197 34.3846 152.956 34.3846Z" fill="#F0F0F0" stroke="black" stroke-width="0.438873"/>
<path d="M153.422 64.3321C155.905 64.5804 156.215 66.6079 156.06 67.5906L156.06 96.7616C153.267 104.21 144.422 101.261 144.112 96.2961C144.164 87.1414 144.267 68.3974 144.267 66.6596C144.267 64.9217 145.819 64.3838 146.595 64.3321C147.836 64.2286 150.939 64.0838 153.422 64.3321Z" fill="#F05A25" stroke="black" stroke-width="0.438873"/>
<circle cx="91.6411" cy="50.6245" r="44.5456" fill="#8FC94C" stroke="black" stroke-width="0.438873"/>
<path d="M91.4219 17.9287C109.602 17.9287 124.338 32.5681 124.338 50.624C124.338 68.6802 109.602 83.3203 91.4219 83.3203C73.2418 83.3202 58.5068 68.6801 58.5068 50.624C58.5071 32.5681 73.242 17.9288 91.4219 17.9287Z" fill="white" stroke="black" stroke-width="0.438873"/>
<path d="M69.8468 53.2578L76.9462 46.2094L87.536 56.7161L107.81 36.5718L114.91 44.2608L86.8906 70.8127L69.8468 53.2578Z" fill="#8FC94C" stroke="black" stroke-width="0.438873"/>
</svg>
